<?xml version="1.0" encoding="utf-8"?>
<!DOCTYPE svg PUBLIC "-//W3C//DTD SVG 1.1//EN" "http://www.w3.org/Graphics/SVG/1.1/DTD/svg11.dtd">
<svg version="1.1" id="Layer_1" xmlns="http://www.w3.org/2000/svg" xmlns:xlink="http://www.w3.org/1999/xlink" x="0px" y="0px" width="100%" height="30%" viewBox="0 0 85 12" xml:space="preserve">
	<defs>
  		<style type="text/css">
   			<![CDATA[
   				@media screen and (-webkit-min-device-pixel-ratio:0) { 
 					#Layer_1 {
 						height:100%;				
 					} 
				}
   			]]>
 		</style>
	</defs>		
	<g opacity="0.8">
		<g>
			<g>
				<g>
					<path fill="none" stroke="#A7A9AC" stroke-width="0.125" stroke-linecap="round" d="M74.784,6.418
						c0.397-0.432,1.478-0.632,2.409-0.448c0.746,0.148,1.092,0.549,0.771,0.895C77.71,7.141,77.02,7.27,76.422,7.15
						C75.945,7.057,75.725,6.8,75.93,6.579c0.162-0.176,0.604-0.259,0.985-0.183c0.308,0.061,0.448,0.224,0.317,0.366
						c-0.104,0.113-0.39,0.166-0.633,0.117"/>
				</g>
				<g>
					<path fill="none" stroke="#000000" stroke-width="0.25" stroke-linecap="round" d="M40.05,7.357
						c1.339,0.266,1.96,0.984,1.387,1.606c-0.459,0.497-1.7,0.728-2.772,0.515c-0.857-0.17-1.254-0.631-0.887-1.029
						c0.293-0.317,1.087-0.465,1.773-0.329c0.548,0.108,0.804,0.403,0.567,0.657c-0.187,0.205-0.695,0.299-1.135,0.211
						c-0.351-0.069-0.514-0.258-0.363-0.42"/>
					<path fill="none" stroke="#000000" stroke-width="0.25" stroke-linecap="round" d="M41.579,7.063
						c1.353-0.25,2.889,0.055,3.431,0.683c0.434,0.501-0.093,1.071-1.176,1.272c-0.865,0.16-1.849-0.035-2.195-0.438
						c-0.277-0.321,0.059-0.686,0.752-0.814c0.553-0.103,1.184,0.022,1.404,0.279c0.18,0.206-0.037,0.439-0.48,0.521
						c-0.354,0.065-0.757-0.014-0.898-0.178"/>
					<path fill="none" stroke="#000000" stroke-width="0.25" stroke-linecap="round" d="M42.213,6.354
						c0.573-0.621,2.125-0.909,3.465-0.642c1.071,0.212,1.567,0.788,1.108,1.285c-0.366,0.397-1.358,0.582-2.218,0.411
						c-0.686-0.135-1.004-0.504-0.709-0.822c0.233-0.254,0.871-0.373,1.418-0.263c0.439,0.087,0.644,0.322,0.455,0.527
						c-0.149,0.162-0.559,0.237-0.908,0.168"/>
					<g>
						<path fill="none" stroke="#000000" stroke-width="0.25" stroke-linecap="round" d="M33.126,6.354
							c-0.573-0.621-2.125-0.909-3.464-0.642C28.59,5.924,28.094,6.5,28.553,6.997c0.367,0.397,1.359,0.582,2.218,0.411
							c0.685-0.135,1.003-0.504,0.709-0.822c-0.234-0.254-0.871-0.373-1.419-0.263c-0.44,0.087-0.644,0.322-0.456,0.527
							c0.15,0.162,0.559,0.237,0.909,0.168"/>
						<path fill="none" stroke="#66686A" stroke-width="0.2292" stroke-linecap="round" d="M28.492,6.365
							c-0.544-0.589-2.017-0.863-3.289-0.61c-0.983,0.194-1.456,0.711-1.094,1.173l0.048,0.055c0.324,0.346,1.153,0.518,1.916,0.412
							c0.066-0.011,0.135-0.022,0.209-0.035c0.593-0.125,0.887-0.437,0.69-0.721c-0.015-0.021-0.032-0.041-0.052-0.062
							c-0.219-0.225-0.773-0.336-1.271-0.254l-0.076,0.014c-0.4,0.083-0.592,0.296-0.434,0.485l0.013,0.015
							c0.143,0.154,0.53,0.224,0.861,0.158"/>
						<path fill="none" stroke="#747578" stroke-width="0.2083" stroke-linecap="round" d="M24.054,6.375
							c-0.515-0.558-1.909-0.816-3.113-0.577c-0.935,0.185-1.383,0.678-1.029,1.116l0.048,0.055c0.318,0.324,1.109,0.483,1.832,0.377
							c0.063-0.011,0.128-0.023,0.198-0.035c0.547-0.125,0.813-0.416,0.62-0.684c-0.015-0.021-0.032-0.04-0.052-0.059
							c-0.216-0.208-0.736-0.31-1.204-0.23L21.28,6.352c-0.373,0.08-0.545,0.28-0.398,0.458l0.013,0.014
							c0.142,0.143,0.501,0.209,0.813,0.146"/>
						<path fill="none" stroke="#808285" stroke-width="0.1875" stroke-linecap="round" d="M19.853,6.386
							c-0.486-0.526-1.801-0.771-2.937-0.545c-0.888,0.176-1.308,0.646-0.965,1.062l0.047,0.051c0.31,0.304,1.065,0.451,1.749,0.344
							c0.06-0.012,0.122-0.023,0.187-0.038c0.502-0.122,0.739-0.396,0.549-0.646c-0.015-0.02-0.033-0.037-0.052-0.055
							c-0.209-0.192-0.699-0.284-1.136-0.208l-0.07,0.014c-0.346,0.077-0.506,0.266-0.363,0.432l0.013,0.014
							c0.131,0.135,0.472,0.195,0.765,0.137"/>
						<path fill="none" stroke="#8D8F92" stroke-width="0.1667" stroke-linecap="round" d="M15.89,6.397
							c-0.456-0.495-1.693-0.725-2.761-0.513c-0.84,0.167-1.237,0.613-0.9,1.005l0.046,0.049c0.299,0.285,1.021,0.42,1.665,0.311
							c0.056-0.012,0.115-0.025,0.177-0.038c0.456-0.12,0.665-0.376,0.479-0.608c-0.015-0.018-0.033-0.035-0.053-0.053
							c-0.204-0.175-0.662-0.256-1.069-0.183L13.408,6.38c-0.318,0.075-0.465,0.251-0.328,0.405l0.013,0.013
							c0.127,0.124,0.443,0.181,0.716,0.126"/>
						<path fill="none" stroke="#9A9C9E" stroke-width="0.1458" stroke-linecap="round" d="M12.164,6.407
							c-0.428-0.463-1.586-0.678-2.586-0.479c-0.793,0.157-1.166,0.581-0.835,0.95l0.046,0.046C9.081,7.189,9.766,7.311,10.37,7.2
							c0.059-0.011,0.114-0.022,0.167-0.038c0.411-0.117,0.591-0.357,0.408-0.57c-0.015-0.018-0.033-0.033-0.053-0.05
							c-0.198-0.16-0.625-0.23-1.001-0.159L9.827,6.395C9.536,6.466,9.408,6.63,9.534,6.773l0.012,0.013
							C9.664,6.9,9.96,6.953,10.215,6.902"/>
						<path fill="none" stroke="#A7A9AC" stroke-width="0.125" stroke-linecap="round" d="M8.652,6.418
							C8.254,5.986,7.174,5.786,6.243,5.97C5.497,6.119,5.151,6.52,5.471,6.865C5.726,7.141,6.417,7.27,7.014,7.15
							C7.49,7.057,7.712,6.8,7.507,6.579c-0.162-0.177-0.605-0.26-0.986-0.183C6.215,6.456,6.073,6.62,6.204,6.762
							c0.105,0.113,0.389,0.166,0.632,0.117"/>
					</g>
					<g>
						<path fill="none" stroke="#000000" stroke-width="0.25" stroke-linecap="round" d="M46.975,6.354
							c0.572-0.621,2.125-0.909,3.465-0.642c1.072,0.212,1.567,0.788,1.108,1.285c-0.366,0.397-1.358,0.582-2.219,0.411
							c-0.685-0.135-1.003-0.504-0.709-0.822c0.233-0.254,0.871-0.373,1.419-0.263c0.439,0.087,0.645,0.322,0.456,0.527
							c-0.151,0.162-0.56,0.237-0.91,0.168"/>
						<path fill="none" stroke="#66686A" stroke-width="0.2292" stroke-linecap="round" d="M51.607,6.365
							c0.545-0.589,2.019-0.863,3.289-0.61c0.983,0.194,1.457,0.711,1.095,1.173l-0.048,0.055C55.618,7.327,54.79,7.5,54.027,7.395
							c-0.066-0.011-0.135-0.022-0.209-0.035c-0.594-0.125-0.887-0.437-0.689-0.721c0.016-0.021,0.031-0.041,0.053-0.062
							c0.219-0.225,0.772-0.336,1.271-0.254l0.075,0.014c0.4,0.083,0.593,0.296,0.435,0.485l-0.013,0.015
							c-0.145,0.154-0.53,0.224-0.861,0.158"/>
						<path fill="none" stroke="#747578" stroke-width="0.2083" stroke-linecap="round" d="M56.048,6.375
							c0.515-0.558,1.908-0.816,3.112-0.577c0.936,0.185,1.383,0.678,1.029,1.116l-0.049,0.055c-0.318,0.324-1.107,0.483-1.832,0.377
							c-0.063-0.011-0.129-0.023-0.197-0.035c-0.547-0.125-0.813-0.416-0.619-0.684c0.015-0.021,0.031-0.04,0.052-0.059
							c0.216-0.208,0.735-0.31,1.203-0.23l0.073,0.014c0.373,0.08,0.546,0.28,0.397,0.458l-0.012,0.014
							c-0.144,0.143-0.502,0.209-0.813,0.146"/>
						<path fill="none" stroke="#808285" stroke-width="0.1875" stroke-linecap="round" d="M60.248,6.386
							c0.484-0.526,1.801-0.771,2.938-0.545c0.887,0.176,1.308,0.646,0.965,1.062l-0.047,0.051c-0.311,0.304-1.064,0.451-1.748,0.344
							c-0.062-0.012-0.123-0.023-0.188-0.038c-0.502-0.122-0.737-0.396-0.549-0.646c0.015-0.02,0.032-0.037,0.052-0.055
							c0.209-0.192,0.699-0.284,1.137-0.208l0.069,0.014c0.347,0.077,0.507,0.266,0.364,0.432l-0.014,0.014
							c-0.131,0.135-0.473,0.195-0.766,0.137"/>
						<path fill="none" stroke="#8D8F92" stroke-width="0.1667" stroke-linecap="round" d="M64.211,6.397
							c0.457-0.495,1.693-0.725,2.762-0.513c0.84,0.167,1.236,0.613,0.899,1.005l-0.046,0.049c-0.301,0.285-1.021,0.42-1.665,0.311
							c-0.056-0.012-0.114-0.025-0.177-0.038c-0.457-0.12-0.666-0.376-0.479-0.608c0.015-0.018,0.033-0.035,0.054-0.053
							c0.203-0.175,0.66-0.256,1.067-0.183l0.065,0.014c0.318,0.075,0.466,0.251,0.328,0.405l-0.013,0.013
							c-0.128,0.124-0.442,0.181-0.716,0.126"/>
						<path fill="none" stroke="#9A9C9E" stroke-width="0.1458" stroke-linecap="round" d="M67.938,6.407
							c0.429-0.463,1.586-0.678,2.586-0.479c0.793,0.157,1.166,0.581,0.836,0.95l-0.047,0.046c-0.293,0.266-0.977,0.387-1.58,0.276
							c-0.06-0.011-0.114-0.022-0.168-0.038c-0.41-0.117-0.59-0.357-0.406-0.57c0.015-0.018,0.031-0.033,0.053-0.05
							c0.198-0.16,0.625-0.23,1.001-0.159l0.063,0.013c0.291,0.072,0.418,0.235,0.291,0.379l-0.012,0.012
							c-0.117,0.115-0.414,0.167-0.668,0.115"/>
						<path fill="none" stroke="#A7A9AC" stroke-width="0.125" stroke-linecap="round" d="M71.447,6.418
							c0.4-0.432,1.48-0.632,2.41-0.448c0.746,0.148,1.092,0.549,0.771,0.895c-0.255,0.275-0.945,0.404-1.543,0.285
							c-0.477-0.094-0.697-0.351-0.492-0.571c0.161-0.176,0.604-0.259,0.986-0.183c0.305,0.061,0.447,0.224,0.316,0.366
							c-0.105,0.113-0.39,0.166-0.633,0.117"/>
					</g>
					<path fill="none" stroke="#000000" stroke-width="0.25" stroke-linecap="round" d="M41.579,5.645
						c-0.542-0.626,0.117-1.339,1.469-1.59c1.082-0.202,2.312,0.043,2.745,0.545c0.348,0.401-0.074,0.857-0.941,1.018
						c-0.69,0.128-1.478-0.028-1.754-0.349c-0.224-0.256,0.047-0.549,0.602-0.651c0.443-0.083,0.945,0.017,1.125,0.223
						c0.142,0.165-0.032,0.352-0.387,0.417"/>
					<path fill="none" stroke="#000000" stroke-width="0.25" stroke-linecap="round" d="M40.05,5.352
						c-1.339-0.266-1.959-0.985-1.386-1.606c0.458-0.497,1.7-0.728,2.773-0.514c0.857,0.17,1.254,0.63,0.887,1.028
						c-0.293,0.318-1.087,0.465-1.773,0.329c-0.549-0.108-0.804-0.403-0.568-0.658c0.188-0.204,0.696-0.298,1.135-0.211
						c0.351,0.07,0.515,0.259,0.363,0.421"/>
					<path fill="none" stroke="#000000" stroke-width="0.25" stroke-linecap="round" d="M38.521,5.645
						c-1.352,0.251-2.888-0.054-3.429-0.681c-0.434-0.502,0.092-1.071,1.176-1.273c0.865-0.161,1.848,0.035,2.195,0.437
						c0.278,0.321-0.059,0.686-0.752,0.814c-0.553,0.104-1.184-0.021-1.405-0.279c-0.178-0.206,0.037-0.439,0.481-0.522
						c0.355-0.065,0.759,0.015,0.899,0.179"/>
					<path fill="none" stroke="#000000" stroke-width="0.25" stroke-linecap="round" d="M37.887,6.355
						c-0.573,0.622-2.124,0.909-3.464,0.643c-1.072-0.212-1.568-0.788-1.109-1.286c0.366-0.397,1.36-0.582,2.218-0.411
						c0.686,0.136,1.004,0.504,0.709,0.822c-0.235,0.254-0.871,0.373-1.419,0.263c-0.44-0.087-0.643-0.322-0.455-0.526
						c0.151-0.163,0.559-0.239,0.909-0.169"/>
					<path fill="none" stroke="#000000" stroke-width="0.25" stroke-linecap="round" d="M38.521,7.064
						c0.542,0.625-0.116,1.338-1.469,1.59c-1.082,0.201-2.311-0.043-2.744-0.545c-0.348-0.401,0.074-0.857,0.941-1.019
						c0.692-0.129,1.478,0.027,1.755,0.349c0.222,0.258-0.047,0.549-0.602,0.651c-0.443,0.083-0.946-0.017-1.124-0.223
						c-0.142-0.165,0.031-0.353,0.386-0.417"/>
					<path d="M42.369,6.357c0,0.594-1.039,1.075-2.319,1.075c-1.281,0-2.319-0.48-2.319-1.075c0-0.594,1.038-1.076,2.319-1.076
						C41.331,5.282,42.369,5.763,42.369,6.357z M41.55,6.357c0-0.384-0.671-0.696-1.5-0.696c-0.828,0-1.5,0.312-1.5,0.696
						c0,0.384,0.671,0.696,1.5,0.696C40.879,7.053,41.55,6.741,41.55,6.357z"/>
				</g>
			</g>
		</g>
	</g>
</svg>