<?xml version="1.0" encoding="utf-8"?>
<!DOCTYPE svg PUBLIC "-//W3C//DTD SVG 1.1//EN" "http://www.w3.org/Graphics/SVG/1.1/DTD/svg11.dtd">
<svg version="1.1" id="Layer_1" xmlns="http://www.w3.org/2000/svg" xmlns:xlink="http://www.w3.org/1999/xlink" x="0px" y="0px" width="100%" height="100%" viewBox="0 0 85.333 83.333" xml:space="preserve">
	<defs>
  		<style type="text/css">
   			<![CDATA[
    			@font-face {
					font-family: 'LittleInsect';
					src: url('../fonts/littleinsect/littleinsect.eot');
					src: local('☺'), url('../fonts/littleinsect/littleinsect.woff') format('woff'), url('../fonts/littleinsect/littleinsect.ttf') format('truetype'), url('../fonts/littleinsect/littleinsect.svg') format('svg');
				}
   			]]>
 		</style>
	</defs>
	<g id="Layer_1">
		<g>
			<g>
				<circle fill="#39B54A" cx="42.914" cy="41.667" r="36.5"/>
				<circle fill="none" stroke="#006838" stroke-miterlimit="10" cx="42.914" cy="41.667" r="39"/>
				<g>
					<path fill="#FFFFFF" d="M36.343,68.017c0.005,0.013-0.002,0.022-0.005,0.032c-0.147,0.449-0.295,0.896-0.441,1.346
						c-0.007,0.021-0.015,0.027-0.036,0.027c-0.478-0.002-0.955-0.002-1.432-0.002c-0.009,0-0.018,0-0.031,0
						c0.01,0.009,0.015,0.013,0.02,0.016c0.389,0.279,0.776,0.561,1.166,0.839c0.016,0.011,0.019,0.021,0.013,0.038
						c-0.115,0.35-0.229,0.695-0.344,1.045c-0.035,0.107-0.069,0.217-0.104,0.324c-0.005,0.002-0.004,0.005-0.002,0.009
						c0.002-0.002,0.004-0.003,0.006-0.004c0.389-0.28,0.778-0.56,1.167-0.841c0.023-0.018,0.037-0.018,0.06,0
						c0.389,0.281,0.778,0.561,1.167,0.841c0.002,0.001,0.005,0.002,0.007,0.004c0.001-0.004,0.002-0.007-0.002-0.009
						c-0.002-0.006-0.003-0.012-0.005-0.018c-0.147-0.451-0.295-0.9-0.443-1.353c-0.007-0.019-0.003-0.026,0.013-0.038
						c0.388-0.277,0.774-0.559,1.162-0.836c0.006-0.005,0.013-0.01,0.023-0.018c-0.016,0-0.024,0-0.034,0c-0.478,0-0.954,0-1.432,0
						c-0.016,0-0.025,0-0.032-0.02c-0.147-0.454-0.296-0.906-0.444-1.359c-0.003-0.008-0.01-0.017-0.004-0.025"/>
					<path fill="#FFFFFF" d="M37.545,71.687c-0.389-0.28-0.778-0.56-1.167-0.841c-0.022-0.018-0.036-0.018-0.06,0
						c-0.389,0.281-0.778,0.561-1.167,0.841c-0.001-0.002-0.003-0.003-0.004-0.005c0.035-0.107,0.069-0.217,0.104-0.324
						c0.114-0.349,0.229-0.695,0.344-1.045c0.006-0.02,0.003-0.027-0.013-0.038c-0.39-0.278-0.777-0.56-1.166-0.839
						c-0.005-0.003-0.01-0.007-0.02-0.016c0.014,0,0.022,0,0.031,0c0.477,0,0.954,0,1.432,0.002c0.021,0,0.029-0.008,0.036-0.027
						c0.146-0.448,0.294-0.896,0.441-1.346c0.003-0.01,0.01-0.021,0.005-0.032c0.004,0,0.008,0,0.011,0
						c-0.006,0.01,0.001,0.019,0.004,0.024c0.148,0.453,0.297,0.906,0.444,1.36c0.007,0.019,0.017,0.019,0.032,0.019
						c0.478,0,0.954,0,1.432,0c0.01,0,0.019,0,0.034,0c-0.011,0.009-0.018,0.014-0.023,0.019c-0.388,0.278-0.774,0.558-1.162,0.836
						c-0.016,0.011-0.02,0.021-0.013,0.038c0.148,0.451,0.296,0.9,0.443,1.354c0.002,0.004,0.003,0.011,0.005,0.017
						C37.548,71.684,37.547,71.685,37.545,71.687z"/>
					<polygon fill="#B72137" points="35.151,71.687 35.146,71.691 35.147,71.682"/>
					<polygon fill="#B72137" points="37.55,71.682 37.552,71.691 37.545,71.687"/>
				</g>
				<g>
					<path fill="#FFFFFF" d="M40.779,68.014c0.005,0.013-0.002,0.021-0.005,0.033c-0.147,0.447-0.295,0.896-0.441,1.345
						c-0.007,0.021-0.015,0.026-0.036,0.026c-0.478,0-0.955,0-1.432,0c-0.009,0-0.018,0-0.031,0c0.01,0.008,0.015,0.012,0.02,0.015
						c0.389,0.278,0.776,0.56,1.166,0.839c0.016,0.012,0.019,0.02,0.013,0.038c-0.115,0.349-0.229,0.696-0.344,1.045
						c-0.035,0.108-0.069,0.217-0.104,0.324c-0.005,0.002-0.004,0.005-0.002,0.009c0.002-0.002,0.004-0.003,0.006-0.004
						c0.389-0.28,0.778-0.561,1.167-0.841c0.023-0.017,0.037-0.017,0.06,0c0.389,0.28,0.778,0.561,1.167,0.841
						c0.002,0.001,0.005,0.002,0.007,0.004c0.001-0.004,0.002-0.007-0.002-0.009c-0.002-0.007-0.003-0.013-0.005-0.017
						c-0.147-0.451-0.295-0.901-0.443-1.354c-0.007-0.02-0.003-0.027,0.013-0.038c0.388-0.278,0.774-0.558,1.162-0.836
						c0.006-0.005,0.013-0.011,0.023-0.019c-0.016,0-0.024,0-0.034,0c-0.478,0-0.954,0-1.432,0c-0.016,0-0.025,0-0.032-0.019
						c-0.147-0.454-0.296-0.907-0.444-1.36c-0.003-0.008-0.01-0.016-0.004-0.024"/>
					<path fill="#FFFFFF" d="M41.981,71.684c-0.389-0.28-0.778-0.561-1.167-0.841c-0.022-0.017-0.036-0.017-0.06,0
						c-0.389,0.28-0.778,0.561-1.167,0.841c-0.001-0.002-0.003-0.003-0.004-0.005c0.035-0.107,0.069-0.216,0.104-0.324
						c0.114-0.349,0.229-0.696,0.344-1.045c0.006-0.019,0.003-0.026-0.013-0.038c-0.39-0.279-0.777-0.561-1.166-0.839
						c-0.005-0.003-0.01-0.007-0.02-0.015c0.014,0,0.022,0,0.031,0c0.477,0,0.954,0,1.432,0c0.021,0,0.029-0.006,0.036-0.026
						c0.146-0.448,0.294-0.896,0.441-1.345c0.003-0.012,0.01-0.021,0.005-0.033c0.004,0,0.008,0,0.011,0
						c-0.006,0.01,0.001,0.018,0.004,0.025c0.148,0.453,0.297,0.905,0.444,1.359c0.007,0.02,0.017,0.02,0.032,0.02
						c0.478,0,0.954,0,1.432,0c0.01,0,0.019,0,0.034,0c-0.011,0.008-0.018,0.013-0.023,0.018c-0.388,0.277-0.774,0.559-1.162,0.836
						c-0.016,0.012-0.02,0.02-0.013,0.038c0.148,0.451,0.296,0.901,0.443,1.353c0.002,0.006,0.003,0.012,0.005,0.018
						C41.984,71.681,41.983,71.682,41.981,71.684z"/>
					<polygon fill="#B72137" points="39.588,71.684 39.582,71.688 39.584,71.679"/>
					<polygon fill="#B72137" points="41.986,71.679 41.988,71.688 41.981,71.684"/>
				</g>
				<g>
					<path fill="#FFFFFF" d="M45.196,68.014c0.006,0.013-0.002,0.021-0.005,0.033c-0.147,0.447-0.295,0.896-0.44,1.345
						c-0.008,0.021-0.016,0.026-0.037,0.026c-0.478,0-0.955,0-1.432,0c-0.009,0-0.018,0-0.031,0c0.011,0.008,0.016,0.012,0.021,0.015
						c0.39,0.278,0.776,0.56,1.166,0.839c0.017,0.012,0.019,0.02,0.013,0.038c-0.115,0.349-0.229,0.696-0.344,1.045
						c-0.035,0.108-0.068,0.217-0.104,0.324c-0.006,0.002-0.004,0.005-0.002,0.009c0.002-0.002,0.004-0.003,0.006-0.004
						c0.389-0.28,0.777-0.561,1.166-0.841c0.023-0.017,0.037-0.017,0.061,0c0.389,0.28,0.778,0.561,1.167,0.841
						c0.002,0.001,0.005,0.002,0.007,0.004c0.002-0.004,0.002-0.007-0.002-0.009c-0.002-0.007-0.003-0.013-0.005-0.017
						c-0.147-0.451-0.295-0.901-0.442-1.354c-0.008-0.02-0.004-0.027,0.013-0.038c0.388-0.278,0.774-0.558,1.161-0.836
						c0.007-0.005,0.014-0.011,0.023-0.019c-0.016,0-0.023,0-0.033,0c-0.479,0-0.955,0-1.433,0c-0.017,0-0.024,0-0.032-0.019
						c-0.146-0.454-0.296-0.907-0.443-1.36c-0.004-0.008-0.01-0.016-0.004-0.024"/>
					<path fill="#FFFFFF" d="M46.398,71.684c-0.39-0.28-0.778-0.561-1.167-0.841c-0.021-0.017-0.036-0.017-0.061,0
						c-0.389,0.28-0.777,0.561-1.166,0.841C44.002,71.682,44,71.681,44,71.679c0.035-0.107,0.068-0.216,0.104-0.324
						c0.113-0.349,0.229-0.696,0.344-1.045c0.006-0.019,0.004-0.026-0.013-0.038c-0.39-0.279-0.776-0.561-1.166-0.839
						c-0.005-0.003-0.011-0.007-0.021-0.015c0.015,0,0.022,0,0.031,0c0.477,0,0.954,0,1.432,0c0.021,0,0.029-0.006,0.037-0.026
						c0.146-0.448,0.293-0.896,0.44-1.345c0.003-0.012,0.011-0.021,0.005-0.033c0.004,0,0.008,0,0.012,0
						c-0.006,0.01,0,0.018,0.004,0.025c0.147,0.453,0.297,0.905,0.443,1.359c0.008,0.02,0.018,0.02,0.032,0.02
						c0.478,0,0.954,0,1.433,0c0.01,0,0.019,0,0.033,0c-0.011,0.008-0.018,0.013-0.023,0.018c-0.387,0.277-0.773,0.559-1.162,0.836
						c-0.016,0.012-0.02,0.02-0.012,0.038c0.147,0.451,0.295,0.901,0.442,1.353c0.002,0.006,0.003,0.012,0.005,0.018
						C46.401,71.681,46.4,71.682,46.398,71.684z"/>
					<polygon fill="#B72137" points="44.004,71.684 43.999,71.688 44,71.679"/>
					<polygon fill="#B72137" points="46.403,71.679 46.405,71.688 46.398,71.684"/>
				</g>
				<g>
					<path fill="#FFFFFF" d="M49.475,68.012c0.005,0.013-0.002,0.021-0.005,0.033c-0.147,0.447-0.296,0.896-0.441,1.345
						c-0.007,0.021-0.015,0.026-0.036,0.026c-0.478,0-0.955,0-1.432,0c-0.009,0-0.018,0-0.031,0c0.01,0.008,0.016,0.012,0.02,0.015
						c0.39,0.278,0.777,0.56,1.166,0.839c0.017,0.011,0.02,0.02,0.014,0.038c-0.115,0.349-0.229,0.696-0.344,1.045
						c-0.035,0.108-0.069,0.217-0.104,0.324c-0.005,0.002-0.004,0.005-0.002,0.009c0.002-0.002,0.005-0.003,0.007-0.004
						c0.389-0.28,0.777-0.561,1.166-0.842c0.023-0.017,0.037-0.017,0.061,0c0.389,0.281,0.777,0.562,1.167,0.842
						c0.002,0.001,0.005,0.002,0.007,0.004c0.001-0.004,0.002-0.007-0.002-0.009c-0.002-0.007-0.003-0.013-0.005-0.017
						c-0.147-0.451-0.296-0.902-0.443-1.354c-0.007-0.02-0.003-0.027,0.013-0.038c0.389-0.278,0.774-0.558,1.162-0.836
						c0.006-0.005,0.014-0.011,0.023-0.019c-0.016,0-0.023,0-0.034,0c-0.478,0-0.954,0-1.433,0c-0.016,0-0.024,0-0.031-0.019
						c-0.146-0.454-0.296-0.907-0.443-1.36c-0.004-0.008-0.011-0.016-0.005-0.024"/>
					<path fill="#FFFFFF" d="M50.677,71.682c-0.39-0.28-0.778-0.561-1.167-0.842c-0.022-0.017-0.036-0.017-0.061,0
						c-0.389,0.281-0.777,0.562-1.166,0.842c-0.002-0.002-0.004-0.003-0.005-0.005c0.035-0.107,0.069-0.216,0.104-0.324
						c0.113-0.349,0.229-0.696,0.344-1.045c0.006-0.019,0.003-0.027-0.014-0.038c-0.389-0.279-0.776-0.561-1.166-0.839
						c-0.004-0.003-0.01-0.007-0.02-0.015c0.014,0,0.021,0,0.031,0c0.477,0,0.954,0,1.432,0c0.021,0,0.029-0.006,0.036-0.026
						c0.146-0.448,0.294-0.896,0.44-1.345c0.004-0.012,0.011-0.021,0.006-0.033c0.004,0,0.008,0,0.011,0
						c-0.006,0.01,0.001,0.018,0.004,0.025c0.148,0.452,0.298,0.905,0.444,1.359c0.007,0.02,0.018,0.02,0.031,0.02
						c0.479,0,0.955,0,1.433,0c0.01,0,0.019,0,0.034,0c-0.012,0.008-0.018,0.013-0.023,0.018c-0.388,0.277-0.773,0.559-1.162,0.836
						c-0.016,0.011-0.02,0.02-0.013,0.038c0.147,0.451,0.296,0.901,0.442,1.353c0.003,0.006,0.004,0.012,0.006,0.018
						C50.68,71.679,50.679,71.68,50.677,71.682z"/>
					<polygon fill="#B72137" points="48.284,71.682 48.277,71.686 48.279,71.677"/>
					<polygon fill="#B72137" points="50.682,71.677 50.684,71.686 50.677,71.682"/>
				</g>
			</g>
			<g>
				<text transform="matrix(1 0 0 1 9.4072 51.8354)" fill="#FFFFFF" font-family="'LittleInsect'" font-size="22.826">anjali</text>
				<text transform="matrix(1 0 0 1 39.7627 51.4917)" fill="#FFFFFF" font-family="'LittleInsect'" font-size="22.826">co</text>
				<text transform="matrix(1 0 0 1 49.3032 51.4917)" fill="#FFFFFF" font-family="'LittleInsect'" font-size="31.0588">tt</text>
				<text transform="matrix(1 0 0 1 60.2974 51.4917)" fill="#FFFFFF" font-family="'LittleInsect'" font-size="22.826">age</text>
				<g>
					<g>
						<g>
							<g>
								<g opacity="0.8">
									<path fill="#FFFFFF" d="M22.834,29.9c1.322-0.048,3.487-2.224,4.765-2.796c0.433-0.285,0.775-0.487,1.059-0.607
										c0.238-0.102-0.247,0.203-1.059,0.607c-0.327,0.228-0.707,0.491-1.153,0.801c0.764-0.181,1.498-0.339,2.049-0.419
										c0.264-0.206,0.53-0.416,0.805-0.631c1.189-0.943,2.367-1.826,3.646-2.625c0.463-0.291,1.42-0.988,1.949-1.162
										c0,0-1.354,0.936-2.636,1.966c-0.649,0.505-1.3,1.01-1.787,1.389c-0.472,0.397-0.786,0.662-0.786,0.662
										c0.057-0.026,0.115-0.05,0.176-0.07c0,0,0.696-0.517,1.432-0.986c0.724-0.479,1.447-0.958,1.447-0.958
										c0.152-0.122,0.315-0.234,0.5-0.33l-0.5,0.33c-0.396,0.32-0.714,0.712-1.124,1.085c-0.277,0.204-0.672,0.349-0.949,0.554
										c-0.233,0.158-0.53,0.213-0.806,0.306l-0.42,0.306c-0.025,0.046-0.056,0.094-0.092,0.135l0.013,0.004
										c0.805,0.22,4.787-1.715,5.224-2.28c0.384-0.423,0.399-1.231,0.855-1.681c0.152-0.149,0.397-0.127,0.437-0.341
										c-0.047-0.086-0.027-0.193-0.008-0.302c0.305-0.3,0.858-0.272,0.938-0.704c0.106-0.245,1.554,0.634,1.421,0.379
										c-0.49-0.956-0.133-0.261,0.357-0.494c0.065-0.019-0.021-0.491,0.113-0.529c0.511-0.04,0.403-0.408,0.742-0.801
										c0.412-0.714,0.931-0.255,1.086-1.199c0.022-0.108,0.654-1.038,0.654-1.038c0.734-0.367,0.872-1.094,1.809-0.813
										c0.261-0.974,1.505-0.802,2.099-1.289c0.604-0.495,1.141-0.193,1.914-0.12c0.195-0.03,0.287-0.147,0.461-0.068
										c0.17,0.077,0.236-0.417,0.445-0.441l0.086,0.282c0.069-0.009,0.209-0.025,0.278-0.034c0.07-0.007,0.099,0.086,0.127,0.181
										c0.058,0.188,0.114,0.375,0.282,0.452c0.32,0.022,0.63,0.009,0.929-0.041c0.19-0.259,0.369-0.532,0.535-0.821
										c-0.045-0.126-0.088-0.253-0.101-0.367l0.123-0.306c-0.084-0.281-0.24-0.555-0.297-0.743
										c-0.367-0.733-0.414-1.603-0.824-2.233c-0.127-0.18-0.586-0.027-0.951-0.276c-0.098-0.085-0.113-0.375-0.199-0.656
										c-0.251,0.126-0.406-0.147-0.422-0.438c-0.07,0.009-0.141,0.017-0.141,0.017c-0.027-0.094-0.112-0.376-0.112-0.376
										c-0.798-0.002-1.819-0.271-2.277,0.366c-0.108,0.104-0.235,0.418-0.327,0.646c-0.045,0.108-0.291,0.057-0.365,0.071
										c0.014,0.299,0.176,0.567,0.265,0.851c-0.601,0.016-1.885,0.181-1.335,1.062c-0.4,0.18-0.231,0.64-0.593,0.908
										c-0.484,0.361-1.041,0.833-1.634,1.259c-0.294,0.275-0.622,0.469-0.944,0.68c-0.117,0.082-0.232,0.162-0.341,0.237
										c-2.306,1.696-4.525,2.288-6.236,4.658c-0.878,1.162-1.872,2.213-2.932,3.112c-1.077,0.879-2.159,1.685-3.195,2.362
										c-0.519,0.337-1.025,0.643-1.502,0.919c-0.462,0.29-0.895,0.562-1.282,0.805c-0.778,0.475-1.382,0.825-1.672,1.044
										L22.834,29.9z"/>
								</g>
							</g>
						</g>
					</g>
				</g>
				<g>
					<g>
						<g>
							<g>
								<g opacity="0.8">
									<path fill="#FFFFFF" d="M62.482,29.861c-0.369-1.125-2.552-1.968-3.317-2.779c-0.324-0.238-0.562-0.439-0.722-0.626
										c-0.133-0.157,0.214,0.117,0.722,0.626c0.25,0.174,0.537,0.404,0.903,0.604c-0.343-0.536-0.631-1.119-0.823-1.542
										c-0.225-0.125-0.447-0.257-0.672-0.396c-1.008-0.564-1.951-1.157-2.816-1.905c-0.151-0.143-0.426-0.315-0.676-0.52
										c-0.24-0.218-0.474-0.443-0.58-0.634c-0.095,0.112,4.104,2.71,4.162,2.626c-0.033-0.036-0.063-0.075-0.094-0.117
										c0,0-0.137-0.09-0.344-0.225c-0.203-0.138-0.485-0.303-0.737-0.516c-0.513-0.402-1.024-0.805-1.024-0.805
										c-0.125-0.075-0.242-0.163-0.352-0.276l0.352,0.276c0.326,0.195,0.691,0.291,1.061,0.475c0.207,0.149,0.4,0.414,0.631,0.533
										c0.178,0.115,0.281,0.348,0.415,0.537l0.329,0.217c0.042,0,0.085,0.004,0.125,0.016v-0.012
										c0.02-0.435-0.632-1.168-1.244-1.914c-0.615-0.742-1.279-1.374-1.542-1.435c-0.411-0.104-1.028,0.184-1.46-0.011
										c-0.141-0.067-0.152-0.28-0.331-0.229c-0.063,0.072-0.155,0.098-0.247,0.124c-0.285-0.137-0.324-0.604-0.693-0.505
										c-0.229,0.007,0.388-1.519,0.193-1.313c-0.756,0.749-0.207,0.202-0.429-0.118c-0.019-0.047-0.408,0.188-0.448,0.092
										c-0.063-0.406-0.365-0.19-0.722-0.338c-0.628-0.118-0.286-0.64-1.07-0.525c-0.087,0.012-0.917-0.259-0.917-0.259
										c-0.328-0.506-0.992-0.448-0.73-1.268c-0.85-0.014-0.612-1.073-1.031-1.439c-0.421-0.411-0.113-0.813,0.044-1.475
										c-0.007-0.168-0.103-0.245-0.017-0.391c0.088-0.146-0.377-0.143-0.383-0.311L48.27,14c-0.003-0.056-0.008-0.168-0.012-0.223
										c0-0.057,0.091-0.091,0.183-0.125c0.183-0.067,0.365-0.136,0.451-0.282c0.047-0.263,0.06-0.513,0.034-0.75
										c-0.229-0.124-0.475-0.238-0.735-0.339c-0.124,0.051-0.247,0.101-0.356,0.125l-0.279-0.065
										c-0.273,0.102-0.547,0.261-0.729,0.329c-0.726,0.384-1.553,0.523-2.185,0.93c-0.181,0.125-0.072,0.481-0.337,0.807
										c-0.09,0.09-0.365,0.137-0.639,0.239c0.101,0.189-0.172,0.348-0.446,0.394c0.002,0.057,0.004,0.111,0.004,0.111
										c-0.092,0.035-0.365,0.137-0.365,0.137c-0.065,0.648-0.4,1.511,0.167,1.809c0.095,0.078,0.376,0.143,0.563,0.187
										c0.094,0.021,0.01,0.223,0.012,0.279c0.277-0.045,0.559-0.199,0.834-0.302c-0.008,0.504,0.141,1.614,0.996,1.025
										c0.166,0.323,0.607,0.114,0.855,0.384c0.346,0.347,0.728,0.826,1.164,1.207c0.266,0.19,0.454,0.428,0.66,0.655
										c0.08,0.083,0.158,0.162,0.23,0.238c0.771,0.852,1.438,1.588,2.127,2.318c0.668,0.757,1.512,1.297,2.642,1.602
										c2.269,0.582,4.156,1.733,5.729,2.876c0.768,0.606,1.469,1.114,2.021,1.572c0.554,0.45,0.972,0.809,1.209,0.957
										L62.482,29.861z"/>
								</g>
							</g>
						</g>
					</g>
				</g>
				<g>
					<g>
						<g>
							<g>
								<g opacity="0.8">
									<path fill="#FFFFFF" d="M22.834,29.9c1.322-0.048,3.487-2.224,4.765-2.796c0.433-0.285,0.775-0.487,1.059-0.607
										c0.238-0.102-0.247,0.203-1.059,0.607c-0.327,0.228-0.707,0.491-1.153,0.801c0.764-0.181,1.498-0.339,2.049-0.419
										c0.264-0.206,0.53-0.416,0.805-0.631c1.189-0.943,2.367-1.826,3.646-2.625c0.463-0.291,1.42-0.988,1.949-1.162
										c0,0-1.354,0.936-2.636,1.966c-0.649,0.505-1.3,1.01-1.787,1.389c-0.472,0.397-0.786,0.662-0.786,0.662
										c0.057-0.026,0.115-0.05,0.176-0.07c0,0,0.696-0.517,1.432-0.986c0.724-0.479,1.447-0.958,1.447-0.958
										c0.152-0.122,0.315-0.234,0.5-0.33l-0.5,0.33c-0.396,0.32-0.714,0.712-1.124,1.085c-0.277,0.204-0.672,0.349-0.949,0.554
										c-0.233,0.158-0.53,0.213-0.806,0.306l-0.42,0.306c-0.025,0.046-0.056,0.094-0.092,0.135l0.013,0.004
										c0.805,0.22,4.787-1.715,5.224-2.28c0.384-0.423,0.399-1.231,0.855-1.681c0.152-0.149,0.397-0.127,0.437-0.341
										c-0.047-0.086-0.027-0.193-0.008-0.302c0.305-0.3,0.858-0.272,0.938-0.704c0.106-0.245,1.554,0.634,1.421,0.379
										c-0.49-0.956-0.133-0.261,0.357-0.494c0.065-0.019-0.021-0.491,0.113-0.529c0.511-0.04,0.403-0.408,0.742-0.801
										c0.412-0.714,0.931-0.255,1.086-1.199c0.022-0.108,0.654-1.038,0.654-1.038c0.734-0.367,0.872-1.094,1.809-0.813
										c0.261-0.974,1.505-0.802,2.099-1.289c0.604-0.495,1.141-0.193,1.914-0.12c0.195-0.03,0.287-0.147,0.461-0.068
										c0.17,0.077,0.236-0.417,0.445-0.441l0.086,0.282c0.069-0.009,0.209-0.025,0.278-0.034c0.07-0.007,0.099,0.086,0.127,0.181
										c0.058,0.188,0.114,0.375,0.282,0.452c0.32,0.022,0.63,0.009,0.929-0.041c0.19-0.259,0.369-0.532,0.535-0.821
										c-0.045-0.126-0.088-0.253-0.101-0.367l0.123-0.306c-0.084-0.281-0.24-0.555-0.297-0.743
										c-0.367-0.733-0.414-1.603-0.824-2.233c-0.127-0.18-0.586-0.027-0.951-0.276c-0.098-0.085-0.113-0.375-0.199-0.656
										c-0.251,0.126-0.406-0.147-0.422-0.438c-0.07,0.009-0.141,0.017-0.141,0.017c-0.027-0.094-0.112-0.376-0.112-0.376
										c-0.798-0.002-1.819-0.271-2.277,0.366c-0.108,0.104-0.235,0.418-0.327,0.646c-0.045,0.108-0.291,0.057-0.365,0.071
										c0.014,0.299,0.176,0.567,0.265,0.851c-0.601,0.016-1.885,0.181-1.335,1.062c-0.4,0.18-0.231,0.64-0.593,0.908
										c-0.484,0.361-1.041,0.833-1.634,1.259c-0.294,0.275-0.622,0.469-0.944,0.68c-0.117,0.082-0.232,0.162-0.341,0.237
										c-2.306,1.696-4.525,2.288-6.236,4.658c-0.878,1.162-1.872,2.213-2.932,3.112c-1.077,0.879-2.159,1.685-3.195,2.362
										c-0.519,0.337-1.025,0.643-1.502,0.919c-0.462,0.29-0.895,0.562-1.282,0.805c-0.778,0.475-1.382,0.825-1.672,1.044
										L22.834,29.9z"/>
								</g>
							</g>
						</g>
					</g>
				</g>
				<g>
					<g>
						<g>
							<g>
								<g opacity="0.8">
									<path fill="#FFFFFF" d="M62.482,29.861c-0.369-1.125-2.552-1.968-3.317-2.779c-0.324-0.238-0.562-0.439-0.722-0.626
										c-0.133-0.157,0.214,0.117,0.722,0.626c0.25,0.174,0.537,0.404,0.903,0.604c-0.343-0.536-0.631-1.119-0.823-1.542
										c-0.225-0.125-0.447-0.257-0.672-0.396c-1.008-0.564-1.951-1.157-2.816-1.905c-0.151-0.143-0.426-0.315-0.676-0.52
										c-0.24-0.218-0.474-0.443-0.58-0.634c-0.095,0.112,4.104,2.71,4.162,2.626c-0.033-0.036-0.063-0.075-0.094-0.117
										c0,0-0.137-0.09-0.344-0.225c-0.203-0.138-0.485-0.303-0.737-0.516c-0.513-0.402-1.024-0.805-1.024-0.805
										c-0.125-0.075-0.242-0.163-0.352-0.276l0.352,0.276c0.326,0.195,0.691,0.291,1.061,0.475c0.207,0.149,0.4,0.414,0.631,0.533
										c0.178,0.115,0.281,0.348,0.415,0.537l0.329,0.217c0.042,0,0.085,0.004,0.125,0.016v-0.012
										c0.02-0.435-0.632-1.168-1.244-1.914c-0.615-0.742-1.279-1.374-1.542-1.435c-0.411-0.104-1.028,0.184-1.46-0.011
										c-0.141-0.067-0.152-0.28-0.331-0.229c-0.063,0.072-0.155,0.098-0.247,0.124c-0.285-0.137-0.324-0.604-0.693-0.505
										c-0.229,0.007,0.388-1.519,0.193-1.313c-0.756,0.749-0.207,0.202-0.429-0.118c-0.019-0.047-0.408,0.188-0.448,0.092
										c-0.063-0.406-0.365-0.19-0.722-0.338c-0.628-0.118-0.286-0.64-1.07-0.525c-0.087,0.012-0.917-0.259-0.917-0.259
										c-0.328-0.506-0.992-0.448-0.73-1.268c-0.85-0.014-0.612-1.073-1.031-1.439c-0.421-0.411-0.113-0.813,0.044-1.475
										c-0.007-0.168-0.103-0.245-0.017-0.391c0.088-0.146-0.377-0.143-0.383-0.311L48.27,14c-0.003-0.056-0.008-0.168-0.012-0.223
										c0-0.057,0.091-0.091,0.183-0.125c0.183-0.067,0.365-0.136,0.451-0.282c0.047-0.263,0.06-0.513,0.034-0.75
										c-0.229-0.124-0.475-0.238-0.735-0.339c-0.124,0.051-0.247,0.101-0.356,0.125l-0.279-0.065
										c-0.273,0.102-0.547,0.261-0.729,0.329c-0.726,0.384-1.553,0.523-2.185,0.93c-0.181,0.125-0.072,0.481-0.337,0.807
										c-0.09,0.09-0.365,0.137-0.639,0.239c0.101,0.189-0.172,0.348-0.446,0.394c0.002,0.057,0.004,0.111,0.004,0.111
										c-0.092,0.035-0.365,0.137-0.365,0.137c-0.065,0.648-0.4,1.511,0.167,1.809c0.095,0.078,0.376,0.143,0.563,0.187
										c0.094,0.021,0.01,0.223,0.012,0.279c0.277-0.045,0.559-0.199,0.834-0.302c-0.008,0.504,0.141,1.614,0.996,1.025
										c0.166,0.323,0.607,0.114,0.855,0.384c0.346,0.347,0.728,0.826,1.164,1.207c0.266,0.19,0.454,0.428,0.66,0.655
										c0.08,0.083,0.158,0.162,0.23,0.238c0.771,0.852,1.438,1.588,2.127,2.318c0.668,0.757,1.512,1.297,2.642,1.602
										c2.269,0.582,4.156,1.733,5.729,2.876c0.768,0.606,1.469,1.114,2.021,1.572c0.554,0.45,0.972,0.809,1.209,0.957
										L62.482,29.861z"/>
								</g>
							</g>
						</g>
					</g>
				</g>
				<g>
					<g>
						<g>
							<g>
								<g opacity="0.8">
									<path fill="#FFFFFF" d="M22.834,29.9c1.322-0.048,3.487-2.224,4.765-2.796c0.433-0.285,0.775-0.487,1.059-0.607
										c0.238-0.102-0.247,0.203-1.059,0.607c-0.327,0.228-0.707,0.491-1.153,0.801c0.764-0.181,1.498-0.339,2.049-0.419
										c0.264-0.206,0.53-0.416,0.805-0.631c1.189-0.943,2.367-1.826,3.646-2.625c0.463-0.291,1.42-0.988,1.949-1.162
										c0,0-1.354,0.936-2.636,1.966c-0.649,0.505-1.3,1.01-1.787,1.389c-0.472,0.397-0.786,0.662-0.786,0.662
										c0.057-0.026,0.115-0.05,0.176-0.07c0,0,0.696-0.517,1.432-0.986c0.724-0.479,1.447-0.958,1.447-0.958
										c0.152-0.122,0.315-0.234,0.5-0.33l-0.5,0.33c-0.396,0.32-0.714,0.712-1.124,1.085c-0.277,0.204-0.672,0.349-0.949,0.554
										c-0.233,0.158-0.53,0.213-0.806,0.306l-0.42,0.306c-0.025,0.046-0.056,0.094-0.092,0.135l0.013,0.004
										c0.805,0.22,4.787-1.715,5.224-2.28c0.384-0.423,0.399-1.231,0.855-1.681c0.152-0.149,0.397-0.127,0.437-0.341
										c-0.047-0.086-0.027-0.193-0.008-0.302c0.305-0.3,0.858-0.272,0.938-0.704c0.106-0.245,1.554,0.634,1.421,0.379
										c-0.49-0.956-0.133-0.261,0.357-0.494c0.065-0.019-0.021-0.491,0.113-0.529c0.511-0.04,0.403-0.408,0.742-0.801
										c0.412-0.714,0.931-0.255,1.086-1.199c0.022-0.108,0.654-1.038,0.654-1.038c0.734-0.367,0.872-1.094,1.809-0.813
										c0.261-0.974,1.505-0.802,2.099-1.289c0.604-0.495,1.141-0.193,1.914-0.12c0.195-0.03,0.287-0.147,0.461-0.068
										c0.17,0.077,0.236-0.417,0.445-0.441l0.086,0.282c0.069-0.009,0.209-0.025,0.278-0.034c0.07-0.007,0.099,0.086,0.127,0.181
										c0.058,0.188,0.114,0.375,0.282,0.452c0.32,0.022,0.63,0.009,0.929-0.041c0.19-0.259,0.369-0.532,0.535-0.821
										c-0.045-0.126-0.088-0.253-0.101-0.367l0.123-0.306c-0.084-0.281-0.24-0.555-0.297-0.743
										c-0.367-0.733-0.414-1.603-0.824-2.233c-0.127-0.18-0.586-0.027-0.951-0.276c-0.098-0.085-0.113-0.375-0.199-0.656
										c-0.251,0.126-0.406-0.147-0.422-0.438c-0.07,0.009-0.141,0.017-0.141,0.017c-0.027-0.094-0.112-0.376-0.112-0.376
										c-0.798-0.002-1.819-0.271-2.277,0.366c-0.108,0.104-0.235,0.418-0.327,0.646c-0.045,0.108-0.291,0.057-0.365,0.071
										c0.014,0.299,0.176,0.567,0.265,0.851c-0.601,0.016-1.885,0.181-1.335,1.062c-0.4,0.18-0.231,0.64-0.593,0.908
										c-0.484,0.361-1.041,0.833-1.634,1.259c-0.294,0.275-0.622,0.469-0.944,0.68c-0.117,0.082-0.232,0.162-0.341,0.237
										c-2.306,1.696-4.525,2.288-6.236,4.658c-0.878,1.162-1.872,2.213-2.932,3.112c-1.077,0.879-2.159,1.685-3.195,2.362
										c-0.519,0.337-1.025,0.643-1.502,0.919c-0.462,0.29-0.895,0.562-1.282,0.805c-0.778,0.475-1.382,0.825-1.672,1.044
										L22.834,29.9z"/>
								</g>
							</g>
						</g>
					</g>
				</g>
				<g>
					<g>
						<g>
							<g>
								<g opacity="0.8">
									<path fill="#FFFFFF" d="M62.482,29.861c-0.369-1.125-2.552-1.968-3.317-2.779c-0.324-0.238-0.562-0.439-0.722-0.626
										c-0.133-0.157,0.214,0.117,0.722,0.626c0.25,0.174,0.537,0.404,0.903,0.604c-0.343-0.536-0.631-1.119-0.823-1.542
										c-0.225-0.125-0.447-0.257-0.672-0.396c-1.008-0.564-1.951-1.157-2.816-1.905c-0.151-0.143-0.426-0.315-0.676-0.52
										c-0.24-0.218-0.474-0.443-0.58-0.634c-0.095,0.112,4.104,2.71,4.162,2.626c-0.033-0.036-0.063-0.075-0.094-0.117
										c0,0-0.137-0.09-0.344-0.225c-0.203-0.138-0.485-0.303-0.737-0.516c-0.513-0.402-1.024-0.805-1.024-0.805
										c-0.125-0.075-0.242-0.163-0.352-0.276l0.352,0.276c0.326,0.195,0.691,0.291,1.061,0.475c0.207,0.149,0.4,0.414,0.631,0.533
										c0.178,0.115,0.281,0.348,0.415,0.537l0.329,0.217c0.042,0,0.085,0.004,0.125,0.016v-0.012
										c0.02-0.435-0.632-1.168-1.244-1.914c-0.615-0.742-1.279-1.374-1.542-1.435c-0.411-0.104-1.028,0.184-1.46-0.011
										c-0.141-0.067-0.152-0.28-0.331-0.229c-0.063,0.072-0.155,0.098-0.247,0.124c-0.285-0.137-0.324-0.604-0.693-0.505
										c-0.229,0.007,0.388-1.519,0.193-1.313c-0.756,0.749-0.207,0.202-0.429-0.118c-0.019-0.047-0.408,0.188-0.448,0.092
										c-0.063-0.406-0.365-0.19-0.722-0.338c-0.628-0.118-0.286-0.64-1.07-0.525c-0.087,0.012-0.917-0.259-0.917-0.259
										c-0.328-0.506-0.992-0.448-0.73-1.268c-0.85-0.014-0.612-1.073-1.031-1.439c-0.421-0.411-0.113-0.813,0.044-1.475
										c-0.007-0.168-0.103-0.245-0.017-0.391c0.088-0.146-0.377-0.143-0.383-0.311L48.27,14c-0.003-0.056-0.008-0.168-0.012-0.223
										c0-0.057,0.091-0.091,0.183-0.125c0.183-0.067,0.365-0.136,0.451-0.282c0.047-0.263,0.06-0.513,0.034-0.75
										c-0.229-0.124-0.475-0.238-0.735-0.339c-0.124,0.051-0.247,0.101-0.356,0.125l-0.279-0.065
										c-0.273,0.102-0.547,0.261-0.729,0.329c-0.726,0.384-1.553,0.523-2.185,0.93c-0.181,0.125-0.072,0.481-0.337,0.807
										c-0.09,0.09-0.365,0.137-0.639,0.239c0.101,0.189-0.172,0.348-0.446,0.394c0.002,0.057,0.004,0.111,0.004,0.111
										c-0.092,0.035-0.365,0.137-0.365,0.137c-0.065,0.648-0.4,1.511,0.167,1.809c0.095,0.078,0.376,0.143,0.563,0.187
										c0.094,0.021,0.01,0.223,0.012,0.279c0.277-0.045,0.559-0.199,0.834-0.302c-0.008,0.504,0.141,1.614,0.996,1.025
										c0.166,0.323,0.607,0.114,0.855,0.384c0.346,0.347,0.728,0.826,1.164,1.207c0.266,0.19,0.454,0.428,0.66,0.655
										c0.08,0.083,0.158,0.162,0.23,0.238c0.771,0.852,1.438,1.588,2.127,2.318c0.668,0.757,1.512,1.297,2.642,1.602
										c2.269,0.582,4.156,1.733,5.729,2.876c0.768,0.606,1.469,1.114,2.021,1.572c0.554,0.45,0.972,0.809,1.209,0.957
										L62.482,29.861z"/>
								</g>
							</g>
						</g>
					</g>
				</g>
			</g>
		</g>
	</g>
</svg>