<svg xmlns="http://www.w3.org/2000/svg">
<defs>
<font id="Lemondrop-Italic" horiz-adv-x="1450" >
  <font-face 
    font-family="Lemondrop"
    font-weight="400"
    font-style="italic"
    font-stretch="normal"
    units-per-em="2048"
    panose-1="2 11 5 5 4 0 0 9 0 4"
    ascent="1638"
    descent="-410"
    x-height="1797"
    cap-height="1797"
    bbox="-495.999 -724 3423 2328"
    underline-thickness="150"
    underline-position="-142"
    slope="-9.25"
    unicode-range="U+0020-U+FB02"
  />
<missing-glyph horiz-adv-x="2620" 
d="M1041 1359l546 -0.00195312l308 -392l-64 -302c84 28 126 72.667 126 134c-13.333 16 -20 32 -20 48c0 52 46.667 78 140 78c69.333 0 139.333 -46.667 210 -140c45.333 -37.333 131.333 -74.666 258 -111.999c0 -18.667 -6.66699 -28 -20 -28
c0 -9.33301 2 -16.666 6 -21.999c-4 -22.667 -22.667 -37 -56 -43c-12 -2 -26 -3 -42 -3c-29.333 0 -65.333 3.33301 -108 10c16 -13.333 61.333 -20 136 -20c14 2.66699 26.333 4 37 4s19.667 -1.33301 27 -4c0 -36 -68 -64 -204 -84l-126 8
c76 -37.333 139.333 -56 190 -56h42v-8c-34.667 -46.667 -98 -70 -190 -70c-46.667 0 -100 12 -160 36c0 -29.333 53.333 -62 160 -98c0 -18.667 -25.333 -30.667 -76 -36c-29.333 0 -92.666 21.333 -190 64c0 -22.667 23.333 -53.334 70 -92.001c-3.33301 -2 -9 -3 -17 -3
c-24 0 -69.667 10.333 -137 31l22 -62l-28 -8c-25.333 0 -70 35.333 -134 106l-62 -294h-742l-84 294c-49.333 -62.667 -89.333 -98 -120 -106l-28 8l14 62c-57.333 -28 -101.333 -42 -132 -42l-14 22c42 25.333 63 50.666 63 75.999
c0 2.66699 -0.333008 5.33398 -1 8.00098c-85.333 -42.667 -148 -64 -188 -64c-46.667 5.33301 -70 17.333 -70 36c102.667 34.667 154 66.334 154 95.001v3c-48 -24 -99.333 -36 -154 -36h-28c-73.333 0 -127.333 23.333 -162 70v8h42c50.667 0 95 5.66699 133 17
s57 24.333 57 39l-140 -8c-126.667 22.667 -190 50.667 -190 84l14 8l50 -8c31.333 -1.33301 58.333 -2 81 -2c44.667 0 71.667 2.66699 81 8l-156 11c-46.667 3.33301 -72 14.333 -76 33l6 20l-20 8v28c149.333 41.333 247.333 90 294 146

<glyph glyph-name=".notdef" horiz-adv-x="2620" 
d="M1041 1359l546 -0.00195312l308 -392l-64 -302c84 28 126 72.667 126 134c-13.333 16 -20 32 -20 48c0 52 46.667 78 140 78c69.333 0 139.333 -46.667 210 -140c45.333 -37.333 131.333 -74.666 258 -111.999c0 -18.667 -6.66699 -28 -20 -28
c0 -9.33301 2 -16.666 6 -21.999c-4 -22.667 -22.667 -37 -56 -43c-12 -2 -26 -3 -42 -3c-29.333 0 -65.333 3.33301 -108 10c16 -13.333 61.333 -20 136 -20c14 2.66699 26.333 4 37 4s19.667 -1.33301 27 -4c0 -36 -68 -64 -204 -84l-126 8
c76 -37.333 139.333 -56 190 -56h42v-8c-34.667 -46.667 -98 -70 -190 -70c-46.667 0 -100 12 -160 36c0 -29.333 53.333 -62 160 -98c0 -18.667 -25.333 -30.667 -76 -36c-29.333 0 -92.666 21.333 -190 64c0 -22.667 23.333 -53.334 70 -92.001c-3.33301 -2 -9 -3 -17 -3
c-24 0 -69.667 10.333 -137 31l22 -62l-28 -8c-25.333 0 -70 35.333 -134 106l-62 -294h-742l-84 294c-49.333 -62.667 -89.333 -98 -120 -106l-28 8l14 62c-57.333 -28 -101.333 -42 -132 -42l-14 22c42 25.333 63 50.666 63 75.999
c0 2.66699 -0.333008 5.33398 -1 8.00098c-85.333 -42.667 -148 -64 -188 -64c-46.667 5.33301 -70 17.333 -70 36c102.667 34.667 154 66.334 154 95.001v3c-48 -24 -99.333 -36 -154 -36h-28c-73.333 0 -127.333 23.333 -162 70v8h42c50.667 0 95 5.66699 133 17
s57 24.333 57 39l-140 -8c-126.667 22.667 -190 50.667 -190 84l14 8l50 -8c31.333 -1.33301 58.333 -2 81 -2c44.667 0 71.667 2.66699 81 8l-156 11c-46.667 3.33301 -72 14.333 -76 33l6 20l-20 8v28c149.333 41.333 247.333 90 294 146
c49.333 70.667 107.333 106 174 106c93.333 0 140 -26 140 -78c0 -16 -6.66699 -32 -20 -48c14.667 -89.333 52 -134 112 -134l-70 302zM1288 777.998c0 26 16.666 51.335 49.999 76.002c11.333 -24.667 25.666 -84 42.999 -178c3.33301 -20 5 -40.667 5 -62
c0 -77.333 -24.333 -160.666 -73 -249.999c76.667 67.333 136 133.666 178 198.999c34 53.333 51 105 51 155c0 11.333 -0.666992 22.666 -2 33.999c-9.33301 60.667 -18.666 106.667 -27.999 138c-9.33301 32 -17.666 67.667 -24.999 107l-163 -59
c-10.667 -6 -22.667 -11.667 -36 -17v3c-4 46.667 -14.333 71 -31 73c-35.333 -24.667 -94 -56.667 -176 -96c31.333 -9.33301 47 -24 47 -44v-252c0 -4 -3.66699 -8.33301 -11 -13s-20.333 -11.667 -39 -21c32 -48 65 -72 99 -72c15.333 0 31 5 47 15
c50 30.667 90 50.667 120 60c-30 7.33301 -46.833 15.166 -50.5 23.499s-5.5 14.5 -5.5 18.5v162z" />
    <glyph glyph-name="space" unicode=" " horiz-adv-x="508" 
 />
    <glyph glyph-name="space" unicode="&#xa0;" horiz-adv-x="508" 
 />
    <glyph glyph-name="exclam" unicode="!" horiz-adv-x="703" 
d="M145 1c-26 0 -39 10.333 -39 31c0 3.33301 0.333008 7 1 11l25 152c5.33301 35.333 24 53 56 53h407c27.333 0 41 -13 41 -39c0 -4 -0.333008 -8.66699 -1 -14l-25 -152c-4.66699 -28 -22 -42 -52 -42h-413zM812 1797c44 0 66 -18.667 66 -56
c0 -6 -0.666992 -12.333 -2 -19l-187 -1147c-8 -50 -36.333 -75 -85 -75h-349c-37.333 0 -56 18.333 -56 55c0 7.33301 0.666992 15.333 2 24l187 1149c7.33301 46 35.333 69 84 69h340z" />
    <glyph glyph-name="quotedbl" unicode="&#x22;" horiz-adv-x="1005" 
d="M473 1237c-27.333 0.666992 -43.999 23.335 -49.999 68.002l-22 157c-2.66699 10 -4 21.333 -4 34c0 13.333 1.33301 27.666 4 42.999l32 199c6.66699 39.333 31 59 73 59h180c35.333 0 53 -14.667 53 -44c0 -4.66699 -0.333008 -9.66699 -1 -15l-32 -199
c-5.33301 -31.333 -14 -57 -26 -77l-72 -157c-20.667 -44.667 -45.334 -67.334 -74.001 -68.001h-61zM873.001 1237c-27.333 0.666992 -43.999 23.335 -49.999 68.002l-22 157c-2.66699 10 -4 21.333 -4 34c0 13.333 1.33301 27.666 4 42.999l32 199
c6.66699 39.333 31 59 73 59h180c35.333 0 53 -14.667 53 -44c0 -4.66699 -0.333008 -9.66699 -1 -15l-32 -199c-5.33301 -31.333 -14 -57 -26 -77l-72 -157c-20.667 -44.667 -45.334 -67.334 -74.001 -68.001h-61z" />
    <glyph glyph-name="numbersign" unicode="#" horiz-adv-x="950" 
d="M649 348c0.666992 6.66699 0.999023 12.668 0.999023 18.001c0 22 -5.66699 33 -17 33h-202c-15.333 0 -26.666 -15.333 -33.999 -46l-36 -318v-2c0 -24.667 -13 -37 -39 -37h-276c-28 0.666992 -42 9.66699 -42 27c0 2 0.333008 4.33301 1 7
c3.33301 21.333 19.333 139.666 48 354.999v2c0 8 -4.66699 12 -14 12h-158c-27.333 0 -41 9 -41 27v5l13 120c2.66699 27.333 16.667 41 42 41h162c14 0 22 6.66699 24 20l40 261c0.666992 2.66699 1 4.66699 1 6c0 11.333 -6.33301 17 -19 17h-168
c-27.333 0 -41 9.33301 -41 28v5l13 119c2.66699 27.333 13.334 41 32.001 41h162c27.333 0 43 15 47 45l43 322c3.33301 24 21.666 36 54.999 36h256c26.667 -4 40 -19.667 40 -47c0 -6.66699 -0.666992 -13.667 -2 -21l-40 -301c-2.66699 -6.66699 -4 -12 -4 -16
c0 -12 8 -18 24 -18h191c14 0 23.667 12.333 29 37l45 294c3.33301 48 17 72 41 72h106c11.333 -2.66699 17 -11.334 17 -26.001c0 -10.667 -3 -24.667 -9 -42l-41 -304v-4c0 -18 9.33301 -27 28 -27h149c22.667 0 34 -11.333 34 -34v-7l-13 -119
c-2.66699 -22 -15.667 -33 -39 -33h-163c-15.333 0 -24 -8.33301 -26 -25l-27 -242c-1.33301 -5.33301 -2 -10 -2 -14c0 -15.333 9.33301 -23 28 -23h154c22.667 0 34 -11.333 34 -34v-7l-13 -120c-2.66699 -21.333 -15.667 -32 -39 -32h-168c-17.333 0 -27.333 -15 -30 -45
l-41 -290c-2.66699 -45.333 -13.667 -68 -33 -68h-96c-24 4 -36 15.333 -36 34c0 10.667 3.66699 23.334 11 38.001zM442.999 668.001c-1.33301 -9.33301 -2 -17.999 -2 -25.999c0 -33.333 11.667 -50 35 -50h151c34 0 53.667 17.667 59 53l26 197
c1.33301 9.33301 2 17.666 2 24.999c0 18.667 -4 28 -12 28c-11.333 -0.666992 -77.333 -1 -198 -1h-2c-20 0 -31 -20 -33 -60z" />
    <glyph glyph-name="dollar" unicode="$" horiz-adv-x="950" 
d="M541 14l-26.998 -169c-4.66699 -30 -19 -45 -43 -45h-76c-24.667 0 -37 11.667 -37 35c0 4 0.333008 8.33301 1 13l25 152c-84.667 8 -154.667 46 -210 114c-11.333 11.333 -17 22.333 -17 33v4c0.666992 4.66699 2.66699 9.33398 6 14.001l67 46c18 14 33.667 21 47 21
c8.66699 0 16 -3 22 -9c52 -41.333 101 -62 147 -62c42 0 81.667 17.333 119 52c31.333 29.333 49.333 59 54 89c0.666992 6 1 12 1 18c0 38.667 -21 78 -63 118l-186 171c-86 78.667 -129 168.667 -129 270c0 20 1.66699 40.667 5 62c4 24.667 10.667 50 20 76
c52.667 157.333 163.667 261 333 311l37 223c4.66699 30 19 45 43 45h76c24 0 36 -11.333 36 -34c0 -4 -0.333008 -8.66699 -1 -14l-32 -196c96.667 -2 175.667 -40.333 237 -115c10.667 -11.333 16 -22.333 16 -33v-5c-0.666992 -4.66699 -2.66699 -9.33398 -6 -14.001
l-66 -45c-18.667 -14 -34.667 -21 -48 -21c-8.66699 0 -16 3 -22 9c-52 40.667 -100.667 61 -146 61c-42 0 -81.333 -17 -118 -51c-32.667 -30 -51.334 -60 -56.001 -90c-0.666992 -6 -1 -11.667 -1 -17c0 -39.333 21.667 -79 65 -119l185 -170
c86 -78.667 129 -168.667 129 -270c0 -20 -1.66699 -40.667 -5 -62c-4 -24.667 -10.333 -50 -19 -76c-54 -158.667 -166.333 -263 -337 -313c-8.66699 -2.66699 -17.334 -5 -26.001 -7z" />
    <glyph glyph-name="percent" unicode="%" horiz-adv-x="1900" 
d="M592 1002c-2 -13.333 -3 -25.667 -3 -37c0 -52.667 24.667 -79.667 74 -81h8c55.333 0 96 19.333 122 58c26.667 40 45 90.333 55 151c4 24.667 6 48 6 70c0 30.667 -4 58 -12 82c-13.333 39.333 -48.333 59 -105 59h-4c-59.333 -1.33301 -95 -32 -107 -92zM995 1094
c-18 -109.333 -63.166 -203.831 -135.499 -283.498s-167.833 -119.5 -286.5 -119.5c-118 0 -204 40 -258 120c-41.333 59.333 -62 127.333 -62 204c0 25.333 2.33301 51.666 7 78.999c17.333 107.333 66.166 201.166 146.499 281.499s179.5 120.5 297.5 120.5
s200.333 -40 247 -120c34 -58.667 51 -124.667 51 -198c0 -26.667 -2.33301 -54.667 -7 -84zM1783 1498c20 0 30.001 -6.33301 30.001 -19v-5c-1.33301 -6 -4 -12.667 -8 -20l-1236 -1424c-20.667 -26 -45.334 -39 -74.001 -39h-96c-22 0 -33 6.66699 -33 20v5
c1.33301 8.66699 7 20 17 34l1241 1414c12.667 22.667 36.667 34 72 34h87zM1478 302.001c-2 -13.333 -3 -25.667 -3 -37c0 -52.667 24.667 -79.667 74 -81h8c55.333 0 96 19.333 122 58c26.667 40 45 90.333 55 151c4 24.667 6 48 6 70c0 30.667 -4 58 -12 82
c-13.333 39.333 -48.333 59 -105 59h-4c-59.333 -1.33301 -95 -32 -107 -92zM1881 394c-18 -109.333 -63.166 -203.831 -135.499 -283.498s-167.833 -119.5 -286.5 -119.5c-118 0 -204 40 -258 120c-41.333 59.333 -62 127.333 -62 204c0 25.333 2.33301 51.666 7 78.999
c17.333 107.333 66.166 201.166 146.499 281.499s179.5 120.5 297.5 120.5s200.333 -40 247 -120c34 -58.667 51 -124.667 51 -198c0 -26.667 -2.33301 -54.667 -7 -84z" />
    <glyph glyph-name="ampersand" unicode="&#x26;" horiz-adv-x="1926" 
d="M1763 710c-21.333 -128 -81.335 -258 -180.002 -390c-162 -217.333 -381.667 -327.333 -659 -330h-19c-268 0 -455.667 58.333 -563 175c-104 100 -156 209.667 -156 329c0 23.333 2 47 6 71c52 279.333 231 468 537 566c-124.667 79.333 -187 166.666 -187 261.999
c0 12 1 24.333 3 37c18 110.667 77.5 206 178.5 286s231.5 121.333 391.5 124c95.333 0 174.666 -9 237.999 -27s124.666 -61.667 183.999 -131c50.667 -60 76 -130.667 76 -212c0 -13.333 -0.666992 -26.666 -2 -39.999c-11.333 -70.667 -31.666 -106 -60.999 -106h-8
l-84 18c-62 10 -93 35 -93 75c0 4.66699 0.333008 9.33398 1 14.001c-7.33301 76.667 -38.333 126.667 -93 150c-25.333 10.667 -51.666 16 -78.999 16c-31.333 0 -63.666 -7 -96.999 -21c-64.667 -26.667 -106 -95 -124 -205c-3.33301 -18.667 -5 -36.334 -5 -53.001
c0 -115.333 73.333 -178.333 220 -189c27.333 -4.66699 41 -11 41 -19v-1c-13.333 -79.333 -58 -130.333 -134 -153c-205.333 -36.667 -326.333 -167 -363 -391c-3.33301 -18.667 -5 -36.334 -5 -53.001c0 -69.333 25.333 -127.333 76 -174
c73.333 -37.333 152.333 -56 237 -56c48 0 98.333 6 151 18c142.667 33.333 253.667 112.666 333 237.999c34 55.333 55 108 63 158c2.66699 14.667 4 28.334 4 41.001v8c-36 20.667 -89 43.334 -159 68.001c-23.333 7.33301 -43.666 11 -60.999 11
c-36.667 0 -62.334 -17 -77.001 -51c-8 -17.333 -23.333 -26 -46 -26l-15 5c-26.667 7.33301 -40 20 -40 38c0 2 0.333008 4.33301 1 7c0.666992 6.66699 3 14 7 22c78.667 142.667 181.334 214 308.001 214c28 0 57.333 -4 88 -12c46 -11.333 103.667 -41.333 173 -90
c28.667 -21.333 55 -32 79 -32c32 0 60 18.667 84 56c8 17.333 23.333 26 46 26l14 -5c10 -0.666992 15 -8 15 -22c0 -4 -0.333008 -8.66699 -1 -14c-3.33301 -20.667 -13 -49.667 -29 -87c-35.333 -81.333 -107 -129 -215 -143z" />
    <glyph glyph-name="quotesingle" unicode="'" horiz-adv-x="605" 
d="M473 1237c-27.333 0.666992 -43.999 23.335 -49.999 68.002l-22 157c-2.66699 10 -4 21.333 -4 34c0 13.333 1.33301 27.666 4 42.999l32 199c6.66699 39.333 31 59 73 59h180c35.333 0 53 -14.667 53 -44c0 -4.66699 -0.333008 -9.66699 -1 -15l-32 -199
c-5.33301 -31.333 -14 -57 -26 -77l-72 -157c-20.667 -44.667 -45.334 -67.334 -74.001 -68.001h-61z" />
    <glyph glyph-name="parenleft" unicode="(" horiz-adv-x="872" 
d="M229 852c42 258.667 125.332 457.669 249.999 597.002s262.667 242.333 414 309c82.667 36.667 141.667 55 177 55c25.333 0 38 -9.66699 38 -29c0 -2.66699 -0.333008 -5.66699 -1 -9l-5 -27c-2.66699 -18 -14.667 -31 -36 -39
c-208.667 -96.667 -325.667 -223.667 -351 -381l-155 -952c-3.33301 -20 -5 -39.667 -5 -59c0 -130.667 77.333 -238 232 -322c16 -6.66699 24 -17 24 -31c0 -2.66699 -0.333008 -5.33398 -1 -8.00098l-4 -27c-4 -25.333 -20.333 -38 -49 -38
c-35.333 0 -88.333 18.333 -159 55c-129.333 66.667 -233.666 169.667 -312.999 309c-52 91.333 -78 208 -78 350c0 75.333 7.33301 157.666 22 246.999z" />
    <glyph glyph-name="parenright" unicode=")" horiz-adv-x="872" 
d="M670 255c-124.667 -139.333 -262.331 -242.335 -412.998 -309.002c-82.667 -36.667 -141.667 -55 -177 -55c-25.333 0 -38 9.66699 -38 29c0 2.66699 0.333008 5.66699 1 9l5 27c2.66699 18 14.667 31 36 39c208.667 96.667 325.667 223.667 351 381l155 952
c3.33301 20 5 39.333 5 58c0 130.667 -77.333 238.334 -232 323.001c-16 7.33301 -24 18 -24 32v7l5 27c4 25.333 20.333 38 49 38c35.333 0 88.333 -18.333 159 -55c129.333 -66.667 233.666 -169.667 312.999 -309c52 -91.333 78 -208 78 -350
c0 -75.333 -7.33301 -157.666 -22 -246.999c-42.667 -258.667 -126.334 -457.667 -251.001 -597z" />
    <glyph glyph-name="asterisk" unicode="*" 
d="M634 1211c0 1.33301 -0.334961 2.66602 -1.00195 3.99902l-47 247c-8.66699 20 -13 45.667 -13 77v199c0 39.333 21 59 63 59h180c41.333 0 62 -19.667 62 -59v-199c0 -31.333 -4.33301 -57 -13 -77l-47 -247c0 -0.666992 -0.333008 -1.66699 -1 -3l204 122
c15.333 14.667 37.666 27.334 66.999 38.001l187 68c10 4 19 6 27 6c23.333 0 40 -14.667 50 -44l62 -169c4 -10.667 6 -20.667 6 -30c0 -23.333 -13.333 -39.666 -40 -48.999l-187 -68c-26 -9.33301 -49.333 -14 -70 -14h-7l-242 -40l193 -158c20 -9.33301 40 -26 60 -50
l128 -153c11.333 -13.333 17 -26 17 -38c0 -16 -9.33301 -31.667 -28 -47l-137 -116c-15.333 -12.667 -29.666 -19 -42.999 -19c-15.333 0 -29.666 8 -42.999 24l-128 153c-20 24 -33 46.333 -39 67l-123 219l-2 4c0 -1.33301 -0.333008 -2.66602 -1 -3.99902l-122 -219
c-6.66699 -20.667 -20 -43 -40 -67l-128 -153c-13.333 -16 -27.666 -24 -42.999 -24c-13.333 0 -27.333 6.33301 -42 19l-138 116c-18.667 15.333 -28 31 -28 47c0 12 5.66699 24.667 17 38l128 153c20.667 24 40.667 40.667 60 50l192 157h-3l-248 41h-7
c-20.667 0 -44 4.66699 -70 14l-187 68c-26.667 9.33301 -40 25.666 -40 48.999c0 9.33301 2 19.333 6 30l62 169c10 29.333 26.667 44 50 44c8 0 16.667 -2 26 -6l187 -68c30 -10.667 52.667 -23.334 68 -38.001z" />
    <glyph glyph-name="plus" unicode="+" 
d="M602 694h-447c-36.667 0 -55 14 -55 42v152c0 35.333 19.333 53 58 53h444v444c0 38.667 17.667 58 53 58h152c28 0 42 -18.333 42 -55v-447h443c38.667 0 58 -17.667 58 -53v-152c0 -28 -18.333 -42 -55 -42h-446v-446c0 -36.667 -14 -55 -42 -55h-152
c-35.333 0 -53 19.333 -53 58v443z" />
    <glyph glyph-name="comma" unicode="," horiz-adv-x="703" 
d="M332 -284c-19.333 -16 -39.667 -24 -61 -24h-106c-24 0 -36 9.33301 -36 28c0 2 0.333008 4.33301 1 7l120 274h-105c-26 0 -39 10.333 -39 31c0 3.33301 0.333008 7 1 11l25 152c5.33301 35.333 24 53 56 53h407c27.333 0 41 -13 41 -39c0 -4 -0.333008 -8.66699 -1 -14
l-25 -152z" />
    <glyph glyph-name="hyphen" unicode="-" horiz-adv-x="994" 
d="M231 531c-26 0 -39 10.333 -39 31c0 3.33301 0.333008 7 1 11l25 152c5.33301 35.333 24 53 56 53h698c27.333 0 41 -13 41 -39c0 -4 -0.333008 -8.66699 -1 -14l-25 -152c-4.66699 -28 -22 -42 -52 -42h-704z" />
    <glyph glyph-name="hyphen" unicode="&#xad;" horiz-adv-x="994" 
d="M231 531c-26 0 -39 10.333 -39 31c0 3.33301 0.333008 7 1 11l25 152c5.33301 35.333 24 53 56 53h698c27.333 0 41 -13 41 -39c0 -4 -0.333008 -8.66699 -1 -14l-25 -152c-4.66699 -28 -22 -42 -52 -42h-704z" />
    <glyph glyph-name="period" unicode="." horiz-adv-x="803" 
d="M195 0c-26 0.666992 -39 11.333 -39 32c0 3.33301 0.333008 7 1 11l25 152c5.33301 35.333 24 53 56 53h407c27.333 0 41 -13 41 -39c0 -4 -0.333008 -8.66699 -1 -14l-25 -152c-4.66699 -28 -22 -42 -52 -42z" />
    <glyph glyph-name="slash" unicode="/" horiz-adv-x="578" 
d="M154 36c-10 -24 -26 -36 -48 -36h-126c-25.333 0 -38 6.66699 -38 20v4c1.33301 6.66699 5.33301 15 12 25l761 1712c10 24 26 36 48 36h126c25.333 0 38 -6.66699 38 -20v-4c-1.33301 -6.66699 -5.33301 -15 -12 -25z" />
    <glyph glyph-name="zero" unicode="0" 
d="M609 257c4 -11.333 10 -19.333 18 -24c33.333 -36.667 88.333 -55 165 -55c115.333 0 212 51 290 153s129.333 229.333 154 382c8.66699 54 13 105 13 153c0 77.333 -11.333 146.333 -34 207zM1138 1190c-44 38 -101.334 57 -172.001 57
c-75.333 0 -129.666 -15.667 -162.999 -47c-37.333 -17.333 -65 -69.333 -83 -156l-87 -535zM1481 713c-32 -196 -114.999 -365.834 -248.999 -509.501s-304 -215.5 -510 -215.5c-204.667 0 -350.667 72 -438 216c-64 104.667 -96 223.667 -96 357
c0 48.667 4.33301 99.334 13 152.001c31.333 194.667 114.166 364 248.499 508s303.833 216 508.5 216c206 0 352.667 -72 440 -216c63.333 -106 95 -225.667 95 -359c0 -48 -4 -97.667 -12 -149z" />
    <glyph glyph-name="one" unicode="1" 
d="M647 1121h-221c-38.667 2.66699 -58.667 14.667 -60 36v9c2.66699 18 18 35.667 46 53l709 151c14 4 26 6 36 6c24 0 36 -11.667 36 -35c0 -5.33301 -0.666992 -11 -2 -17l-191 -1176h342c26.667 0 40 -12.667 40 -38c0 -4.66699 -0.333008 -9.66699 -1 -15l-8 -52
c-4.66699 -28 -22 -42 -52 -42h-1193c-26 0 -39 10.333 -39 31c0 3.33301 0.333008 7 1 11l8 52c6 35.333 25 53 57 53h334z" />
    <glyph glyph-name="two" unicode="2" 
d="M671 271l-0.00390625 -4c0 -8.66699 3.33301 -15 10 -19h587c32 0 48.667 -17.667 50 -53l-25 -152c-11.333 -28.667 -32 -43 -62 -43h-1038c-14.667 -0 -22 8.33301 -22 25c0 3.33301 0.333008 7.33301 1 12c34 210.667 164.833 353.667 392.5 429
s385.5 177.666 473.5 306.999l45 278c1.33301 10.667 2 21 2 31c0 65.333 -35.333 106 -106 122c-21.333 4.66699 -42.666 7 -63.999 7c-60.667 0 -121 -19.667 -181 -59c-82 -53.333 -148.667 -121 -200 -203c-23.333 -45.333 -48.666 -68 -75.999 -68h-135
c-18 0 -27 9.66699 -27 29c0 4.66699 0.666992 10 2 16l1 8c48.667 138.667 136.334 257 263.001 355c122.667 94 263.334 141 422.001 141h17c166 -3.33301 288.667 -52.666 368 -147.999c62.667 -75.333 94 -161.333 94 -258c0 -25.333 -2 -51.333 -6 -78
c-44.667 -275.333 -198.667 -454 -462 -536l-230 -74c-52 -11.333 -83.333 -33 -94 -65z" />
    <glyph glyph-name="three" unicode="3" 
d="M666 685c0 4 0.333008 7.66309 1 10.9961c4.66699 28.667 18.334 50.334 41.001 65.001c16 1.33301 32 2 48 2h20c94 4 149.333 12.333 166 25c16 7.33301 26.667 29 32 65l44 268c1.33301 10 2 19 2 27c0 27.333 -7 44.333 -21 51c-13.333 15.333 -76 23 -188 23
c-111.333 -20 -193.666 -78.667 -246.999 -176c-10 -8.66699 -24.667 -13 -44 -13c-24 0 -55.667 7.66699 -95 23c-33.333 12.667 -50 30 -50 52c0 2 0.333008 4.33301 1 7c10 21.333 29 47 57 77c104.667 142 248.667 223 432 243c206 0 351.667 -31 437 -93
c68 -49.333 102 -121.666 102 -216.999c0 -24.667 -2.33301 -51 -7 -79c-23.333 -142 -90.333 -260.333 -201 -355l-32 -27c22.667 -18 44 -39 64 -63c72 -85.333 108 -182.666 108 -291.999c0 -28.667 -2.66699 -58.334 -8 -89.001
c-23.333 -146 -97.833 -272.833 -223.5 -380.5s-300.834 -161.5 -525.501 -161.5c-158.667 0 -283.334 54 -374.001 162c-36.667 42.667 -55 78.334 -55 107.001c0 3.33301 0.333008 6.66602 1 9.99902c4.66699 26.667 18.667 44.667 42 54l113 23
c39.333 0 70.333 -13.333 93 -40c50.667 -60.667 116.667 -91 198 -91c122 0 197.667 11 227 33c18.667 8.66699 31.667 34.334 39 77.001l82 504c1.33301 10.667 2 20.334 2 29.001c0 34.667 -8.33301 56 -25 64c-16 18.667 -84.667 28 -206 28h-8c-28 0 -42 13.333 -42 40
v7z" />
    <glyph glyph-name="four" unicode="4" 
d="M852 1414c10.667 16 35.999 24.002 75.999 24.002h371c36.667 0 55 -14 55 -42c0 -4 -0.333008 -8.33301 -1 -13l-172 -1056h238c25.333 0 38 -14.333 38 -43c0 -6.66699 -0.666992 -14.334 -2 -23.001l-17 -103c-6 -37.333 -34.667 -56 -86 -56h-208l-59 -360
c-7.33301 -46 -38.666 -69 -93.999 -69h-343c-46.667 0 -70 17.667 -70 53c0 5.33301 0.333008 10.666 1 15.999l59 360h-528c-30.667 0 -46 14 -46 42c0 5.33301 0.666992 11 2 17l15 101zM372.999 370.002c-8 -8.66699 -12.667 -16 -14 -22v-2c0 -12 15.333 -18 46 -18
h222c32 0 51 19.333 57 58l90 549c1.33301 10 2 18.333 2 25c0 12 -2.66699 18 -8 18s-13.333 -6 -24 -18z" />
    <glyph glyph-name="five" unicode="5" 
d="M757 667c-54.667 41.333 -150.998 62 -288.998 62h-34c-48.667 0 -80.667 30.667 -96 92l-15 49c-0.666992 4.66699 -1 9.33398 -1 14.001c0 6.66699 0.666992 13.667 2 21c4 22.667 14 45.667 30 69l336 409c23.333 34 59.666 51 108.999 51h612c38 0 57 -9 57 -27v-5
l-22 -136c-6 -37.333 -20.333 -56 -43 -56h-385l-256 -318c216.667 -4 375 -67 475 -189c78 -95.333 117 -206.333 117 -333c0 -35.333 -3 -72 -9 -110c-28 -173.333 -111 -314.5 -249 -423.5s-300.667 -163.5 -488 -163.5c-224 13.333 -380.667 76.666 -470 189.999
c-4 12.667 -6 24.667 -6 36c0 5.33301 0.333008 10.333 1 15c3.33301 22.667 16 40.667 38 54c71.333 52 112.666 78 123.999 78c10 0 17.333 -4.33301 22 -13c60 -71.333 125.333 -107 196 -107c17.333 0 35 1.33301 53 4c108 17.333 187.333 64.666 238 141.999
c46.667 68.667 75 133.667 85 195c4 25.333 6 50.333 6 75c0 34 -4 66.667 -12 98c-26 106.667 -68 182.334 -126 227.001z" />
    <glyph glyph-name="six" unicode="6" 
d="M776 1153c44.667 9.33301 90.667 13.999 138 13.999c171.333 0 305.666 -58 402.999 -174c76 -92 114 -196.333 114 -313c0 -31.333 -2.66699 -63.666 -8 -96.999c-25.333 -157.333 -105.333 -293.833 -240 -409.5s-287.667 -173.5 -459 -173.5
c-169.333 0 -302.333 58 -399 174c-78 91.333 -117 196 -117 314c0 26 2 53 6 81l71 435c41.333 256 137.333 451.833 288 587.5s295.334 203.5 434.001 203.5c205.333 0 350.666 -51 435.999 -153c69.333 -83.333 104 -172.666 104 -267.999c0 -22 -2 -44.667 -6 -68
c-6.66699 -41.333 -26 -62 -58 -62h-9l-114 -3c-32.667 0.666992 -49 16.667 -49 48c0 5.33301 0.333008 11 1 17c1.33301 10 2 20 2 30c0 48 -18.667 94.667 -56 140c-45.333 54 -108.666 81 -189.999 81s-144 -27 -188 -81c-36 -44.667 -70.667 -152.334 -104 -323.001z
M645 359.999c-2 -14.667 -3 -27.3359 -3 -38.0029c0 -24 5.33301 -39.333 16 -46c24.667 -23.333 67 -35 127 -35c87.333 0 168.833 32.833 244.5 98.5s121.167 146.834 136.5 243.501c3.33301 22 5 43.333 5 64c0 68.667 -20.667 128.334 -62 179.001
c-54.667 65.333 -125.667 98 -213 98c-58.667 0 -99.667 -9.66699 -123 -29c-26.667 -11.333 -45.667 -44.666 -57 -99.999z" />
    <glyph glyph-name="seven" unicode="7" 
d="M898 1182c2 4 3.33398 7.66797 4.00098 11.001v3c0 8.66699 -6 13 -18 13h-490c-29.333 0 -44 11.333 -44 34c0 4 0.333008 8 1 12l19 121c6.66699 38 31 57 73 57h1061c20 0 30 -6.66699 30 -20c0 -2.66699 -0.333008 -5 -1 -7c-0.666992 -4 -1.66699 -8 -3 -12
l-705 -1620l-21 -50c-14.667 -34 -52.334 -51 -113.001 -51h-359c-42 0 -63 14 -63 42c0 3.33301 0.333008 6.66602 1 9.99902c2 12 7.33301 26.333 16 43z" />
    <glyph glyph-name="eight" unicode="8" 
d="M661 246c22.667 -22 61.6689 -33.001 117.002 -33.001c81.333 0 157.166 30.333 227.499 91s112.833 136 127.5 226c3.33301 20.667 5 40.334 5 59.001c0 64.667 -19.667 120.667 -59 168c-50.667 60.667 -116.667 91 -198 91c-54.667 0 -92.667 -9.33301 -114 -28
c-24.667 -10 -42.334 -41 -53.001 -93l-66 -404c-2 -12.667 -3 -24 -3 -34c0 -22.667 5.33301 -37 16 -43zM559.002 973.999l-23.998 27.001c-63.333 74.667 -95 160 -95 256c0 25.333 2.33301 51.666 7 78.999c20.667 128.667 86.5 240.667 197.5 336
s236.167 143 375.5 143c140 0 249.667 -47.667 329 -143c62.667 -75.333 94 -161.333 94 -258c0 -25.333 -2 -51.333 -6 -78c-21.333 -128.667 -87 -240.334 -197 -335.001c-10.667 -9.33301 -21.334 -18 -32.001 -26c23.333 -18.667 45 -40 65 -64
c71.333 -86 107 -183.667 107 -293c0 -28.667 -2.33301 -58 -7 -88c-24 -146 -98.833 -272.833 -224.5 -380.5s-267.834 -161.5 -426.501 -161.5c-158 0 -282 54 -372 162c-72 84.667 -108 181.667 -108 291c0 28.667 2.66699 58.334 8 89.001c23.333 146 98 273 224 381
c28 24 56.333 45 85 63zM879.004 1073l20.001 0.000976562c16 0 31.667 -0.666992 47 -2c57.333 6 111.666 31.333 162.999 76c59.333 50.667 95 113.667 107 189c2.66699 16.667 4 32.667 4 48c0 55.333 -16.333 102.666 -49 141.999c-42.667 50.667 -98 76 -166 76
c-45.333 0 -77 -7.66699 -95 -23c-21.333 -8.66699 -36.333 -34.667 -45 -78l-55 -338c-2 -11.333 -3 -21 -3 -29c0 -18.667 4.66699 -30.667 14 -36c12.667 -12.667 32 -21 58 -25z" />
    <glyph glyph-name="nine" unicode="9" 
d="M910 300c-45.333 -9.33301 -91.667 -14.001 -139 -14.001c-171.333 0 -305.333 58.333 -402 175c-76.667 92 -115 196.667 -115 314c0 30.667 2.66699 62.334 8 95.001c26 157.333 106.167 293.833 240.5 409.5s287.166 173.5 458.499 173.5
c169.333 0 303 -57.667 401 -173c77.333 -92 116 -196.667 116 -314c0 -26.667 -2 -54 -6 -82l-71 -435c-42 -256 -138.167 -451.833 -288.5 -587.5s-294.833 -203.5 -433.5 -203.5c-205.333 0 -350.666 51.333 -435.999 154c-69.333 82.667 -104 171.667 -104 267
c0 22 2 44.667 6 68c6.66699 41.333 26 62 58 62h9l113 3c32.667 -0.666992 49 -16.667 49 -48c0 -5.33301 -0.333008 -11 -1 -17c-2 -10.667 -3 -21 -3 -31c0 -48 19 -94 57 -138c46 -54.667 109.667 -82 191 -82s144 27.333 188 82c36 44 70.667 151.333 104 322z
M1041 1093c2 14 3 26.334 3 37.001c0 24.667 -5.66699 40.334 -17 47.001c-24 23.333 -66 35 -126 35c-87.333 0 -168.833 -32.833 -244.5 -98.5s-121.5 -146.834 -137.5 -243.501c-3.33301 -21.333 -5 -42 -5 -62c0 -70 21.333 -130.333 64 -181
c54 -65.333 124.667 -98 212 -98c58.667 0 99.667 9.66699 123 29c26 11.333 45 44.666 57 99.999z" />
    <glyph glyph-name="colon" unicode=":" horiz-adv-x="803" 
d="M195 0c-26 0.666992 -39 11.333 -39 32c0 3.33301 0.333008 7 1 11l25 152c5.33301 35.333 24 53 56 53h407c27.333 0 41 -13 41 -39c0 -4 -0.333008 -8.66699 -1 -14l-25 -152c-4.66699 -28 -22 -42 -52 -42zM447 1549c-26 0.666992 -39 11.333 -39 32
c0 3.33301 0.333008 7 1 11l25 152c5.33301 35.333 24 53 56 53h407c27.333 0 41 -13 41 -39c0 -4 -0.333008 -8.66699 -1 -14l-25 -152c-4.66699 -28 -22 -42 -52 -42z" />
    <glyph glyph-name="semicolon" unicode=";" horiz-adv-x="803" 
d="M382 -284c-19.333 -16 -39.667 -24 -61 -24h-106c-24 0 -36 9.33301 -36 28c0 2 0.333008 4.33301 1 7l120 274h-105c-26 0 -39 10.333 -39 31c0 3.33301 0.333008 7 1 11l25 152c5.33301 35.333 24 53 56 53h407c27.333 0 41 -13 41 -39c0 -4 -0.333008 -8.66699 -1 -14
l-25 -152zM446.999 1549c-26 0.666992 -39 11.333 -39 32c0 3.33301 0.333008 7 1 11l25 152c5.33301 35.333 24 53 56 53h407c27.333 0 41 -13 41 -39c0 -4 -0.333008 -8.66699 -1 -14l-25 -152c-4.66699 -28 -22 -42 -52 -42z" />
    <glyph glyph-name="semicolon" unicode="&#x37e;" horiz-adv-x="803" 
d="M382 -284c-19.333 -16 -39.667 -24 -61 -24h-106c-24 0 -36 9.33301 -36 28c0 2 0.333008 4.33301 1 7l120 274h-105c-26 0 -39 10.333 -39 31c0 3.33301 0.333008 7 1 11l25 152c5.33301 35.333 24 53 56 53h407c27.333 0 41 -13 41 -39c0 -4 -0.333008 -8.66699 -1 -14
l-25 -152zM446.999 1549c-26 0.666992 -39 11.333 -39 32c0 3.33301 0.333008 7 1 11l25 152c5.33301 35.333 24 53 56 53h407c27.333 0 41 -13 41 -39c0 -4 -0.333008 -8.66699 -1 -14l-25 -152c-4.66699 -28 -22 -42 -52 -42z" />
    <glyph glyph-name="less" unicode="&#x3c;" 
d="M101 825v22.001c0 27.333 16 50.666 48 69.999l1130 509c14 5.33301 25.667 8 35 8c22.667 0 34 -14.333 34 -43v-229c0 -40 -18.667 -68 -56 -84l-522 -282c-17.333 -5.33301 -26 -10.333 -26 -15c0 -5.33301 8.33301 -10 25 -14l536 -198
c28.667 -11.333 43 -38.333 43 -81v-92c0 -40.667 -17.667 -61 -53 -61c-6.66699 0 -13.667 0.666992 -21 2l-1120 424c-35.333 14.667 -53 36 -53 64z" />
    <glyph glyph-name="equal" unicode="=" 
d="M195 894c-30 0 -45 14 -45 42v152c0 35.333 16 53 48 53h1054c32 0 48 -17.667 48 -53v-152c0 -28 -15 -42 -45 -42h-1060zM195 494c-30 0 -45 14 -45 42v152c0 35.333 16 53 48 53h1054c32 0 48 -17.667 48 -53v-152c0 -28 -15 -42 -45 -42h-1060z" />
    <glyph glyph-name="greater" unicode="&#x3e;" 
d="M1348 944v-22.001c0 -27.333 -16 -50.666 -48 -69.999l-1130 -509c-14 -5.33301 -25.667 -8 -35 -8c-22.667 0 -34 14.333 -34 43v229c0 40 18.667 68 56 84l522 282c17.333 5.33301 26 10.333 26 15c0 5.33301 -8.33301 10 -25 14l-536 198
c-28.667 11.333 -43 38.333 -43 81v92c0 40.667 17.667 61 53 61c6.66699 0 13.667 -0.666992 21 -2l1120 -424c35.333 -14.667 53 -36 53 -64z" />
    <glyph glyph-name="question" unicode="?" horiz-adv-x="1413" 
d="M392 1461c-31.333 4 -47.0029 17.001 -47.0029 39.001c0 2.66699 0.333008 5.66699 1 9c2 14 9.66699 31.333 23 52c37.333 58 82.333 107.667 135 149c137.333 100 296 151 476 153h23c138.667 0 245 -23.333 319 -70c116.667 -62 186.334 -157.333 209.001 -286
c5.33301 -28.667 8 -56.667 8 -84c0 -23.333 -2 -46.333 -6 -69c-10.667 -68.667 -38 -136.667 -82 -204l-376 -414c-42.667 -63.333 -70 -133 -82 -209c-10 -58.667 -48.667 -88.667 -116 -90h-347c-42.667 0 -64 19.667 -64 59c0 7.33301 0.666992 15.333 2 24
c17.333 106 75.333 227.333 174 364l330 362c22 33.333 36 69.333 42 108c2.66699 14 4 28.333 4 43c0 15.333 -1.33301 30.666 -4 45.999c-11.333 60 -41 103 -89 129c-23.333 12 -47.333 18 -72 18c-17.333 0 -36.333 -3.33301 -57 -10
c-55.333 -18 -100.666 -54 -135.999 -108c-19.333 -28.667 -49.666 -45 -90.999 -49zM452.997 1.00098c-26 0 -39 10.333 -39 31c0 3.33301 0.333008 7 1 11l25 152c5.33301 35.333 24 53 56 53h407c27.333 0 41 -13 41 -39c0 -4 -0.333008 -8.66699 -1 -14l-25 -152
c-4.66699 -28 -22 -42 -52 -42h-413z" />
    <glyph glyph-name="at" unicode="@" horiz-adv-x="2352" 
d="M1567 1005c2 5.33301 3.33301 9.99805 4 13.998c1.33301 6.66699 2 13.334 2 20.001c0 22.667 -6.66699 42.667 -20 60c-20 24.667 -69.667 43.334 -149 56.001l-29 2c-6 0.666992 -12.333 1 -19 1c-64 0 -130.667 -20.667 -200 -62c-86 -50 -142 -129 -168 -237
c-4 -12.667 -7 -25.667 -9 -39c-3.33301 -19.333 -5 -38 -5 -56c0 -63.333 20.333 -115 61 -155c51.333 -51.333 112 -79.333 182 -84h29c82.667 2.66699 139.167 14.5 169.5 35.5s49.833 44.167 58.5 69.5zM1939 629.998l-1.00293 -7c-1.33301 -8 -2 -15.333 -2 -22
c0 -46 29 -69 87 -69c15.333 0 32.666 1.66699 51.999 5c39.333 17.333 90.333 70 153 158c54 77.333 88.667 164 104 260l6 42c2 20 3 39.333 3 58c0 90 -22 172.667 -66 248c-53.333 90.667 -127 162.5 -221 215.5s-202.667 84.5 -326 94.5
c-30.667 2.66699 -62.667 4 -96 4c-100 0 -243.667 -11.333 -431 -34c-226 -52 -406.333 -168 -541 -348c-85.333 -112.667 -137.666 -228 -156.999 -346c-5.33301 -34 -8 -68.667 -8 -104c0 -36.667 3 -73.667 9 -111c32 -194.667 141.333 -339 328 -433
c112 -56.667 276.667 -85 494 -85c88 0 169.333 12.667 244 38c11.333 2.66699 21.666 4 30.999 4c12.667 0 23.667 -2.33301 33 -7c13.333 -7.33301 23 -20 29 -38l8 -39c2.66699 -7.33301 4 -14.333 4 -21c0 -2.66699 -0.333008 -5.33398 -1 -8.00098
c-1.33301 -8 -4.33301 -15.333 -9 -22c-11.333 -18 -32.666 -31.667 -63.999 -41c-109.333 -20 -214.666 -30 -315.999 -30c-348 0 -591 25.333 -729 76c-230 96.667 -370 262.334 -420 497.001c-11.333 54 -17 108 -17 162c0 42 3.33301 84 10 126
c22.667 141.333 77.667 284.666 165 429.999c168.667 244.667 396 398.334 682 461.001c139.333 30 367.333 45 684 45c121.333 0 230 -16.333 326 -49c188 -64.667 326.333 -164.334 415 -299.001c82.667 -126 124 -258.667 124 -398
c0 -9.33301 -0.333008 -18.666 -1 -27.999c-1.33301 -20 -3.66602 -40 -6.99902 -60c-21.333 -130.667 -92 -260 -212 -388c-131.333 -140.667 -298.333 -211 -501 -211c-7.33301 0 -15.333 0.333008 -24 1c-86.667 5.33301 -159 34.333 -217 87
c-62 -61.333 -180.333 -92 -355 -92h-35c-141.333 8.66699 -248.333 64.334 -321 167.001c-50.667 71.333 -76 149.666 -76 234.999c0 24 2 48.333 6 73c2.66699 14 5.66699 28 9 42c33.333 132 110.333 243.667 231 335c110.667 84 230 126 358 126
c12 0 23.667 -0.333008 35 -1c85.333 -4.66699 158 -26 218 -64l2 9c6.66699 27.333 21.334 41 44.001 41h3l398 -11c20.667 -2 31 -11.667 31 -29c0 -2.66699 -0.333008 -5.66699 -1 -9l-1 -5z" />
    <glyph glyph-name="A" unicode="A" horiz-adv-x="1551" 
d="M641 352l-164.999 -311c-17.333 -27.333 -49.333 -41 -96 -41h-349c-24.667 -0 -37 8.33301 -37 25c0 2 0.333008 4 1 6c1.33301 10 6.66602 22.667 15.999 38l885 1666c32 50.667 74.333 76 127 76c52 0 86.667 -26 104 -78l435 -1670c3.33301 -8.66699 5 -16.667 5 -24
c0 -2 -0.333008 -4 -1 -6c-3.33301 -22 -25 -33 -65 -33h-122c-54.667 -0 -88 16.333 -100 49l-90 303h-548zM1102 592c19.333 0 30.334 8 33.001 24c0.666992 2.66699 1 6 1 10l-115 428c-6 8.66699 -12.667 13 -20 13s-15.333 -5.33301 -24 -16l-216 -421
c-2.66699 -4.66699 -4.33398 -9 -5.00098 -13v-6c0 -12.667 8 -19 24 -19h322z" />
    <glyph glyph-name="B" unicode="B" horiz-adv-x="1604" 
d="M860 1495l-28.999 -178.002c-0.666992 -5.33301 -1 -10.666 -1 -15.999c0 -28.667 15.333 -43 46 -43h108c19.333 2.66699 38.333 12.334 57 29.001c35.333 30 57.333 72.333 66 127c2 12.667 3 24.667 3 36c0 68 -35.333 102 -106 102h-79
c-36.667 0 -58.334 -19 -65.001 -57zM998.001 1797c184.667 0 304.332 -38.332 358.999 -114.999c42 -59.333 63 -125.333 63 -198c0 -20.667 -1.66699 -42.334 -5 -65.001c-17.333 -106 -43.333 -174.667 -78 -206c44.667 -10 102 -57.333 172 -142
c86.667 -102.667 130 -217.667 130 -345c0 -32.667 -2.66699 -65.667 -8 -99c-26.667 -165.333 -110.667 -309 -252 -431c-139.333 -120 -286.666 -185.333 -441.999 -196h-758c-33.333 0 -50 14.333 -50 43c0 4.66699 0.333008 10 1 16l275 1689
c5.33301 32.667 29 49 71 49h522zM771.999 948.999l-102.999 -631c-1.33301 -7.33301 -2 -14 -2 -20c0 -34.667 20 -52 60 -52h209c78 4.66699 152.667 37.667 224 99c88 76.667 141 170.667 159 282c4.66699 28 7 54.667 7 80c0 76 -21.333 139.667 -64 191
c-62 73.333 -147 111.333 -255 114h-152c-48.667 0 -76.334 -21 -83.001 -63z" />
    <glyph glyph-name="C" unicode="C" horiz-adv-x="1932" 
d="M248 903c1.33301 13.333 2.99902 26.334 4.99902 39.001c14.667 91.333 43.667 181 87 269c105.333 216 277 380.667 515 494c150 70.667 305.667 106 467 106c96.667 0 195.334 -12.667 296.001 -38c208 -72.667 353.667 -188.334 437 -347.001
c6.66699 -18.667 10 -35 10 -49c0 -4.66699 -0.333008 -9 -1 -13c-4 -26 -21.667 -44.333 -53 -55l-78 -46c-25.333 -8.66699 -47 -13 -65 -13c-30.667 0 -50.334 12.333 -59.001 37c-104 121.333 -218.333 203.333 -343 246c-82 19.333 -153.333 29 -214 29
c-69.333 0 -124.333 -12.667 -165 -38c-66 -35.333 -111.333 -129 -136 -281l-111 -681c-8 -47.333 -12 -89 -12 -125c0 -79.333 19 -131.333 57 -156c32 -25.333 82.667 -38 152 -38c60.667 0 135.334 9.66699 224.001 29c138 42.667 279 124.667 423 246
c16.667 24.667 40.334 37 71.001 37c18 0 38.333 -4.33301 61 -13l63 -46c24 -9.33301 36 -24.333 36 -45c0 -3.33301 -0.333008 -6.66602 -1 -9.99902c-3.33301 -17.333 -13.333 -38 -30 -62c-134.667 -158.667 -318 -274.334 -550 -347.001
c-108.667 -25.333 -211.334 -38 -308.001 -38c-161.333 0 -305.333 35.667 -432 107c-201.333 112.667 -319.333 277 -354 493c-7.33301 44 -11 88.667 -11 134c0 44.667 3.66699 90 11 136z" />
    <glyph glyph-name="D" unicode="D" horiz-adv-x="1799" 
d="M1179 1797c228.667 -16 407.667 -105.668 537 -269.001c102 -136.667 153 -292.334 153 -467.001c0 -51.333 -4.33301 -104.666 -13 -159.999c-40 -243.333 -156 -451.333 -348 -624c-181.333 -157.333 -371.333 -249.666 -570 -276.999h-774
c-31.333 -0 -47 12.333 -47 37c0 4 0.333008 8 1 12l277 1700c5.33301 32 24 48 56 48h728zM801 1437l-176.999 -1090c-2 -10.667 -3 -20.334 -3 -29.001c0 -46.667 24.667 -70 74 -70h156c152.667 2.66699 294.667 62 426 178c145.333 128.667 233.333 287 264 475
c6.66699 43.333 10 85 10 125c0 134 -38 251.667 -114 353c-84.667 111.333 -224.334 168.666 -419.001 171.999h-124c-49.333 0 -80.333 -38 -93 -114z" />
    <glyph glyph-name="E" unicode="E" horiz-adv-x="1423" 
d="M1622 1797c40 0 60.002 -15.667 60.002 -47c0 -4.66699 -0.333008 -9.66699 -1 -15l-20 -122c-6.66699 -40.667 -30 -61 -70 -61h-666c-36.667 0 -58 -17.667 -64 -53l-106 -651c-1.33301 -6 -2 -11.667 -2 -17c0 -30 16 -45 48 -45h117c33.333 0 50 -13.333 50 -40
c0 -4 -0.333008 -8.33301 -1 -13l-24 -152c-4.66699 -28 -25.334 -42 -62.001 -42h-128c-32 0 -51 -18.667 -57 -56l-29 -174c-1.33301 -6.66699 -2 -13 -2 -19c0 -29.333 14.333 -44 43 -44h675c32.667 0 49 -11.333 49 -34c0 -2.66699 -0.333008 -5.66699 -1 -9l-26 -161
c-4.66699 -28 -23.334 -42 -56.001 -42h-1179c-28 0 -42 13.667 -42 41c0 5.33301 0.666992 11.333 2 18l271 1669c8 46 35 69 81 69h1140z" />
    <glyph glyph-name="F" unicode="F" horiz-adv-x="1098" 
d="M1312 1797c40 0 60.001 -15.667 60.001 -47c0 -4.66699 -0.333008 -9.66699 -1 -15l-20 -122c-6.66699 -40.667 -30 -61 -70 -61h-366c-36.667 0 -58 -17.667 -64 -53l-106 -651c-1.33301 -6 -2 -11.667 -2 -17c0 -30 16 -45 48 -45h127c33.333 0 50 -13.333 50 -40
c0 -4 -0.333008 -8.33301 -1 -13l-24 -152c-4.66699 -28 -25.334 -42 -62.001 -42h-138c-32 0 -51 -18.667 -57 -56l-69 -421c-6.66699 -41.333 -29.667 -62 -69 -62h-388c-28 0 -42 13.667 -42 41c0 5.33301 0.666992 11.333 2 18l271 1669c8 46 35 69 81 69h840z" />
    <glyph glyph-name="G" unicode="G" horiz-adv-x="2066" 
d="M273 900c1.33301 14.667 3.33301 29.335 6 44.002c14.667 90.667 43 179.667 85 267c105.333 216 277.333 380.667 516 494c149.333 70.667 304.666 106 465.999 106c96.667 0 195.334 -12.667 296.001 -38c208 -72.667 353.667 -188.334 437 -347.001
c6.66699 -18.667 10 -35 10 -49c0 -4.66699 -0.333008 -9 -1 -13c-4 -26 -21.667 -44.333 -53 -55l-77 -46c-25.333 -8.66699 -47 -13 -65 -13c-30.667 0 -50.334 12.333 -59.001 37c-104.667 121.333 -219 203.333 -343 246c-82.667 19.333 -154.334 29 -215.001 29
c-69.333 0 -124.333 -12.667 -165 -38c-66 -35.333 -111.333 -129 -136 -281l-133 -816c-2.66699 -17.333 -4 -32.666 -4 -45.999c0 -34.667 9 -57.334 27 -68.001c56 -43.333 131.667 -65 227 -65c56 0 119 7.66699 189 23c204 65.333 327.667 145 371 239
c2.66699 3.33301 4.33398 6.66602 5.00098 9.99902v2c0 10.667 -15.667 16 -47 16h-272c-41.333 0 -62 16.333 -62 49c0 4.66699 0.333008 9.66699 1 15l20 121c6.66699 41.333 29.334 62 68.001 62h694c34 0 51 -14.333 51 -43c0 -4.66699 -0.333008 -9.66699 -1 -15l-1 -8
c-17.333 -84.667 -88.666 -202.167 -213.999 -352.5s-304 -261.833 -536 -334.5c-108.667 -25.333 -211.334 -38 -308.001 -38c-161.333 0 -305.333 35.667 -432 107c-201.333 112.667 -319.333 277.334 -354 494.001c-6.66699 42 -10 84.667 -10 128
c0 45.333 3.66699 91 11 137c2 13.333 4.66699 26.666 8 39.999z" />
    <glyph glyph-name="H" unicode="H" horiz-adv-x="1618" 
d="M833 1797c43.333 0 65.001 -18.335 65.001 -55.002c0 -6 -0.666992 -12.667 -2 -20l-142 -873c-0.666992 -5.33301 -1 -10.333 -1 -15c0 -32 20 -48 60 -48h435c49.333 0 78 25.333 86 76l142 872c7.33301 42 33.333 63 78 63h169c45.333 0 68 -17.333 68 -52
c0 -5.33301 -0.333008 -10.666 -1 -15.999l-269 -1650c-8.66699 -52.667 -35.334 -79 -80.001 -79h-178c-40 0 -60 17.333 -60 52c0 5.33301 0.666992 11.333 2 18l65 394c1.33301 8.66699 2 16.334 2 23.001c0 34.667 -16.333 52 -49 52h-444c-50 0 -80 -29.667 -90 -89
l-61 -375c-8 -50 -36.333 -75 -85 -75h-366c-37.333 -0 -56 18.333 -56 55c0 7.33301 0.666992 15.333 2 24l268 1649c8 46 36.333 69 85 69h357z" />
    <glyph glyph-name="I" unicode="I" horiz-adv-x="726" 
d="M833 1797c43.333 0 65 -18.333 65 -55c0 -6 -0.666992 -12.667 -2 -20l-268 -1647c-8 -50 -36.333 -75 -85 -75h-366c-37.333 -0 -56 18.333 -56 55c0 7.33301 0.666992 15.333 2 24l268 1649c8 46 36.333 69 85 69h357z" />
    <glyph glyph-name="J" unicode="J" horiz-adv-x="870" 
d="M222 9l280 1719c7.33301 46 35.333 69 84 69h340c44 0 66 -18.667 66 -56c0 -6 -0.666992 -12.333 -2 -19l-280 -1717c-34.667 -197.333 -124 -325.666 -268 -384.999c-92.667 -38.667 -181 -58 -265 -58c-48 0 -94.333 6.33301 -139 19
c-140.667 41.333 -229.667 118 -267 230v13c3.33301 20.667 18.333 39.667 45 57l99 44c18.667 11.333 35 17 49 17c21.333 0 38.333 -12.667 51 -38c18.667 -34 41.667 -51 69 -51c14 0 29.667 4.66699 47 14c48.667 26.667 79 74 91 142z" />
    <glyph glyph-name="K" unicode="K" horiz-adv-x="1680" 
d="M785 1047c2.66699 -8 6.66895 -11.999 12.002 -11.999c7.33301 0 16.666 7 27.999 21l536 710c14.667 20.667 37.334 31 68.001 31h241c20 0 30 -6.66699 30 -20c0 -2 -0.333008 -4 -1 -6c-0.666992 -6 -3.33398 -13.667 -8.00098 -23l-492 -675
c-5.33301 -6.66699 -8.33301 -12.667 -9 -18v-3c0 -6.66699 4.33301 -11.334 13 -14.001c69.333 -30.667 154.666 -106.667 255.999 -228c122 -146.667 183 -315.667 183 -507c0 -51.333 -4.33301 -104 -13 -158l-14 -82c-6.66699 -42 -29 -63 -67 -63h-199
c-34 -0 -51 13.333 -51 40c0 4 0.333008 8.33301 1 13l15 92c7.33301 44 11 86.667 11 128c0 146.667 -45.667 275 -137 385c-74.667 89.333 -121 137.333 -139 144c-6.66699 1.33301 -13 2 -19 2c-26 0 -47.667 -11.333 -65 -34l-290 -394l-49 -301
c-8 -50 -36.333 -75 -85 -75h-349c-37.333 -0 -56 18.333 -56 55c0 7.33301 0.666992 15.333 2 24l268 1649c8 46 36.333 69 85 69h340c43.333 0 65 -18.333 65 -55c0 -6 -0.666992 -12.667 -2 -20z" />
    <glyph glyph-name="L" unicode="L" horiz-adv-x="935" 
d="M660 285c-0.666992 -5.33301 -1 -10 -1 -14c0 -16 6.33301 -24 19 -24h224c27.333 0 41 -13 41 -39c0 -4 -0.333008 -8.66699 -1 -14l-25 -152c-4.66699 -28 -22 -42 -52 -42h-683c-32 -0 -48 14.333 -48 43c0 4.66699 0.333008 10 1 16l271 1669c8 46 36.333 69 85 69
h340c43.333 0 65 -18.333 65 -55c0 -6 -0.666992 -12.667 -2 -20z" />
    <glyph glyph-name="M" unicode="M" horiz-adv-x="2130" 
d="M996 1761l462 -659c6 -10 12 -15 18 -15s12 4.33301 18 13l565 648c33.333 32.667 69 49 107 49h69c46 0 69 -15.333 69 -46c0 -3.33301 -0.333008 -7.33301 -1 -12l-275 -1690c-5.33301 -32.667 -30.333 -49 -75 -49h-188c-34.667 -0 -52 13.333 -52 40
c0 4 0.333008 8 1 12l194 1190v5c0 7.33301 -2.66699 11 -8 11c-4 0 -9.33301 -2 -16 -6l-595 -684c-8 -5.33301 -15.333 -8 -22 -8c-8.66699 0 -16.667 3.66699 -24 11l-419 575c-4.66699 4 -8.66699 6 -12 6c-5.33301 0 -9 -5.66699 -11 -17l-179 -1097
c-4 -25.333 -30.333 -38 -79 -38h-366c-37.333 -0 -56 18.333 -56 55c0 7.33301 0.666992 15.333 2 24l268 1649c8 46 36.333 69 85 69h437c34 0 61.667 -12 83 -36z" />
    <glyph glyph-name="N" unicode="N" horiz-adv-x="1601" 
d="M916 1748l365.999 -934c6 -12.667 11.333 -19 16 -19c5.33301 0 9.33301 8 12 24l151 922c6 37.333 35.333 56 88 56h157c46 0 69 -15.333 69 -46c0 -4 -0.333008 -8.33301 -1 -13l-272 -1669c-7.33301 -46 -28.666 -69 -63.999 -69h-107
c-35.333 0 -62.333 19.667 -81 59l-431 1023c-6 18.667 -11 28 -15 28c-4.66699 0 -8.66699 -9 -12 -27l-164 -1008c-8 -50 -36.333 -75 -85 -75h-366c-37.333 -0 -56 18.333 -56 55c0 7.33301 0.666992 15.333 2 24l268 1649c8 46 36.333 69 85 69h356
c45.333 -2.66699 73.333 -19 84 -49z" />
    <glyph glyph-name="O" unicode="O" horiz-adv-x="2160" 
d="M826 445c-5.33301 -30 -8 -56 -8 -78c0 -48.667 12 -79.667 36 -93c49.333 -48 135.333 -72 258 -72c178.667 0 345.5 66.833 500.5 200.5s248.833 300.167 281.5 499.5c7.33301 44.667 11 88 11 130c0 142 -43 265 -129 369c-112 134 -257.333 201 -436 201
c-120.667 0 -204.667 -20.667 -252 -62c-54 -22 -93 -90 -117 -204zM2217 902c-42 -258 -173.5 -481.999 -394.5 -671.999s-471.833 -285 -752.5 -285c-278.667 0 -497.667 95 -657 285c-126 150.667 -189 322.334 -189 515.001c0 50.667 4.33301 103 13 157
c42 257.333 173.667 481.166 395 671.499s471.333 285.5 750 285.5c280.667 0 500.667 -95 660 -285c125.333 -150.667 188 -322.334 188 -515.001c0 -50.667 -4.33301 -103 -13 -157z" />
    <glyph glyph-name="P" unicode="P" horiz-adv-x="1584" 
d="M760 825c5.33301 -26 25 -39 59 -39h209c78 4.66699 152.667 37.667 224 99c88 76.667 141 170.667 159 282c4.66699 28 7 54.667 7 80c0 76 -21.333 139.667 -64 191c-62 73.333 -147 111.333 -255 114h-152c-36 0 -60.667 -11.333 -74 -34zM1230 1797
c152 -10.667 277.998 -75.998 377.998 -195.998c80 -96 120 -206 120 -330c0 -32.667 -2.66699 -66.334 -8 -101.001c-27.333 -166.667 -116.333 -314.334 -267 -443.001c-129.333 -112 -271.666 -174.667 -426.999 -188h-276c-24 0 -37.667 -10.667 -41 -32l-72 -439
c-7.33301 -45.333 -28.666 -68 -63.999 -68h-406c-26 -0 -39 13.333 -39 40c0 6 0.666992 12.333 2 19l271 1669c8 46 36.333 69 85 69h744z" />
    <glyph glyph-name="Q" unicode="Q" horiz-adv-x="2200" 
d="M1402 -12c-99.333 -28.667 -203.333 -43 -312 -43c-278.667 0 -497.667 95 -657 285c-126 150.667 -189 322.334 -189 515.001c0 50.667 4.33301 103 13 157c42 257.333 173.667 481.166 395 671.499s471.333 285.5 750 285.5c280.667 0 500.667 -95 660 -285
c125.333 -150.667 188 -322.334 188 -515.001c0 -50.667 -4.33301 -103 -13 -157c-42 -258 -173.333 -482 -394 -672c-56 -48 -113.667 -89.667 -173 -125l5 -7c28 -61.333 65 -92 111 -92c20 0 42 6 66 18c8 10 18.333 15 31 15c13.333 0 29.333 -6 48 -18l95 -65
c18 -12.667 27 -26 27 -40v-5c-2 -10 -7.66699 -20.333 -17 -31c-110 -64 -209.333 -96 -298 -96c-82.667 0 -156.667 27.333 -222 82c-41.333 28.667 -79.333 69.334 -114 122.001zM1251 212l-20.001 30c-43.333 40.667 -87 61 -131 61c-49.333 0 -99.666 -25 -150.999 -75
c48 -17.333 109 -26 183 -26c40 0 79.667 3.33301 119 10zM842.999 426c116 77.333 224.666 116.001 325.999 116.001c78 0 151.333 -22.667 220 -68c43.333 -30 83 -73 119 -129l16 -24c36.667 24 73 51.333 109 82c154.667 133.333 248.334 299.666 281.001 498.999
c7.33301 44.667 11 88 11 130c0 142 -43 265 -129 369c-112 134 -257.333 201 -436 201c-120.667 0 -204.667 -20.667 -252 -62c-54 -22 -93 -90 -117 -204z" />
    <glyph glyph-name="R" unicode="R" horiz-adv-x="1579" 
d="M1220 1797c151.333 -10.667 277.332 -75.666 377.999 -194.999c80 -96.667 120 -207 120 -331c0 -32.667 -2.66699 -66.334 -8 -101.001c-27.333 -166.667 -111.333 -310.334 -252 -431.001c-81.333 -70.667 -132.666 -109.667 -153.999 -117
c-10.667 -10 -17 -20.333 -19 -31v-5c0 -3.33301 0.333008 -6.66602 1 -9.99902l165 -398l52 -127c3.33301 -8 5 -15.333 5 -22v-5c-2.66699 -16 -18 -24 -46 -24h-246c-24 0 -40.333 9 -49 27l-202 512h-206c-33.333 0 -52.333 -14.667 -57 -44l-68 -417
c-8.66699 -52 -39 -78 -91 -78h-366c-38.667 0 -58 17 -58 51c0 5.33301 0.666992 11.333 2 18l270 1659c8 46 36.333 69 85 69h744zM760.999 858.001c-1.33301 -7.33301 -2 -14 -2 -20c0 -34.667 20 -52 60 -52h209c78 4.66699 152.667 37.667 224 99
c88 76.667 141 170.667 159 282c4.66699 28 7 54.667 7 80c0 76 -21.333 139.667 -64 191c-62 73.333 -147 111.333 -255 114h-152c-48.667 0 -76.667 -21 -84 -63z" />
    <glyph glyph-name="S" unicode="S" horiz-adv-x="1055" 
d="M918 936l2.00098 0.00195312c39.333 -235.333 59 -388.666 59 -459.999c0 -12 -0.666992 -21.667 -2 -29l-3 -15c-16.667 -105.333 -71.334 -202 -164.001 -290c-97.333 -92.667 -213.666 -144.334 -348.999 -155.001c-16 -1.33301 -31.667 -2 -47 -2
c-131.333 0 -230.666 39 -297.999 117c-3.33301 6.66699 -5 13.667 -5 21c0 2.66699 0.333008 5.66699 1 9c2 14.667 10.333 30.667 25 48l84 72c20.667 22.667 41 34 61 34c15.333 0 30.333 -6.66699 45 -20c36 -23.333 67.333 -35 94 -35c18.667 0 35 5.33301 49 16
c22 16 35.333 38.333 40 67c1.33301 8.66699 2 18 2 28c0 9.33301 -0.666992 19.333 -2 30l-85 515h-2c-40 236 -60 389.667 -60 461c0 11.333 0.666992 20.666 2 27.999l3 15c16.667 105.333 71.667 202.333 165 291c97.333 92 213.333 143.333 348 154
c16 1.33301 31.667 2 47 2c131.333 0 230.666 -39 297.999 -117c3.33301 -6.66699 5 -13.667 5 -21c0 -3.33301 -0.333008 -6.66602 -1 -9.99902c-2 -14.667 -10 -30.334 -24 -47.001l-85 -72c-20.667 -22.667 -41 -34 -61 -34c-15.333 0 -30.333 6.66699 -45 20
c-36 23.333 -67.333 35 -94 35c-18.667 0 -34.667 -5 -48 -15c-22.667 -16.667 -36.334 -39.334 -41.001 -68.001c-1.33301 -8.66699 -2 -17.667 -2 -27c0 -10 0.666992 -20.333 2 -31z" />
    <glyph glyph-name="T" unicode="T" horiz-adv-x="1023" 
d="M1213 1797c33.333 0 50.001 -13.333 50.001 -40c0 -4 -0.333008 -8.33301 -1 -13l-25 -152c-4.66699 -28 -25.334 -42 -62.001 -42h-166l-240 -1475c-8 -50 -36.333 -75 -85 -75h-349c-37.333 -0 -56 18.333 -56 55c0 7.33301 0.666992 15.333 2 24l239 1471h-168
c-32.667 0 -49 11 -49 33c0 2.66699 0.333008 5.66699 1 9l25 152c6 35.333 28.333 53 67 53h817z" />
    <glyph glyph-name="U" unicode="U" horiz-adv-x="1713" 
d="M668 315c-1.33301 -8 -1.99902 -15.666 -1.99902 -22.999c0 -32.667 13.333 -56 40 -70c33.333 -18 96.333 -27 189 -27c136 5.33301 244.667 39.5 326 102.5s136.666 163.833 165.999 302.5l186 1139c6 38.667 28 58 66 58h199c33.333 0 50 -13.667 50 -41
c0 -4.66699 -0.333008 -9.33398 -1 -14.001l-175 -1075c-48 -238.667 -141.167 -416 -279.5 -532s-330.5 -174 -576.5 -174c-180.667 0 -341.667 41 -483 123c-122.667 71.333 -184 187 -184 347c0 24 1.33301 49 4 75l199 1222c7.33301 46 35.333 69 84 69h357
c44 0 66 -18.667 66 -56c0 -6 -0.666992 -12.333 -2 -19z" />
    <glyph glyph-name="V" unicode="V" horiz-adv-x="1464" 
d="M854 -3h-82c-27.333 0 -48.333 16 -63 48l-409 1683c-2.66699 10 -4 18.667 -4 26c0 3.33301 0.333008 6.33301 1 9c4 22.667 20.333 34 49 34h400c40 0 65 -18.667 75 -56l189 -902c2.66699 -17.333 6.33398 -26 11.001 -26c5.33301 0 11.333 8.33301 18 25l417 916
c16 28.667 45.333 43 88 43h142c35.333 0 53 -13.333 53 -40c0 -4 -0.333008 -8.33301 -1 -13c-0.666992 -6.66699 -2.33398 -13.667 -5.00098 -21l-807 -1673c-20 -35.333 -44 -53 -72 -53z" />
    <glyph glyph-name="W" unicode="W" horiz-adv-x="2093" 
d="M1171 643c-4 16 -8.66895 24 -14.002 24s-11 -5.66699 -17 -17l-310 -601c-20 -35.333 -44 -53 -72 -53h-82c-27.333 0 -48.333 16 -63 48l-313 1684c-2.66699 10 -4 18.667 -4 26c0 3.33301 0.333008 6.33301 1 9c4 22.667 20.333 34 49 34h400c40 0 65 -18.667 75 -56
l133 -716c2.66699 -17.333 6.33398 -26 11.001 -26c5.33301 0 11.333 8.33301 18 25l92 178l-96 526c-2.66699 10 -4 18.667 -4 26c0 3.33301 0.333008 6.33301 1 9c4 22.667 20.333 34 49 34h419l-1 -2c29.333 -5.33301 48.333 -23.333 57 -54l133 -716
c2.66699 -17.333 6.33398 -26 11.001 -26c5.33301 0 11.333 8.33301 18 25l373 730c16 28.667 45.333 43 88 43h192c35.333 0 53 -13.333 53 -40c0 -4 -0.333008 -8.33301 -1 -13c-0.666992 -6.66699 -2.33398 -13.667 -5 -21l-863 -1674c-20 -35.333 -44 -53 -72 -53h-82
c-27.333 0 -48.333 16 -63 48z" />
    <glyph glyph-name="X" unicode="X" horiz-adv-x="1689" 
d="M766 601l-465.997 1127c-2.66699 10 -4 18.667 -4 26c0 3.33301 0.333008 6.33301 1 9c4 22.667 20.333 34 49 34h399c40 0 65 -18.667 75 -56l276 -652c3.33301 -8.66699 7.33301 -13 12 -13s10 4 16 12l497 666c16 28.667 38.667 43 68 43h232
c24.667 0 37 -7.33301 37 -22c0 -2 -0.333008 -4 -1 -6c-0.666992 -4.66699 -2.33398 -10 -5.00098 -16l-741 -1004l311 -680c2.66699 -10 4 -18.667 4 -26c0 -3.33301 -0.333008 -6.33301 -1 -9c-4 -22.667 -20.333 -34 -49 -34h-400c-40 0 -65 19 -75 57l-107 221
c-4 9.33301 -8.66699 14 -14 14c-4.66699 0 -9.33398 -4 -14.001 -12l-170 -237c-16 -28.667 -38.667 -43 -68 -43h-272c-14.667 0 -22 4.33301 -22 13v4c1.33301 7.33301 5.66602 16.666 12.999 27.999z" />
    <glyph glyph-name="Y" unicode="Y" horiz-adv-x="1657" 
d="M1160 497l-69 -422c-8 -50 -36.333 -75 -85 -75h-349c-37.333 -0 -56 18.333 -56 55c0 7.33301 0.666992 15.333 2 24l68 415l-371 1234c-2.66699 10 -4 18.667 -4 26c0 3.33301 0.333008 6.33301 1 9c4 22.667 20.333 34 49 34h399c40 0 65 -18.667 75 -56l238 -794
c2.66699 -17.333 6.33398 -26 11.001 -26c5.33301 0 11.333 8.33301 18 25l521 808c16 28.667 45.333 43 88 43h183c35.333 0 53 -13.333 53 -40c0 -4 -0.333008 -8.33301 -1 -13c-0.666992 -6.66699 -2.33398 -13.667 -5.00098 -21z" />
    <glyph glyph-name="Z" unicode="Z" horiz-adv-x="1265" 
d="M762 302c-4 -8.66699 -6.66699 -16.667 -8 -24c-0.666992 -2 -1 -4 -1 -6c0 -16 12 -24 36 -24h433c32 0 48.667 -17.667 50 -53l-25 -152c-11.333 -28 -32 -42 -62 -42l-1068 -1c-46 0 -69 12 -69 36c0 2 0.333008 4.33301 1 7l1 8l6 11l751 1433
c6 10.667 9.66699 19.667 11 27v5c0 15.333 -11 23 -33 23h-470c-18.667 0 -29 14 -31 42l25 152c12.667 35.333 35 53 67 53h1099c26 0 39 -9.33301 39 -28c0 -2.66699 -0.333008 -5.33398 -1 -8.00098c-1.33301 -7.33301 -4 -15.666 -8 -24.999z" />
    <glyph glyph-name="bracketleft" unicode="[" horiz-adv-x="850" 
d="M451 -173l248 -0.00195312c28 0 42 -11 42 -33c0 -3.33301 -0.333008 -6.66602 -1 -9.99902l-7 -42c-4.66699 -28 -22 -42 -52 -42h-573c-37.333 0 -56 18.333 -56 55c0 7.33301 0.666992 15.333 2 24l317 1949c8 46 36.333 69 85 69h564c28 0 42 -11 42 -33
c0 -3.33301 -0.333008 -6.66602 -1 -9.99902l-7 -42c-4.66699 -28 -22 -42 -52 -42h-251z" />
    <glyph glyph-name="backslash" unicode="\" horiz-adv-x="578" 
d="M231 1748c-2.66699 7.33301 -4 14 -4 20v5c2.66699 16 18 24 46 24h126c22 0 34 -12 36 -36l203 -1712c2.66699 -8 4 -15.333 4 -22v-3c-2.66699 -16 -18 -24 -46 -24h-126c-22 0 -34 12 -36 36z" />
    <glyph glyph-name="bracketright" unicode="]" horiz-adv-x="850" 
d="M643 1670h-250.999c-26 0 -39 10.333 -39 31c0 3.33301 0.333008 7 1 11l7 42c4.66699 28.667 23 43 55 43h564c42 0 63 -17 63 -51c0 -5.33301 -0.666992 -11.333 -2 -18l-317 -1949c-8.66699 -52.667 -35.334 -79 -80.001 -79h-573c-26 0 -39 10.333 -39 31
c0 3.33301 0.333008 7 1 11l7 42c4.66699 28.667 23 43 55 43h248z" />
    <glyph glyph-name="asciicircum" unicode="^" 
d="M798 1741l524.001 -1120c1.33301 -7.33301 2 -14.333 2 -21c0 -35.333 -20.333 -53 -61 -53h-92c-42.667 0 -69.667 14.333 -81 43l-298 636c-4 16.667 -8.66699 25 -14 25c-4.66699 0 -9.66699 -8.66699 -15 -26l-282 -622c-16 -37.333 -44 -56 -84 -56h-229
c-28.667 0 -43 11.333 -43 34c0 9.33301 2.66699 21 8 35l509 1130c19.333 32 42.666 48 69.999 48h22c28 0 49.333 -17.667 64 -53z" />
    <glyph glyph-name="underscore" unicode="_" horiz-adv-x="1205" 
d="M-154 -357c-30 0 -45 14 -45 42v52c0 35.333 16 53 48 53h1507c32 0 48 -17.667 48 -53v-52c0 -28 -15 -42 -45 -42h-1513z" />
    <glyph glyph-name="grave" unicode="`" horiz-adv-x="534" 
d="M821 2028c10.667 -10.667 15.999 -21.667 15.999 -33v-5c-2 -10 -8 -20.333 -18 -31l-43 -36c-9.33301 -6.66699 -20 -10 -32 -10c-13.333 0 -28.666 4.33301 -45.999 13l-315 207c-8 10 -12 20.333 -12 31v7c2 12.667 9.33301 26 22 40l124 108c12 6 23 9 33 9
c14 0 25.667 -6 35 -18z" />
    <glyph glyph-name="a" unicode="a" horiz-adv-x="2011" 
d="M1446 96c-136.667 -62.667 -283.332 -94 -439.999 -94c-262 0 -468 89.333 -618 268c-118.667 141.333 -178 303 -178 485c0 47.333 4 96.333 12 147c39.333 242 163.166 452.5 371.499 631.5s443.5 268.5 705.5 268.5c156.667 0 293.334 -31.333 410.001 -94l3 20
c7.33301 46 35.333 69 84 69h357c44 0 66 -18.667 66 -56c0 -6 -0.666992 -12.333 -2 -19l-268 -1647c-8.66699 -50 -37.334 -75 -86.001 -75h-366c-37.333 -0 -56 18.333 -56 55c0 7.33301 0.666992 15.333 2 24zM1524 574l112.001 691.002v9c0 44 -18 85.667 -54 125
c-39.333 41.333 -132.333 68.666 -279 81.999c-18 1.33301 -35.667 2 -53 2c-130 0 -261.333 -44.333 -394 -133c-149.333 -100.667 -240.333 -250.334 -273 -449.001c-7.33301 -43.333 -11 -84.333 -11 -123c0 -139.333 46 -248 138 -326
c103.333 -88.667 220.333 -133 351 -133c17.333 0 35.333 0.666992 54 2c152.667 13.333 256.167 41.833 310.5 85.5s87.166 99.5 98.499 167.5z" />
    <glyph glyph-name="b" unicode="b" horiz-adv-x="1604" 
d="M860 1495l-28.999 -178.002c-0.666992 -5.33301 -1 -10.666 -1 -15.999c0 -28.667 15.333 -43 46 -43h108c19.333 2.66699 38.333 12.334 57 29.001c35.333 30 57.333 72.333 66 127c2 12.667 3 24.667 3 36c0 68 -35.333 102 -106 102h-79
c-36.667 0 -58.334 -19 -65.001 -57zM998.001 1797c184.667 0 304.332 -38.332 358.999 -114.999c42 -59.333 63 -125.333 63 -198c0 -20.667 -1.66699 -42.334 -5 -65.001c-17.333 -106 -43.333 -174.667 -78 -206c44.667 -10 102 -57.333 172 -142
c86.667 -102.667 130 -217.667 130 -345c0 -32.667 -2.66699 -65.667 -8 -99c-26.667 -165.333 -110.667 -309 -252 -431c-139.333 -120 -286.666 -185.333 -441.999 -196h-758c-33.333 0 -50 14.333 -50 43c0 4.66699 0.333008 10 1 16l275 1689
c5.33301 32.667 29 49 71 49h522zM771.999 948.999l-102.999 -631c-1.33301 -7.33301 -2 -14 -2 -20c0 -34.667 20 -52 60 -52h209c78 4.66699 152.667 37.667 224 99c88 76.667 141 170.667 159 282c4.66699 28 7 54.667 7 80c0 76 -21.333 139.667 -64 191
c-62 73.333 -147 111.333 -255 114h-152c-48.667 0 -76.334 -21 -83.001 -63z" />
    <glyph glyph-name="c" unicode="c" horiz-adv-x="1932" 
d="M248 903c1.33301 13.333 2.99902 26.334 4.99902 39.001c14.667 91.333 43.667 181 87 269c105.333 216 277 380.667 515 494c150 70.667 305.667 106 467 106c96.667 0 195.334 -12.667 296.001 -38c208 -72.667 353.667 -188.334 437 -347.001
c6.66699 -18.667 10 -35 10 -49c0 -4.66699 -0.333008 -9 -1 -13c-4 -26 -21.667 -44.333 -53 -55l-78 -46c-25.333 -8.66699 -47 -13 -65 -13c-30.667 0 -50.334 12.333 -59.001 37c-104 121.333 -218.333 203.333 -343 246c-82 19.333 -153.333 29 -214 29
c-69.333 0 -124.333 -12.667 -165 -38c-66 -35.333 -111.333 -129 -136 -281l-111 -681c-8 -47.333 -12 -89 -12 -125c0 -79.333 19 -131.333 57 -156c32 -25.333 82.667 -38 152 -38c60.667 0 135.334 9.66699 224.001 29c138 42.667 279 124.667 423 246
c16.667 24.667 40.334 37 71.001 37c18 0 38.333 -4.33301 61 -13l63 -46c24 -9.33301 36 -24.333 36 -45c0 -3.33301 -0.333008 -6.66602 -1 -9.99902c-3.33301 -17.333 -13.333 -38 -30 -62c-134.667 -158.667 -318 -274.334 -550 -347.001
c-108.667 -25.333 -211.334 -38 -308.001 -38c-161.333 0 -305.333 35.667 -432 107c-201.333 112.667 -319.333 277 -354 493c-7.33301 44 -11 88.667 -11 134c0 44.667 3.66699 90 11 136z" />
    <glyph glyph-name="d" unicode="d" horiz-adv-x="1799" 
d="M1179 1797c228.667 -16 407.667 -105.668 537 -269.001c102 -136.667 153 -292.334 153 -467.001c0 -51.333 -4.33301 -104.666 -13 -159.999c-40 -243.333 -156 -451.333 -348 -624c-181.333 -157.333 -371.333 -249.666 -570 -276.999h-774
c-31.333 -0 -47 12.333 -47 37c0 4 0.333008 8 1 12l277 1700c5.33301 32 24 48 56 48h728zM801 1437l-176.999 -1090c-2 -10.667 -3 -20.334 -3 -29.001c0 -46.667 24.667 -70 74 -70h156c152.667 2.66699 294.667 62 426 178c145.333 128.667 233.333 287 264 475
c6.66699 43.333 10 85 10 125c0 134 -38 251.667 -114 353c-84.667 111.333 -224.334 168.666 -419.001 171.999h-124c-49.333 0 -80.333 -38 -93 -114z" />
    <glyph glyph-name="e" unicode="e" horiz-adv-x="1971" 
d="M920 1117h779c41.333 0 65 9.33301 71 28c-12.667 214 -118.667 343.667 -318 389c-65.333 15.333 -126 23 -182 23c-95.333 0 -178 -21.667 -248 -65c-30 -14.667 -50 -52.667 -60 -114zM880 870l-50.999 -307.998c-8 -47.333 -12 -89 -12 -125
c0 -79.333 19 -131.333 57 -156c32.667 -25.333 83.667 -38 153 -38c60.667 0 135 9.66699 223 29c138.667 42.667 279.667 124.667 423 246c16.667 24.667 40.334 37 71.001 37c18 0 38.333 -4.33301 61 -13l63 -46c24 -9.33301 36 -24.333 36 -45
c0 -3.33301 -0.333008 -6.66602 -1 -9.99902c-2.66699 -17.333 -12.334 -38 -29.001 -62c-135.333 -158.667 -319 -274.334 -551 -347.001c-108.667 -25.333 -211.334 -38 -308.001 -38c-161.333 0 -305.333 35.667 -432 107c-201.333 112.667 -319.333 277 -354 493
c-6.66699 42.667 -10 85.667 -10 129c0 45.333 3.66699 91.333 11 138l8 44l6 40c14.667 90 43 178.333 85 265c105.333 216.667 277.333 381.667 516 495c149.333 70.667 304.666 106 465.999 106c96.667 0 195.334 -12.667 296.001 -38
c188 -72.667 315.333 -195.667 382 -369c47.333 -124.667 71 -240.334 71 -347.001c0 -36.667 -3 -72.334 -9 -107.001l-4 -22c-6 -38.667 -29 -58 -69 -58h-1098z" />
    <glyph glyph-name="f" unicode="f" horiz-adv-x="1098" 
d="M1312 1797c40 0 60.001 -15.667 60.001 -47c0 -4.66699 -0.333008 -9.66699 -1 -15l-20 -122c-6.66699 -40.667 -30 -61 -70 -61h-366c-36.667 0 -58 -17.667 -64 -53l-106 -651c-1.33301 -6 -2 -11.667 -2 -17c0 -30 16 -45 48 -45h127c33.333 0 50 -13.333 50 -40
c0 -4 -0.333008 -8.33301 -1 -13l-24 -152c-4.66699 -28 -25.334 -42 -62.001 -42h-138c-32 0 -51 -18.667 -57 -56l-69 -421c-6.66699 -41.333 -29.667 -62 -69 -62h-388c-28 0 -42 13.667 -42 41c0 5.33301 0.666992 11.333 2 18l271 1669c8 46 35 69 81 69h840z" />
    <glyph glyph-name="g" unicode="g" horiz-adv-x="2066" 
d="M273 900c1.33301 14.667 3.33301 29.335 6 44.002c14.667 90.667 43 179.667 85 267c105.333 216 277.333 380.667 516 494c149.333 70.667 304.666 106 465.999 106c96.667 0 195.334 -12.667 296.001 -38c208 -72.667 353.667 -188.334 437 -347.001
c6.66699 -18.667 10 -35 10 -49c0 -4.66699 -0.333008 -9 -1 -13c-4 -26 -21.667 -44.333 -53 -55l-77 -46c-25.333 -8.66699 -47 -13 -65 -13c-30.667 0 -50.334 12.333 -59.001 37c-104.667 121.333 -219 203.333 -343 246c-82.667 19.333 -154.334 29 -215.001 29
c-69.333 0 -124.333 -12.667 -165 -38c-66 -35.333 -111.333 -129 -136 -281l-133 -816c-2.66699 -17.333 -4 -32.666 -4 -45.999c0 -34.667 9 -57.334 27 -68.001c56 -43.333 131.667 -65 227 -65c56 0 119 7.66699 189 23c204 65.333 327.667 145 371 239
c2.66699 3.33301 4.33398 6.66602 5.00098 9.99902v2c0 10.667 -15.667 16 -47 16h-272c-41.333 0 -62 16.333 -62 49c0 4.66699 0.333008 9.66699 1 15l20 121c6.66699 41.333 29.334 62 68.001 62h694c34 0 51 -14.333 51 -43c0 -4.66699 -0.333008 -9.66699 -1 -15l-1 -8
c-17.333 -84.667 -88.666 -202.167 -213.999 -352.5s-304 -261.833 -536 -334.5c-108.667 -25.333 -211.334 -38 -308.001 -38c-161.333 0 -305.333 35.667 -432 107c-201.333 112.667 -319.333 277.334 -354 494.001c-6.66699 42 -10 84.667 -10 128
c0 45.333 3.66699 91 11 137c2 13.333 4.66699 26.666 8 39.999z" />
    <glyph glyph-name="h" unicode="h" horiz-adv-x="1618" 
d="M833 1797c43.333 0 65.001 -18.335 65.001 -55.002c0 -6 -0.666992 -12.667 -2 -20l-142 -873c-0.666992 -5.33301 -1 -10.333 -1 -15c0 -32 20 -48 60 -48h435c49.333 0 78 25.333 86 76l142 872c7.33301 42 33.333 63 78 63h169c45.333 0 68 -17.333 68 -52
c0 -5.33301 -0.333008 -10.666 -1 -15.999l-269 -1650c-8.66699 -52.667 -35.334 -79 -80.001 -79h-178c-40 0 -60 17.333 -60 52c0 5.33301 0.666992 11.333 2 18l65 394c1.33301 8.66699 2 16.334 2 23.001c0 34.667 -16.333 52 -49 52h-444c-50 0 -80 -29.667 -90 -89
l-61 -375c-8 -50 -36.333 -75 -85 -75h-366c-37.333 -0 -56 18.333 -56 55c0 7.33301 0.666992 15.333 2 24l268 1649c8 46 36.333 69 85 69h357z" />
    <glyph glyph-name="i" unicode="i" horiz-adv-x="726" 
d="M751 1297c44 0 66 -18.667 66 -56c0 -6 -0.666992 -12.333 -2 -19l-187 -1147c-8 -50 -36.333 -75 -85 -75h-366c-37.333 -0 -56 18.333 -56 55c0 7.33301 0.666992 15.333 2 24l187 1149c7.33301 46 35.333 69 84 69h357zM815 1550h-398c-32.667 0 -49 11 -49 33
c0 2.66699 0.333008 5.66699 1 9l25 152c6 35.333 29.333 53.333 70 54h387c33.333 0 50 -13.333 50 -40c0 -4 -0.333008 -8.33301 -1 -13l-25 -152c-4 -28 -24 -42.333 -60 -43z" />
    <glyph glyph-name="j" unicode="j" horiz-adv-x="820" 
d="M172 9l199 1219c7.33301 46 35.333 69 84 69h340c44 0 66 -18.667 66 -56c0 -6 -0.666992 -12.333 -2 -19l-199 -1217c-34.667 -197.333 -124 -325.666 -268 -384.999c-92.667 -38.667 -181 -58 -265 -58c-48 0 -94.333 6.33301 -139 19
c-140.667 41.333 -229.667 118 -267 230v13c3.33301 20.667 18.333 39.667 45 57l99 44c18.667 11.333 35 17 49 17c21.333 0 38.333 -12.667 51 -38c18.667 -34 41.667 -51 69 -51c14 0 29.667 4.66699 47 14c48.667 26.667 79 74 91 142zM856 1550h-398
c-32.667 0 -49 11 -49 33c0 2.66699 0.333008 5.66699 1 9l25 152c5.33301 35.333 28.333 53.333 69 54h387c34 0 51 -13.667 51 -41c0 -4 -0.333008 -8 -1 -12l-25 -152c-4.66699 -28 -24.667 -42.333 -60 -43z" />
    <glyph glyph-name="k" unicode="k" horiz-adv-x="1680" 
d="M785 1047c2.66699 -8 6.66895 -11.999 12.002 -11.999c7.33301 0 16.666 7 27.999 21l536 710c14.667 20.667 37.334 31 68.001 31h241c20 0 30 -6.66699 30 -20c0 -2 -0.333008 -4 -1 -6c-0.666992 -6 -3.33398 -13.667 -8.00098 -23l-492 -675
c-5.33301 -6.66699 -8.33301 -12.667 -9 -18v-3c0 -6.66699 4.33301 -11.334 13 -14.001c69.333 -30.667 154.666 -106.667 255.999 -228c122 -146.667 183 -315.667 183 -507c0 -51.333 -4.33301 -104 -13 -158l-14 -82c-6.66699 -42 -29 -63 -67 -63h-199
c-34 -0 -51 13.333 -51 40c0 4 0.333008 8.33301 1 13l15 92c7.33301 44 11 86.667 11 128c0 146.667 -45.667 275 -137 385c-74.667 89.333 -121 137.333 -139 144c-6.66699 1.33301 -13 2 -19 2c-26 0 -47.667 -11.333 -65 -34l-290 -394l-49 -301
c-8 -50 -36.333 -75 -85 -75h-349c-37.333 -0 -56 18.333 -56 55c0 7.33301 0.666992 15.333 2 24l268 1649c8 46 36.333 69 85 69h340c43.333 0 65 -18.333 65 -55c0 -6 -0.666992 -12.667 -2 -20z" />
    <glyph glyph-name="l" unicode="l" horiz-adv-x="935" 
d="M660 285c-0.666992 -5.33301 -1 -10 -1 -14c0 -16 6.33301 -24 19 -24h224c27.333 0 41 -13 41 -39c0 -4 -0.333008 -8.66699 -1 -14l-25 -152c-4.66699 -28 -22 -42 -52 -42h-683c-32 -0 -48 14.333 -48 43c0 4.66699 0.333008 10 1 16l271 1669c8 46 36.333 69 85 69
h340c43.333 0 65 -18.333 65 -55c0 -6 -0.666992 -12.667 -2 -20z" />
    <glyph glyph-name="m" unicode="m" horiz-adv-x="2262" 
d="M628 75c-8 -50 -36.3311 -74.9961 -84.998 -74.9961h-366c-37.333 0 -56 18.333 -56 55c0 7.33301 0.666992 15.333 2 24l268 1649c8 46 36.333 69 85 69h357c28.667 0 48 -8 58 -24c53.333 16.667 100.666 25 141.999 25h78c116 0 221 -36.333 315 -109
c115.333 72.667 233.666 109 354.999 109h77c148 0 279.333 -59.667 394 -179c73.333 -103.333 110 -205 110 -305c0 -10.667 -0.333008 -21.334 -1 -32.001l-197 -1211c-8 -47.333 -38 -71 -90 -71h-157c-46 0 -69 17.667 -69 53c0 5.33301 0.333008 10.666 1 15.999
l187 1149c2 18 3 35.333 3 52c0 78 -19 145 -57 201c-55.333 55.333 -111 83 -167 83c-53.333 0 -93.5 -2.83301 -120.5 -8.5s-43.833 -29.834 -50.5 -72.501l-229 -1404c-7.33301 -46 -37 -69 -89 -69h-157c-46 0 -69 17.667 -69 53c0 5.33301 0.333008 10.666 1 15.999
l187 1149c2 18 3 35.333 3 52c0 78 -19 145 -57 201c-55.333 55.333 -111 83 -167 83h-71c-31.333 0 -60.5 -2.5 -87.5 -7.5s-43.167 -23.833 -48.5 -56.5z" />
    <glyph glyph-name="n" unicode="n" horiz-adv-x="1862" 
d="M899 1765c75.333 20.667 158.668 36.001 250.001 46.001c48.667 5.33301 95.334 8 140.001 8c196 0 354.333 -50 475 -150c124.667 -104.667 187 -228.334 187 -371.001c0 -26 -2 -52.667 -6 -80l-187 -1149c-7.33301 -46 -30 -69 -68 -69h-179c-45.333 0 -68 19 -68 57
c0 6.66699 0.666992 13.667 2 21l175 1077c4 30.667 6 59.667 6 87c0 116.667 -35.667 202.667 -107 258c-66.667 51.333 -156.334 77 -269.001 77c-35.333 0 -73 -2.33301 -113 -7c-168 -22 -262.667 -70 -284 -144l-220 -1351c-8 -50 -36.333 -75 -85 -75h-366
c-37.333 -0 -56 18.333 -56 55c0 7.33301 0.666992 15.333 2 24l268 1649c8 46 36.333 69 85 69h357c33.333 0 53.666 -10.667 60.999 -32z" />
    <glyph glyph-name="o" unicode="o" horiz-adv-x="2160" 
d="M826 445c-5.33301 -30 -8 -56 -8 -78c0 -48.667 12 -79.667 36 -93c49.333 -48 135.333 -72 258 -72c178.667 0 345.5 66.833 500.5 200.5s248.833 300.167 281.5 499.5c7.33301 44.667 11 88 11 130c0 142 -43 265 -129 369c-112 134 -257.333 201 -436 201
c-120.667 0 -204.667 -20.667 -252 -62c-54 -22 -93 -90 -117 -204zM2217 902c-42 -258 -173.5 -481.999 -394.5 -671.999s-471.833 -285 -752.5 -285c-278.667 0 -497.667 95 -657 285c-126 150.667 -189 322.334 -189 515.001c0 50.667 4.33301 103 13 157
c42 257.333 173.667 481.166 395 671.499s471.333 285.5 750 285.5c280.667 0 500.667 -95 660 -285c125.333 -150.667 188 -322.334 188 -515.001c0 -50.667 -4.33301 -103 -13 -157z" />
    <glyph glyph-name="p" unicode="p" horiz-adv-x="1584" 
d="M760 825c5.33301 -26 25 -39 59 -39h209c78 4.66699 152.667 37.667 224 99c88 76.667 141 170.667 159 282c4.66699 28 7 54.667 7 80c0 76 -21.333 139.667 -64 191c-62 73.333 -147 111.333 -255 114h-152c-36 0 -60.667 -11.333 -74 -34zM1230 1797
c152 -10.667 277.999 -75.998 377.999 -195.998c80 -96 120 -206 120 -330c0 -32.667 -2.66699 -66.334 -8 -101.001c-27.333 -166.667 -116.333 -314.334 -267 -443.001c-129.333 -112 -271.666 -174.667 -426.999 -188h-312l-76 -464c-8 -50 -36.333 -75 -85 -75h-366
c-37.333 -0 -56 18.333 -56 55c0 7.33301 0.666992 15.333 2 24l268 1649c8 46 36.333 69 85 69h744z" />
    <glyph glyph-name="q" unicode="q" horiz-adv-x="2200" 
d="M1402 -12c-99.333 -28.667 -203.333 -43 -312 -43c-278.667 0 -497.667 95 -657 285c-126 150.667 -189 322.334 -189 515.001c0 50.667 4.33301 103 13 157c42 257.333 173.667 481.166 395 671.499s471.333 285.5 750 285.5c280.667 0 500.667 -95 660 -285
c125.333 -150.667 188 -322.334 188 -515.001c0 -50.667 -4.33301 -103 -13 -157c-42 -258 -173.333 -482 -394 -672c-56 -48 -113.667 -89.667 -173 -125l5 -7c28 -61.333 65 -92 111 -92c20 0 42 6 66 18c8 10 18.333 15 31 15c13.333 0 29.333 -6 48 -18l95 -65
c18 -12.667 27 -26 27 -40v-5c-2 -10 -7.66699 -20.333 -17 -31c-110 -64 -209.333 -96 -298 -96c-82.667 0 -156.667 27.333 -222 82c-41.333 28.667 -79.333 69.334 -114 122.001zM1251 212l-20.001 30c-43.333 40.667 -87 61 -131 61c-49.333 0 -99.666 -25 -150.999 -75
c48 -17.333 109 -26 183 -26c40 0 79.667 3.33301 119 10zM842.999 426c116 77.333 224.666 116.001 325.999 116.001c78 0 151.333 -22.667 220 -68c43.333 -30 83 -73 119 -129l16 -24c36.667 24 73 51.333 109 82c154.667 133.333 248.334 299.666 281.001 498.999
c7.33301 44.667 11 88 11 130c0 142 -43 265 -129 369c-112 134 -257.333 201 -436 201c-120.667 0 -204.667 -20.667 -252 -62c-54 -22 -93 -90 -117 -204z" />
    <glyph glyph-name="r" unicode="r" horiz-adv-x="1579" 
d="M1220 1797c151.333 -10.667 277.332 -75.666 377.999 -194.999c80 -96.667 120 -207 120 -331c0 -32.667 -2.66699 -66.334 -8 -101.001c-27.333 -166.667 -111.333 -310.334 -252 -431.001c-81.333 -70.667 -132.666 -109.667 -153.999 -117
c-10.667 -10 -17 -20.333 -19 -31v-5c0 -3.33301 0.333008 -6.66602 1 -9.99902l165 -398l52 -127c3.33301 -8 5 -15.333 5 -22v-5c-2.66699 -16 -18 -24 -46 -24h-246c-24 0 -40.333 9 -49 27l-202 512h-206c-33.333 0 -52.333 -14.667 -57 -44l-68 -417
c-8.66699 -52 -39 -78 -91 -78h-366c-38.667 0 -58 17 -58 51c0 5.33301 0.666992 11.333 2 18l270 1659c8 46 36.333 69 85 69h744zM760.999 858.001c-1.33301 -7.33301 -2 -14 -2 -20c0 -34.667 20 -52 60 -52h209c78 4.66699 152.667 37.667 224 99
c88 76.667 141 170.667 159 282c4.66699 28 7 54.667 7 80c0 76 -21.333 139.667 -64 191c-62 73.333 -147 111.333 -255 114h-152c-48.667 0 -76.667 -21 -84 -63z" />
    <glyph glyph-name="s" unicode="s" horiz-adv-x="1055" 
d="M918 936l2.00098 0.00195312c39.333 -235.333 59 -388.666 59 -459.999c0 -12 -0.666992 -21.667 -2 -29l-3 -15c-16.667 -105.333 -71.334 -202 -164.001 -290c-97.333 -92.667 -213.666 -144.334 -348.999 -155.001c-16 -1.33301 -31.667 -2 -47 -2
c-131.333 0 -230.666 39 -297.999 117c-3.33301 6.66699 -5 13.667 -5 21c0 2.66699 0.333008 5.66699 1 9c2 14.667 10.333 30.667 25 48l84 72c20.667 22.667 41 34 61 34c15.333 0 30.333 -6.66699 45 -20c36 -23.333 67.333 -35 94 -35c18.667 0 35 5.33301 49 16
c22 16 35.333 38.333 40 67c1.33301 8.66699 2 18 2 28c0 9.33301 -0.666992 19.333 -2 30l-85 515h-2c-40 236 -60 389.667 -60 461c0 11.333 0.666992 20.666 2 27.999l3 15c16.667 105.333 71.667 202.333 165 291c97.333 92 213.333 143.333 348 154
c16 1.33301 31.667 2 47 2c131.333 0 230.666 -39 297.999 -117c3.33301 -6.66699 5 -13.667 5 -21c0 -3.33301 -0.333008 -6.66602 -1 -9.99902c-2 -14.667 -10 -30.334 -24 -47.001l-85 -72c-20.667 -22.667 -41 -34 -61 -34c-15.333 0 -30.333 6.66699 -45 20
c-36 23.333 -67.333 35 -94 35c-18.667 0 -34.667 -5 -48 -15c-22.667 -16.667 -36.334 -39.334 -41.001 -68.001c-1.33301 -8.66699 -2 -17.667 -2 -27c0 -10 0.666992 -20.333 2 -31z" />
    <glyph glyph-name="t" unicode="t" horiz-adv-x="1023" 
d="M1213 1797c33.333 0 50.001 -13.333 50.001 -40c0 -4 -0.333008 -8.33301 -1 -13l-25 -152c-4.66699 -28 -25.334 -42 -62.001 -42h-166l-240 -1475c-8 -50 -36.333 -75 -85 -75h-349c-37.333 -0 -56 18.333 -56 55c0 7.33301 0.666992 15.333 2 24l239 1471h-168
c-32.667 0 -49 11 -49 33c0 2.66699 0.333008 5.66699 1 9l25 152c6 35.333 28.333 53 67 53h817z" />
    <glyph glyph-name="u" unicode="u" horiz-adv-x="1713" 
d="M668 315c-1.33301 -8 -1.99902 -15.666 -1.99902 -22.999c0 -32.667 13.333 -56 40 -70c33.333 -18 96.333 -27 189 -27c136 5.33301 244.667 39.5 326 102.5s136.666 163.833 165.999 302.5l186 1139c6 38.667 28 58 66 58h199c33.333 0 50 -13.667 50 -41
c0 -4.66699 -0.333008 -9.33398 -1 -14.001l-175 -1075c-48 -238.667 -141.167 -416 -279.5 -532s-330.5 -174 -576.5 -174c-180.667 0 -341.667 41 -483 123c-122.667 71.333 -184 187 -184 347c0 24 1.33301 49 4 75l199 1222c7.33301 46 35.333 69 84 69h357
c44 0 66 -18.667 66 -56c0 -6 -0.666992 -12.333 -2 -19z" />
    <glyph glyph-name="v" unicode="v" horiz-adv-x="1464" 
d="M854 -3h-82c-27.333 0 -48.333 16 -63 48l-409 1683c-2.66699 10 -4 18.667 -4 26c0 3.33301 0.333008 6.33301 1 9c4 22.667 20.333 34 49 34h400c40 0 65 -18.667 75 -56l189 -902c2.66699 -17.333 6.33398 -26 11.001 -26c5.33301 0 11.333 8.33301 18 25l417 916
c16 28.667 45.333 43 88 43h142c35.333 0 53 -13.333 53 -40c0 -4 -0.333008 -8.33301 -1 -13c-0.666992 -6.66699 -2.33398 -13.667 -5.00098 -21l-807 -1673c-20 -35.333 -44 -53 -72 -53z" />
    <glyph glyph-name="w" unicode="w" horiz-adv-x="2093" 
d="M1171 643c-4 16 -8.66895 24 -14.002 24s-11 -5.66699 -17 -17l-310 -601c-20 -35.333 -44 -53 -72 -53h-82c-27.333 0 -48.333 16 -63 48l-313 1684c-2.66699 10 -4 18.667 -4 26c0 3.33301 0.333008 6.33301 1 9c4 22.667 20.333 34 49 34h400c40 0 65 -18.667 75 -56
l133 -716c2.66699 -17.333 6.33398 -26 11.001 -26c5.33301 0 11.333 8.33301 18 25l92 178l-96 526c-2.66699 10 -4 18.667 -4 26c0 3.33301 0.333008 6.33301 1 9c4 22.667 20.333 34 49 34h419l-1 -2c29.333 -5.33301 48.333 -23.333 57 -54l133 -716
c2.66699 -17.333 6.33398 -26 11.001 -26c5.33301 0 11.333 8.33301 18 25l373 730c16 28.667 45.333 43 88 43h192c35.333 0 53 -13.333 53 -40c0 -4 -0.333008 -8.33301 -1 -13c-0.666992 -6.66699 -2.33398 -13.667 -5 -21l-863 -1674c-20 -35.333 -44 -53 -72 -53h-82
c-27.333 0 -48.333 16 -63 48z" />
    <glyph glyph-name="x" unicode="x" horiz-adv-x="1689" 
d="M766 601l-465.997 1127c-2.66699 10 -4 18.667 -4 26c0 3.33301 0.333008 6.33301 1 9c4 22.667 20.333 34 49 34h399c40 0 65 -18.667 75 -56l276 -652c3.33301 -8.66699 7.33301 -13 12 -13s10 4 16 12l497 666c16 28.667 38.667 43 68 43h232
c24.667 0 37 -7.33301 37 -22c0 -2 -0.333008 -4 -1 -6c-0.666992 -4.66699 -2.33398 -10 -5.00098 -16l-741 -1004l311 -680c2.66699 -10 4 -18.667 4 -26c0 -3.33301 -0.333008 -6.33301 -1 -9c-4 -22.667 -20.333 -34 -49 -34h-400c-40 0 -65 19 -75 57l-107 221
c-4 9.33301 -8.66699 14 -14 14c-4.66699 0 -9.33398 -4 -14.001 -12l-170 -237c-16 -28.667 -38.667 -43 -68 -43h-272c-14.667 0 -22 4.33301 -22 13v4c1.33301 7.33301 5.66602 16.666 12.999 27.999z" />
    <glyph glyph-name="y" unicode="y" horiz-adv-x="1657" 
d="M1160 497l-69 -422c-8 -50 -36.333 -75 -85 -75h-349c-37.333 -0 -56 18.333 -56 55c0 7.33301 0.666992 15.333 2 24l68 415l-371 1234c-2.66699 10 -4 18.667 -4 26c0 3.33301 0.333008 6.33301 1 9c4 22.667 20.333 34 49 34h399c40 0 65 -18.667 75 -56l238 -794
c2.66699 -17.333 6.33398 -26 11.001 -26c5.33301 0 11.333 8.33301 18 25l521 808c16 28.667 45.333 43 88 43h183c35.333 0 53 -13.333 53 -40c0 -4 -0.333008 -8.33301 -1 -13c-0.666992 -6.66699 -2.33398 -13.667 -5.00098 -21z" />
    <glyph glyph-name="z" unicode="z" horiz-adv-x="1265" 
d="M762 302c-4 -8.66699 -6.66699 -16.667 -8 -24c-0.666992 -2 -1 -4 -1 -6c0 -16 12 -24 36 -24h433c32 0 48.667 -17.667 50 -53l-25 -152c-11.333 -28 -32 -42 -62 -42l-1068 -1c-46 0 -69 12 -69 36c0 2 0.333008 4.33301 1 7l1 8l6 11l751 1433
c6 10.667 9.66699 19.667 11 27v5c0 15.333 -11 23 -33 23h-470c-18.667 0 -29 14 -31 42l25 152c12.667 35.333 35 53 67 53h1099c26 0 39 -9.33301 39 -28c0 -2.66699 -0.333008 -5.33398 -1 -8.00098c-1.33301 -7.33301 -4 -15.666 -8 -24.999z" />
    <glyph glyph-name="braceleft" unicode="{" horiz-adv-x="828" 
d="M202 766c-1.33301 2.66699 -2.00098 4.99414 -2.00098 6.99414c0.666992 2.66699 2.33398 5 5.00098 7c52 20.667 89 100.334 111 239.001l71 439c13.333 81.333 42.5 157.833 87.5 229.5s142.5 107.834 292.5 108.501h224c32 0 48 -11.333 48 -34
c0 -3.33301 -0.333008 -6.66602 -1 -9.99902c-5.33301 -32.667 -34.5 -54.167 -87.5 -64.5s-91.833 -28.666 -116.5 -54.999s-39.667 -55.166 -45 -86.499l-98 -602c-14 -85.333 -46.333 -141.666 -97 -168.999l-1 -4c32 -20.667 48 -58 48 -112
c0 -17.333 -1.66699 -36.333 -5 -57l-98 -602c-1.33301 -8 -2 -15.667 -2 -23c0 -22.667 6 -43.667 18 -63c16 -26.667 49 -45 99 -55c44.667 -9.33301 67 -28 67 -56c0 -2.66699 -0.333008 -5.66699 -1 -9c-4.66699 -29.333 -25 -44 -61 -44l-224 1
c-150 0 -235.667 36 -257 108c-14 44 -21 90 -21 138c0 30 2.66699 60.333 8 91l72 439c7.33301 46 11 85.667 11 119c0 66 -15 106 -45 120z" />
    <glyph glyph-name="bar" unicode="|" horiz-adv-x="366" 
d="M266 1722v-1947c0 -50 -24.333 -75 -73 -75h-26c-44.667 0 -67 26.333 -67 79v1949c0 46 24.333 69 73 69h17c50.667 0 76 -25 76 -75z" />
    <glyph glyph-name="braceright" unicode="}" horiz-adv-x="828" 
d="M763 527l-70.999 -438.995c-13.333 -81.333 -42.5 -157.833 -87.5 -229.5s-142.5 -107.5 -292.5 -107.5l-224 -1c-32 0 -48 11.333 -48 34c0 3.33301 0.333008 6.66602 1 9.99902c5.33301 32.667 34.5 54.167 87.5 64.5s91.833 28.666 116.5 54.999
s39.667 55.166 45 86.499l98 602c14 85.333 46.333 141.666 97 168.999l1 4c-32 20.667 -48 58 -48 112c0 17.333 1.66699 36.333 5 57l98 602c1.33301 8 2 15.667 2 23c0 22.667 -6 44 -18 64c-16 26 -48.667 44.333 -98 55c-45.333 8.66699 -68 27 -68 55
c0 2.66699 0.333008 5.66699 1 9c4.66699 29.333 25 44 61 44h224c150 -0.666992 236 -36.667 258 -108c13.333 -44.667 20 -91 20 -139c0 -30 -2.66699 -60.333 -8 -91l-72 -439c-7.33301 -46 -11 -85.667 -11 -119c0 -66 15 -106 45 -120c1.33301 -2 2 -4.33301 2 -7
c-0.666992 -2 -2.33398 -4.33301 -5.00098 -7c-52 -20.667 -89 -100.334 -111 -239.001z" />
    <glyph glyph-name="asciitilde" unicode="~" 
d="M798 909c68.667 -28 123 -42 163 -42c55.333 0 83.333 26.667 84 80c6.66699 20 23 30 49 30h124c26 0 39 -8.33301 39 -25c0 -2 -0.333008 -4.33301 -1 -7c-16 -197.333 -108 -296 -276 -296c-54 0 -163 31.667 -327 95c-70 26.667 -125 40 -165 40
c-54.667 0 -82.334 -24.667 -83.001 -74c-5.33301 -20.667 -16.666 -31 -33.999 -31c-4.66699 0 -9.66699 0.666992 -15 2h-124c-26 0 -39 15 -39 45c16.667 188.667 109 283 277 283c54 0 163.333 -33.333 328 -100z" />
    <glyph glyph-name="exclamdown" unicode="&#xa1;" horiz-adv-x="703" 
d="M1831 1797c26 0 39 -10.333 39 -31c0 -3.33301 -0.333008 -7 -1 -11l-25 -152c-5.33301 -35.333 -24 -53 -56 -53h-407c-27.333 0 -41 13 -41 39c0 4 0.333008 8.66699 1 14l25 152c4.66699 28 22 42 52 42h413zM1164 1c-44 0 -66 18.667 -66 56
c0 6 0.666992 12.333 2 19l187 1147c8 50 36.333 75 85 75h349c37.333 0 56 -18.333 56 -55c0 -7.33301 -0.666992 -15.333 -2 -24l-187 -1149c-7.33301 -46 -35.333 -69 -84 -69h-340z" />
    <glyph glyph-name="cent" unicode="&#xa2;" 
d="M847 1229l36 220c5.33301 32 19 48 41 48h96c13.333 0 20 -8.66699 20 -26c0 -5.33301 -0.666992 -11.666 -2 -18.999l-35 -215c56 -2.66699 112.333 -11 169 -25c146 -50.667 248.333 -131.667 307 -243c4.66699 -12.667 7 -24 7 -34
c0 -2.66699 -0.333008 -5.66699 -1 -9c-3.33301 -18.667 -15.666 -31.667 -36.999 -39l-54 -32c-18 -6 -33 -9 -45 -9c-22 0 -36 8.66699 -42 26c-72.667 84.667 -152.667 142 -240 172c-58 13.333 -108 20 -150 20c-48.667 0 -87.334 -8.66699 -116.001 -26
c-46 -25.333 -77.667 -91 -95 -197l-78 -477c-5.33301 -33.333 -8 -62.666 -8 -87.999c0 -55.333 13 -91.666 39 -108.999c23.333 -17.333 59.333 -26 108 -26c42 0 94 6.66699 156 20c97.333 30 196 87.333 296 172c11.333 17.333 28 26 50 26c12 0 26.333 -3 43 -9l44 -32
c16 -6 24 -16.333 24 -31c0 -2.66699 -0.333008 -5.33398 -1 -8.00098c-2 -12 -8.66699 -26.333 -20 -43c-94.667 -111.333 -223 -192.333 -385 -243c-62 -14 -121 -22.333 -177 -25l-37 -223c-4.66699 -30 -15.667 -45 -33 -45h-96c-18 0 -27 10.333 -27 31
c0 5.33301 0.666992 11 2 17l37 228c-66.667 11.333 -128.667 33 -186 65c-141.333 79.333 -224.333 194.666 -249 345.999c-4.66699 30 -7 60 -7 90c0 32.667 2.66699 65.667 8 99c1.33301 8.66699 3 17.667 5 27c0.666992 9.33301 2 18.333 4 27c10 64 30 126.667 60 188
c74 151.333 194.667 266.666 362 345.999c67.333 32 136.333 53.667 207 65z" />
    <glyph glyph-name="sterling" unicode="&#xa3;" 
d="M396 731c17.333 0 26.6719 4.99805 28.0049 14.998v3c0 4 -1 8.66699 -3 14c0.666992 5.33301 1 12 1 20c0 44 -13.333 125.333 -40 244c-21.333 94 -32 178 -32 252c0 34.667 2.33301 67.334 7 98.001v2c15.333 94.667 76.666 189 183.999 283
c96 83.333 240 127.333 432 132c192.667 0 322 -58 388 -174c6.66699 -7.33301 10 -16.333 10 -27c0 -2.66699 -0.333008 -5.33398 -1 -8.00098c-1.33301 -8.66699 -5 -18 -11 -28l-84 -28c-19.333 -9.33301 -36 -14 -50 -14c-18 0 -31 8 -39 24
c-32.667 30 -91.334 45 -176.001 45h-16c-58.667 -9.33301 -99.334 -23.666 -122.001 -42.999c-40.667 -35.333 -65 -78.666 -73 -129.999c-2 -10 -3 -22.667 -3 -38c0 -58.667 14 -154 42 -286s42 -227.667 42 -287c0 -14.667 -1 -27.334 -3 -38.001v-2
c0.666992 -19.333 16.667 -29 48 -29h186c26.667 0 40 -12.667 40 -38c0 -4.66699 -0.333008 -9.66699 -1 -15l-8 -52c-4.66699 -28 -22 -42 -52 -42h-179c-23.333 0 -37 -12 -41 -36c-0.666992 -4 -1 -8 -1 -12c-25.333 -143.333 -59.333 -243 -102 -299
c45.333 0 122 -15 230 -45c28.667 -8 57 -12 85 -12c78 0 154 30.667 228 92c13.333 12 24 18 32 18c7.33301 0 12.666 -4.33301 15.999 -13l4 -121c0.666992 -3.33301 1 -6.33301 1 -9c0 -3.33301 -0.333008 -6.33301 -1 -9c-2 -14.667 -9.33301 -28 -22 -40
c-55.333 -74.667 -141 -112 -257 -112c-62.667 0 -134 11 -214 33c-120 32.667 -225.667 49 -317 49c-82.667 0 -153.334 -13.333 -212.001 -40c-74 -34 -125.333 -51 -154 -51c-18 0 -27 6.33301 -27 19v3l3 139v8c0 5.33301 0.333008 10.333 1 15
c3.33301 20.667 15.333 34.334 36 41.001c127.333 51.333 201.333 139.333 222 264c3.33301 23.333 5 48.333 5 75v13c-0.666992 20 -11.667 30 -33 30h-143c-26 0 -39 10.333 -39 31c0 3.33301 0.333008 7 1 11l8 52c6 35.333 25 53 57 53h119z" />
    <glyph glyph-name="currency" unicode="&#xa4;" 
d="M459 1001c40 -40 87.999 -70.666 143.999 -91.999c41.333 -12 83 -18 125 -18c108 0 195 33.167 261 99.5s99 139.5 99 219.5c0 78 -32.667 150.167 -98 216.5s-152.666 99.5 -261.999 99.5c-108 0 -195 -33.167 -261 -99.5s-99 -138.5 -99 -216.5
c0 -38.667 7.66699 -75.334 23 -110.001c14 -34.667 36.667 -67.667 68 -99zM272.999 1485l-123.001 117.999c-9.33301 9.33301 -14 21 -14 35c0 12.667 3.66699 27 11 43l107 108c11.333 4 21.333 6 30 6c15.333 0 28.333 -5.33301 39 -16l136 -139
c78 38 167.667 57 269 57c90.667 0 171.667 -15 243 -45l125 127c10.667 10.667 23.667 16 39 16c9.33301 0 19.333 -2 30 -6l107 -108c7.33301 -16 11 -30.333 11 -43c0 -14 -4.66699 -25.667 -14 -35l-101 -98c77.333 -91.333 116 -190 116 -296
c0 -96 -30.667 -185.333 -92 -268l107 -103c9.33301 -9.33301 14 -21 14 -35c0 -12.667 -3.66699 -27 -11 -43l-107 -108c-10.667 -4 -20.667 -6 -30 -6c-15.333 0 -28.333 5.33301 -39 16l-118 120c-80 -41.333 -173.333 -62 -280 -62c-64.667 0 -129 9.33301 -193 28
c-31.333 11.333 -61 24.333 -89 39l-123 -125c-10.667 -10.667 -23.667 -16 -39 -16c-8.66699 0 -18.667 2 -30 6l-107 108c-7.33301 16 -11 30.333 -11 43c0 14 4.66699 25.667 14 35l111 106c-23.333 31.333 -41.666 64 -54.999 98
c-22.667 52.667 -34 108.334 -34 167.001c0 98.667 33.667 190.667 101 276z" />
    <glyph glyph-name="yen" unicode="&#xa5;" horiz-adv-x="1657" 
d="M1205 568l-52.999 -84l-11 -69h283c26.667 0 40 -12.667 40 -38c0 -4.66699 -0.333008 -9.66699 -1 -15l-8 -52c-4.66699 -28 -22 -42 -52 -42h-286l-32 -193c-8 -50 -36.333 -75 -85 -75h-349c-37.333 -0 -56 18.333 -56 55c0 7.33301 0.666992 15.333 2 24l31 189h-285
c-26 0 -39 10.333 -39 31c0 3.33301 0.333008 7 1 11l8 52c6 35.333 25 53 57 53h282l15 92l-18 61h-257c-26 0 -39 10.333 -39 31c0 3.33301 0.333008 7 1 11l8 52c6 35.333 25 53 57 53h185l-304 1013c-2.66699 10 -4 18.667 -4 26c0 3.33301 0.333008 6.33301 1 9
c4 22.667 20.333 34 49 34h399c40 0 65 -18.667 75 -56l238 -794c2.66699 -17.333 6.33398 -26 11.001 -26c5.33301 0 11.333 8.33301 18 25l521 808c16 28.667 45.333 43 88 43h183c35.333 0 53 -13.333 53 -40c0 -4 -0.333008 -8.33301 -1 -13
c-0.666992 -6.66699 -2.33398 -13.667 -5.00098 -21l-630 -1008h177c26.667 0 40 -12.667 40 -38c0 -4.66699 -0.333008 -9.66699 -1 -15l-8 -52c-4.66699 -28 -25.334 -42 -62.001 -42h-237z" />
    <glyph glyph-name="brokenbar" unicode="&#xa6;" horiz-adv-x="466" 
d="M316 1745v-697c0 -35.333 -17.667 -53 -53 -53h-66c-31.333 0 -47 18 -47 54v698c0 33.333 17.667 50 53 50h57c37.333 0 56 -17.333 56 -52zM316 749v-697c0 -34.667 -17.667 -52 -53 -52h-66c-31.333 0 -47 18 -47 54v698c0 33.333 17.667 50 53 50h57
c37.333 0 56 -17.667 56 -53z" />
    <glyph glyph-name="section" unicode="&#xa7;" 
d="M820 1179c-8 44.667 -12.665 76.333 -13.998 95c0.666992 45.333 4 86.666 10 123.999c9.33301 56 25 103.667 47 143c36.667 65.333 86.834 113.5 150.501 144.5s121.834 46.5 174.501 46.5c76.667 0 153.667 -32.333 231 -97c4 -8 6 -17.667 6 -29
c0 -4 -0.333008 -8 -1 -12c-1.33301 -10.667 -5.33301 -23 -12 -37l-56 -85c-13.333 -26 -27.666 -41 -42.999 -45c-2.66699 -0.666992 -5.33398 -1 -8.00098 -1c-9.33301 0 -19 3.66699 -29 11c-21.333 11.333 -40.666 17 -57.999 17c-6 0 -11.667 -0.666992 -17 -2
c-14 -4 -26 -12 -36 -24c-10.667 -15.333 -17.667 -33 -21 -53c-1.33301 -6 -2 -12.667 -2 -20c0 -16.667 2.66699 -35 8 -55l122 -470h2c20 -116.667 30.333 -205.667 31 -267c-0.666992 -33.333 -3.33398 -65 -8.00098 -95c-10 -61.333 -29.667 -114.666 -59 -159.999
c-85.333 -108.667 -187.333 -163 -306 -163c-27.333 0 -55.666 3 -84.999 9c9.33301 -50 14 -86.667 14 -110c-0.666992 -33.333 -3.33398 -64.666 -8.00098 -93.999c-10 -62 -30.333 -115.667 -61 -161c-91.333 -118 -195.333 -177 -312 -177h-6
c-108.667 15.333 -183.667 44 -225 86c-4 8 -6.33301 17.333 -7 28c0 3.33301 0.333008 7 1 11c2 12 6.33301 25.333 13 40l56 84c13.333 26 27.666 41 42.999 45c2.66699 0.666992 5 1 7 1c10 0 26.333 -4 49 -12c22 -8.66699 33 -13.667 33 -15c0 -0.666992 2 -1 6 -1
c6 0 11.333 0.666992 16 2c14 4 26 12.333 36 25c11.333 15.333 18.666 32.666 21.999 51.999c0.666992 4.66699 1 9 1 13v7c0 16.667 -2.33301 35 -7 55l-123 470h-1c-20.667 116.667 -31.334 200.667 -32.001 252c0.666992 45.333 4 87 10 125
c9.33301 56 24.666 103.667 45.999 143c80.667 108.667 186.334 163 317.001 163c27.333 0 55.666 -2.33301 84.999 -7zM814.002 946.999c-10 4.66699 -20.0029 7 -30.0029 7c-17.333 0 -34.666 -6.66699 -51.999 -20c-19.333 -15.333 -31.666 -39 -36.999 -71
c-2 -13.333 -3 -28.333 -3 -45l98 -363c13.333 -46.667 37.333 -72.667 72 -78c4.66699 -0.666992 9.33398 -1 14.001 -1c28.667 0 54 13.667 76 41c10.667 14.667 17.334 30 20.001 46c0.666992 5.33301 1 10.333 1 15c0 14.667 -3.33301 30 -10 46l-90 334
c-12.667 47.333 -32.334 77 -59.001 89z" />
    <glyph glyph-name="dieresis" unicode="&#xa8;" horiz-adv-x="854" 
d="M459 1931c-26 0 -39 10.333 -39 31c0 3.33301 0.333008 7 1 11l21 132c6 35.333 25 53 57 53h158c26.667 0 40 -12.667 40 -38c0 -4.66699 -0.333008 -9.66699 -1 -15l-21 -132c-4.66699 -28 -22 -42 -52 -42h-164zM859 1931c-26 0 -39 10.333 -39 31
c0 3.33301 0.333008 7 1 11l21 132c6 35.333 25 53 57 53h158c26.667 0 40 -12.667 40 -38c0 -4.66699 -0.333008 -9.66699 -1 -15l-21 -132c-4.66699 -28 -22 -42 -52 -42h-164z" />
    <glyph glyph-name="copyright" unicode="&#xa9;" horiz-adv-x="2386" 
d="M215 583c-43.333 98.667 -65 203 -65 313c0 226.667 95.833 435.834 287.5 627.501s443.5 287.5 755.5 287.5c315.333 0 568 -95.833 758 -287.5s285 -400.834 285 -627.501c0 -232 -95.833 -443 -287.5 -633s-443.5 -285 -755.5 -285
c-120.667 0 -241.667 17.667 -363 53c-161.333 58 -301.333 145 -420 261c-90 90.667 -155 187.667 -195 291zM570 414c92.667 -92.667 203.333 -163 332 -211c97.333 -28.667 194.333 -43 291 -43c249.333 0 450.666 76.5 603.999 229.5s230 322.5 230 508.5
c0 181.333 -75.667 348.666 -227 501.999s-353.666 230 -606.999 230c-250 0 -451.5 -76.667 -604.5 -230s-229.5 -320.666 -229.5 -501.999c0 -89.333 18 -174.333 54 -255c32 -80 84.333 -156.333 157 -229zM753.999 936c0 46.667 7 92 21 136
c35.333 108.667 108.666 191.667 219.999 249c69.333 35.333 144.333 53 225 53c49.333 0 100.333 -6.33301 153 -19c111.333 -36.667 194.333 -95 249 -175c6.66699 -12 10 -22.667 10 -32c0 -12.667 -7.66699 -21.667 -23 -27l-35 -23c-12 -4.66699 -22.667 -7 -32 -7
c-15.333 0 -26 6.33301 -32 19c-62.667 60.667 -127.334 102 -194.001 124c-42.667 9.33301 -79.334 14 -110.001 14c-35.333 0 -62 -6 -80 -18c-30.667 -18.667 -46 -66 -46 -142v-344c0 -76 15.333 -123.333 46 -142c18 -12 44.667 -18 80 -18
c30.667 0 67.334 5 110.001 15c66.667 21.333 131.334 62.333 194.001 123c6 13.333 16.667 20 32 20c9.33301 0 20 -2.66699 32 -8l35 -22c15.333 -6 23 -15.333 23 -28c0 -8.66699 -3.33301 -19 -10 -31c-54.667 -80 -137.667 -138.333 -249 -175
c-52.667 -13.333 -103.667 -20 -153 -20c-80.667 0 -155.667 18 -225 54c-111.333 57.333 -184.666 140.333 -219.999 249c-14 44 -21 89 -21 135v40z" />
    <glyph glyph-name="ordfeminine" unicode="&#xaa;" 
d="M1097 1081c-62.667 -26.667 -130 -40 -202 -40c-121.333 0 -217.333 37.667 -288 113c-57.333 60.667 -86 130 -86 208c0 18.667 1.66699 37.667 5 57c16.667 102 72.5 190.5 167.5 265.5s203.167 112.5 324.5 112.5c72 0 135.333 -13 190 -39l1 8
c3.33301 19.333 16 29 38 29h166c20 0 30 -7.66699 30 -23c0 -2.66699 -0.333008 -5.66699 -1 -9l-112 -691c-3.33301 -21.333 -16.333 -32 -39 -32h-169c-18 0 -27 8 -27 24c0 2.66699 0.333008 5.66699 1 9zM1130 1281l46.9971 291.001v2c0 19.333 -8.66699 37.333 -26 54
c-18 17.333 -61 29 -129 35h-25c-60 0 -120.333 -18.667 -181 -56c-68 -42 -109 -104.667 -123 -188c-2.66699 -16.667 -4 -32.334 -4 -47.001c0 -60.667 22 -108 66 -142c48 -37.333 102 -56 162 -56c8.66699 0 17.334 0.333008 26.001 1c70.667 6 118.334 18 143.001 36
s39.334 41.333 44.001 70zM456.997 743.001c-16 0 -26.998 9.66699 -32.998 29l8 51c13.333 24.667 28.666 37 45.999 37h776c18 0 29.667 -12.333 35 -37l-8 -51c-12.667 -19.333 -27.334 -29 -44.001 -29h-780z" />
    <glyph glyph-name="guillemotleft" unicode="&#xab;" 
d="M859 857c15.333 -17.333 23 -34.333 23 -51c0 -2 -0.333008 -4.33301 -1 -7c-3.33301 -18 -15.666 -35.333 -36.999 -52l-678 -432c-6.66699 -3.33301 -12.334 -5 -17.001 -5c-11.333 0 -17 9.33301 -17 28c0 6 0.666992 13.333 2 22l32 195c4 24.667 17.667 44 41 58
l332 234c8.66699 6.66699 13.667 13 15 19v2c0 6 -3 11.333 -9 16l-268 205c-11.333 11.333 -17 25 -17 41c0 4 0.333008 8 1 12l14 81c7.33301 22.667 18 34 32 34c9.33301 0 20.333 -5.33301 33 -16zM1453 857c15.333 -17.333 23 -34.333 23 -51
c0 -2 -0.333008 -4.33301 -1 -7c-3.33301 -18 -15.666 -35.333 -36.999 -52l-678 -432c-6.66699 -3.33301 -12.334 -5 -17.001 -5c-11.333 0 -17 9.33301 -17 28c0 6 0.666992 13.333 2 22l32 195c4 24.667 17.667 44 41 58l332 234c8.66699 6.66699 13.667 13 15 19v2
c0 6 -3 11.333 -9 16l-268 205c-11.333 11.333 -17 25 -17 41c0 4 0.333008 8 1 12l14 81c7.33301 22.667 18 34 32 34c9.33301 0 20.333 -5.33301 33 -16z" />
    <glyph glyph-name="logicalnot" unicode="&#xac;" 
d="M1103 694h-958c-30 0 -45 14 -45 42v152c0 35.333 16 53 48 53h1154c5.33301 1.33301 10 2 14 2c22.667 0 34 -15 34 -45v-555c0 -36.667 -14 -55 -42 -55h-152c-36.667 0 -55 15 -55 45c0 6 0.666992 12.667 2 20v341z" />
    <glyph glyph-name="registered" unicode="&#xae;" horiz-adv-x="2386" 
d="M1090 890c0 -24 12.001 -36 36.001 -36h104c39.333 2.66699 74.666 19.667 105.999 51c37.333 38 56 85 56 141c0 57.333 -16.667 103 -50 137c-38 36.667 -84 56 -138 58h-77c-24.667 0 -37 -10.333 -37 -31v-320zM1715 214c14 -23.333 20.9971 -43.334 20.9971 -60.001
c0 -19.333 -10 -34.333 -30 -45c-117.333 -87.333 -288.333 -131 -513 -131c-120.667 0 -241.667 17.667 -363 53c-161.333 58 -301.333 145 -420 261c-90 90.667 -155 187.667 -195 291c-43.333 98.667 -65 203 -65 313c0 226.667 95.833 435.834 287.5 627.501
s443.5 287.5 755.5 287.5c315.333 0 568 -95.833 758 -287.5s285 -400.834 285 -627.501c0 -232 -83 -428 -249 -588c-20.667 -22 -40.667 -33 -60 -33c-15.333 0 -30 7.66699 -44 23l-42 46c-12.667 15.333 -19 31 -19 47c0 18.667 8 37.667 24 57
c120.667 114.667 181 264.667 181 450c0 181.333 -75.667 348.666 -227 501.999s-353.666 230 -606.999 230c-250 0 -451.5 -76.667 -604.5 -230s-229.5 -320.666 -229.5 -501.999c0 -89.333 18 -174.333 54 -255c32 -80 84.333 -156.333 157 -229
c92.667 -92.667 203.334 -163 332.001 -211c97.333 -28.667 194.333 -43 291 -43c124.667 0 212.334 9.33301 263.001 28c35.333 13.333 53 30 53 50c0 8.66699 -3.33301 18 -10 28l-280 465h-129v-234c0 -26 -13.333 -39 -40 -39h-184c-22 0 -33 13.333 -33 40v832
c0 22.667 12 34 36 34h375c77.333 -5.33301 146.333 -38 207 -98c60.667 -61.333 91 -133.666 91 -216.999c0 -84 -30.333 -156.333 -91 -217c-35.333 -36 -63 -58 -83 -66z" />
    <glyph glyph-name="macron" unicode="&#xaf;" horiz-adv-x="1264" 
d="M459 1931c-26 0 -39 10.333 -39 31c0 3.33301 0.333008 7 1 11l21 132c6 35.333 25 53 57 53h968c26.667 0 40 -12.667 40 -38c0 -4.66699 -0.333008 -9.66699 -1 -15l-21 -132c-4.66699 -28 -22 -42 -52 -42h-974z" />
    <glyph glyph-name="degree" unicode="&#xb0;" horiz-adv-x="752" 
d="M117 1243c-11.333 26 -16.999 53.666 -16.999 82.999c0 60 25.333 115.333 76 166s117.334 76 200.001 76c83.333 0 150.166 -25.333 200.499 -76s75.5 -106 75.5 -166c0 -61.333 -25.333 -117.166 -76 -167.499s-117.334 -75.5 -200.001 -75.5c-32 0 -64 4.66699 -96 14
c-42.667 15.333 -79.667 38.333 -111 69c-24 24 -41.333 49.667 -52 77zM273.001 1246c15.333 -15.333 33.667 -27 55 -35c16 -4.66699 32 -7 48 -7c41.333 0 74.666 12.667 99.999 38s38 53.333 38 84c0 30 -12.5 57.667 -37.5 83s-58.5 38 -100.5 38
c-41.333 0 -74.666 -12.667 -99.999 -38s-38 -53 -38 -83c0 -14.667 3 -28.667 9 -42c5.33301 -13.333 14 -26 26 -38z" />
    <glyph glyph-name="plusminus" unicode="&#xb1;" 
d="M602 247v447h-447c-36.667 0 -55 14 -55 42v152c0 35.333 19.333 53 58 53h444v444c0 38.667 17.667 58 53 58h152c28 0 42 -18.333 42 -55v-447h443c38.667 0 58 -17.667 58 -53v-152c0 -28 -18.333 -42 -55 -42h-446v-447h443c38.667 0 58 -17.667 58 -53v-152
c0 -28 -18.333 -42 -55 -42h-1140c-36.667 0 -55 14 -55 42v152c0 35.333 19.333 53 58 53h444z" />
    <glyph glyph-name="uni00B2" unicode="&#xb2;" 
d="M816 983l0.00390625 -4.00391c0 -5.33301 2.33301 -9.33301 7 -12h411c22 0 33.333 -12.333 34 -37l-17 -107c-8 -20 -22.333 -30 -43 -30h-727c-10.667 0 -16 6 -16 18c0 2 0.333008 4.66699 1 8c24 147.333 115.833 247.333 275.5 300s270.167 124.334 331.5 215.001
l32 195c0.666992 6.66699 1 13 1 19c0 46.667 -25 76 -75 88c-14.667 3.33301 -29.334 5 -44.001 5c-42.667 0 -85.334 -14 -128.001 -42c-57.333 -37.333 -104 -84.666 -140 -141.999c-16 -31.333 -33.333 -47 -52 -47h-95c-12 0 -18 6.33301 -18 19c0 4 0.333008 8 1 12
l1 6c33.333 96.667 94.666 179.334 183.999 248.001c85.333 66 183.666 99 294.999 99h12c116.667 -2 202.667 -36.333 258 -103c44 -53.333 66 -113.666 66 -180.999c0 -18 -1.66699 -36.333 -5 -55c-31.333 -192.667 -139 -317.667 -323 -375l-162 -52
c-36 -8 -57.667 -23 -65 -45z" />
    <glyph glyph-name="uni00B3" unicode="&#xb3;" 
d="M847 1274l2 7.99902c2.66699 20 12 35 28 45c10.667 1.33301 21.667 2 33 2h14c19.333 2.66699 35 8.33398 47 17.001c10.667 5.33301 18 20.666 22 45.999l31 187c0.666992 6.66699 1 12.667 1 18c0 20 -4.66699 32.333 -14 37c-9.33301 10.667 -30 16 -62 16
c-78 -14 -135.667 -55 -173 -123c-7.33301 -6 -17.666 -9 -30.999 -9c-16.667 0 -38.334 5.33301 -65.001 16c-24 8.66699 -36 20.667 -36 36v5c2.66699 14.667 16 32.667 40 54c73.333 99.333 174.333 156 303 170c97.333 0 176 -21.667 236 -65
c47.333 -34 71 -84.333 71 -151c0 -17.333 -1.66699 -36 -5 -56c-16 -99.333 -62.667 -182.333 -140 -249l-23 -19c16 -12.667 31 -27.334 45 -44.001c50 -59.333 75 -127.666 75 -204.999c0 -20 -1.66699 -40.667 -5 -62c-16.667 -102 -69 -190.667 -157 -266
s-187.333 -113 -298 -113s-197.667 37.667 -261 113c-26 30 -39 55 -39 75c0 2.66699 0.333008 5 1 7c3.33301 18.667 13 31.334 29 38.001l79 16c28 0 49.667 -9.33301 65 -28c35.333 -42 81.666 -63 138.999 -63c38.667 0 68.334 7.66699 89.001 23
c12.667 6 21.667 24 27 54l57 352c1.33301 8.66699 2 16.667 2 24c0 22 -5.66699 35.667 -17 41c-11.333 13.333 -36 20 -74 20h-6c-20 0 -30 9.66699 -30 29v4z" />
    <glyph glyph-name="acute" unicode="&#xb4;" horiz-adv-x="534" 
d="M322 2310c11.333 12 24 17.999 38 17.999c10 0 20.333 -3 31 -9l107 -108c10 -14 15 -27.333 15 -40c0 -13.333 -6 -26 -18 -38l-349 -207c-18.667 -8.66699 -34.667 -13 -48 -13c-12 0 -22 3.33301 -30 10l-37 36c-8.66699 10.667 -13 21 -13 31
c0 12.667 7.33301 25.334 22 38.001z" />
    <glyph glyph-name="mu" unicode="&#xb5;" horiz-adv-x="1862" 
d="M1521 1722c8 50 36.335 74.999 85.002 74.999h366c38 0 57 -19 57 -57c0 -6.66699 -0.666992 -14 -2 -22l-269 -1649c-7.33301 -46 -35.333 -69 -84 -69h-357c-33.333 0 -54 10.667 -62 32c-75.333 -20.667 -158.333 -36 -249 -46
c-48.667 -5.33301 -95.334 -8 -140.001 -8c-168.667 0 -309.334 37 -422.001 111l-44 -274c-8.66699 -52 -39.334 -78 -92.001 -78h-179c-32 0 -48 16 -48 48c0 6.66699 0.666992 13.667 2 21l313 1922c7.33301 46 30 69 68 69h179c46 0 69 -19.667 69 -59
c0 -6 -0.666992 -12.333 -2 -19l-176 -1077c-4 -30 -6 -58.333 -6 -85c0 -117.333 36 -203.666 108 -258.999c66.667 -52 156.334 -78 269.001 -78c35.333 0 73.333 2.66699 114 8c166.667 21.333 260.667 69 282 143z" />
    <glyph glyph-name="paragraph" unicode="&#xb6;" 
d="M1301 1573l-331.001 -2029c-4 -23.333 -21.667 -35 -53 -35h-346c-31.333 0 -47 6.66699 -47 20v3l219 1347c0.666992 4.66699 1 9 1 13c0 16 -7.66699 24.333 -23 25c-98.667 8.66699 -180.667 52.334 -246 131.001c-60.667 72 -91 152.333 -91 241
c0 22.667 2 45.667 6 69c18.667 116 77.334 216.667 176.001 302c97.333 84 200.333 129.667 309 137h653c28 0 42 -10 42 -30c0 -3.33301 -0.333008 -6.66602 -1 -9.99902c-0.666992 -4.66699 -2 -9.66699 -4 -15l-358 -2197c-4 -24 -23.667 -36 -59 -36h-36
c-27.333 0 -41 10 -41 30c0 3.33301 0.333008 6.66602 1 9.99902l330 2024v3c0 10 -6 15 -18 15h-66c-10 0 -15.667 -6 -17 -18z" />
    <glyph glyph-name="periodcentered" unicode="&#xb7;" horiz-adv-x="728" 
d="M317 794c-22 0 -33 8.66699 -33 26c0 2.66699 0.333008 5.66699 1 9l21 129c4.66699 30 20.667 45 48 45h346c23.333 0 35 -11 35 -33c0 -3.33301 -0.333008 -7.33301 -1 -12l-21 -129c-4 -23.333 -19 -35 -45 -35h-351z" />
    <glyph glyph-name="periodcentered" unicode="&#x2219;" horiz-adv-x="728" 
d="M317 794c-22 0 -33 8.66699 -33 26c0 2.66699 0.333008 5.66699 1 9l21 129c4.66699 30 20.667 45 48 45h346c23.333 0 35 -11 35 -33c0 -3.33301 -0.333008 -7.33301 -1 -12l-21 -129c-4 -23.333 -19 -35 -45 -35h-351z" />
    <glyph glyph-name="cedilla" unicode="&#xb8;" horiz-adv-x="496" 
d="M409 -185c-1.33301 -7.33301 -3.33301 -14.667 -6 -22c-15.333 -46.667 -54 -94.667 -116 -144c-72 -57.333 -176.333 -95.333 -313 -114c-3.33301 -0.666992 -6.66602 -1 -9.99902 -1c-24 0 -36 14.667 -36 44v5l-3 112c10.667 32.667 33 50 67 52
c7.33301 -1.33301 14.666 -2 21.999 -2c52.667 0 96 27.333 130 82c4.66699 7.33301 8 14.666 10 21.999c2.66699 8.66699 4 17.334 4 26.001c0 45.333 -39.667 90.333 -119 135h241c40.667 -3.33301 74.667 -23.333 102 -60c20 -28 30 -60.667 30 -98
c0 -12 -1 -24.333 -3 -37z" />
    <glyph glyph-name="uni00B9" unicode="&#xb9;" 
d="M807 1620h-119.999c-50 2 -75.667 13.333 -77 34v10c2.66699 15.333 14 28 34 38l475 90c14.667 4.66699 27 7 37 7c21.333 0 32 -10.667 32 -32c0 -4.66699 -0.333008 -9.66699 -1 -15l-2 -12l-131 -801h239c18 0 29.667 -12.333 35 -37l-6 -37
c-12.667 -19.333 -27.334 -29 -44.001 -29h-292c-4 -0.666992 -8.66699 -1 -14 -1h-234c-4.66699 0 -9 0.333008 -13 1h-282c-16.667 0 -28 9.66699 -34 29l6 37c13.333 24.667 29 37 47 37h234z" />
    <glyph glyph-name="ordmasculine" unicode="&#xba;" 
d="M770 1203c-2 -11.333 -3 -21.333 -3 -30c0 -22 5.66699 -36 17 -42c23.333 -20 63.333 -30 120 -30c82.667 0 159.334 28.167 230.001 84.5s112.667 126.166 126 209.499c2.66699 17.333 4 34.333 4 51c0 62 -20.667 115 -62 159c-52.667 56 -120.334 84 -203.001 84
c-56 0 -94.667 -8.66699 -116 -26c-24.667 -9.33301 -42 -37.666 -52 -84.999zM1409 1395c-17.333 -108 -76.332 -202 -176.999 -282s-216 -120 -346 -120c-128.667 0 -230.334 40 -305.001 120c-61.333 64.667 -92 139 -92 223c0 19.333 1.66699 39 5 59
c18 108.667 77.5 202.834 178.5 282.501s215.833 119.5 344.5 119.5c130 0 232.333 -39.667 307 -119c60 -64.667 90 -138.334 90 -221.001c0 -20 -1.66699 -40.667 -5 -62zM455.001 743c-16 0 -26.998 9.66699 -32.998 29l8 51c13.333 24.667 28.666 37 45.999 37h776
c18 0 29.667 -12.333 35 -37l-8 -51c-12.667 -19.333 -27.334 -29 -44.001 -29h-780z" />
    <glyph glyph-name="guillemotright" unicode="&#xbb;" 
d="M223 710c-14.667 16.667 -22 33.001 -22 49.001c0 2.66699 0.333008 5.66699 1 9c2.66699 18 14.667 35.667 36 53l678 431c6.66699 3.33301 12.667 5 18 5c10.667 0 16 -9 16 -27c0 -6.66699 -0.666992 -14.334 -2 -23.001l-32 -194c-4 -24.667 -17.667 -44 -41 -58
l-332 -234c-8 -6.66699 -12.333 -13 -13 -19v-3c0 -5.33301 2.33301 -10.333 7 -15l268 -205c11.333 -12 17 -25.667 17 -41c0 -4 -0.333008 -8 -1 -12l-13 -81c-8 -22.667 -19 -34 -33 -34c-9.33301 0 -20 5.33301 -32 16zM817 710.001
c-14.667 16.667 -22 33.001 -22 49.001c0 2.66699 0.333008 5.66699 1 9c2.66699 18 14.667 35.667 36 53l678 431c6.66699 3.33301 12.667 5 18 5c10.667 0 16 -9 16 -27c0 -6.66699 -0.666992 -14.334 -2 -23.001l-32 -194c-4 -24.667 -17.667 -44 -41 -58l-332 -234
c-8 -6.66699 -12.333 -13 -13 -19v-3c0 -5.33301 2.33301 -10.333 7 -15l268 -205c11.333 -12 17 -25.667 17 -41c0 -4 -0.333008 -8 -1 -12l-13 -81c-8 -22.667 -19 -34 -33 -34c-9.33301 0 -20 5.33301 -32 16z" />
    <glyph glyph-name="onequarter" unicode="&#xbc;" horiz-adv-x="2180" 
d="M573 1620h-119.999c-50 2 -75.667 13.333 -77 34v10c2.66699 15.333 14 28 34 38l475 90c14.667 4.66699 27 7 37 7c21.333 0 32 -10.667 32 -32c0 -4.66699 -0.333008 -9.66699 -1 -15c-0.666992 -4 -1.66699 -8 -3 -12l-114 -701h139c18 0 29.667 -12.333 35 -37
l-6 -37c-12.667 -19.333 -27.334 -29 -44.001 -29h-635c-16.667 0 -28 9.66699 -34 29l6 37c13.333 24.667 29 37 47 37h134zM2112 1797c28 0 42 -7.99707 42 -23.9971v-4c-0.666992 -4.66699 -2.66699 -10.334 -6 -17.001c-4.66699 -8.66699 -11.667 -18.667 -21 -30
l-1532 -1647c-40 -50 -84.333 -75 -133 -75h-66c-22.667 0 -34 7 -34 21v5c0.666992 5.33301 3 11.666 7 18.999c5.33301 9.33301 13.333 20.666 24 33.999l1533 1649c37.333 46 80.333 69 129 69h57zM1751 992.003c8 11.333 25.999 17 53.999 17h259
c26.667 0 40 -10 40 -30c0 -2.66699 -0.333008 -5.66699 -1 -9l-104 -639h96c18 0 27 -10 27 -30c0 -4.66699 -0.666992 -10 -2 -16l-11 -72c-4.66699 -26.667 -25 -40 -61 -40h-75l-21 -132c-5.33301 -32 -27.666 -48 -66.999 -48h-240c-32.667 0 -49 12.333 -49 37
c0 3.33301 0.333008 7 1 11l21 132h-369c-22 0 -33 10 -33 30c0 4 0.333008 8 1 12l11 70zM1433 361.003c-4 -6 -6.33398 -11 -7.00098 -15v-2c0 -8 9.66699 -12 29 -12h156c22 0 35 13.333 39 40l47 284c1.33301 7.33301 2 13.333 2 18c0 8.66699 -2 13 -6 13
c-3.33301 0 -8.66602 -4.33301 -15.999 -13z" />
    <glyph glyph-name="onehalf" unicode="&#xbd;" horiz-adv-x="2180" 
d="M2099 1797c27.333 0 41 -7.66406 41 -22.9971v-5c-0.666992 -4.66699 -2.33398 -10.334 -5 -17.001c-5.33301 -8.66699 -12.333 -18.667 -21 -30l-1533 -1647c-40 -50 -84.333 -75 -133 -75h-66c-22.667 0 -34 7 -34 21v5c1.33301 5.33301 4 11.666 8 18.999
c5.33301 9.33301 13 20.666 23 33.999l1534 1649c37.333 46 80.333 69 129 69h57zM621 1374l0.998047 7.99805c3.33301 20 13 35 29 45c10.667 1.33301 21.667 2 33 2h14c19.333 2.66699 35 8.33398 47 17.001c10.667 5.33301 18 20.666 22 45.999l14 87
c0.666992 7.33301 1 14 1 20c0 18.667 -4.66699 30.334 -14 35.001c-9.33301 10.667 -30 16 -62 16c-77.333 -14 -134.666 -55 -171.999 -123c-8 -6 -18.667 -9 -32 -9c-16.667 0 -38.334 5.33301 -65.001 16c-24 8 -36 19.667 -36 35c0 2 0.333008 4 1 6
c2 14.667 15.333 32.667 40 54c73.333 99.333 174 156 302 170c97.333 0 176 -21.667 236 -65c48 -34.667 72 -85.334 72 -152.001c0 -17.333 -1.66699 -35.666 -5 -54.999c-5.33301 -32.667 -46.666 -82.334 -123.999 -149.001l-23 -19c64 -30.667 96 -98.667 96 -204v-6
c0 -24.667 -1.66699 -48 -5 -70c-12.667 -78.667 -46.667 -146 -102 -202c-71.333 -72 -175.666 -108 -312.999 -108c-110.667 0 -197.667 37.667 -261 113c-26 30 -39 55 -39 75c0 2.66699 0.333008 5 1 7c3.33301 18.667 13 31.334 29 38.001l79 16
c28 0 49.667 -9.33301 65 -28c35.333 -42 81.666 -63 138.999 -63c38.667 0 68.334 7.66699 89.001 23c12.667 6 21.667 24 27 54l41 252c1.33301 8.66699 2 16.334 2 23.001c0 22.667 -6 36.667 -18 42c-10.667 13.333 -35 20 -73 20h-6c-20 0 -30 9.66699 -30 29v4z
M1738 992.001c8 11.333 25.999 16.999 53.999 16.999h259c26 0 39 -9.66699 39 -29c0 -3.33301 -0.333008 -6.66602 -1 -9.99902l-104 -639h96c18 0 27 -10.333 27 -31c0 -4.66699 -0.333008 -9.66699 -1 -15l-12 -72c-4.66699 -26.667 -25 -40 -61 -40h-75l-21 -132
c-5.33301 -32 -27.666 -48 -66.999 -48h-240c-32.667 0 -49 12.333 -49 37c0 3.33301 0.333008 7 1 11l21 132h-369c-22 0 -33 10 -33 30c0 4 0.333008 8 1 12l12 70zM1419 361c-3.33301 -6 -5.33398 -11 -6.00098 -15v-2c0 -8 9.33301 -12 28 -12h156
c22 0 35.333 13.333 40 40l46 284c1.33301 7.33301 2 13.333 2 18c0 8.66699 -2 13 -6 13c-3.33301 0 -8.66602 -4.33301 -15.999 -13z" />
    <glyph glyph-name="threequarters" unicode="&#xbe;" horiz-adv-x="2180" 
d="M559 1620h-119.999c-50 2 -75.667 13.333 -77 34v10c2.66699 15.333 14 28 34 38l475 90c14.667 4.66699 27 7 37 7c21.333 0 32 -10.667 32 -32c0 -4.66699 -0.333008 -9.66699 -1 -15c-0.666992 -4 -1.66699 -8 -3 -12l-114 -701h139c18 0 29.667 -12.333 35 -37
l-6 -37c-12.667 -19.333 -27.334 -29 -44.001 -29h-635c-16.667 0 -28 9.66699 -34 29l6 37c13.333 24.667 29 37 47 37h134zM2083 1797c28 0 42 -7.99707 42 -23.9971v-4c-0.666992 -4.66699 -2.66699 -10.334 -6 -17.001c-4.66699 -8.66699 -11.667 -18.667 -21 -30
l-1532 -1647c-40 -50 -84.333 -75 -133 -75h-66c-22.667 0 -34 7 -34 21v5c0.666992 5.33301 3 11.666 7 18.999c5.33301 9.33301 13.333 20.666 24 33.999l1533 1649c37.333 46 80.333 69 129 69h57zM1663 290.003l0.00292969 -4.00391c0 -5.33301 2.33301 -9.33301 7 -12
h411c22 0 33.333 -12.333 34 -37l-17 -107c-8 -20 -22.333 -30 -43 -30h-727c-10.667 0 -16 6 -16 18c0 2 0.333008 4.66699 1 8c24 147.333 115.833 247.333 275.5 300s270.167 124.334 331.5 215.001l16 95c0.666992 6.66699 1 13 1 19c0 46.667 -25 76 -75 88
c-14.667 3.33301 -29.334 5 -44.001 5c-42.667 0 -85.334 -14 -128.001 -42c-57.333 -37.333 -104 -84.666 -140 -141.999c-16 -31.333 -33.333 -47 -52 -47h-95c-12.667 0 -19 7 -19 21c0 2.66699 0.333008 6 1 10l1 6c34 96.667 95.667 179.334 185 248.001
c85.333 66 183.666 99 294.999 99h12c116 -2 202 -36.333 258 -103c44 -53.333 66 -113.666 66 -180.999c0 -18 -1.66699 -36.333 -5 -55c-20.667 -126 -123 -217.667 -307 -275l-162 -52c-36 -8 -57.667 -23 -65 -45z" />
    <glyph glyph-name="questiondown" unicode="&#xbf;" horiz-adv-x="1413" 
d="M3376 337c31.333 -4 47 -17.001 47 -39.001c0 -2.66699 -0.333008 -5.66699 -1 -9c-2 -14 -9.66699 -31.333 -23 -52c-37.333 -58 -82.333 -107.667 -135 -149c-137.333 -100 -296 -151 -476 -153h-23c-138.667 0 -245 23.333 -319 70
c-116.667 62 -186.334 157.333 -209 286c-5.33301 28.667 -8 56.667 -8 84c0 23.333 2 46.333 6 69c10.667 68.667 38 136.667 82 204l376 414c42.667 63.333 70 133 82 209c10 58.667 48.667 88.667 116 90h347c42.667 0 64 -19.667 64 -59
c0 -7.33301 -0.666992 -15.333 -2 -24c-17.333 -106 -75.333 -227.333 -174 -364l-330 -362c-22 -33.333 -36 -69.333 -42 -108c-2.66699 -14 -4 -28.333 -4 -43c0 -15.333 1.33301 -30.666 4 -45.999c11.333 -60 41 -103 89 -129c23.333 -12 47.333 -18 72 -18
c17.333 0 36.333 3.33301 57 10c55.333 18 100.666 54 136 108c19.333 28.667 49.666 45 91 49zM3315 1797c26 0 39 -10.333 39 -31c0 -3.33301 -0.333008 -7 -1 -11l-25 -152c-5.33301 -35.333 -24 -53 -56 -53h-407c-27.333 0 -41 13 -41 39c0 4 0.333008 8.66699 1 14
l25 152c4.66699 28 22 42 52 42h413z" />
    <glyph glyph-name="Agrave" unicode="&#xc0;" horiz-adv-x="1551" 
d="M641 352l-164.999 -311c-17.333 -27.333 -49.333 -41 -96 -41h-349c-24.667 -0 -37 8.33301 -37 25c0 2 0.333008 4 1 6c1.33301 10 6.66602 22.667 15.999 38l885 1666c32 50.667 74.333 76 127 76c52 0 86.667 -26 104 -78l435 -1670c3.33301 -8.66699 5 -16.667 5 -24
c0 -2 -0.333008 -4 -1 -6c-3.33301 -22 -25 -33 -65 -33h-122c-54.667 -0 -88 16.333 -100 49l-90 303h-548zM1102 592c19.333 0 30.334 8 33.001 24c0.666992 2.66699 1 6 1 10l-115 428c-6 8.66699 -12.667 13 -20 13s-15.333 -5.33301 -24 -16l-216 -421
c-2.66699 -4.66699 -4.33398 -9 -5.00098 -13v-6c0 -12.667 8 -19 24 -19h322zM1260 2028c10.667 -10.667 15.999 -21.667 15.999 -33v-5c-2 -10 -8 -20.333 -18 -31l-43 -36c-9.33301 -6.66699 -20 -10 -32 -10c-13.333 0 -28.666 4.33301 -45.999 13l-315 207
c-8 10 -12 20.333 -12 31v7c2 12.667 9.33301 26 22 40l124 108c12 6 23 9 33 9c14 0 25.667 -6 35 -18z" />
    <glyph glyph-name="Aacute" unicode="&#xc1;" horiz-adv-x="1551" 
d="M641 352l-164.999 -311c-17.333 -27.333 -49.333 -41 -96 -41h-349c-24.667 -0 -37 8.33301 -37 25c0 2 0.333008 4 1 6c1.33301 10 6.66602 22.667 15.999 38l885 1666c32 50.667 74.333 76 127 76c52 0 86.667 -26 104 -78l435 -1670c3.33301 -8.66699 5 -16.667 5 -24
c0 -2 -0.333008 -4 -1 -6c-3.33301 -22 -25 -33 -65 -33h-122c-54.667 -0 -88 16.333 -100 49l-90 303h-548zM1102 592c19.333 0 30.334 8 33.001 24c0.666992 2.66699 1 6 1 10l-115 428c-6 8.66699 -12.667 13 -20 13s-15.333 -5.33301 -24 -16l-216 -421
c-2.66699 -4.66699 -4.33398 -9 -5.00098 -13v-6c0 -12.667 8 -19 24 -19h322zM1260 2310c11.333 12 24 17.999 38 17.999c10 0 20.333 -3 31 -9l107 -108c10 -14 15 -27.333 15 -40c0 -13.333 -6 -26 -18 -38l-349 -207c-18.667 -8.66699 -34.667 -13 -48 -13
c-12 0 -22 3.33301 -30 10l-37 36c-8.66699 10.667 -13 21 -13 31c0 12.667 7.33301 25.334 22 38.001z" />
    <glyph glyph-name="Acircumflex" unicode="&#xc2;" horiz-adv-x="1551" 
d="M641 352l-164.999 -311c-17.333 -27.333 -49.333 -41 -96 -41h-349c-24.667 -0 -37 8.33301 -37 25c0 2 0.333008 4 1 6c1.33301 10 6.66602 22.667 15.999 38l885 1666c32 50.667 74.333 76 127 76c52 0 86.667 -26 104 -78l435 -1670c3.33301 -8.66699 5 -16.667 5 -24
c0 -2 -0.333008 -4 -1 -6c-3.33301 -22 -25 -33 -65 -33h-122c-54.667 -0 -88 16.333 -100 49l-90 303h-548zM1102 592c19.333 0 30.334 8 33.001 24c0.666992 2.66699 1 6 1 10l-115 428c-6 8.66699 -12.667 13 -20 13s-15.333 -5.33301 -24 -16l-216 -421
c-2.66699 -4.66699 -4.33398 -9 -5.00098 -13v-6c0 -12.667 8 -19 24 -19h322zM751.002 1977l399 302.998c10 7.33301 19 11 27 11c8.66699 0 16.334 -4 23.001 -12l297 -302c8.66699 -11.333 13 -20.666 13 -27.999v-3c-2.66699 -15.333 -11 -23.666 -25 -24.999h-190
c-25.333 0 -47.333 10 -66 30l-80 87c-3.33301 3.33301 -7 5 -11 5s-8.33301 -1.66699 -13 -5l-116 -85c-22.667 -21.333 -47.334 -32 -74.001 -32h-190c-12 1.33301 -18 7.33301 -18 18c0 2 0.333008 4.33301 1 7c1.33301 8 9 18.333 23 31z" />
    <glyph glyph-name="Atilde" unicode="&#xc3;" horiz-adv-x="1551" 
d="M641 352l-164.999 -311c-17.333 -27.333 -49.333 -41 -96 -41h-349c-24.667 -0 -37 8.33301 -37 25c0 2 0.333008 4 1 6c1.33301 10 6.66602 22.667 15.999 38l885 1666c32 50.667 74.333 76 127 76c52 0 86.667 -26 104 -78l435 -1670c3.33301 -8.66699 5 -16.667 5 -24
c0 -2 -0.333008 -4 -1 -6c-3.33301 -22 -25 -33 -65 -33h-122c-54.667 -0 -88 16.333 -100 49l-90 303h-548zM1102 592c19.333 0 30.334 8 33.001 24c0.666992 2.66699 1 6 1 10l-115 428c-6 8.66699 -12.667 13 -20 13s-15.333 -5.33301 -24 -16l-216 -421
c-2.66699 -4.66699 -4.33398 -9 -5.00098 -13v-6c0 -12.667 8 -19 24 -19h322zM1241 2186c8.66699 -4 17 -5.99805 25 -5.99805c24 0 44 19.333 60 58c8 17.333 23.333 26 46 26c10 0 21.667 -1.66699 35 -5l115 -30c26.667 -7.33301 40 -20 40 -38
c0 -2 -0.333008 -4.33301 -1 -7c-0.666992 -6.66699 -3 -14 -7 -22c-73.333 -130.667 -172 -196 -296 -196c-29.333 0 -60 4.33301 -92 13c-52 13.333 -102 52.666 -150 117.999c-7.33301 3.33301 -14.333 5 -21 5c-26.667 0 -50.667 -25.333 -72 -76
c-8.66699 -17.333 -24.334 -26 -47.001 -26c-10 0 -21.333 1.66699 -34 5l-115 30c-26.667 7.33301 -40 20.333 -40 38.999v6c1.33301 6.66699 4 14 8 22c78.667 142.667 181.334 214 308.001 214c28 0 57.333 -4 88 -12c53.333 -13.333 103.333 -52.666 150 -118z" />
    <glyph glyph-name="Adieresis" unicode="&#xc4;" horiz-adv-x="1551" 
d="M641 352l-164.999 -311c-17.333 -27.333 -49.333 -41 -96 -41h-349c-24.667 -0 -37 8.33301 -37 25c0 2 0.333008 4 1 6c1.33301 10 6.66602 22.667 15.999 38l885 1666c32 50.667 74.333 76 127 76c52 0 86.667 -26 104 -78l435 -1670c3.33301 -8.66699 5 -16.667 5 -24
c0 -2 -0.333008 -4 -1 -6c-3.33301 -22 -25 -33 -65 -33h-122c-54.667 -0 -88 16.333 -100 49l-90 303h-548zM1102 592c19.333 0 30.334 8 33.001 24c0.666992 2.66699 1 6 1 10l-115 428c-6 8.66699 -12.667 13 -20 13s-15.333 -5.33301 -24 -16l-216 -421
c-2.66699 -4.66699 -4.33398 -9 -5.00098 -13v-6c0 -12.667 8 -19 24 -19h322zM809.002 1931c-26 0 -39 10.333 -39 31c0 3.33301 0.333008 7 1 11l21 132c6 35.333 25 53 57 53h158c26.667 0 40 -12.667 40 -38c0 -4.66699 -0.333008 -9.66699 -1 -15l-21 -132
c-4.66699 -28 -22 -42 -52 -42h-164zM1209 1931c-26 0 -39 10.333 -39 31c0 3.33301 0.333008 7 1 11l21 132c6 35.333 25 53 57 53h158c26.667 0 40 -12.667 40 -38c0 -4.66699 -0.333008 -9.66699 -1 -15l-21 -132c-4.66699 -28 -22 -42 -52 -42h-164z" />
    <glyph glyph-name="Aring" unicode="&#xc5;" horiz-adv-x="1735" 
d="M1224 642l-103 340.001c-14 19.333 -28 29 -42 29s-28 -9.66699 -42 -29l-170 -321c-6 -10.667 -9.66699 -20.334 -11 -29.001c-0.666992 -2.66699 -1 -5 -1 -7c0 -20.667 16 -31.667 48 -33h290c24.667 4.66699 37.667 13 39 25v4c0 6 -2.66699 13 -8 21zM1163 2084
c-23.333 0 -45.334 -9 -66.001 -27s-33 -39.333 -37 -64c-1.33301 -6 -2 -12 -2 -18c0 -18 5.66699 -33.667 17 -47c14.667 -18 34.334 -27 59.001 -27c26 0 49.5 9 70.5 27s33.833 39.667 38.5 65c0.666992 5.33301 1 10.333 1 15c0 18 -6 34.333 -18 49
c-16 18 -37 27 -63 27zM1191 1763c10.667 -11.333 18.999 -26.001 24.999 -44.001l487 -1656c3.33301 -8.66699 5 -16.667 5 -24c0 -2 -0.333008 -4 -1 -6c-3.33301 -22 -25 -33 -65 -33h-162c-54.667 -0 -88 16.333 -100 49l-100 303h-548l-175 -311
c-17.333 -27.333 -49.333 -41 -96 -41h-390c-24.667 -0 -37 8.33301 -37 25c0 2 0.333008 4 1 6c1.33301 10 6.66602 22.667 15.999 38l933 1652c12 18.667 25.333 34 40 46c-27.333 11.333 -51.666 29.333 -72.999 54c-20 23.333 -33.333 49.333 -40 78
c-4.66699 16.667 -7 34 -7 52c0 13.333 1.33301 27.333 4 42c10.667 66.667 43.5 123.834 98.5 171.501s115.833 71.5 182.5 71.5c67.333 0 121 -23.667 161 -71c31.333 -38 47 -81.667 47 -131c0 -13.333 -1 -27 -3 -41c-11.333 -68 -44.666 -125.333 -99.999 -172
c-32.667 -26.667 -67 -46 -103 -58z" />
    <glyph glyph-name="AE" unicode="&#xc6;" horiz-adv-x="2366" 
d="M1120 352h-453.998l-198 -303c-22.667 -32.667 -61.334 -49 -116.001 -49h-162c-36.667 -0 -55 9.33301 -55 28v5c1.33301 8 6 18 14 30l1027 1656c34.667 52 78 78 130 78h1259c40 0 60 -15.667 60 -47c0 -4.66699 -0.333008 -9.66699 -1 -15l-20 -122
c-6.66699 -40.667 -30 -61 -70 -61h-666c-36.667 0 -58 -17.667 -64 -53l-106 -651c-1.33301 -6 -2 -11.667 -2 -17c0 -30 16 -45 48 -45h117c33.333 0 50 -13.333 50 -40c0 -4 -0.333008 -8.33301 -1 -13l-24 -152c-4.66699 -28 -25.334 -42 -62.001 -42h-128
c-32 0 -51 -18.667 -57 -56l-29 -174c-1.33301 -6.66699 -2 -13 -2 -19c0 -29.333 14.333 -44 43 -44h675c32.667 0 49 -11.333 49 -34c0 -2.66699 -0.333008 -5.66699 -1 -9l-26 -161c-4.66699 -28 -23.334 -42 -56 -42h-1179c-28 0 -42 13.667 -42 41
c0 5.33301 0.666992 11.333 2 18zM1161 601l140.001 862l-483 -821c-10.667 -9.33301 -16.667 -17.666 -18 -24.999v-2c0 -10.667 10.333 -18.334 31 -23.001h290c17.333 0.666992 30.666 3.66699 39.999 9z" />
    <glyph glyph-name="Ccedilla" unicode="&#xc7;" horiz-adv-x="1932" 
d="M868 6c-98.667 16 -190.002 47.668 -274.002 95.001c-201.333 112.667 -319.333 277 -354 493c-7.33301 44 -11 88.667 -11 134c0 44.667 3.66699 90 11 136l8 39c1.33301 13.333 3 26.333 5 39c14.667 91.333 43.667 181 87 269c105.333 216 277 380.667 515 494
c150 70.667 305.667 106 467 106c96.667 0 195.334 -12.667 296.001 -38c208 -72.667 353.667 -188.334 437 -347.001c6.66699 -18.667 10 -35 10 -49c0 -4.66699 -0.333008 -9 -1 -13c-4 -26 -21.667 -44.333 -53 -55l-78 -46c-25.333 -8.66699 -47 -13 -65 -13
c-30.667 0 -50.334 12.333 -59.001 37c-104 121.333 -218.333 203.333 -343 246c-82 19.333 -153.333 29 -214 29c-69.333 0 -124.333 -12.667 -165 -38c-66 -35.333 -111.333 -129 -136 -281l-111 -681c-8 -47.333 -12 -89 -12 -125c0 -79.333 19 -131.333 57 -156
c32 -25.333 82.667 -38 152 -38c60.667 0 135.334 9.66699 224.001 29c138 42.667 279 124.667 423 246c16.667 24.667 40.334 37 71.001 37c18 0 38.333 -4.33301 61 -13l63 -46c24 -9.33301 36 -24.333 36 -45c0 -3.33301 -0.333008 -6.66602 -1 -9.99902
c-3.33301 -17.333 -13.333 -38 -30 -62c-134.667 -158.667 -318 -274.334 -550 -347.001c-65.333 -15.333 -128.333 -26 -189 -32c24 -10 47 -26.667 69 -50c32.667 -36.667 49 -81.667 49 -135c-0.666992 -7.33301 -1.66699 -14.666 -3 -21.999
c-7.33301 -46.667 -38 -94.667 -92 -144c-62.667 -57.333 -161 -95.333 -295 -114c-3.33301 -0.666992 -6.66602 -1 -9.99902 -1c-25.333 0 -40 16.333 -44 49l-21 112c5.33301 32.667 25 50 59 52c7.33301 -1.33301 14.666 -2 21.999 -2c52.667 0 91.667 27.333 117 82
c2.66699 7.33301 4.66699 14.666 6 21.999c0.666992 4 1 8.33301 1 13c0 48 -45 96 -135 144z" />
    <glyph glyph-name="Egrave" unicode="&#xc8;" horiz-adv-x="1423" 
d="M1622 1797c40 0 60.002 -15.667 60.002 -47c0 -4.66699 -0.333008 -9.66699 -1 -15l-20 -122c-6.66699 -40.667 -30 -61 -70 -61h-666c-36.667 0 -58 -17.667 -64 -53l-106 -651c-1.33301 -6 -2 -11.667 -2 -17c0 -30 16 -45 48 -45h117c33.333 0 50 -13.333 50 -40
c0 -4 -0.333008 -8.33301 -1 -13l-24 -152c-4.66699 -28 -25.334 -42 -62.001 -42h-128c-32 0 -51 -18.667 -57 -56l-29 -174c-1.33301 -6.66699 -2 -13 -2 -19c0 -29.333 14.333 -44 43 -44h675c32.667 0 49 -11.333 49 -34c0 -2.66699 -0.333008 -5.66699 -1 -9l-26 -161
c-4.66699 -28 -23.334 -42 -56.001 -42h-1179c-28 0 -42 13.667 -42 41c0 5.33301 0.666992 11.333 2 18l271 1669c8 46 35 69 81 69h1140zM1243 2028c10.667 -10.667 15.999 -21.667 15.999 -33v-5c-2 -10 -8 -20.333 -18 -31l-43 -36c-9.33301 -6.66699 -20 -10 -32 -10
c-13.333 0 -28.666 4.33301 -45.999 13l-315 207c-8 10 -12 20.333 -12 31v7c2 12.667 9.33301 26 22 40l124 108c12 6 23 9 33 9c14 0 25.667 -6 35 -18z" />
    <glyph glyph-name="Eacute" unicode="&#xc9;" horiz-adv-x="1423" 
d="M1622 1797c40 0 60.002 -15.667 60.002 -47c0 -4.66699 -0.333008 -9.66699 -1 -15l-20 -122c-6.66699 -40.667 -30 -61 -70 -61h-666c-36.667 0 -58 -17.667 -64 -53l-106 -651c-1.33301 -6 -2 -11.667 -2 -17c0 -30 16 -45 48 -45h117c33.333 0 50 -13.333 50 -40
c0 -4 -0.333008 -8.33301 -1 -13l-24 -152c-4.66699 -28 -25.334 -42 -62.001 -42h-128c-32 0 -51 -18.667 -57 -56l-29 -174c-1.33301 -6.66699 -2 -13 -2 -19c0 -29.333 14.333 -44 43 -44h675c32.667 0 49 -11.333 49 -34c0 -2.66699 -0.333008 -5.66699 -1 -9l-26 -161
c-4.66699 -28 -23.334 -42 -56.001 -42h-1179c-28 0 -42 13.667 -42 41c0 5.33301 0.666992 11.333 2 18l271 1669c8 46 35 69 81 69h1140zM1243 2310c11.333 12 24 17.999 38 17.999c10 0 20.333 -3 31 -9l107 -108c10 -14 15 -27.333 15 -40c0 -13.333 -6 -26 -18 -38
l-349 -207c-18.667 -8.66699 -34.667 -13 -48 -13c-12 0 -22 3.33301 -30 10l-37 36c-8.66699 10.667 -13 21 -13 31c0 12.667 7.33301 25.334 22 38.001z" />
    <glyph glyph-name="Ecircumflex" unicode="&#xca;" horiz-adv-x="1423" 
d="M1622 1797c40 0 60.002 -15.667 60.002 -47c0 -4.66699 -0.333008 -9.66699 -1 -15l-20 -122c-6.66699 -40.667 -30 -61 -70 -61h-666c-36.667 0 -58 -17.667 -64 -53l-106 -651c-1.33301 -6 -2 -11.667 -2 -17c0 -30 16 -45 48 -45h117c33.333 0 50 -13.333 50 -40
c0 -4 -0.333008 -8.33301 -1 -13l-24 -152c-4.66699 -28 -25.334 -42 -62.001 -42h-128c-32 0 -51 -18.667 -57 -56l-29 -174c-1.33301 -6.66699 -2 -13 -2 -19c0 -29.333 14.333 -44 43 -44h675c32.667 0 49 -11.333 49 -34c0 -2.66699 -0.333008 -5.66699 -1 -9l-26 -161
c-4.66699 -28 -23.334 -42 -56.001 -42h-1179c-28 0 -42 13.667 -42 41c0 5.33301 0.666992 11.333 2 18l271 1669c8 46 35 69 81 69h1140zM734.002 1977l399 302.998c10 7.33301 19 11 27 11c8.66699 0 16.334 -4 23.001 -12l297 -302
c8.66699 -11.333 13 -20.666 13 -27.999v-3c-2.66699 -15.333 -11 -23.666 -25 -24.999h-190c-25.333 0 -47.333 10 -66 30l-80 87c-3.33301 3.33301 -7 5 -11 5s-8.33301 -1.66699 -13 -5l-116 -85c-22.667 -21.333 -47.334 -32 -74.001 -32h-190
c-12 1.33301 -18 7.33301 -18 18c0 2 0.333008 4.33301 1 7c1.33301 8 9 18.333 23 31z" />
    <glyph glyph-name="Edieresis" unicode="&#xcb;" horiz-adv-x="1423" 
d="M1622 1797c40 0 60.002 -15.667 60.002 -47c0 -4.66699 -0.333008 -9.66699 -1 -15l-20 -122c-6.66699 -40.667 -30 -61 -70 -61h-666c-36.667 0 -58 -17.667 -64 -53l-106 -651c-1.33301 -6 -2 -11.667 -2 -17c0 -30 16 -45 48 -45h117c33.333 0 50 -13.333 50 -40
c0 -4 -0.333008 -8.33301 -1 -13l-24 -152c-4.66699 -28 -25.334 -42 -62.001 -42h-128c-32 0 -51 -18.667 -57 -56l-29 -174c-1.33301 -6.66699 -2 -13 -2 -19c0 -29.333 14.333 -44 43 -44h675c32.667 0 49 -11.333 49 -34c0 -2.66699 -0.333008 -5.66699 -1 -9l-26 -161
c-4.66699 -28 -23.334 -42 -56.001 -42h-1179c-28 0 -42 13.667 -42 41c0 5.33301 0.666992 11.333 2 18l271 1669c8 46 35 69 81 69h1140zM792.002 1931c-26 0 -39 10.333 -39 31c0 3.33301 0.333008 7 1 11l21 132c6 35.333 25 53 57 53h158c26.667 0 40 -12.667 40 -38
c0 -4.66699 -0.333008 -9.66699 -1 -15l-21 -132c-4.66699 -28 -22 -42 -52 -42h-164zM1192 1931c-26 0 -39 10.333 -39 31c0 3.33301 0.333008 7 1 11l21 132c6 35.333 25 53 57 53h158c26.667 0 40 -12.667 40 -38c0 -4.66699 -0.333008 -9.66699 -1 -15l-21 -132
c-4.66699 -28 -22 -42 -52 -42h-164z" />
    <glyph glyph-name="Igrave" unicode="&#xcc;" horiz-adv-x="726" 
d="M833 1797c43.333 0 65 -18.333 65 -55c0 -6 -0.666992 -12.667 -2 -20l-268 -1647c-8 -50 -36.333 -75 -85 -75h-366c-37.333 -0 -56 18.333 -56 55c0 7.33301 0.666992 15.333 2 24l268 1649c8 46 36.333 69 85 69h357zM847 2028
c10.667 -10.667 15.999 -21.667 15.999 -33v-5c-2 -10 -8 -20.333 -18 -31l-43 -36c-9.33301 -6.66699 -20 -10 -32 -10c-13.333 0 -28.666 4.33301 -45.999 13l-315 207c-8 10 -12 20.333 -12 31v7c2 12.667 9.33301 26 22 40l124 108c12 6 23 9 33 9
c14 0 25.667 -6 35 -18z" />
    <glyph glyph-name="Iacute" unicode="&#xcd;" horiz-adv-x="726" 
d="M833 1797c43.333 0 65 -18.333 65 -55c0 -6 -0.666992 -12.667 -2 -20l-268 -1647c-8 -50 -36.333 -75 -85 -75h-366c-37.333 -0 -56 18.333 -56 55c0 7.33301 0.666992 15.333 2 24l268 1649c8 46 36.333 69 85 69h357zM847 2310c11.333 12 24 17.999 38 17.999
c10 0 20.333 -3 31 -9l107 -108c10 -14 15 -27.333 15 -40c0 -13.333 -6 -26 -18 -38l-349 -207c-18.667 -8.66699 -34.667 -13 -48 -13c-12 0 -22 3.33301 -30 10l-37 36c-8.66699 10.667 -13 21 -13 31c0 12.667 7.33301 25.334 22 38.001z" />
    <glyph glyph-name="Icircumflex" unicode="&#xce;" horiz-adv-x="726" 
d="M833 1797c43.333 0 65 -18.333 65 -55c0 -6 -0.666992 -12.667 -2 -20l-268 -1647c-8 -50 -36.333 -75 -85 -75h-366c-37.333 -0 -56 18.333 -56 55c0 7.33301 0.666992 15.333 2 24l268 1649c8 46 36.333 69 85 69h357zM338 1977l399 302.998c10 7.33301 19 11 27 11
c8.66699 0 16.334 -4 23.001 -12l297 -302c8.66699 -11.333 13 -20.666 13 -27.999v-3c-2.66699 -15.333 -11 -23.666 -25 -24.999h-190c-25.333 0 -47.333 10 -66 30l-80 87c-3.33301 3.33301 -7 5 -11 5s-8.33301 -1.66699 -13 -5l-116 -85
c-22.667 -21.333 -47.334 -32 -74.001 -32h-190c-12 1.33301 -18 7.33301 -18 18c0 2 0.333008 4.33301 1 7c1.33301 8 9 18.333 23 31z" />
    <glyph glyph-name="Idieresis" unicode="&#xcf;" horiz-adv-x="726" 
d="M833 1797c43.333 0 65 -18.333 65 -55c0 -6 -0.666992 -12.667 -2 -20l-268 -1647c-8 -50 -36.333 -75 -85 -75h-366c-37.333 -0 -56 18.333 -56 55c0 7.33301 0.666992 15.333 2 24l268 1649c8 46 36.333 69 85 69h357zM396 1931c-26 0 -39 10.333 -39 31
c0 3.33301 0.333008 7 1 11l21 132c6 35.333 25 53 57 53h158c26.667 0 40 -12.667 40 -38c0 -4.66699 -0.333008 -9.66699 -1 -15l-21 -132c-4.66699 -28 -22 -42 -52 -42h-164zM796 1931c-26 0 -39 10.333 -39 31c0 3.33301 0.333008 7 1 11l21 132c6 35.333 25 53 57 53
h158c26.667 0 40 -12.667 40 -38c0 -4.66699 -0.333008 -9.66699 -1 -15l-21 -132c-4.66699 -28 -22 -42 -52 -42h-164z" />
    <glyph glyph-name="Eth" unicode="&#xd0;" horiz-adv-x="1799" 
d="M701 825l-77.999 -477.999c-1.33301 -10 -2 -19.333 -2 -28c0 -47.333 24.667 -71 74 -71h156c152.667 2.66699 294.667 62 426 178c145.333 128.667 233.333 287 264 475c6.66699 43.333 10 85 10 125c0 134 -38.333 251.667 -115 353
c-84 111.333 -223.667 168.666 -419 171.999h-124c-49.333 0 -80 -38 -92 -114l-76 -465h288c25.333 0 41.666 -17.667 48.999 -53l-8 -52c-18 -28 -38.667 -42 -62 -42h-291zM268.001 972.001l127.002 776.999c4.66699 32 23 48 55 48h728
c229.333 -16 408.666 -105.667 537.999 -269c102 -137.333 153 -293.333 153 -468c0 -51.333 -4.33301 -104.333 -13 -159c-40 -243.333 -156 -451.333 -348 -624c-182 -157.333 -372 -249.666 -570 -276.999h-774c-31.333 0 -47 12.333 -47 37c0 4 0.333008 8 1 12l126 776
h-145c-23.333 0 -39.333 14 -48 42l8 52c19.333 35.333 41.666 53 66.999 53h142z" />
    <glyph glyph-name="Ntilde" unicode="&#xd1;" horiz-adv-x="1601" 
d="M916 1748l365.999 -934c6 -12.667 11.333 -19 16 -19c5.33301 0 9.33301 8 12 24l151 922c6 37.333 35.333 56 88 56h157c46 0 69 -15.333 69 -46c0 -4 -0.333008 -8.33301 -1 -13l-272 -1669c-7.33301 -46 -28.666 -69 -63.999 -69h-107
c-35.333 0 -62.333 19.667 -81 59l-431 1023c-6 18.667 -11 28 -15 28c-4.66699 0 -8.66699 -9 -12 -27l-164 -1008c-8 -50 -36.333 -75 -85 -75h-366c-37.333 -0 -56 18.333 -56 55c0 7.33301 0.666992 15.333 2 24l268 1649c8 46 36.333 69 85 69h356
c45.333 -2.66699 73.333 -19 84 -49zM1266 2186c8.66699 -4 17 -5.99805 25 -5.99805c24 0 44 19.333 60 58c8 17.333 23.333 26 46 26c10 0 21.667 -1.66699 35 -5l115 -30c26.667 -7.33301 40 -20 40 -38c0 -2 -0.333008 -4.33301 -1 -7c-0.666992 -6.66699 -3 -14 -7 -22
c-73.333 -130.667 -172 -196 -296 -196c-29.333 0 -60 4.33301 -92 13c-52 13.333 -102 52.666 -150 117.999c-7.33301 3.33301 -14.333 5 -21 5c-26.667 0 -50.667 -25.333 -72 -76c-8.66699 -17.333 -24.334 -26 -47.001 -26c-10 0 -21.333 1.66699 -34 5l-115 30
c-26.667 7.33301 -40 20.333 -40 38.999v6c1.33301 6.66699 4 14 8 22c78.667 142.667 181.334 214 308.001 214c28 0 57.333 -4 88 -12c53.333 -13.333 103.333 -52.666 150 -118z" />
    <glyph glyph-name="Ograve" unicode="&#xd2;" horiz-adv-x="2160" 
d="M826 445c-5.33301 -30 -8 -56 -8 -78c0 -48.667 12 -79.667 36 -93c49.333 -48 135.333 -72 258 -72c178.667 0 345.5 66.833 500.5 200.5s248.833 300.167 281.5 499.5c7.33301 44.667 11 88 11 130c0 142 -43 265 -129 369c-112 134 -257.333 201 -436 201
c-120.667 0 -204.667 -20.667 -252 -62c-54 -22 -93 -90 -117 -204zM2217 902c-42 -258 -173.5 -481.999 -394.5 -671.999s-471.833 -285 -752.5 -285c-278.667 0 -497.667 95 -657 285c-126 150.667 -189 322.334 -189 515.001c0 50.667 4.33301 103 13 157
c42 257.333 173.667 481.166 395 671.499s471.333 285.5 750 285.5c280.667 0 500.667 -95 660 -285c125.333 -150.667 188 -322.334 188 -515.001c0 -50.667 -4.33301 -103 -13 -157zM1564 2028c10.667 -10.667 15.999 -21.667 15.999 -33v-5c-2 -10 -8 -20.333 -18 -31
l-43 -36c-9.33301 -6.66699 -20 -10 -32 -10c-13.333 0 -28.666 4.33301 -45.999 13l-315 207c-8 10 -12 20.333 -12 31v7c2 12.667 9.33301 26 22 40l124 108c12 6 23 9 33 9c14 0 25.667 -6 35 -18z" />
    <glyph glyph-name="Oacute" unicode="&#xd3;" horiz-adv-x="2160" 
d="M826 445c-5.33301 -30 -8 -56 -8 -78c0 -48.667 12 -79.667 36 -93c49.333 -48 135.333 -72 258 -72c178.667 0 345.5 66.833 500.5 200.5s248.833 300.167 281.5 499.5c7.33301 44.667 11 88 11 130c0 142 -43 265 -129 369c-112 134 -257.333 201 -436 201
c-120.667 0 -204.667 -20.667 -252 -62c-54 -22 -93 -90 -117 -204zM2217 902c-42 -258 -173.5 -481.999 -394.5 -671.999s-471.833 -285 -752.5 -285c-278.667 0 -497.667 95 -657 285c-126 150.667 -189 322.334 -189 515.001c0 50.667 4.33301 103 13 157
c42 257.333 173.667 481.166 395 671.499s471.333 285.5 750 285.5c280.667 0 500.667 -95 660 -285c125.333 -150.667 188 -322.334 188 -515.001c0 -50.667 -4.33301 -103 -13 -157zM1564 2310c11.333 12 24 17.999 38 17.999c10 0 20.333 -3 31 -9l107 -108
c10 -14 15 -27.333 15 -40c0 -13.333 -6 -26 -18 -38l-349 -207c-18.667 -8.66699 -34.667 -13 -48 -13c-12 0 -22 3.33301 -30 10l-37 36c-8.66699 10.667 -13 21 -13 31c0 12.667 7.33301 25.334 22 38.001z" />
    <glyph glyph-name="Ocircumflex" unicode="&#xd4;" horiz-adv-x="2160" 
d="M826 445c-5.33301 -30 -8 -56 -8 -78c0 -48.667 12 -79.667 36 -93c49.333 -48 135.333 -72 258 -72c178.667 0 345.5 66.833 500.5 200.5s248.833 300.167 281.5 499.5c7.33301 44.667 11 88 11 130c0 142 -43 265 -129 369c-112 134 -257.333 201 -436 201
c-120.667 0 -204.667 -20.667 -252 -62c-54 -22 -93 -90 -117 -204zM2217 902c-42 -258 -173.5 -481.999 -394.5 -671.999s-471.833 -285 -752.5 -285c-278.667 0 -497.667 95 -657 285c-126 150.667 -189 322.334 -189 515.001c0 50.667 4.33301 103 13 157
c42 257.333 173.667 481.166 395 671.499s471.333 285.5 750 285.5c280.667 0 500.667 -95 660 -285c125.333 -150.667 188 -322.334 188 -515.001c0 -50.667 -4.33301 -103 -13 -157zM1056 1977l399 302.998c10 7.33301 19 11 27 11c8.66699 0 16.334 -4 23.001 -12
l297 -302c8.66699 -11.333 13 -20.666 13 -27.999v-3c-2.66699 -15.333 -11 -23.666 -25 -24.999h-190c-25.333 0 -47.333 10 -66 30l-80 87c-3.33301 3.33301 -7 5 -11 5s-8.33301 -1.66699 -13 -5l-116 -85c-22.667 -21.333 -47.334 -32 -74.001 -32h-190
c-12 1.33301 -18 7.33301 -18 18c0 2 0.333008 4.33301 1 7c1.33301 8 9 18.333 23 31z" />
    <glyph glyph-name="Otilde" unicode="&#xd5;" horiz-adv-x="2160" 
d="M826 445c-5.33301 -30 -8 -56 -8 -78c0 -48.667 12 -79.667 36 -93c49.333 -48 135.333 -72 258 -72c178.667 0 345.5 66.833 500.5 200.5s248.833 300.167 281.5 499.5c7.33301 44.667 11 88 11 130c0 142 -43 265 -129 369c-112 134 -257.333 201 -436 201
c-120.667 0 -204.667 -20.667 -252 -62c-54 -22 -93 -90 -117 -204zM2217 902c-42 -258 -173.5 -481.999 -394.5 -671.999s-471.833 -285 -752.5 -285c-278.667 0 -497.667 95 -657 285c-126 150.667 -189 322.334 -189 515.001c0 50.667 4.33301 103 13 157
c42 257.333 173.667 481.166 395 671.499s471.333 285.5 750 285.5c280.667 0 500.667 -95 660 -285c125.333 -150.667 188 -322.334 188 -515.001c0 -50.667 -4.33301 -103 -13 -157zM1546 2186c8.66699 -4 17 -5.99902 25 -5.99902c24 0 44 19.333 60 58
c8 17.333 23.333 26 46 26c10 0 21.667 -1.66699 35 -5l115 -30c26.667 -7.33301 40 -20 40 -38c0 -2 -0.333008 -4.33301 -1 -7c-0.666992 -6.66699 -3 -14 -7 -22c-73.333 -130.667 -172 -196 -296 -196c-29.333 0 -60 4.33301 -92 13
c-52 13.333 -102 52.666 -150 117.999c-7.33301 3.33301 -14.333 5 -21 5c-26.667 0 -50.667 -25.333 -72 -76c-8.66699 -17.333 -24.334 -26 -47.001 -26c-10 0 -21.333 1.66699 -34 5l-115 30c-26.667 7.33301 -40 20.333 -40 38.999v6c1.33301 6.66699 4 14 8 22
c78.667 142.667 181.334 214 308.001 214c28 0 57.333 -4 88 -12c53.333 -13.333 103.333 -52.666 150 -117.999z" />
    <glyph glyph-name="Odieresis" unicode="&#xd6;" horiz-adv-x="2160" 
d="M826 445c-5.33301 -30 -8 -56 -8 -78c0 -48.667 12 -79.667 36 -93c49.333 -48 135.333 -72 258 -72c178.667 0 345.5 66.833 500.5 200.5s248.833 300.167 281.5 499.5c7.33301 44.667 11 88 11 130c0 142 -43 265 -129 369c-112 134 -257.333 201 -436 201
c-120.667 0 -204.667 -20.667 -252 -62c-54 -22 -93 -90 -117 -204zM2217 902c-42 -258 -173.5 -481.999 -394.5 -671.999s-471.833 -285 -752.5 -285c-278.667 0 -497.667 95 -657 285c-126 150.667 -189 322.334 -189 515.001c0 50.667 4.33301 103 13 157
c42 257.333 173.667 481.166 395 671.499s471.333 285.5 750 285.5c280.667 0 500.667 -95 660 -285c125.333 -150.667 188 -322.334 188 -515.001c0 -50.667 -4.33301 -103 -13 -157zM1113 1931c-26 0 -39 10.333 -39 31c0 3.33301 0.333008 7 1 11l21 132
c6 35.333 25 53 57 53h158c26.667 0 40 -12.667 40 -38c0 -4.66699 -0.333008 -9.66699 -1 -15l-21 -132c-4.66699 -28 -22 -42 -52 -42h-164zM1513 1931c-26 0 -39 10.333 -39 31c0 3.33301 0.333008 7 1 11l21 132c6 35.333 25 53 57 53h158c26.667 0 40 -12.667 40 -38
c0 -4.66699 -0.333008 -9.66699 -1 -15l-21 -132c-4.66699 -28 -22 -42 -52 -42h-164z" />
    <glyph glyph-name="multiply" unicode="&#xd7;" 
d="M724 643l-316 -315.998c-14.667 -14.667 -28.334 -22 -41.001 -22c-10 0 -19.333 4.33301 -28 13l-108 108c-12 12 -18 24 -18 36c0 13.333 7.33301 27.333 22 42l314 314l-314 314c-14.667 14.667 -22 28.667 -22 42c0 12 6 24 18 36l108 108
c8.66699 8.66699 18 13 28 13c12.667 0 26.334 -7.33301 41.001 -22l316 -316l313 313c14 14 28 21 42 21c12 0 24 -6 36 -18l108 -107c8.66699 -8.66699 13 -18 13 -28c0 -12.667 -7.33301 -26.334 -22 -41.001l-316 -315l316 -315c14.667 -14.667 22 -28.334 22 -41.001
c0 -10 -4.33301 -19.333 -13 -28l-108 -107c-12 -12 -24 -18 -36 -18c-14 0 -28 7 -42 21z" />
    <glyph glyph-name="Oslash" unicode="&#xd8;" horiz-adv-x="2160" 
d="M2113 1474c78 -125.333 117.001 -264 117.001 -416c0 -50.667 -4.33301 -102.667 -13 -156c-42 -258 -173.5 -482 -394.5 -672s-471.833 -285 -752.5 -285c-214.667 0 -394.334 56.333 -539.001 169l-191 -165c-23.333 -20 -44.333 -30 -63 -30c-16 0 -30 7 -42 21
l-39 47c-12.667 14.667 -19 29.334 -19 44.001c0 2.66699 0.333008 5.33398 1 8.00098c2.66699 17.333 14.667 35 36 53l183 157c-115.333 146 -173 311.333 -173 496c0 50.667 4.33301 103 13 157c42 257.333 173.667 481.166 395 671.499s471.333 285.5 750 285.5
c254.667 0 459 -78.333 613 -235l149 127c20 17.333 39 26 57 26s34.667 -9 50 -27l33 -40c13.333 -15.333 20 -30.333 20 -45c0 -2.66699 -0.333008 -5.33398 -1 -8.00098c-2.66699 -16 -13.334 -31.667 -32 -47zM858.001 646l901 774c-109.333 121.333 -249 182 -419 182
c-120.667 0 -204.667 -20.667 -252 -62c-54.667 -22 -94 -90 -118 -204zM1862 1258l-1043 -897c0.666992 -45.333 12.334 -74.333 35.001 -87c49.333 -48 135.333 -72 258 -72c178.667 0 345.5 66.833 500.5 200.5s248.833 300.167 281.5 499.5
c7.33301 44.667 11 87.667 11 129c0 82 -14.333 157.667 -43 227z" />
    <glyph glyph-name="Ugrave" unicode="&#xd9;" horiz-adv-x="1713" 
d="M668 315c-1.33301 -8 -1.99902 -15.666 -1.99902 -22.999c0 -32.667 13.333 -56 40 -70c33.333 -18 96.333 -27 189 -27c136 5.33301 244.667 39.5 326 102.5s136.666 163.833 165.999 302.5l186 1139c6 38.667 28 58 66 58h199c33.333 0 50 -13.667 50 -41
c0 -4.66699 -0.333008 -9.33398 -1 -14.001l-175 -1075c-48 -238.667 -141.167 -416 -279.5 -532s-330.5 -174 -576.5 -174c-180.667 0 -341.667 41 -483 123c-122.667 71.333 -184 187 -184 347c0 24 1.33301 49 4 75l199 1222c7.33301 46 35.333 69 84 69h357
c44 0 66 -18.667 66 -56c0 -6 -0.666992 -12.333 -2 -19zM1341 2028c10.667 -10.667 15.999 -21.667 15.999 -33v-5c-2 -10 -8 -20.333 -18 -31l-43 -36c-9.33301 -6.66699 -20 -10 -32 -10c-13.333 0 -28.666 4.33301 -45.999 13l-315 207c-8 10 -12 20.333 -12 31v7
c2 12.667 9.33301 26 22 40l124 108c12 6 23 9 33 9c14 0 25.667 -6 35 -18z" />
    <glyph glyph-name="Uacute" unicode="&#xda;" horiz-adv-x="1713" 
d="M668 315c-1.33301 -8 -1.99902 -15.666 -1.99902 -22.999c0 -32.667 13.333 -56 40 -70c33.333 -18 96.333 -27 189 -27c136 5.33301 244.667 39.5 326 102.5s136.666 163.833 165.999 302.5l186 1139c6 38.667 28 58 66 58h199c33.333 0 50 -13.667 50 -41
c0 -4.66699 -0.333008 -9.33398 -1 -14.001l-175 -1075c-48 -238.667 -141.167 -416 -279.5 -532s-330.5 -174 -576.5 -174c-180.667 0 -341.667 41 -483 123c-122.667 71.333 -184 187 -184 347c0 24 1.33301 49 4 75l199 1222c7.33301 46 35.333 69 84 69h357
c44 0 66 -18.667 66 -56c0 -6 -0.666992 -12.333 -2 -19zM1341 2310c11.333 12 24 17.999 38 17.999c10 0 20.333 -3 31 -9l107 -108c10 -14 15 -27.333 15 -40c0 -13.333 -6 -26 -18 -38l-349 -207c-18.667 -8.66699 -34.667 -13 -48 -13c-12 0 -22 3.33301 -30 10l-37 36
c-8.66699 10.667 -13 21 -13 31c0 12.667 7.33301 25.334 22 38.001z" />
    <glyph glyph-name="Ucircumflex" unicode="&#xdb;" horiz-adv-x="1713" 
d="M668 315c-1.33301 -8 -1.99902 -15.666 -1.99902 -22.999c0 -32.667 13.333 -56 40 -70c33.333 -18 96.333 -27 189 -27c136 5.33301 244.667 39.5 326 102.5s136.666 163.833 165.999 302.5l186 1139c6 38.667 28 58 66 58h199c33.333 0 50 -13.667 50 -41
c0 -4.66699 -0.333008 -9.33398 -1 -14.001l-175 -1075c-48 -238.667 -141.167 -416 -279.5 -532s-330.5 -174 -576.5 -174c-180.667 0 -341.667 41 -483 123c-122.667 71.333 -184 187 -184 347c0 24 1.33301 49 4 75l199 1222c7.33301 46 35.333 69 84 69h357
c44 0 66 -18.667 66 -56c0 -6 -0.666992 -12.333 -2 -19zM832.001 1977l399 302.998c10 7.33301 19 11 27 11c8.66699 0 16.334 -4 23.001 -12l297 -302c8.66699 -11.333 13 -20.666 13 -27.999v-3c-2.66699 -15.333 -11 -23.666 -25 -24.999h-190
c-25.333 0 -47.333 10 -66 30l-80 87c-3.33301 3.33301 -7 5 -11 5s-8.33301 -1.66699 -13 -5l-116 -85c-22.667 -21.333 -47.334 -32 -74.001 -32h-190c-12 1.33301 -18 7.33301 -18 18c0 2 0.333008 4.33301 1 7c1.33301 8 9 18.333 23 31z" />
    <glyph glyph-name="Udieresis" unicode="&#xdc;" horiz-adv-x="1713" 
d="M668 315c-1.33301 -8 -1.99902 -15.666 -1.99902 -22.999c0 -32.667 13.333 -56 40 -70c33.333 -18 96.333 -27 189 -27c136 5.33301 244.667 39.5 326 102.5s136.666 163.833 165.999 302.5l186 1139c6 38.667 28 58 66 58h199c33.333 0 50 -13.667 50 -41
c0 -4.66699 -0.333008 -9.33398 -1 -14.001l-175 -1075c-48 -238.667 -141.167 -416 -279.5 -532s-330.5 -174 -576.5 -174c-180.667 0 -341.667 41 -483 123c-122.667 71.333 -184 187 -184 347c0 24 1.33301 49 4 75l199 1222c7.33301 46 35.333 69 84 69h357
c44 0 66 -18.667 66 -56c0 -6 -0.666992 -12.333 -2 -19zM890.001 1931c-26 0 -39 10.333 -39 31c0 3.33301 0.333008 7 1 11l21 132c6 35.333 25 53 57 53h158c26.667 0 40 -12.667 40 -38c0 -4.66699 -0.333008 -9.66699 -1 -15l-21 -132c-4.66699 -28 -22 -42 -52 -42
h-164zM1290 1931c-26 0 -39 10.333 -39 31c0 3.33301 0.333008 7 1 11l21 132c6 35.333 25 53 57 53h158c26.667 0 40 -12.667 40 -38c0 -4.66699 -0.333008 -9.66699 -1 -15l-21 -132c-4.66699 -28 -22 -42 -52 -42h-164z" />
    <glyph glyph-name="Yacute" unicode="&#xdd;" horiz-adv-x="1657" 
d="M1160 497l-69 -422c-8 -50 -36.333 -75 -85 -75h-349c-37.333 -0 -56 18.333 -56 55c0 7.33301 0.666992 15.333 2 24l68 415l-371 1234c-2.66699 10 -4 18.667 -4 26c0 3.33301 0.333008 6.33301 1 9c4 22.667 20.333 34 49 34h399c40 0 65 -18.667 75 -56l238 -794
c2.66699 -17.333 6.33398 -26 11.001 -26c5.33301 0 11.333 8.33301 18 25l521 808c16 28.667 45.333 43 88 43h183c35.333 0 53 -13.333 53 -40c0 -4 -0.333008 -8.33301 -1 -13c-0.666992 -6.66699 -2.33398 -13.667 -5.00098 -21zM1313 2310
c11.333 12 24 17.999 38 17.999c10 0 20.333 -3 31 -9l107 -108c10 -14 15 -27.333 15 -40c0 -13.333 -6 -26 -18 -38l-349 -207c-18.667 -8.66699 -34.667 -13 -48 -13c-12 0 -22 3.33301 -30 10l-37 36c-8.66699 10.667 -13 21 -13 31c0 12.667 7.33301 25.334 22 38.001z
" />
    <glyph glyph-name="Thorn" unicode="&#xde;" horiz-adv-x="1604" 
d="M886 1597l310.999 0.00195312c152 -10.667 278 -76 378 -196c80 -96 120 -206 120 -330c0 -32.667 -2.66699 -66.334 -8 -101.001c-27.333 -166.667 -116.333 -314.334 -267 -443.001c-129.333 -112 -271.666 -174.667 -426.999 -188h-312l-76 -464
c-8 -50 -36.333 -75 -85 -75h-366c-37.333 0 -56 18.333 -56 55c0 7.33301 0.666992 15.333 2 24l301 1849c7.33301 46 35.333 69 84 69h357c44 0 66 -18.667 66 -56c0 -6 -0.666992 -12.333 -2 -19zM839.999 1318l-113 -693c5.33301 -26 25 -39 59 -39h209
c78 4.66699 152.667 37.667 224 99c88 76.667 141 170.667 159 282c4.66699 28 7 54.667 7 80c0 76 -21.333 139.667 -64 191c-62 73.333 -147 111.333 -255 114h-152c-36 0 -60.667 -11.333 -74 -34z" />
    <glyph glyph-name="germandbls" unicode="&#xdf;" horiz-adv-x="1604" 
d="M509 -300l-379.003 0.00195312c-33.333 0 -50 14.333 -50 43c0 4.66699 0.333008 10 1 16l324 1989c5.33301 32.667 29 49 71 49h522c184.667 0 304.334 -38.333 359.001 -115c42 -59.333 63 -125.333 63 -198c0 -20.667 -1.66699 -42.334 -5 -65.001
c-17.333 -106 -43.666 -174.667 -78.999 -206c45.333 -10 103 -57.333 173 -142c86.667 -102.667 130 -217.667 130 -345c0 -32.667 -2.66699 -65.667 -8 -99c-26.667 -165.333 -110.667 -309 -252 -431c-140 -120 -320.667 -185.333 -542 -196c-36 0 -54 12 -54 36v6
l10 143c0 4.66699 0.333008 9 1 13c5.33301 32 19.333 48 42 48c144.667 4.66699 252.667 37.667 324 99c88 76.667 141 170.667 159 282c4.66699 27.333 7 53.333 7 78c0 77.333 -21.333 141.666 -64 192.999c-55.333 65.333 -105.666 100.333 -150.999 105
c-40 4 -60 20.667 -60 50c0 4.66699 0.333008 9.33398 1 14.001c34.667 97.333 57.667 180 69 248c5.33301 31.333 8 59.666 8 84.999c0 101.333 -41.667 152 -125 152h-79c-36.667 0 -58.334 -19 -65.001 -57l-281 -1727c-7.33301 -45.333 -30.666 -68 -69.999 -68z" />
    <glyph glyph-name="agrave" unicode="&#xe0;" horiz-adv-x="2011" 
d="M1446 96c-136.667 -62.667 -283.332 -94 -439.999 -94c-262 0 -468 89.333 -618 268c-118.667 141.333 -178 303 -178 485c0 47.333 4 96.333 12 147c39.333 242 163.166 452.5 371.499 631.5s443.5 268.5 705.5 268.5c156.667 0 293.334 -31.333 410.001 -94l3 20
c7.33301 46 35.333 69 84 69h357c44 0 66 -18.667 66 -56c0 -6 -0.666992 -12.333 -2 -19l-268 -1647c-8.66699 -50 -37.334 -75 -86.001 -75h-366c-37.333 -0 -56 18.333 -56 55c0 7.33301 0.666992 15.333 2 24zM1524 574l112.001 691.002v9c0 44 -18 85.667 -54 125
c-39.333 41.333 -132.333 68.666 -279 81.999c-18 1.33301 -35.667 2 -53 2c-130 0 -261.333 -44.333 -394 -133c-149.333 -100.667 -240.333 -250.334 -273 -449.001c-7.33301 -43.333 -11 -84.333 -11 -123c0 -139.333 46 -248 138 -326
c103.333 -88.667 220.333 -133 351 -133c17.333 0 35.333 0.666992 54 2c152.667 13.333 256.167 41.833 310.5 85.5s87.166 99.5 98.499 167.5zM1490 2028c10.667 -10.667 15.999 -21.667 15.999 -33v-5c-2 -10 -8 -20.333 -18 -31l-43 -36
c-9.33301 -6.66699 -20 -10 -32 -10c-13.333 0 -28.666 4.33301 -45.999 13l-315 207c-8 10 -12 20.333 -12 31v7c2 12.667 9.33301 26 22 40l124 108c12 6 23 9 33 9c14 0 25.667 -6 35 -18z" />
    <glyph glyph-name="aacute" unicode="&#xe1;" horiz-adv-x="2011" 
d="M1446 96c-136.667 -62.667 -283.332 -94 -439.999 -94c-262 0 -468 89.333 -618 268c-118.667 141.333 -178 303 -178 485c0 47.333 4 96.333 12 147c39.333 242 163.166 452.5 371.499 631.5s443.5 268.5 705.5 268.5c156.667 0 293.334 -31.333 410.001 -94l3 20
c7.33301 46 35.333 69 84 69h357c44 0 66 -18.667 66 -56c0 -6 -0.666992 -12.333 -2 -19l-268 -1647c-8.66699 -50 -37.334 -75 -86.001 -75h-366c-37.333 -0 -56 18.333 -56 55c0 7.33301 0.666992 15.333 2 24zM1524 574l112.001 691.002v9c0 44 -18 85.667 -54 125
c-39.333 41.333 -132.333 68.666 -279 81.999c-18 1.33301 -35.667 2 -53 2c-130 0 -261.333 -44.333 -394 -133c-149.333 -100.667 -240.333 -250.334 -273 -449.001c-7.33301 -43.333 -11 -84.333 -11 -123c0 -139.333 46 -248 138 -326
c103.333 -88.667 220.333 -133 351 -133c17.333 0 35.333 0.666992 54 2c152.667 13.333 256.167 41.833 310.5 85.5s87.166 99.5 98.499 167.5zM1490 2310c11.333 12 24 17.999 38 17.999c10 0 20.333 -3 31 -9l107 -108c10 -14 15 -27.333 15 -40
c0 -13.333 -6 -26 -18 -38l-349 -207c-18.667 -8.66699 -34.667 -13 -48 -13c-12 0 -22 3.33301 -30 10l-37 36c-8.66699 10.667 -13 21 -13 31c0 12.667 7.33301 25.334 22 38.001z" />
    <glyph glyph-name="acircumflex" unicode="&#xe2;" horiz-adv-x="2011" 
d="M1446 96c-136.667 -62.667 -283.332 -94 -439.999 -94c-262 0 -468 89.333 -618 268c-118.667 141.333 -178 303 -178 485c0 47.333 4 96.333 12 147c39.333 242 163.166 452.5 371.499 631.5s443.5 268.5 705.5 268.5c156.667 0 293.334 -31.333 410.001 -94l3 20
c7.33301 46 35.333 69 84 69h357c44 0 66 -18.667 66 -56c0 -6 -0.666992 -12.333 -2 -19l-268 -1647c-8.66699 -50 -37.334 -75 -86.001 -75h-366c-37.333 -0 -56 18.333 -56 55c0 7.33301 0.666992 15.333 2 24zM1524 574l112.001 691.002v9c0 44 -18 85.667 -54 125
c-39.333 41.333 -132.333 68.666 -279 81.999c-18 1.33301 -35.667 2 -53 2c-130 0 -261.333 -44.333 -394 -133c-149.333 -100.667 -240.333 -250.334 -273 -449.001c-7.33301 -43.333 -11 -84.333 -11 -123c0 -139.333 46 -248 138 -326
c103.333 -88.667 220.333 -133 351 -133c17.333 0 35.333 0.666992 54 2c152.667 13.333 256.167 41.833 310.5 85.5s87.166 99.5 98.499 167.5zM981.003 1977l399 302.998c10 7.33301 19 11 27 11c8.66699 0 16.334 -4 23.001 -12l297 -302
c8.66699 -11.333 13 -20.666 13 -27.999v-3c-2.66699 -15.333 -11 -23.666 -25 -24.999h-190c-25.333 0 -47.333 10 -66 30l-80 87c-3.33301 3.33301 -7 5 -11 5s-8.33301 -1.66699 -13 -5l-116 -85c-22.667 -21.333 -47.334 -32 -74.001 -32h-190
c-12 1.33301 -18 7.33301 -18 18c0 2 0.333008 4.33301 1 7c1.33301 8 9 18.333 23 31z" />
    <glyph glyph-name="atilde" unicode="&#xe3;" horiz-adv-x="2011" 
d="M1446 96c-136.667 -62.667 -283.332 -94 -439.999 -94c-262 0 -468 89.333 -618 268c-118.667 141.333 -178 303 -178 485c0 47.333 4 96.333 12 147c39.333 242 163.166 452.5 371.499 631.5s443.5 268.5 705.5 268.5c156.667 0 293.334 -31.333 410.001 -94l3 20
c7.33301 46 35.333 69 84 69h357c44 0 66 -18.667 66 -56c0 -6 -0.666992 -12.333 -2 -19l-268 -1647c-8.66699 -50 -37.334 -75 -86.001 -75h-366c-37.333 -0 -56 18.333 -56 55c0 7.33301 0.666992 15.333 2 24zM1524 574l112.001 691.002v9c0 44 -18 85.667 -54 125
c-39.333 41.333 -132.333 68.666 -279 81.999c-18 1.33301 -35.667 2 -53 2c-130 0 -261.333 -44.333 -394 -133c-149.333 -100.667 -240.333 -250.334 -273 -449.001c-7.33301 -43.333 -11 -84.333 -11 -123c0 -139.333 46 -248 138 -326
c103.333 -88.667 220.333 -133 351 -133c17.333 0 35.333 0.666992 54 2c152.667 13.333 256.167 41.833 310.5 85.5s87.166 99.5 98.499 167.5zM1472 2186c8.66699 -4 17 -5.99805 25 -5.99805c24 0 44 19.333 60 58c8 17.333 23.333 26 46 26c10 0 21.667 -1.66699 35 -5
l115 -30c26.667 -7.33301 40 -20 40 -38c0 -2 -0.333008 -4.33301 -1 -7c-0.666992 -6.66699 -3 -14 -7 -22c-73.333 -130.667 -172 -196 -296 -196c-29.333 0 -60 4.33301 -92 13c-52 13.333 -102 52.666 -150 117.999c-7.33301 3.33301 -14.333 5 -21 5
c-26.667 0 -50.667 -25.333 -72 -76c-8.66699 -17.333 -24.334 -26 -47.001 -26c-10 0 -21.333 1.66699 -34 5l-115 30c-26.667 7.33301 -40 20.333 -40 38.999v6c1.33301 6.66699 4 14 8 22c78.667 142.667 181.334 214 308.001 214c28 0 57.333 -4 88 -12
c53.333 -13.333 103.333 -52.666 150 -118z" />
    <glyph glyph-name="adieresis" unicode="&#xe4;" horiz-adv-x="2011" 
d="M1446 96c-136.667 -62.667 -283.332 -94 -439.999 -94c-262 0 -468 89.333 -618 268c-118.667 141.333 -178 303 -178 485c0 47.333 4 96.333 12 147c39.333 242 163.166 452.5 371.499 631.5s443.5 268.5 705.5 268.5c156.667 0 293.334 -31.333 410.001 -94l3 20
c7.33301 46 35.333 69 84 69h357c44 0 66 -18.667 66 -56c0 -6 -0.666992 -12.333 -2 -19l-268 -1647c-8.66699 -50 -37.334 -75 -86.001 -75h-366c-37.333 -0 -56 18.333 -56 55c0 7.33301 0.666992 15.333 2 24zM1524 574l112.001 691.002v9c0 44 -18 85.667 -54 125
c-39.333 41.333 -132.333 68.666 -279 81.999c-18 1.33301 -35.667 2 -53 2c-130 0 -261.333 -44.333 -394 -133c-149.333 -100.667 -240.333 -250.334 -273 -449.001c-7.33301 -43.333 -11 -84.333 -11 -123c0 -139.333 46 -248 138 -326
c103.333 -88.667 220.333 -133 351 -133c17.333 0 35.333 0.666992 54 2c152.667 13.333 256.167 41.833 310.5 85.5s87.166 99.5 98.499 167.5zM1039 1931c-26 0 -39 10.333 -39 31c0 3.33301 0.333008 7 1 11l21 132c6 35.333 25 53 57 53h158c26.667 0 40 -12.667 40 -38
c0 -4.66699 -0.333008 -9.66699 -1 -15l-21 -132c-4.66699 -28 -22 -42 -52 -42h-164zM1439 1931c-26 0 -39 10.333 -39 31c0 3.33301 0.333008 7 1 11l21 132c6 35.333 25 53 57 53h158c26.667 0 40 -12.667 40 -38c0 -4.66699 -0.333008 -9.66699 -1 -15l-21 -132
c-4.66699 -28 -22 -42 -52 -42h-164z" />
    <glyph glyph-name="aring" unicode="&#xe5;" horiz-adv-x="2061" 
d="M1549 574l112.001 691.002v9c0 44 -18 85.667 -54 125c-39.333 41.333 -132.333 68.666 -279 81.999c-18 1.33301 -35.667 2 -53 2c-130 0 -261.333 -44.333 -394 -133c-149.333 -100.667 -240.333 -250.334 -273 -449.001c-7.33301 -43.333 -11 -84.333 -11 -123
c0 -139.333 46 -248 138 -326c103.333 -88.667 220.333 -133 351 -133c17.333 0 35.333 0.666992 54 2c152.667 13.333 256.167 41.833 310.5 85.5s87.166 99.5 98.499 167.5zM1375 2124c-23.333 0 -45.332 -9.00098 -65.999 -27.001s-33.334 -39.333 -38.001 -64
c-0.666992 -5.33301 -1 -10.666 -1 -15.999c0 -18.667 5.66699 -35 17 -49c14 -18 33.333 -27 58 -27c26 0 49.667 9 71 27s34 39.667 38 65c1.33301 5.33301 2 11 2 17c0 17.333 -6 33 -18 47c-16 18 -37 27 -63 27zM1392 1800c128.667 -8 242.67 -38.6689 342.003 -92.002
l3 20c7.33301 46 35.333 69 84 69h357c44 0 66 -18.667 66 -56c0 -6 -0.666992 -12.333 -2 -19l-268 -1647c-8.66699 -50 -37.334 -75 -86.001 -75h-366c-37.333 0 -56 18.333 -56 55c0 7.33301 0.666992 15.333 2 24l3 17c-136.667 -62.667 -283.334 -94 -440.001 -94
c-262 0 -468 89.333 -618 268c-118.667 141.333 -178 303 -178 485c0 47.333 4 96.333 12 147c39.333 242 163.333 452.667 372 632c189.333 162.667 401.333 251.334 636 266.001c-2 0.666992 -4.33301 1.33398 -7 2.00098c-32.667 11.333 -61.334 31 -86.001 59
c-19.333 23.333 -32.333 49.333 -39 78c-4.66699 17.333 -7 35.333 -7 54c0 13.333 1 26.666 3 39.999c11.333 66.667 44.5 123.834 99.5 171.501s115.833 71.5 182.5 71.5c67.333 0 121 -23.667 161 -71c31.333 -37.333 47 -80.333 47 -129c0 -14 -1.33301 -28.333 -4 -43
c-10.667 -68 -44 -125.333 -100 -172c-35.333 -30 -73 -50.333 -113 -61z" />
    <glyph glyph-name="ae" unicode="&#xe6;" horiz-adv-x="3210" 
d="M2159 1117h779c41.333 0 65.333 9.33301 72 28c-13.333 214 -119.666 343.667 -319 389c-64.667 15.333 -125 23 -181 23c-95.333 0 -178.333 -21.667 -249 -65c-29.333 -14.667 -49 -52.667 -59 -114zM1646 1343c-9.33301 18.667 -22.334 37.335 -39.001 56.002
c-39.333 41.333 -132.333 68.666 -279 81.999c-18 1.33301 -35.667 2 -53 2c-130 0 -261.333 -44.333 -394 -133c-149.333 -100.667 -240.333 -250.334 -273 -449.001c-7.33301 -43.333 -11 -84.333 -11 -123c0 -139.333 46 -248 138 -326
c103.333 -88.667 220.333 -133 351 -133c17.333 0 35.333 0.666992 54 2c152.667 13.333 256.334 42 311.001 86c20.667 16 37.667 34 51 54zM1962 39.001c-14 -26 -38.667 -38.9971 -74 -38.9971h-366c-37.333 0 -56 18.333 -56 55c0 7.33301 0.666992 15.333 2 24l3 17
c-136.667 -62.667 -283.334 -94 -440.001 -94c-262 0 -468 89.333 -618 268c-118.667 141.333 -178 303 -178 485c0 47.333 4 96.333 12 147c39.333 242 163.166 452.5 371.499 631.5s443.5 268.5 705.5 268.5c156.667 0 293.334 -31.333 410.001 -94l3 20
c7.33301 46 35.333 69 84 69h357c33.333 0 54 -10.667 62 -32c100.667 30.667 204 46 310 46c96.667 0 195.334 -12.667 296 -38c188 -72.667 315.333 -195.667 382 -369c47.333 -124.667 71 -240.334 71 -347.001c0 -36.667 -3 -72.334 -9 -107.001l-3 -22
c-6.66699 -38.667 -30 -58 -70 -58h-1098l-50 -308c-8 -47.333 -12 -89.333 -12 -126c0 -79.333 18.667 -131 56 -155c32.667 -25.333 83.667 -38 153 -38c60.667 0 135.334 9.66699 224 29c138 42.667 279 124.667 423 246c16.667 24.667 40.334 37 71 37
c18 0 38.333 -4.33301 61 -13l62 -46c24 -9.33301 36 -24 36 -44c0 -3.33301 -0.333008 -7 -1 -11c-2.66699 -17.333 -12.334 -38 -29 -62c-135.333 -158.667 -318.666 -274.334 -549.999 -347.001c-109.333 -25.333 -212.333 -38 -309 -38c-104.667 0 -202 15 -292 45z" />
    <glyph glyph-name="ccedilla" unicode="&#xe7;" horiz-adv-x="1932" 
d="M868 6c-98.667 16 -190.002 47.668 -274.002 95.001c-201.333 112.667 -319.333 277 -354 493c-7.33301 44 -11 88.667 -11 134c0 44.667 3.66699 90 11 136l8 39c1.33301 13.333 3 26.333 5 39c14.667 91.333 43.667 181 87 269c105.333 216 277 380.667 515 494
c150 70.667 305.667 106 467 106c96.667 0 195.334 -12.667 296.001 -38c208 -72.667 353.667 -188.334 437 -347.001c6.66699 -18.667 10 -35 10 -49c0 -4.66699 -0.333008 -9 -1 -13c-4 -26 -21.667 -44.333 -53 -55l-78 -46c-25.333 -8.66699 -47 -13 -65 -13
c-30.667 0 -50.334 12.333 -59.001 37c-104 121.333 -218.333 203.333 -343 246c-82 19.333 -153.333 29 -214 29c-69.333 0 -124.333 -12.667 -165 -38c-66 -35.333 -111.333 -129 -136 -281l-111 -681c-8 -47.333 -12 -89 -12 -125c0 -79.333 19 -131.333 57 -156
c32 -25.333 82.667 -38 152 -38c60.667 0 135.334 9.66699 224.001 29c138 42.667 279 124.667 423 246c16.667 24.667 40.334 37 71.001 37c18 0 38.333 -4.33301 61 -13l63 -46c24 -9.33301 36 -24.333 36 -45c0 -3.33301 -0.333008 -6.66602 -1 -9.99902
c-3.33301 -17.333 -13.333 -38 -30 -62c-134.667 -158.667 -318 -274.334 -550 -347.001c-65.333 -15.333 -128.333 -26 -189 -32c24 -10 47 -26.667 69 -50c32.667 -36.667 49 -81.667 49 -135c-0.666992 -7.33301 -1.66699 -14.666 -3 -21.999
c-7.33301 -46.667 -38 -94.667 -92 -144c-62.667 -57.333 -161 -95.333 -295 -114c-3.33301 -0.666992 -6.66602 -1 -9.99902 -1c-25.333 0 -40 16.333 -44 49l-21 112c5.33301 32.667 25 50 59 52c7.33301 -1.33301 14.666 -2 21.999 -2c52.667 0 91.667 27.333 117 82
c2.66699 7.33301 4.66699 14.666 6 21.999c0.666992 4 1 8.33301 1 13c0 48 -45 96 -135 144z" />
    <glyph glyph-name="egrave" unicode="&#xe8;" horiz-adv-x="1971" 
d="M920 1117h779c41.333 0 65 9.33301 71 28c-12.667 214 -118.667 343.667 -318 389c-65.333 15.333 -126 23 -182 23c-95.333 0 -178 -21.667 -248 -65c-30 -14.667 -50 -52.667 -60 -114zM880 870l-50.999 -307.998c-8 -47.333 -12 -89 -12 -125
c0 -79.333 19 -131.333 57 -156c32.667 -25.333 83.667 -38 153 -38c60.667 0 135 9.66699 223 29c138.667 42.667 279.667 124.667 423 246c16.667 24.667 40.334 37 71.001 37c18 0 38.333 -4.33301 61 -13l63 -46c24 -9.33301 36 -24.333 36 -45
c0 -3.33301 -0.333008 -6.66602 -1 -9.99902c-2.66699 -17.333 -12.334 -38 -29.001 -62c-135.333 -158.667 -319 -274.334 -551 -347.001c-108.667 -25.333 -211.334 -38 -308.001 -38c-161.333 0 -305.333 35.667 -432 107c-201.333 112.667 -319.333 277 -354 493
c-6.66699 42.667 -10 85.667 -10 129c0 45.333 3.66699 91.333 11 138l8 44l6 40c14.667 90 43 178.333 85 265c105.333 216.667 277.333 381.667 516 495c149.333 70.667 304.666 106 465.999 106c96.667 0 195.334 -12.667 296.001 -38
c188 -72.667 315.333 -195.667 382 -369c47.333 -124.667 71 -240.334 71 -347.001c0 -36.667 -3 -72.334 -9 -107.001l-4 -22c-6 -38.667 -29 -58 -69 -58h-1098zM1477 2028c10.667 -10.667 15.999 -21.667 15.999 -33v-5c-2 -10 -8 -20.333 -18 -31l-43 -36
c-9.33301 -6.66699 -20 -10 -32 -10c-13.333 0 -28.666 4.33301 -45.999 13l-315 207c-8 10 -12 20.333 -12 31v7c2 12.667 9.33301 26 22 40l124 108c12 6 23 9 33 9c14 0 25.667 -6 35 -18z" />
    <glyph glyph-name="eacute" unicode="&#xe9;" horiz-adv-x="1971" 
d="M920 1117h779c41.333 0 65 9.33301 71 28c-12.667 214 -118.667 343.667 -318 389c-65.333 15.333 -126 23 -182 23c-95.333 0 -178 -21.667 -248 -65c-30 -14.667 -50 -52.667 -60 -114zM880 870l-50.999 -307.998c-8 -47.333 -12 -89 -12 -125
c0 -79.333 19 -131.333 57 -156c32.667 -25.333 83.667 -38 153 -38c60.667 0 135 9.66699 223 29c138.667 42.667 279.667 124.667 423 246c16.667 24.667 40.334 37 71.001 37c18 0 38.333 -4.33301 61 -13l63 -46c24 -9.33301 36 -24.333 36 -45
c0 -3.33301 -0.333008 -6.66602 -1 -9.99902c-2.66699 -17.333 -12.334 -38 -29.001 -62c-135.333 -158.667 -319 -274.334 -551 -347.001c-108.667 -25.333 -211.334 -38 -308.001 -38c-161.333 0 -305.333 35.667 -432 107c-201.333 112.667 -319.333 277 -354 493
c-6.66699 42.667 -10 85.667 -10 129c0 45.333 3.66699 91.333 11 138l8 44l6 40c14.667 90 43 178.333 85 265c105.333 216.667 277.333 381.667 516 495c149.333 70.667 304.666 106 465.999 106c96.667 0 195.334 -12.667 296.001 -38
c188 -72.667 315.333 -195.667 382 -369c47.333 -124.667 71 -240.334 71 -347.001c0 -36.667 -3 -72.334 -9 -107.001l-4 -22c-6 -38.667 -29 -58 -69 -58h-1098zM1477 2310c11.333 12 24 17.999 38 17.999c10 0 20.333 -3 31 -9l107 -108c10 -14 15 -27.333 15 -40
c0 -13.333 -6 -26 -18 -38l-349 -207c-18.667 -8.66699 -34.667 -13 -48 -13c-12 0 -22 3.33301 -30 10l-37 36c-8.66699 10.667 -13 21 -13 31c0 12.667 7.33301 25.334 22 38.001z" />
    <glyph glyph-name="ecircumflex" unicode="&#xea;" horiz-adv-x="1971" 
d="M920 1117h779c41.333 0 65 9.33301 71 28c-12.667 214 -118.667 343.667 -318 389c-65.333 15.333 -126 23 -182 23c-95.333 0 -178 -21.667 -248 -65c-30 -14.667 -50 -52.667 -60 -114zM880 870l-50.999 -307.998c-8 -47.333 -12 -89 -12 -125
c0 -79.333 19 -131.333 57 -156c32.667 -25.333 83.667 -38 153 -38c60.667 0 135 9.66699 223 29c138.667 42.667 279.667 124.667 423 246c16.667 24.667 40.334 37 71.001 37c18 0 38.333 -4.33301 61 -13l63 -46c24 -9.33301 36 -24.333 36 -45
c0 -3.33301 -0.333008 -6.66602 -1 -9.99902c-2.66699 -17.333 -12.334 -38 -29.001 -62c-135.333 -158.667 -319 -274.334 -551 -347.001c-108.667 -25.333 -211.334 -38 -308.001 -38c-161.333 0 -305.333 35.667 -432 107c-201.333 112.667 -319.333 277 -354 493
c-6.66699 42.667 -10 85.667 -10 129c0 45.333 3.66699 91.333 11 138l8 44l6 40c14.667 90 43 178.333 85 265c105.333 216.667 277.333 381.667 516 495c149.333 70.667 304.666 106 465.999 106c96.667 0 195.334 -12.667 296.001 -38
c188 -72.667 315.333 -195.667 382 -369c47.333 -124.667 71 -240.334 71 -347.001c0 -36.667 -3 -72.334 -9 -107.001l-4 -22c-6 -38.667 -29 -58 -69 -58h-1098zM968.001 1977l399 302.998c10 7.33301 19 11 27 11c8.66699 0 16.334 -4 23.001 -12l297 -302
c8.66699 -11.333 13 -20.666 13 -27.999v-3c-2.66699 -15.333 -11 -23.666 -25 -24.999h-190c-25.333 0 -47.333 10 -66 30l-80 87c-3.33301 3.33301 -7 5 -11 5s-8.33301 -1.66699 -13 -5l-116 -85c-22.667 -21.333 -47.334 -32 -74.001 -32h-190
c-12 1.33301 -18 7.33301 -18 18c0 2 0.333008 4.33301 1 7c1.33301 8 9 18.333 23 31z" />
    <glyph glyph-name="edieresis" unicode="&#xeb;" horiz-adv-x="1971" 
d="M920 1117h779c41.333 0 65 9.33301 71 28c-12.667 214 -118.667 343.667 -318 389c-65.333 15.333 -126 23 -182 23c-95.333 0 -178 -21.667 -248 -65c-30 -14.667 -50 -52.667 -60 -114zM880 870l-50.999 -307.998c-8 -47.333 -12 -89 -12 -125
c0 -79.333 19 -131.333 57 -156c32.667 -25.333 83.667 -38 153 -38c60.667 0 135 9.66699 223 29c138.667 42.667 279.667 124.667 423 246c16.667 24.667 40.334 37 71.001 37c18 0 38.333 -4.33301 61 -13l63 -46c24 -9.33301 36 -24.333 36 -45
c0 -3.33301 -0.333008 -6.66602 -1 -9.99902c-2.66699 -17.333 -12.334 -38 -29.001 -62c-135.333 -158.667 -319 -274.334 -551 -347.001c-108.667 -25.333 -211.334 -38 -308.001 -38c-161.333 0 -305.333 35.667 -432 107c-201.333 112.667 -319.333 277 -354 493
c-6.66699 42.667 -10 85.667 -10 129c0 45.333 3.66699 91.333 11 138l8 44l6 40c14.667 90 43 178.333 85 265c105.333 216.667 277.333 381.667 516 495c149.333 70.667 304.666 106 465.999 106c96.667 0 195.334 -12.667 296.001 -38
c188 -72.667 315.333 -195.667 382 -369c47.333 -124.667 71 -240.334 71 -347.001c0 -36.667 -3 -72.334 -9 -107.001l-4 -22c-6 -38.667 -29 -58 -69 -58h-1098zM1026 1931c-26 0 -39 10.333 -39 31c0 3.33301 0.333008 7 1 11l21 132c6 35.333 25 53 57 53h158
c26.667 0 40 -12.667 40 -38c0 -4.66699 -0.333008 -9.66699 -1 -15l-21 -132c-4.66699 -28 -22 -42 -52 -42h-164zM1426 1931c-26 0 -39 10.333 -39 31c0 3.33301 0.333008 7 1 11l21 132c6 35.333 25 53 57 53h158c26.667 0 40 -12.667 40 -38
c0 -4.66699 -0.333008 -9.66699 -1 -15l-21 -132c-4.66699 -28 -22 -42 -52 -42h-164z" />
    <glyph glyph-name="igrave" unicode="&#xec;" horiz-adv-x="726" 
d="M751 1297c44 0 66 -18.667 66 -56c0 -6 -0.666992 -12.333 -2 -19l-187 -1147c-8 -50 -36.333 -75 -85 -75h-366c-37.333 -0 -56 18.333 -56 55c0 7.33301 0.666992 15.333 2 24l187 1149c7.33301 46 35.333 69 84 69h357zM771 1628c10.667 -10.667 16 -21.667 16 -33v-5
c-1.33301 -10 -7.33301 -20.333 -18 -31l-43 -36c-9.33301 -6.66699 -20 -10 -32 -10c-13.333 0 -28.333 4.33301 -45 13l-316 207c-8 10 -12 20.333 -12 31v7c2.66699 12.667 10 26 22 40l125 108c11.333 6 22 9 32 9c14 0 25.667 -6 35 -18z" />
    <glyph glyph-name="iacute" unicode="&#xed;" horiz-adv-x="726" 
d="M751 1297c44 0 66 -18.667 66 -56c0 -6 -0.666992 -12.333 -2 -19l-187 -1147c-8 -50 -36.333 -75 -85 -75h-366c-37.333 -0 -56 18.333 -56 55c0 7.33301 0.666992 15.333 2 24l187 1149c7.33301 46 35.333 69 84 69h357zM813 1910c13.333 12 27 17.9971 41 17.9971
c10 0 20 -3 30 -9l89 -108c6 -10.667 9 -20.667 9 -30c0 -3.33301 -0.333008 -6.66602 -1 -9.99902c-2 -13.333 -10 -26 -24 -38l-382 -207c-20.667 -8.66699 -37.667 -13 -51 -13c-12 0 -21.333 3.33301 -28 10l-31 36c-5.33301 8.66699 -8 17.334 -8 26.001v5
c2 12.667 11.333 25.334 28 38.001z" />
    <glyph glyph-name="icircumflex" unicode="&#xee;" horiz-adv-x="726" 
d="M751 1297c44 0 66 -18.667 66 -56c0 -6 -0.666992 -12.333 -2 -19l-187 -1147c-8 -50 -36.333 -75 -85 -75h-366c-37.333 -0 -56 18.333 -56 55c0 7.33301 0.666992 15.333 2 24l187 1149c7.33301 46 35.333 69 84 69h357zM719 1551l-90 97l-130 -95
c-29.333 -21.333 -64 -32 -104 -32h-150c-24.667 0 -37 5 -37 15v2c2 9.33301 13 22.333 33 39l430 325l337 -353c6.66699 -6 10 -11 10 -15v-1c-1.33301 -8 -17.333 -12 -48 -12h-140c-46.667 0 -83.667 10 -111 30z" />
    <glyph glyph-name="idieresis" unicode="&#xef;" horiz-adv-x="726" 
d="M751 1297c44 0 66 -18.667 66 -56c0 -6 -0.666992 -12.333 -2 -19l-187 -1147c-8 -50 -36.333 -75 -85 -75h-366c-37.333 -0 -56 18.333 -56 55c0 7.33301 0.666992 15.333 2 24l187 1149c7.33301 46 35.333 69 84 69h357zM357 1631c-23.333 0 -39.666 14 -48.999 42
l22 132c19.333 35.333 41.666 53 66.999 53h138c25.333 0 41.666 -17.667 48.999 -53l-22 -132c-17.333 -28 -37.666 -42 -60.999 -42h-144zM757 1631c-23.333 0 -39.666 14 -48.999 42l22 132c19.333 35.333 41.666 53 66.999 53h138c25.333 0 41.666 -17.667 48.999 -53
l-22 -132c-17.333 -28 -37.666 -42 -60.999 -42h-144z" />
    <glyph glyph-name="eth" unicode="&#xf0;" horiz-adv-x="2188" 
d="M854 274c49.333 -48 135.333 -72 258 -72c178.667 0 345.5 66.833 500.5 200.5s248.833 300.167 281.5 499.5c7.33301 44.667 11 88 11 130c0 142 -43 265 -129 369c-112 134 -257.333 201 -436 201c-120.667 0 -204.667 -20.667 -252 -62c-54 -22 -93 -90 -117 -204
l-145 -891c-5.33301 -30 -8 -56 -8 -78c0 -48.667 12 -79.667 36 -93zM2237 902c-55.333 -258 -193.502 -481.999 -414.502 -671.999s-471.833 -285 -752.5 -285c-278.667 0 -497.667 95 -657 285c-126 150.667 -189 322.334 -189 515.001c0 50.667 4.33301 103 13 157
c42 257.333 173.667 481.166 395 671.499s471.333 285.5 750 285.5c280.667 0 500.334 -95 659.001 -285c19.333 -23.333 37 -46.666 53 -69.999c-1.33301 102 -33.333 207.333 -96 316c-36 62 -84.667 120 -146 174l-116 -100c-12.667 -10.667 -26.667 -16 -42 -16
c-8.66699 0 -18.334 2 -29.001 6l-31 37c-3.33301 11.333 -5 21.666 -5 30.999c0 4 0.333008 8 1 12c2 14 9 26 21 36l92 79c-36 24 -75.333 47.333 -118 70c-15.333 10 -23 22 -23 36c0 2.66699 0.333008 5 1 7c1.33301 6.66699 4.33301 14 9 22l25 51
c8.66699 17.333 20.334 26 35.001 26c6.66699 0 13.667 -1.66699 21 -5c64 -29.333 122.667 -62 176 -98l99 85c12 10 25 15 39 15c12.667 0 26.334 -3.66699 41.001 -11l31 -37c1.33301 -6.66699 2 -13 2 -19c0 -3.33301 -0.333008 -7 -1 -11
c-2.66699 -15.333 -10 -28.333 -22 -39l-79 -68c78.667 -70 141.667 -149.667 189 -239c86.667 -141.333 130 -311.666 130 -510.999c0 -84.667 -7.66699 -174.334 -23 -269.001c-10 -58.667 -22.667 -119.334 -38 -182.001z" />
    <glyph glyph-name="ntilde" unicode="&#xf1;" horiz-adv-x="1862" 
d="M899 1765c75.333 20.667 158.668 36.001 250.001 46.001c48.667 5.33301 95.334 8 140.001 8c196 0 354.333 -50 475 -150c124.667 -104.667 187 -228.334 187 -371.001c0 -26 -2 -52.667 -6 -80l-187 -1149c-7.33301 -46 -30 -69 -68 -69h-179c-45.333 0 -68 19 -68 57
c0 6.66699 0.666992 13.667 2 21l175 1077c4 30.667 6 59.667 6 87c0 116.667 -35.667 202.667 -107 258c-66.667 51.333 -156.334 77 -269.001 77c-35.333 0 -73 -2.33301 -113 -7c-168 -22 -262.667 -70 -284 -144l-220 -1351c-8 -50 -36.333 -75 -85 -75h-366
c-37.333 -0 -56 18.333 -56 55c0 7.33301 0.666992 15.333 2 24l268 1649c8 46 36.333 69 85 69h357c33.333 0 53.666 -10.667 60.999 -32zM1397 2186c8.66699 -4 17 -5.99902 25 -5.99902c24 0 44 19.333 60 58c8 17.333 23.333 26 46 26c10 0 21.667 -1.66699 35 -5
l115 -30c26.667 -7.33301 40 -20 40 -38c0 -2 -0.333008 -4.33301 -1 -7c-0.666992 -6.66699 -3 -14 -7 -22c-73.333 -130.667 -172 -196 -296 -196c-29.333 0 -60 4.33301 -92 13c-52 13.333 -102 52.666 -150 117.999c-7.33301 3.33301 -14.333 5 -21 5
c-26.667 0 -50.667 -25.333 -72 -76c-8.66699 -17.333 -24.334 -26 -47.001 -26c-10 0 -21.333 1.66699 -34 5l-115 30c-26.667 7.33301 -40 20.333 -40 38.999v6c1.33301 6.66699 4 14 8 22c78.667 142.667 181.334 214 308.001 214c28 0 57.333 -4 88 -12
c53.333 -13.333 103.333 -52.666 150 -117.999z" />
    <glyph glyph-name="ograve" unicode="&#xf2;" horiz-adv-x="2160" 
d="M826 445c-5.33301 -30 -8 -56 -8 -78c0 -48.667 12 -79.667 36 -93c49.333 -48 135.333 -72 258 -72c178.667 0 345.5 66.833 500.5 200.5s248.833 300.167 281.5 499.5c7.33301 44.667 11 88 11 130c0 142 -43 265 -129 369c-112 134 -257.333 201 -436 201
c-120.667 0 -204.667 -20.667 -252 -62c-54 -22 -93 -90 -117 -204zM2217 902c-42 -258 -173.5 -481.999 -394.5 -671.999s-471.833 -285 -752.5 -285c-278.667 0 -497.667 95 -657 285c-126 150.667 -189 322.334 -189 515.001c0 50.667 4.33301 103 13 157
c42 257.333 173.667 481.166 395 671.499s471.333 285.5 750 285.5c280.667 0 500.667 -95 660 -285c125.333 -150.667 188 -322.334 188 -515.001c0 -50.667 -4.33301 -103 -13 -157zM1564 2028c10.667 -10.667 15.999 -21.667 15.999 -33v-5c-2 -10 -8 -20.333 -18 -31
l-43 -36c-9.33301 -6.66699 -20 -10 -32 -10c-13.333 0 -28.666 4.33301 -45.999 13l-315 207c-8 10 -12 20.333 -12 31v7c2 12.667 9.33301 26 22 40l124 108c12 6 23 9 33 9c14 0 25.667 -6 35 -18z" />
    <glyph glyph-name="oacute" unicode="&#xf3;" horiz-adv-x="2160" 
d="M826 445c-5.33301 -30 -8 -56 -8 -78c0 -48.667 12 -79.667 36 -93c49.333 -48 135.333 -72 258 -72c178.667 0 345.5 66.833 500.5 200.5s248.833 300.167 281.5 499.5c7.33301 44.667 11 88 11 130c0 142 -43 265 -129 369c-112 134 -257.333 201 -436 201
c-120.667 0 -204.667 -20.667 -252 -62c-54 -22 -93 -90 -117 -204zM2217 902c-42 -258 -173.5 -481.999 -394.5 -671.999s-471.833 -285 -752.5 -285c-278.667 0 -497.667 95 -657 285c-126 150.667 -189 322.334 -189 515.001c0 50.667 4.33301 103 13 157
c42 257.333 173.667 481.166 395 671.499s471.333 285.5 750 285.5c280.667 0 500.667 -95 660 -285c125.333 -150.667 188 -322.334 188 -515.001c0 -50.667 -4.33301 -103 -13 -157zM1564 2310c11.333 12 24 17.999 38 17.999c10 0 20.333 -3 31 -9l107 -108
c10 -14 15 -27.333 15 -40c0 -13.333 -6 -26 -18 -38l-349 -207c-18.667 -8.66699 -34.667 -13 -48 -13c-12 0 -22 3.33301 -30 10l-37 36c-8.66699 10.667 -13 21 -13 31c0 12.667 7.33301 25.334 22 38.001z" />
    <glyph glyph-name="ocircumflex" unicode="&#xf4;" horiz-adv-x="2160" 
d="M826 445c-5.33301 -30 -8 -56 -8 -78c0 -48.667 12 -79.667 36 -93c49.333 -48 135.333 -72 258 -72c178.667 0 345.5 66.833 500.5 200.5s248.833 300.167 281.5 499.5c7.33301 44.667 11 88 11 130c0 142 -43 265 -129 369c-112 134 -257.333 201 -436 201
c-120.667 0 -204.667 -20.667 -252 -62c-54 -22 -93 -90 -117 -204zM2217 902c-42 -258 -173.5 -481.999 -394.5 -671.999s-471.833 -285 -752.5 -285c-278.667 0 -497.667 95 -657 285c-126 150.667 -189 322.334 -189 515.001c0 50.667 4.33301 103 13 157
c42 257.333 173.667 481.166 395 671.499s471.333 285.5 750 285.5c280.667 0 500.667 -95 660 -285c125.333 -150.667 188 -322.334 188 -515.001c0 -50.667 -4.33301 -103 -13 -157zM1056 1977l399 302.998c10 7.33301 19 11 27 11c8.66699 0 16.334 -4 23.001 -12
l297 -302c8.66699 -11.333 13 -20.666 13 -27.999v-3c-2.66699 -15.333 -11 -23.666 -25 -24.999h-190c-25.333 0 -47.333 10 -66 30l-80 87c-3.33301 3.33301 -7 5 -11 5s-8.33301 -1.66699 -13 -5l-116 -85c-22.667 -21.333 -47.334 -32 -74.001 -32h-190
c-12 1.33301 -18 7.33301 -18 18c0 2 0.333008 4.33301 1 7c1.33301 8 9 18.333 23 31z" />
    <glyph glyph-name="otilde" unicode="&#xf5;" horiz-adv-x="2160" 
d="M826 445c-5.33301 -30 -8 -56 -8 -78c0 -48.667 12 -79.667 36 -93c49.333 -48 135.333 -72 258 -72c178.667 0 345.5 66.833 500.5 200.5s248.833 300.167 281.5 499.5c7.33301 44.667 11 88 11 130c0 142 -43 265 -129 369c-112 134 -257.333 201 -436 201
c-120.667 0 -204.667 -20.667 -252 -62c-54 -22 -93 -90 -117 -204zM2217 902c-42 -258 -173.5 -481.999 -394.5 -671.999s-471.833 -285 -752.5 -285c-278.667 0 -497.667 95 -657 285c-126 150.667 -189 322.334 -189 515.001c0 50.667 4.33301 103 13 157
c42 257.333 173.667 481.166 395 671.499s471.333 285.5 750 285.5c280.667 0 500.667 -95 660 -285c125.333 -150.667 188 -322.334 188 -515.001c0 -50.667 -4.33301 -103 -13 -157zM1546 2186c8.66699 -4 17 -5.99902 25 -5.99902c24 0 44 19.333 60 58
c8 17.333 23.333 26 46 26c10 0 21.667 -1.66699 35 -5l115 -30c26.667 -7.33301 40 -20 40 -38c0 -2 -0.333008 -4.33301 -1 -7c-0.666992 -6.66699 -3 -14 -7 -22c-73.333 -130.667 -172 -196 -296 -196c-29.333 0 -60 4.33301 -92 13
c-52 13.333 -102 52.666 -150 117.999c-7.33301 3.33301 -14.333 5 -21 5c-26.667 0 -50.667 -25.333 -72 -76c-8.66699 -17.333 -24.334 -26 -47.001 -26c-10 0 -21.333 1.66699 -34 5l-115 30c-26.667 7.33301 -40 20.333 -40 38.999v6c1.33301 6.66699 4 14 8 22
c78.667 142.667 181.334 214 308.001 214c28 0 57.333 -4 88 -12c53.333 -13.333 103.333 -52.666 150 -117.999z" />
    <glyph glyph-name="odieresis" unicode="&#xf6;" horiz-adv-x="2160" 
d="M826 445c-5.33301 -30 -8 -56 -8 -78c0 -48.667 12 -79.667 36 -93c49.333 -48 135.333 -72 258 -72c178.667 0 345.5 66.833 500.5 200.5s248.833 300.167 281.5 499.5c7.33301 44.667 11 88 11 130c0 142 -43 265 -129 369c-112 134 -257.333 201 -436 201
c-120.667 0 -204.667 -20.667 -252 -62c-54 -22 -93 -90 -117 -204zM2217 902c-42 -258 -173.5 -481.999 -394.5 -671.999s-471.833 -285 -752.5 -285c-278.667 0 -497.667 95 -657 285c-126 150.667 -189 322.334 -189 515.001c0 50.667 4.33301 103 13 157
c42 257.333 173.667 481.166 395 671.499s471.333 285.5 750 285.5c280.667 0 500.667 -95 660 -285c125.333 -150.667 188 -322.334 188 -515.001c0 -50.667 -4.33301 -103 -13 -157zM1113 1931c-26 0 -39 10.333 -39 31c0 3.33301 0.333008 7 1 11l21 132
c6 35.333 25 53 57 53h158c26.667 0 40 -12.667 40 -38c0 -4.66699 -0.333008 -9.66699 -1 -15l-21 -132c-4.66699 -28 -22 -42 -52 -42h-164zM1513 1931c-26 0 -39 10.333 -39 31c0 3.33301 0.333008 7 1 11l21 132c6 35.333 25 53 57 53h158c26.667 0 40 -12.667 40 -38
c0 -4.66699 -0.333008 -9.66699 -1 -15l-21 -132c-4.66699 -28 -22 -42 -52 -42h-164z" />
    <glyph glyph-name="divide" unicode="&#xf7;" 
d="M155 695c-36.667 0 -55 14 -55 42v152c0 35.333 19.333 53 58 53h1134c38.667 0 58 -17.667 58 -53v-152c0 -28 -18.333 -42 -55 -42h-1140zM849 248c0 -23.333 -14 -41.666 -42 -54.999h-152c-35.333 13.333 -53 32.666 -53 57.999v134
c0 25.333 17.667 44.666 53 57.999h152c28 -13.333 42 -31.666 42 -54.999v-140zM849 1248c0 -23.333 -14 -41.666 -42 -54.999h-152c-35.333 13.333 -53 32.666 -53 57.999v134c0 25.333 17.667 44.666 53 57.999h152c28 -13.333 42 -31.666 42 -54.999v-140z" />
    <glyph glyph-name="oslash" unicode="&#xf8;" horiz-adv-x="2160" 
d="M2113 1474c78 -125.333 117.001 -264 117.001 -416c0 -50.667 -4.33301 -102.667 -13 -156c-42 -258 -173.5 -482 -394.5 -672s-471.833 -285 -752.5 -285c-214.667 0 -394.334 56.333 -539.001 169l-191 -165c-23.333 -20 -44.333 -30 -63 -30c-16 0 -30 7 -42 21
l-39 47c-12.667 14.667 -19 29.334 -19 44.001c0 2.66699 0.333008 5.33398 1 8.00098c2.66699 17.333 14.667 35 36 53l183 157c-115.333 146 -173 311.333 -173 496c0 50.667 4.33301 103 13 157c42 257.333 173.667 481.166 395 671.499s471.333 285.5 750 285.5
c254.667 0 459 -78.333 613 -235l149 127c20 17.333 39 26 57 26s34.667 -9 50 -27l33 -40c13.333 -15.333 20 -30.333 20 -45c0 -2.66699 -0.333008 -5.33398 -1 -8.00098c-2.66699 -16 -13.334 -31.667 -32 -47zM858.001 646l901 774c-109.333 121.333 -249 182 -419 182
c-120.667 0 -204.667 -20.667 -252 -62c-54.667 -22 -94 -90 -118 -204zM1862 1258l-1043 -897c0.666992 -45.333 12.334 -74.333 35.001 -87c49.333 -48 135.333 -72 258 -72c178.667 0 345.5 66.833 500.5 200.5s248.833 300.167 281.5 499.5
c7.33301 44.667 11 87.667 11 129c0 82 -14.333 157.667 -43 227z" />
    <glyph glyph-name="ugrave" unicode="&#xf9;" horiz-adv-x="1713" 
d="M668 315c-1.33301 -8 -1.99902 -15.666 -1.99902 -22.999c0 -32.667 13.333 -56 40 -70c33.333 -18 96.333 -27 189 -27c136 5.33301 244.667 39.5 326 102.5s136.666 163.833 165.999 302.5l186 1139c6 38.667 28 58 66 58h199c33.333 0 50 -13.667 50 -41
c0 -4.66699 -0.333008 -9.33398 -1 -14.001l-175 -1075c-48 -238.667 -141.167 -416 -279.5 -532s-330.5 -174 -576.5 -174c-180.667 0 -341.667 41 -483 123c-122.667 71.333 -184 187 -184 347c0 24 1.33301 49 4 75l199 1222c7.33301 46 35.333 69 84 69h357
c44 0 66 -18.667 66 -56c0 -6 -0.666992 -12.333 -2 -19zM1341 2028c10.667 -10.667 15.999 -21.667 15.999 -33v-5c-2 -10 -8 -20.333 -18 -31l-43 -36c-9.33301 -6.66699 -20 -10 -32 -10c-13.333 0 -28.666 4.33301 -45.999 13l-315 207c-8 10 -12 20.333 -12 31v7
c2 12.667 9.33301 26 22 40l124 108c12 6 23 9 33 9c14 0 25.667 -6 35 -18z" />
    <glyph glyph-name="uacute" unicode="&#xfa;" horiz-adv-x="1713" 
d="M668 315c-1.33301 -8 -1.99902 -15.666 -1.99902 -22.999c0 -32.667 13.333 -56 40 -70c33.333 -18 96.333 -27 189 -27c136 5.33301 244.667 39.5 326 102.5s136.666 163.833 165.999 302.5l186 1139c6 38.667 28 58 66 58h199c33.333 0 50 -13.667 50 -41
c0 -4.66699 -0.333008 -9.33398 -1 -14.001l-175 -1075c-48 -238.667 -141.167 -416 -279.5 -532s-330.5 -174 -576.5 -174c-180.667 0 -341.667 41 -483 123c-122.667 71.333 -184 187 -184 347c0 24 1.33301 49 4 75l199 1222c7.33301 46 35.333 69 84 69h357
c44 0 66 -18.667 66 -56c0 -6 -0.666992 -12.333 -2 -19zM1341 2310c11.333 12 24 17.999 38 17.999c10 0 20.333 -3 31 -9l107 -108c10 -14 15 -27.333 15 -40c0 -13.333 -6 -26 -18 -38l-349 -207c-18.667 -8.66699 -34.667 -13 -48 -13c-12 0 -22 3.33301 -30 10l-37 36
c-8.66699 10.667 -13 21 -13 31c0 12.667 7.33301 25.334 22 38.001z" />
    <glyph glyph-name="ucircumflex" unicode="&#xfb;" horiz-adv-x="1713" 
d="M668 315c-1.33301 -8 -1.99902 -15.666 -1.99902 -22.999c0 -32.667 13.333 -56 40 -70c33.333 -18 96.333 -27 189 -27c136 5.33301 244.667 39.5 326 102.5s136.666 163.833 165.999 302.5l186 1139c6 38.667 28 58 66 58h199c33.333 0 50 -13.667 50 -41
c0 -4.66699 -0.333008 -9.33398 -1 -14.001l-175 -1075c-48 -238.667 -141.167 -416 -279.5 -532s-330.5 -174 -576.5 -174c-180.667 0 -341.667 41 -483 123c-122.667 71.333 -184 187 -184 347c0 24 1.33301 49 4 75l199 1222c7.33301 46 35.333 69 84 69h357
c44 0 66 -18.667 66 -56c0 -6 -0.666992 -12.333 -2 -19zM832.001 1977l399 302.998c10 7.33301 19 11 27 11c8.66699 0 16.334 -4 23.001 -12l297 -302c8.66699 -11.333 13 -20.666 13 -27.999v-3c-2.66699 -15.333 -11 -23.666 -25 -24.999h-190
c-25.333 0 -47.333 10 -66 30l-80 87c-3.33301 3.33301 -7 5 -11 5s-8.33301 -1.66699 -13 -5l-116 -85c-22.667 -21.333 -47.334 -32 -74.001 -32h-190c-12 1.33301 -18 7.33301 -18 18c0 2 0.333008 4.33301 1 7c1.33301 8 9 18.333 23 31z" />
    <glyph glyph-name="udieresis" unicode="&#xfc;" horiz-adv-x="1713" 
d="M668 315c-1.33301 -8 -1.99902 -15.666 -1.99902 -22.999c0 -32.667 13.333 -56 40 -70c33.333 -18 96.333 -27 189 -27c136 5.33301 244.667 39.5 326 102.5s136.666 163.833 165.999 302.5l186 1139c6 38.667 28 58 66 58h199c33.333 0 50 -13.667 50 -41
c0 -4.66699 -0.333008 -9.33398 -1 -14.001l-175 -1075c-48 -238.667 -141.167 -416 -279.5 -532s-330.5 -174 -576.5 -174c-180.667 0 -341.667 41 -483 123c-122.667 71.333 -184 187 -184 347c0 24 1.33301 49 4 75l199 1222c7.33301 46 35.333 69 84 69h357
c44 0 66 -18.667 66 -56c0 -6 -0.666992 -12.333 -2 -19zM890.001 1931c-26 0 -39 10.333 -39 31c0 3.33301 0.333008 7 1 11l21 132c6 35.333 25 53 57 53h158c26.667 0 40 -12.667 40 -38c0 -4.66699 -0.333008 -9.66699 -1 -15l-21 -132c-4.66699 -28 -22 -42 -52 -42
h-164zM1290 1931c-26 0 -39 10.333 -39 31c0 3.33301 0.333008 7 1 11l21 132c6 35.333 25 53 57 53h158c26.667 0 40 -12.667 40 -38c0 -4.66699 -0.333008 -9.66699 -1 -15l-21 -132c-4.66699 -28 -22 -42 -52 -42h-164z" />
    <glyph glyph-name="yacute" unicode="&#xfd;" horiz-adv-x="1657" 
d="M1160 497l-69 -422c-8 -50 -36.333 -75 -85 -75h-349c-37.333 -0 -56 18.333 -56 55c0 7.33301 0.666992 15.333 2 24l68 415l-371 1234c-2.66699 10 -4 18.667 -4 26c0 3.33301 0.333008 6.33301 1 9c4 22.667 20.333 34 49 34h399c40 0 65 -18.667 75 -56l238 -794
c2.66699 -17.333 6.33398 -26 11.001 -26c5.33301 0 11.333 8.33301 18 25l521 808c16 28.667 45.333 43 88 43h183c35.333 0 53 -13.333 53 -40c0 -4 -0.333008 -8.33301 -1 -13c-0.666992 -6.66699 -2.33398 -13.667 -5.00098 -21zM1313 2310
c11.333 12 24 17.999 38 17.999c10 0 20.333 -3 31 -9l107 -108c10 -14 15 -27.333 15 -40c0 -13.333 -6 -26 -18 -38l-349 -207c-18.667 -8.66699 -34.667 -13 -48 -13c-12 0 -22 3.33301 -30 10l-37 36c-8.66699 10.667 -13 21 -13 31c0 12.667 7.33301 25.334 22 38.001z
" />
    <glyph glyph-name="thorn" unicode="&#xfe;" horiz-adv-x="1604" 
d="M760 825c5.33301 -26 25 -39 59 -39h209c78 4.66699 152.667 37.667 224 99c88 76.667 141 170.667 159 282c4.66699 28 7 54.667 7 80c0 76 -21.333 139.667 -64 191c-62 73.333 -147 111.333 -255 114h-152c-36 0 -60.667 -11.333 -74 -34zM666 247l230.999 0.00195312
c27.333 0 41 -13 41 -39c0 -4 -0.333008 -8.66699 -1 -14l-25 -152c-4.66699 -28 -22 -42 -52 -42h-673c-37.333 0 -56 18.333 -56 55c0 7.33301 0.666992 15.333 2 24l268 1649c8 46 36.333 69 85 69h744c152 -10.667 278 -76 378 -196c80 -96 120 -206 120 -330
c0 -32.667 -2.66699 -66.334 -8 -101.001c-27.333 -166.667 -116.333 -314.334 -267 -443.001c-129.333 -112 -271.666 -174.667 -426.999 -188h-312z" />
    <glyph glyph-name="ydieresis" unicode="&#xff;" horiz-adv-x="1657" 
d="M1160 497l-69 -422c-8 -50 -36.333 -75 -85 -75h-349c-37.333 -0 -56 18.333 -56 55c0 7.33301 0.666992 15.333 2 24l68 415l-371 1234c-2.66699 10 -4 18.667 -4 26c0 3.33301 0.333008 6.33301 1 9c4 22.667 20.333 34 49 34h399c40 0 65 -18.667 75 -56l238 -794
c2.66699 -17.333 6.33398 -26 11.001 -26c5.33301 0 11.333 8.33301 18 25l521 808c16 28.667 45.333 43 88 43h183c35.333 0 53 -13.333 53 -40c0 -4 -0.333008 -8.33301 -1 -13c-0.666992 -6.66699 -2.33398 -13.667 -5.00098 -21zM862 1931c-26 0 -39 10.333 -39 31
c0 3.33301 0.333008 7 1 11l21 132c6 35.333 25 53 57 53h158c26.667 0 40 -12.667 40 -38c0 -4.66699 -0.333008 -9.66699 -1 -15l-21 -132c-4.66699 -28 -22 -42 -52 -42h-164zM1262 1931c-26 0 -39 10.333 -39 31c0 3.33301 0.333008 7 1 11l21 132c6 35.333 25 53 57 53
h158c26.667 0 40 -12.667 40 -38c0 -4.66699 -0.333008 -9.66699 -1 -15l-21 -132c-4.66699 -28 -22 -42 -52 -42h-164z" />
    <glyph glyph-name="Amacron" unicode="&#x100;" horiz-adv-x="1551" 
d="M641 352l-164.999 -311c-17.333 -27.333 -49.333 -41 -96 -41h-349c-24.667 -0 -37 8.33301 -37 25c0 2 0.333008 4 1 6c1.33301 10 6.66602 22.667 15.999 38l885 1666c32 50.667 74.333 76 127 76c52 0 86.667 -26 104 -78l435 -1670c3.33301 -8.66699 5 -16.667 5 -24
c0 -2 -0.333008 -4 -1 -6c-3.33301 -22 -25 -33 -65 -33h-122c-54.667 -0 -88 16.333 -100 49l-90 303h-548zM1102 592c19.333 0 30.334 8 33.001 24c0.666992 2.66699 1 6 1 10l-115 428c-6 8.66699 -12.667 13 -20 13s-15.333 -5.33301 -24 -16l-216 -421
c-2.66699 -4.66699 -4.33398 -9 -5.00098 -13v-6c0 -12.667 8 -19 24 -19h322zM754.002 1991c-32.667 0 -48.999 11 -48.999 33c0 2.66699 0.333008 5.66699 1 9l12 72c5.33301 35.333 27.333 53 66 53h688c34 0 51 -13.667 51 -41c0 -4 -0.333008 -8 -1 -12l-12 -72
c-4.66699 -28 -25.334 -42 -62.001 -42h-694z" />
    <glyph glyph-name="amacron" unicode="&#x101;" horiz-adv-x="2011" 
d="M1446 96c-136.667 -62.667 -283.332 -94 -439.999 -94c-262 0 -468 89.333 -618 268c-118.667 141.333 -178 303 -178 485c0 47.333 4 96.333 12 147c39.333 242 163.166 452.5 371.499 631.5s443.5 268.5 705.5 268.5c156.667 0 293.334 -31.333 410.001 -94l3 20
c7.33301 46 35.333 69 84 69h357c44 0 66 -18.667 66 -56c0 -6 -0.666992 -12.333 -2 -19l-268 -1647c-8.66699 -50 -37.334 -75 -86.001 -75h-366c-37.333 -0 -56 18.333 -56 55c0 7.33301 0.666992 15.333 2 24zM1524 574l112.001 691.002v9c0 44 -18 85.667 -54 125
c-39.333 41.333 -132.333 68.666 -279 81.999c-18 1.33301 -35.667 2 -53 2c-130 0 -261.333 -44.333 -394 -133c-149.333 -100.667 -240.333 -250.334 -273 -449.001c-7.33301 -43.333 -11 -84.333 -11 -123c0 -139.333 46 -248 138 -326
c103.333 -88.667 220.333 -133 351 -133c17.333 0 35.333 0.666992 54 2c152.667 13.333 256.167 41.833 310.5 85.5s87.166 99.5 98.499 167.5zM984.003 1991c-32.667 0 -48.999 11 -48.999 33c0 2.66699 0.333008 5.66699 1 9l12 72c5.33301 35.333 27.333 53 66 53h688
c34 0 51 -13.667 51 -41c0 -4 -0.333008 -8 -1 -12l-12 -72c-4.66699 -28 -25.334 -42 -62.001 -42h-694z" />
    <glyph glyph-name="Abreve" unicode="&#x102;" horiz-adv-x="1551" 
d="M641 352l-164.999 -311c-17.333 -27.333 -49.333 -41 -96 -41h-349c-24.667 -0 -37 8.33301 -37 25c0 2 0.333008 4 1 6c1.33301 10 6.66602 22.667 15.999 38l885 1666c32 50.667 74.333 76 127 76c52 0 86.667 -26 104 -78l435 -1670c3.33301 -8.66699 5 -16.667 5 -24
c0 -2 -0.333008 -4 -1 -6c-3.33301 -22 -25 -33 -65 -33h-122c-54.667 -0 -88 16.333 -100 49l-90 303h-548zM1102 592c19.333 0 30.334 8 33.001 24c0.666992 2.66699 1 6 1 10l-115 428c-6 8.66699 -12.667 13 -20 13s-15.333 -5.33301 -24 -16l-216 -421
c-2.66699 -4.66699 -4.33398 -9 -5.00098 -13v-6c0 -12.667 8 -19 24 -19h322zM1059 1941c-30.667 3.33301 -58.332 8 -82.999 14c-88.667 20 -160.334 65.333 -215.001 136c-8 10 -12 19.667 -12 29v5c1.33301 10 7.66602 19 18.999 27l100 56
c11.333 6.66699 22.333 10 33 10c12.667 0 24.667 -4.66699 36 -14c52 -57.333 109.667 -86 173 -86h4c63.333 0 130.333 28.667 201 86c15.333 9.33301 29.333 14 42 14c10.667 0 20.334 -3.33301 29.001 -10l84 -46c7.33301 -6.66699 11 -13.667 11 -21
c0 -2 -0.333008 -4 -1 -6c-1.33301 -10.667 -9 -22 -23 -34c-78.667 -77.333 -165.667 -126 -261 -146c-27.333 -6 -56.333 -10.667 -87 -14h-50z" />
    <glyph glyph-name="abreve" unicode="&#x103;" horiz-adv-x="2011" 
d="M1446 96c-136.667 -62.667 -283.332 -94 -439.999 -94c-262 0 -468 89.333 -618 268c-118.667 141.333 -178 303 -178 485c0 47.333 4 96.333 12 147c39.333 242 163.166 452.5 371.499 631.5s443.5 268.5 705.5 268.5c156.667 0 293.334 -31.333 410.001 -94l3 20
c7.33301 46 35.333 69 84 69h357c44 0 66 -18.667 66 -56c0 -6 -0.666992 -12.333 -2 -19l-268 -1647c-8.66699 -50 -37.334 -75 -86.001 -75h-366c-37.333 -0 -56 18.333 -56 55c0 7.33301 0.666992 15.333 2 24zM1524 574l112.001 691.002v9c0 44 -18 85.667 -54 125
c-39.333 41.333 -132.333 68.666 -279 81.999c-18 1.33301 -35.667 2 -53 2c-130 0 -261.333 -44.333 -394 -133c-149.333 -100.667 -240.333 -250.334 -273 -449.001c-7.33301 -43.333 -11 -84.333 -11 -123c0 -139.333 46 -248 138 -326
c103.333 -88.667 220.333 -133 351 -133c17.333 0 35.333 0.666992 54 2c152.667 13.333 256.167 41.833 310.5 85.5s87.166 99.5 98.499 167.5zM1289 1941c-30.667 3.33301 -58.332 8 -82.999 14c-88.667 20 -160.334 65.333 -215.001 136c-8 10 -12 19.667 -12 29v5
c1.33301 10 7.66602 19 18.999 27l100 56c11.333 6.66699 22.333 10 33 10c12.667 0 24.667 -4.66699 36 -14c52 -57.333 109.667 -86 173 -86h4c63.333 0 130.333 28.667 201 86c15.333 9.33301 29.333 14 42 14c10.667 0 20.334 -3.33301 29.001 -10l84 -46
c7.33301 -6.66699 11 -13.667 11 -21c0 -2 -0.333008 -4 -1 -6c-1.33301 -10.667 -9 -22 -23 -34c-78.667 -77.333 -165.667 -126 -261 -146c-27.333 -6 -56.333 -10.667 -87 -14h-50z" />
    <glyph glyph-name="Aogonek" unicode="&#x104;" horiz-adv-x="1732" 
d="M1142 592c19.333 0 30.334 8 33.001 24c0.666992 2.66699 1 6 1 10l-115 428c-6 8.66699 -12.667 13 -20 13s-15.333 -5.33301 -24 -16l-216 -421c-2.66699 -4.66699 -4.33398 -9 -5.00098 -13v-6c0 -12.667 8 -19 24 -19h322zM1410 0
c-49.333 2 -79.668 18.332 -91.001 48.999l-90 303h-548l-165 -311c-17.333 -27.333 -49.333 -41 -96 -41h-349c-24.667 0 -37 8.33301 -37 25c0 2 0.333008 4 1 6c1.33301 10 6.66602 22.667 15.999 38l885 1666c32 50.667 74.333 76 127 76c52 0 86.667 -26 104 -78
l435 -1670c3.33301 -8.66699 5 -16.667 5 -24c0 -2 -0.333008 -4 -1 -6c-2 -14 -11.333 -23.667 -28 -29c-0.666992 -3.33301 -1.66699 -6.66602 -3 -9.99902l-118 -263h95c23.333 0 39.333 -14 48 -42l-24 -152c-19.333 -35.333 -41.666 -53 -66.999 -53h-337
c-25.333 0 -41.666 17.667 -48.999 53l24 152c9.33301 14.667 96.333 117.667 261 309z" />
    <glyph glyph-name="aogonek" unicode="&#x105;" horiz-adv-x="2061" 
d="M1549 574l112.001 691.002v9c0 44 -18 85.667 -54 125c-39.333 41.333 -132.333 68.666 -279 81.999c-18 1.33301 -35.667 2 -53 2c-130 0 -261.333 -44.333 -394 -133c-149.333 -100.667 -240.333 -250.334 -273 -449.001c-7.33301 -43.333 -11 -84.333 -11 -123
c0 -139.333 46 -248 138 -326c103.333 -88.667 220.333 -133 351 -133c17.333 0 35.333 0.666992 54 2c152.667 13.333 256.167 41.833 310.5 85.5s87.166 99.5 98.499 167.5zM1720 0.00195312h-198.001c-37.333 0 -56 18.333 -56 55c0 7.33301 0.666992 15.333 2 24l3 17
c-136.667 -62.667 -283.334 -94 -440.001 -94c-262 0 -468 89.333 -618 268c-118.667 141.333 -178 303 -178 485c0 47.333 4 96.333 12 147c39.333 242 163.166 452.5 371.499 631.5s443.5 268.5 705.5 268.5c156.667 0 293.334 -31.333 410.001 -94l3 20
c7.33301 46 35.333 69 84 69h357c44 0 66 -18.667 66 -56c0 -6 -0.666992 -12.333 -2 -19l-268 -1647c-8.66699 -50 -37.334 -75 -86.001 -75h-1c0 -2 -0.666992 -4 -2 -6l-117 -263h95c23.333 0 39.333 -14 48 -42l-25 -152c-19.333 -35.333 -41.666 -53 -66.999 -53h-337
c-25.333 0 -41.666 17.667 -48.999 53l25 152c8.66699 14.667 95.334 117.667 260.001 309z" />
    <glyph glyph-name="Cacute" unicode="&#x106;" horiz-adv-x="1932" 
d="M248 903c1.33301 13.333 2.99902 26.334 4.99902 39.001c14.667 91.333 43.667 181 87 269c105.333 216 277 380.667 515 494c150 70.667 305.667 106 467 106c96.667 0 195.334 -12.667 296.001 -38c208 -72.667 353.667 -188.334 437 -347.001
c6.66699 -18.667 10 -35 10 -49c0 -4.66699 -0.333008 -9 -1 -13c-4 -26 -21.667 -44.333 -53 -55l-78 -46c-25.333 -8.66699 -47 -13 -65 -13c-30.667 0 -50.334 12.333 -59.001 37c-104 121.333 -218.333 203.333 -343 246c-82 19.333 -153.333 29 -214 29
c-69.333 0 -124.333 -12.667 -165 -38c-66 -35.333 -111.333 -129 -136 -281l-111 -681c-8 -47.333 -12 -89 -12 -125c0 -79.333 19 -131.333 57 -156c32 -25.333 82.667 -38 152 -38c60.667 0 135.334 9.66699 224.001 29c138 42.667 279 124.667 423 246
c16.667 24.667 40.334 37 71.001 37c18 0 38.333 -4.33301 61 -13l63 -46c24 -9.33301 36 -24.333 36 -45c0 -3.33301 -0.333008 -6.66602 -1 -9.99902c-3.33301 -17.333 -13.333 -38 -30 -62c-134.667 -158.667 -318 -274.334 -550 -347.001
c-108.667 -25.333 -211.334 -38 -308.001 -38c-161.333 0 -305.333 35.667 -432 107c-201.333 112.667 -319.333 277 -354 493c-7.33301 44 -11 88.667 -11 134c0 44.667 3.66699 90 11 136zM1455 2310c11.333 12 24 17.999 38 17.999c10 0 20.333 -3 31 -9l107 -108
c10 -14 15 -27.333 15 -40c0 -13.333 -6 -26 -18 -38l-349 -207c-18.667 -8.66699 -34.667 -13 -48 -13c-12 0 -22 3.33301 -30 10l-37 36c-8.66699 10.667 -13 21 -13 31c0 12.667 7.33301 25.334 22 38.001z" />
    <glyph glyph-name="cacute" unicode="&#x107;" horiz-adv-x="1932" 
d="M248 903c1.33301 13.333 2.99902 26.334 4.99902 39.001c14.667 91.333 43.667 181 87 269c105.333 216 277 380.667 515 494c150 70.667 305.667 106 467 106c96.667 0 195.334 -12.667 296.001 -38c208 -72.667 353.667 -188.334 437 -347.001
c6.66699 -18.667 10 -35 10 -49c0 -4.66699 -0.333008 -9 -1 -13c-4 -26 -21.667 -44.333 -53 -55l-78 -46c-25.333 -8.66699 -47 -13 -65 -13c-30.667 0 -50.334 12.333 -59.001 37c-104 121.333 -218.333 203.333 -343 246c-82 19.333 -153.333 29 -214 29
c-69.333 0 -124.333 -12.667 -165 -38c-66 -35.333 -111.333 -129 -136 -281l-111 -681c-8 -47.333 -12 -89 -12 -125c0 -79.333 19 -131.333 57 -156c32 -25.333 82.667 -38 152 -38c60.667 0 135.334 9.66699 224.001 29c138 42.667 279 124.667 423 246
c16.667 24.667 40.334 37 71.001 37c18 0 38.333 -4.33301 61 -13l63 -46c24 -9.33301 36 -24.333 36 -45c0 -3.33301 -0.333008 -6.66602 -1 -9.99902c-3.33301 -17.333 -13.333 -38 -30 -62c-134.667 -158.667 -318 -274.334 -550 -347.001
c-108.667 -25.333 -211.334 -38 -308.001 -38c-161.333 0 -305.333 35.667 -432 107c-201.333 112.667 -319.333 277 -354 493c-7.33301 44 -11 88.667 -11 134c0 44.667 3.66699 90 11 136zM1455 2310c11.333 12 24 17.999 38 17.999c10 0 20.333 -3 31 -9l107 -108
c10 -14 15 -27.333 15 -40c0 -13.333 -6 -26 -18 -38l-349 -207c-18.667 -8.66699 -34.667 -13 -48 -13c-12 0 -22 3.33301 -30 10l-37 36c-8.66699 10.667 -13 21 -13 31c0 12.667 7.33301 25.334 22 38.001z" />
    <glyph glyph-name="Ccircumflex" unicode="&#x108;" horiz-adv-x="1932" 
d="M248 903c1.33301 13.333 2.99902 26.334 4.99902 39.001c14.667 91.333 43.667 181 87 269c105.333 216 277 380.667 515 494c150 70.667 305.667 106 467 106c96.667 0 195.334 -12.667 296.001 -38c208 -72.667 353.667 -188.334 437 -347.001
c6.66699 -18.667 10 -35 10 -49c0 -4.66699 -0.333008 -9 -1 -13c-4 -26 -21.667 -44.333 -53 -55l-78 -46c-25.333 -8.66699 -47 -13 -65 -13c-30.667 0 -50.334 12.333 -59.001 37c-104 121.333 -218.333 203.333 -343 246c-82 19.333 -153.333 29 -214 29
c-69.333 0 -124.333 -12.667 -165 -38c-66 -35.333 -111.333 -129 -136 -281l-111 -681c-8 -47.333 -12 -89 -12 -125c0 -79.333 19 -131.333 57 -156c32 -25.333 82.667 -38 152 -38c60.667 0 135.334 9.66699 224.001 29c138 42.667 279 124.667 423 246
c16.667 24.667 40.334 37 71.001 37c18 0 38.333 -4.33301 61 -13l63 -46c24 -9.33301 36 -24.333 36 -45c0 -3.33301 -0.333008 -6.66602 -1 -9.99902c-3.33301 -17.333 -13.333 -38 -30 -62c-134.667 -158.667 -318 -274.334 -550 -347.001
c-108.667 -25.333 -211.334 -38 -308.001 -38c-161.333 0 -305.333 35.667 -432 107c-201.333 112.667 -319.333 277 -354 493c-7.33301 44 -11 88.667 -11 134c0 44.667 3.66699 90 11 136zM945.999 1977l399 302.998c10 7.33301 19 11 27 11
c8.66699 0 16.334 -4 23.001 -12l297 -302c8.66699 -11.333 13 -20.666 13 -27.999v-3c-2.66699 -15.333 -11 -23.666 -25 -24.999h-190c-25.333 0 -47.333 10 -66 30l-80 87c-3.33301 3.33301 -7 5 -11 5s-8.33301 -1.66699 -13 -5l-116 -85
c-22.667 -21.333 -47.334 -32 -74.001 -32h-190c-12 1.33301 -18 7.33301 -18 18c0 2 0.333008 4.33301 1 7c1.33301 8 9 18.333 23 31z" />
    <glyph glyph-name="ccircumflex" unicode="&#x109;" horiz-adv-x="1932" 
d="M248 903c1.33301 13.333 2.99902 26.334 4.99902 39.001c14.667 91.333 43.667 181 87 269c105.333 216 277 380.667 515 494c150 70.667 305.667 106 467 106c96.667 0 195.334 -12.667 296.001 -38c208 -72.667 353.667 -188.334 437 -347.001
c6.66699 -18.667 10 -35 10 -49c0 -4.66699 -0.333008 -9 -1 -13c-4 -26 -21.667 -44.333 -53 -55l-78 -46c-25.333 -8.66699 -47 -13 -65 -13c-30.667 0 -50.334 12.333 -59.001 37c-104 121.333 -218.333 203.333 -343 246c-82 19.333 -153.333 29 -214 29
c-69.333 0 -124.333 -12.667 -165 -38c-66 -35.333 -111.333 -129 -136 -281l-111 -681c-8 -47.333 -12 -89 -12 -125c0 -79.333 19 -131.333 57 -156c32 -25.333 82.667 -38 152 -38c60.667 0 135.334 9.66699 224.001 29c138 42.667 279 124.667 423 246
c16.667 24.667 40.334 37 71.001 37c18 0 38.333 -4.33301 61 -13l63 -46c24 -9.33301 36 -24.333 36 -45c0 -3.33301 -0.333008 -6.66602 -1 -9.99902c-3.33301 -17.333 -13.333 -38 -30 -62c-134.667 -158.667 -318 -274.334 -550 -347.001
c-108.667 -25.333 -211.334 -38 -308.001 -38c-161.333 0 -305.333 35.667 -432 107c-201.333 112.667 -319.333 277 -354 493c-7.33301 44 -11 88.667 -11 134c0 44.667 3.66699 90 11 136zM945.999 1977l399 302.998c10 7.33301 19 11 27 11
c8.66699 0 16.334 -4 23.001 -12l297 -302c8.66699 -11.333 13 -20.666 13 -27.999v-3c-2.66699 -15.333 -11 -23.666 -25 -24.999h-190c-25.333 0 -47.333 10 -66 30l-80 87c-3.33301 3.33301 -7 5 -11 5s-8.33301 -1.66699 -13 -5l-116 -85
c-22.667 -21.333 -47.334 -32 -74.001 -32h-190c-12 1.33301 -18 7.33301 -18 18c0 2 0.333008 4.33301 1 7c1.33301 8 9 18.333 23 31z" />
    <glyph glyph-name="Cdotaccent" unicode="&#x10a;" horiz-adv-x="1932" 
d="M248 903c1.33301 13.333 2.99902 26.334 4.99902 39.001c14.667 91.333 43.667 181 87 269c105.333 216 277 380.667 515 494c150 70.667 305.667 106 467 106c96.667 0 195.334 -12.667 296.001 -38c208 -72.667 353.667 -188.334 437 -347.001
c6.66699 -18.667 10 -35 10 -49c0 -4.66699 -0.333008 -9 -1 -13c-4 -26 -21.667 -44.333 -53 -55l-78 -46c-25.333 -8.66699 -47 -13 -65 -13c-30.667 0 -50.334 12.333 -59.001 37c-104 121.333 -218.333 203.333 -343 246c-82 19.333 -153.333 29 -214 29
c-69.333 0 -124.333 -12.667 -165 -38c-66 -35.333 -111.333 -129 -136 -281l-111 -681c-8 -47.333 -12 -89 -12 -125c0 -79.333 19 -131.333 57 -156c32 -25.333 82.667 -38 152 -38c60.667 0 135.334 9.66699 224.001 29c138 42.667 279 124.667 423 246
c16.667 24.667 40.334 37 71.001 37c18 0 38.333 -4.33301 61 -13l63 -46c24 -9.33301 36 -24.333 36 -45c0 -3.33301 -0.333008 -6.66602 -1 -9.99902c-3.33301 -17.333 -13.333 -38 -30 -62c-134.667 -158.667 -318 -274.334 -550 -347.001
c-108.667 -25.333 -211.334 -38 -308.001 -38c-161.333 0 -305.333 35.667 -432 107c-201.333 112.667 -319.333 277 -354 493c-7.33301 44 -11 88.667 -11 134c0 44.667 3.66699 90 11 136zM1214 1931c-23.333 0 -39.3311 14 -47.998 42l21 132
c19.333 35.333 41.666 53 66.999 53h138c25.333 0 41.666 -17.667 48.999 -53l-21 -132c-18 -28 -38.667 -42 -62 -42h-144z" />
    <glyph glyph-name="cdotaccent" unicode="&#x10b;" horiz-adv-x="1932" 
d="M248 903c1.33301 13.333 2.99902 26.334 4.99902 39.001c14.667 91.333 43.667 181 87 269c105.333 216 277 380.667 515 494c150 70.667 305.667 106 467 106c96.667 0 195.334 -12.667 296.001 -38c208 -72.667 353.667 -188.334 437 -347.001
c6.66699 -18.667 10 -35 10 -49c0 -4.66699 -0.333008 -9 -1 -13c-4 -26 -21.667 -44.333 -53 -55l-78 -46c-25.333 -8.66699 -47 -13 -65 -13c-30.667 0 -50.334 12.333 -59.001 37c-104 121.333 -218.333 203.333 -343 246c-82 19.333 -153.333 29 -214 29
c-69.333 0 -124.333 -12.667 -165 -38c-66 -35.333 -111.333 -129 -136 -281l-111 -681c-8 -47.333 -12 -89 -12 -125c0 -79.333 19 -131.333 57 -156c32 -25.333 82.667 -38 152 -38c60.667 0 135.334 9.66699 224.001 29c138 42.667 279 124.667 423 246
c16.667 24.667 40.334 37 71.001 37c18 0 38.333 -4.33301 61 -13l63 -46c24 -9.33301 36 -24.333 36 -45c0 -3.33301 -0.333008 -6.66602 -1 -9.99902c-3.33301 -17.333 -13.333 -38 -30 -62c-134.667 -158.667 -318 -274.334 -550 -347.001
c-108.667 -25.333 -211.334 -38 -308.001 -38c-161.333 0 -305.333 35.667 -432 107c-201.333 112.667 -319.333 277 -354 493c-7.33301 44 -11 88.667 -11 134c0 44.667 3.66699 90 11 136zM1214 1931c-23.333 0 -39.3311 14 -47.998 42l21 132
c19.333 35.333 41.666 53 66.999 53h138c25.333 0 41.666 -17.667 48.999 -53l-21 -132c-18 -28 -38.667 -42 -62 -42h-144z" />
    <glyph glyph-name="Ccaron" unicode="&#x10c;" horiz-adv-x="1932" 
d="M248 903c1.33301 13.333 2.99902 26.334 4.99902 39.001c14.667 91.333 43.667 181 87 269c105.333 216 277 380.667 515 494c150 70.667 305.667 106 467 106c96.667 0 195.334 -12.667 296.001 -38c208 -72.667 353.667 -188.334 437 -347.001
c6.66699 -18.667 10 -35 10 -49c0 -4.66699 -0.333008 -9 -1 -13c-4 -26 -21.667 -44.333 -53 -55l-78 -46c-25.333 -8.66699 -47 -13 -65 -13c-30.667 0 -50.334 12.333 -59.001 37c-104 121.333 -218.333 203.333 -343 246c-82 19.333 -153.333 29 -214 29
c-69.333 0 -124.333 -12.667 -165 -38c-66 -35.333 -111.333 -129 -136 -281l-111 -681c-8 -47.333 -12 -89 -12 -125c0 -79.333 19 -131.333 57 -156c32 -25.333 82.667 -38 152 -38c60.667 0 135.334 9.66699 224.001 29c138 42.667 279 124.667 423 246
c16.667 24.667 40.334 37 71.001 37c18 0 38.333 -4.33301 61 -13l63 -46c24 -9.33301 36 -24.333 36 -45c0 -3.33301 -0.333008 -6.66602 -1 -9.99902c-3.33301 -17.333 -13.333 -38 -30 -62c-134.667 -158.667 -318 -274.334 -550 -347.001
c-108.667 -25.333 -211.334 -38 -308.001 -38c-161.333 0 -305.333 35.667 -432 107c-201.333 112.667 -319.333 277 -354 493c-7.33301 44 -11 88.667 -11 134c0 44.667 3.66699 90 11 136zM935.999 2235c-8.66699 11.333 -13 20.667 -13 28.001v3
c2.66699 15.333 11 23.666 25 24.999h190c26.667 0 48 -10.667 64 -32l78 -76c6.66699 -6 13.667 -9 21 -9c8.66699 0 18.334 4.33301 29.001 13l92 74c25.333 20 50.666 30 75.999 30h190c12 -1.33301 18 -7.33301 18 -18c0 -2 -0.333008 -4.33301 -1 -7
c-1.33301 -8 -9 -18.333 -23 -31l-395 -302c-9.33301 -8 -18.333 -12 -27 -12c-8 0 -15.667 3.66699 -23 11z" />
    <glyph glyph-name="ccaron" unicode="&#x10d;" horiz-adv-x="1932" 
d="M248 903c1.33301 13.333 2.99902 26.334 4.99902 39.001c14.667 91.333 43.667 181 87 269c105.333 216 277 380.667 515 494c150 70.667 305.667 106 467 106c96.667 0 195.334 -12.667 296.001 -38c208 -72.667 353.667 -188.334 437 -347.001
c6.66699 -18.667 10 -35 10 -49c0 -4.66699 -0.333008 -9 -1 -13c-4 -26 -21.667 -44.333 -53 -55l-78 -46c-25.333 -8.66699 -47 -13 -65 -13c-30.667 0 -50.334 12.333 -59.001 37c-104 121.333 -218.333 203.333 -343 246c-82 19.333 -153.333 29 -214 29
c-69.333 0 -124.333 -12.667 -165 -38c-66 -35.333 -111.333 -129 -136 -281l-111 -681c-8 -47.333 -12 -89 -12 -125c0 -79.333 19 -131.333 57 -156c32 -25.333 82.667 -38 152 -38c60.667 0 135.334 9.66699 224.001 29c138 42.667 279 124.667 423 246
c16.667 24.667 40.334 37 71.001 37c18 0 38.333 -4.33301 61 -13l63 -46c24 -9.33301 36 -24.333 36 -45c0 -3.33301 -0.333008 -6.66602 -1 -9.99902c-3.33301 -17.333 -13.333 -38 -30 -62c-134.667 -158.667 -318 -274.334 -550 -347.001
c-108.667 -25.333 -211.334 -38 -308.001 -38c-161.333 0 -305.333 35.667 -432 107c-201.333 112.667 -319.333 277 -354 493c-7.33301 44 -11 88.667 -11 134c0 44.667 3.66699 90 11 136zM935.999 2235c-8.66699 11.333 -13 20.667 -13 28.001v3
c2.66699 15.333 11 23.666 25 24.999h190c26.667 0 48 -10.667 64 -32l78 -76c6.66699 -6 13.667 -9 21 -9c8.66699 0 18.334 4.33301 29.001 13l92 74c25.333 20 50.666 30 75.999 30h190c12 -1.33301 18 -7.33301 18 -18c0 -2 -0.333008 -4.33301 -1 -7
c-1.33301 -8 -9 -18.333 -23 -31l-395 -302c-9.33301 -8 -18.333 -12 -27 -12c-8 0 -15.667 3.66699 -23 11z" />
    <glyph glyph-name="Dcaron" unicode="&#x10e;" horiz-adv-x="1799" 
d="M1179 1797c228.667 -16 407.667 -105.668 537 -269.001c102 -136.667 153 -292.334 153 -467.001c0 -51.333 -4.33301 -104.666 -13 -159.999c-40 -243.333 -156 -451.333 -348 -624c-181.333 -157.333 -371.333 -249.666 -570 -276.999h-774
c-31.333 -0 -47 12.333 -47 37c0 4 0.333008 8 1 12l277 1700c5.33301 32 24 48 56 48h728zM801 1437l-176.999 -1090c-2 -10.667 -3 -20.334 -3 -29.001c0 -46.667 24.667 -70 74 -70h156c152.667 2.66699 294.667 62 426 178c145.333 128.667 233.333 287 264 475
c6.66699 43.333 10 85 10 125c0 134 -38 251.667 -114 353c-84.667 111.333 -224.334 168.666 -419.001 171.999h-124c-49.333 0 -80.333 -38 -93 -114zM874.001 2235c-8.66699 11.333 -13 20.667 -13 28.001v3c2.66699 15.333 11 23.666 25 24.999h190
c26.667 0 48 -10.667 64 -32l78 -76c6.66699 -6 13.667 -9 21 -9c8.66699 0 18.334 4.33301 29.001 13l92 74c25.333 20 50.666 30 75.999 30h190c12 -1.33301 18 -7.33301 18 -18c0 -2 -0.333008 -4.33301 -1 -7c-1.33301 -8 -9 -18.333 -23 -31l-395 -302
c-9.33301 -8 -18.333 -12 -27 -12c-8 0 -15.667 3.66699 -23 11z" />
    <glyph glyph-name="dcaron" unicode="&#x10f;" horiz-adv-x="1799" 
d="M1179 1797c228.667 -16 407.667 -105.668 537 -269.001c102 -136.667 153 -292.334 153 -467.001c0 -51.333 -4.33301 -104.666 -13 -159.999c-40 -243.333 -156 -451.333 -348 -624c-181.333 -157.333 -371.333 -249.666 -570 -276.999h-774
c-31.333 -0 -47 12.333 -47 37c0 4 0.333008 8 1 12l277 1700c5.33301 32 24 48 56 48h728zM801 1437l-176.999 -1090c-2 -10.667 -3 -20.334 -3 -29.001c0 -46.667 24.667 -70 74 -70h156c152.667 2.66699 294.667 62 426 178c145.333 128.667 233.333 287 264 475
c6.66699 43.333 10 85 10 125c0 134 -38 251.667 -114 353c-84.667 111.333 -224.334 168.666 -419.001 171.999h-124c-49.333 0 -80.333 -38 -93 -114zM1504 2302l140 0.000976562c29.333 0 44 -3.66699 44 -11v-1c-0.666992 -4 -5.66699 -9.33301 -15 -16l-452 -353
l-324 325c-13.333 15.333 -20 27.666 -20 36.999v2c2 11.333 16 17 42 17h150c40 0 71.333 -10.667 94 -32l99 -95l121 97c34 20 74.333 30 121 30z" />
    <glyph glyph-name="Dcroat" unicode="&#x110;" horiz-adv-x="1889" 
d="M791 825l-78 -477.999c-1.33301 -10 -2 -19.333 -2 -28c0 -47.333 24.667 -71 74 -71h156c152.667 2.66699 294.667 62 426 178c144.667 128.667 232.334 287 263.001 475c7.33301 44 11 86.333 11 127c0 132.667 -38.333 249.667 -115 351
c-84.667 111.333 -224.334 168.666 -419.001 171.999h-124c-49.333 0 -80 -38 -92 -114l-76 -465h298c26.667 0 40 -12.667 40 -38c0 -4.66699 -0.333008 -9.66699 -1 -15l-8 -52c-4.66699 -28 -22 -42 -52 -42h-301zM358 972.001l126 776.999c5.33301 32 24 48 56 48h728
c228.667 -16 407.667 -105.667 537 -269c102 -136.667 153 -292.334 153 -467.001c0 -51.333 -4.33301 -104.666 -13 -159.999c-39.333 -243.333 -155 -451.333 -347 -624c-182 -157.333 -372 -249.666 -570 -276.999h-774c-31.333 0 -47 12.333 -47 37c0 4 0.333008 8 1 12
l126 776h-175c-13.333 0 -20 8.66699 -20 26c0 4.66699 0.666992 10 2 16l8 52c6 35.333 18.333 53 37 53h172z" />
    <glyph glyph-name="dcroat" unicode="&#x111;" horiz-adv-x="1889" 
d="M791 825l-78 -477.999c-1.33301 -10 -2 -19.333 -2 -28c0 -47.333 24.667 -71 74 -71h156c152.667 2.66699 294.667 62 426 178c144.667 128.667 232.334 287 263.001 475c7.33301 44 11 86.333 11 127c0 132.667 -38.333 249.667 -115 351
c-84.667 111.333 -224.334 168.666 -419.001 171.999h-124c-49.333 0 -80 -38 -92 -114l-76 -465h298c26.667 0 40 -12.667 40 -38c0 -4.66699 -0.333008 -9.66699 -1 -15l-8 -52c-4.66699 -28 -22 -42 -52 -42h-301zM358 972.001l126 776.999c5.33301 32 24 48 56 48h728
c228.667 -16 407.667 -105.667 537 -269c102 -136.667 153 -292.334 153 -467.001c0 -51.333 -4.33301 -104.666 -13 -159.999c-39.333 -243.333 -155 -451.333 -347 -624c-182 -157.333 -372 -249.666 -570 -276.999h-774c-31.333 0 -47 12.333 -47 37c0 4 0.333008 8 1 12
l126 776h-175c-13.333 0 -20 8.66699 -20 26c0 4.66699 0.666992 10 2 16l8 52c6 35.333 18.333 53 37 53h172z" />
    <glyph glyph-name="Emacron" unicode="&#x112;" horiz-adv-x="1423" 
d="M1622 1797c40 0 60.002 -15.667 60.002 -47c0 -4.66699 -0.333008 -9.66699 -1 -15l-20 -122c-6.66699 -40.667 -30 -61 -70 -61h-666c-36.667 0 -58 -17.667 -64 -53l-106 -651c-1.33301 -6 -2 -11.667 -2 -17c0 -30 16 -45 48 -45h117c33.333 0 50 -13.333 50 -40
c0 -4 -0.333008 -8.33301 -1 -13l-24 -152c-4.66699 -28 -25.334 -42 -62.001 -42h-128c-32 0 -51 -18.667 -57 -56l-29 -174c-1.33301 -6.66699 -2 -13 -2 -19c0 -29.333 14.333 -44 43 -44h675c32.667 0 49 -11.333 49 -34c0 -2.66699 -0.333008 -5.66699 -1 -9l-26 -161
c-4.66699 -28 -23.334 -42 -56.001 -42h-1179c-28 0 -42 13.667 -42 41c0 5.33301 0.666992 11.333 2 18l271 1669c8 46 35 69 81 69h1140zM737.002 1991c-32.667 0 -48.999 11 -48.999 33c0 2.66699 0.333008 5.66699 1 9l12 72c5.33301 35.333 27.333 53 66 53h688
c34 0 51 -13.667 51 -41c0 -4 -0.333008 -8 -1 -12l-12 -72c-4.66699 -28 -25.334 -42 -62.001 -42h-694z" />
    <glyph glyph-name="emacron" unicode="&#x113;" horiz-adv-x="1971" 
d="M920 1117h779c41.333 0 65 9.33301 71 28c-12.667 214 -118.667 343.667 -318 389c-65.333 15.333 -126 23 -182 23c-95.333 0 -178 -21.667 -248 -65c-30 -14.667 -50 -52.667 -60 -114zM880 870l-50.999 -307.998c-8 -47.333 -12 -89 -12 -125
c0 -79.333 19 -131.333 57 -156c32.667 -25.333 83.667 -38 153 -38c60.667 0 135 9.66699 223 29c138.667 42.667 279.667 124.667 423 246c16.667 24.667 40.334 37 71.001 37c18 0 38.333 -4.33301 61 -13l63 -46c24 -9.33301 36 -24.333 36 -45
c0 -3.33301 -0.333008 -6.66602 -1 -9.99902c-2.66699 -17.333 -12.334 -38 -29.001 -62c-135.333 -158.667 -319 -274.334 -551 -347.001c-108.667 -25.333 -211.334 -38 -308.001 -38c-161.333 0 -305.333 35.667 -432 107c-201.333 112.667 -319.333 277 -354 493
c-6.66699 42.667 -10 85.667 -10 129c0 45.333 3.66699 91.333 11 138l8 44l6 40c14.667 90 43 178.333 85 265c105.333 216.667 277.333 381.667 516 495c149.333 70.667 304.666 106 465.999 106c96.667 0 195.334 -12.667 296.001 -38
c188 -72.667 315.333 -195.667 382 -369c47.333 -124.667 71 -240.334 71 -347.001c0 -36.667 -3 -72.334 -9 -107.001l-4 -22c-6 -38.667 -29 -58 -69 -58h-1098zM971.001 1991c-32.667 0 -48.999 11 -48.999 33c0 2.66699 0.333008 5.66699 1 9l12 72
c5.33301 35.333 27.333 53 66 53h688c34 0 51 -13.667 51 -41c0 -4 -0.333008 -8 -1 -12l-12 -72c-4.66699 -28 -25.334 -42 -62.001 -42h-694z" />
    <glyph glyph-name="Ebreve" unicode="&#x114;" horiz-adv-x="1423" 
d="M1622 1797c40 0 60.002 -15.667 60.002 -47c0 -4.66699 -0.333008 -9.66699 -1 -15l-20 -122c-6.66699 -40.667 -30 -61 -70 -61h-666c-36.667 0 -58 -17.667 -64 -53l-106 -651c-1.33301 -6 -2 -11.667 -2 -17c0 -30 16 -45 48 -45h117c33.333 0 50 -13.333 50 -40
c0 -4 -0.333008 -8.33301 -1 -13l-24 -152c-4.66699 -28 -25.334 -42 -62.001 -42h-128c-32 0 -51 -18.667 -57 -56l-29 -174c-1.33301 -6.66699 -2 -13 -2 -19c0 -29.333 14.333 -44 43 -44h675c32.667 0 49 -11.333 49 -34c0 -2.66699 -0.333008 -5.66699 -1 -9l-26 -161
c-4.66699 -28 -23.334 -42 -56.001 -42h-1179c-28 0 -42 13.667 -42 41c0 5.33301 0.666992 11.333 2 18l271 1669c8 46 35 69 81 69h1140zM1043 1941c-30.667 3.33301 -58.332 8 -82.999 14c-88.667 20 -160.334 65.333 -215.001 136c-8 10 -12 19.667 -12 29v5
c1.33301 10 7.66602 19 18.999 27l100 56c11.333 6.66699 22.333 10 33 10c12.667 0 24.667 -4.66699 36 -14c52 -57.333 109.667 -86 173 -86h4c63.333 0 130.333 28.667 201 86c15.333 9.33301 29.333 14 42 14c10.667 0 20.334 -3.33301 29.001 -10l84 -46
c7.33301 -6.66699 11 -13.667 11 -21c0 -2 -0.333008 -4 -1 -6c-1.33301 -10.667 -9 -22 -23 -34c-78.667 -77.333 -165.667 -126 -261 -146c-27.333 -6 -56.333 -10.667 -87 -14h-50z" />
    <glyph glyph-name="ebreve" unicode="&#x115;" horiz-adv-x="1971" 
d="M920 1117h779c41.333 0 65 9.33301 71 28c-12.667 214 -118.667 343.667 -318 389c-65.333 15.333 -126 23 -182 23c-95.333 0 -178 -21.667 -248 -65c-30 -14.667 -50 -52.667 -60 -114zM880 870l-50.999 -307.998c-8 -47.333 -12 -89 -12 -125
c0 -79.333 19 -131.333 57 -156c32.667 -25.333 83.667 -38 153 -38c60.667 0 135 9.66699 223 29c138.667 42.667 279.667 124.667 423 246c16.667 24.667 40.334 37 71.001 37c18 0 38.333 -4.33301 61 -13l63 -46c24 -9.33301 36 -24.333 36 -45
c0 -3.33301 -0.333008 -6.66602 -1 -9.99902c-2.66699 -17.333 -12.334 -38 -29.001 -62c-135.333 -158.667 -319 -274.334 -551 -347.001c-108.667 -25.333 -211.334 -38 -308.001 -38c-161.333 0 -305.333 35.667 -432 107c-201.333 112.667 -319.333 277 -354 493
c-6.66699 42.667 -10 85.667 -10 129c0 45.333 3.66699 91.333 11 138l8 44l6 40c14.667 90 43 178.333 85 265c105.333 216.667 277.333 381.667 516 495c149.333 70.667 304.666 106 465.999 106c96.667 0 195.334 -12.667 296.001 -38
c188 -72.667 315.333 -195.667 382 -369c47.333 -124.667 71 -240.334 71 -347.001c0 -36.667 -3 -72.334 -9 -107.001l-4 -22c-6 -38.667 -29 -58 -69 -58h-1098zM1277 1941c-30.667 3.33301 -58.332 8 -82.999 14c-88.667 20 -160.334 65.333 -215.001 136
c-8 10 -12 19.667 -12 29v5c1.33301 10 7.66602 19 18.999 27l100 56c11.333 6.66699 22.333 10 33 10c12.667 0 24.667 -4.66699 36 -14c52 -57.333 109.667 -86 173 -86h4c63.333 0 130.333 28.667 201 86c15.333 9.33301 29.333 14 42 14
c10.667 0 20.334 -3.33301 29.001 -10l84 -46c7.33301 -6.66699 11 -13.667 11 -21c0 -2 -0.333008 -4 -1 -6c-1.33301 -10.667 -9 -22 -23 -34c-78.667 -77.333 -165.667 -126 -261 -146c-27.333 -6 -56.333 -10.667 -87 -14h-50z" />
    <glyph glyph-name="Edotaccent" unicode="&#x116;" horiz-adv-x="1423" 
d="M1622 1797c40 0 60.002 -15.667 60.002 -47c0 -4.66699 -0.333008 -9.66699 -1 -15l-20 -122c-6.66699 -40.667 -30 -61 -70 -61h-666c-36.667 0 -58 -17.667 -64 -53l-106 -651c-1.33301 -6 -2 -11.667 -2 -17c0 -30 16 -45 48 -45h117c33.333 0 50 -13.333 50 -40
c0 -4 -0.333008 -8.33301 -1 -13l-24 -152c-4.66699 -28 -25.334 -42 -62.001 -42h-128c-32 0 -51 -18.667 -57 -56l-29 -174c-1.33301 -6.66699 -2 -13 -2 -19c0 -29.333 14.333 -44 43 -44h675c32.667 0 49 -11.333 49 -34c0 -2.66699 -0.333008 -5.66699 -1 -9l-26 -161
c-4.66699 -28 -23.334 -42 -56.001 -42h-1179c-28 0 -42 13.667 -42 41c0 5.33301 0.666992 11.333 2 18l271 1669c8 46 35 69 81 69h1140zM1002 1931c-23.333 0 -39.3311 14 -47.998 42l21 132c19.333 35.333 41.666 53 66.999 53h138c25.333 0 41.666 -17.667 48.999 -53
l-21 -132c-18 -28 -38.667 -42 -62 -42h-144z" />
    </font>
</defs>
</svg>
