<?xml version="1.0" standalone="no"?>
<!DOCTYPE svg PUBLIC "-//W3C//DTD SVG 1.1//EN" "http://www.w3.org/Graphics/SVG/1.1/DTD/svg11.dtd" >
<svg>
<metadata>
Created by FontForge 20090914 at Sun Apr 14 21:12:00 2013
 By www-data
claudeserieux@gmail.com
</metadata>
<defs>
<font id="Postface" horiz-adv-x="484" >
  <font-face 
    font-family="Postface"
    font-weight="500"
    font-stretch="normal"
    units-per-em="1000"
    panose-1="2 0 6 3 0 0 0 0 0 0"
    ascent="790"
    descent="-210"
    x-height="434"
    cap-height="674"
    bbox="-20.9971 -225.001 939 893.001"
    underline-thickness="50"
    underline-position="-100"
    unicode-range="U+0020-U+02DC"
  />
<missing-glyph horiz-adv-x="500" 
d="M50 0v526h400v-526h-400zM100 50h300v426h-300v-426z" />
    <glyph glyph-name=".notdef" horiz-adv-x="500" 
d="M50 0v526h400v-526h-400zM100 50h300v426h-300v-426z" />
    <glyph glyph-name="space" unicode=" " horiz-adv-x="300" 
 />
    <glyph glyph-name="exclam" unicode="!" horiz-adv-x="240" 
d="M165 186h-116l56 488h116zM15 71c0 19.333 7 36 21 50s30.667 21 50 21s36 -7 50 -21s21 -30.667 21 -50s-7 -36 -21 -50s-30.667 -21 -50 -21s-36 7 -50 21s-21 30.667 -21 50z" />
    <glyph glyph-name="dollar" unicode="$" horiz-adv-x="600" 
d="M445 484c1.33301 15.333 2 27.9971 2 37.9971c0 20.667 -10.333 33 -31 37l-46 -182c26 -9.33301 46 -17.333 60 -24s30 -16.834 48 -30.501s31.167 -30.5 39.5 -50.5s12.5 -44 12.5 -72c0 -62 -25.5 -111.667 -76.5 -149s-112.167 -58.666 -183.5 -63.999l-21 -83
l-76 14l18 71c-59.333 6.66699 -119 23.334 -179 50.001l50 107c12.667 -3.33301 29.834 -8.33301 51.501 -15s40.5 -11.667 56.5 -15s33.333 -5.33301 52 -6l44 170l-21 7c-44 14 -78.5 31.833 -103.5 53.5s-37.5 53.167 -37.5 94.5c0 68.667 25.167 123.334 75.5 164.001
s112.5 65.334 186.5 74.001l17 67l76 -14l-13 -51c37.333 -4 69.166 -17.333 95.499 -40s39.5 -52 39.5 -88c0 -26 -8.66699 -59.667 -26 -101zM297 404.997l39.001 152c-26.667 -6 -48.334 -16.5 -65.001 -31.5s-25 -34.167 -25 -57.5c0 -26 17 -47 51 -63z
M338.001 253.997l-35 -139c60 10 90 35 90 75c0 24.667 -18.333 46 -55 64z" />
    <glyph glyph-name="percent" unicode="%" horiz-adv-x="687" 
d="M184 466c15.333 0 28.167 6.16895 38.5 18.502s15.5 26.833 15.5 43.5c0 12.667 -3.5 24 -10.5 34s-16.167 15 -27.5 15c-16 0 -29.333 -6.33301 -40 -19s-16 -27.334 -16 -44.001c0 -12.667 3.83301 -23.834 11.5 -33.501s17.167 -14.5 28.5 -14.5zM213.001 686.002
c40 0 72.501 -16.5 97.501 -49.5s37.5 -71.167 37.5 -114.5c0 -46 -15.833 -85.5 -47.5 -118.5s-70.5 -49.5 -116.5 -49.5c-40.667 0 -74.834 15.667 -102.501 47s-41.5 68.333 -41.5 111c0 48 16.833 89 50.5 123s74.5 51 122.5 51zM481.002 88.002
c15.333 0 28.167 6.16895 38.5 18.502s15.5 26.833 15.5 43.5c0 12.667 -3.5 24 -10.5 34s-16.167 15 -27.5 15c-16 0 -29.333 -6.33301 -40 -19s-16 -27.334 -16 -44.001c0 -12.667 3.83301 -23.834 11.5 -33.501s17.167 -14.5 28.5 -14.5zM510.003 308.004
c40 0 72.501 -16.5 97.501 -49.5s37.5 -71.167 37.5 -114.5c0 -46 -15.833 -85.5 -47.5 -118.5s-70.5 -49.5 -116.5 -49.5c-40.667 0 -74.834 15.667 -102.501 47s-41.5 68.333 -41.5 111c0 48 16.833 89 50.5 123s74.5 51 122.5 51zM104.004 -7.99609l-74 62l553 611
l74 -62z" />
    <glyph glyph-name="ampersand" unicode="&#x26;" horiz-adv-x="701" 
d="M660 276c-34.667 -57.333 -68.998 -104.667 -102.998 -142l122 -134h-153l-54 58c-68.667 -50 -142.667 -75 -222 -75c-60.667 0 -113.834 17.333 -159.501 52s-68.5 79.667 -68.5 135c0 28.667 4.66699 54.334 14 77.001s23.166 42.167 41.499 58.5s37 29.833 56 40.5
s41.5 21 67.5 31c-24.667 42.667 -37 86.334 -37 131.001c0 46 24.167 86.5 72.5 121.5s101.5 52.5 159.5 52.5c44 0 83.667 -14.833 119 -44.5s53 -63.5 53 -101.5c0 -46.667 -16.167 -84.334 -48.5 -113.001s-77.833 -55.334 -136.5 -80.001
c34 -44.667 68.667 -87.667 104 -129c30 32.667 58.333 68.667 85 108zM328.002 421.999c36 13.333 63.332 28.166 81.999 44.499s28 36.833 28 61.5c0 14 -6.16699 24.833 -18.5 32.5s-26.833 11.5 -43.5 11.5c-21.333 0 -39.666 -7.66699 -54.999 -23
s-23 -33.666 -23 -54.999c0 -15.333 10 -39.333 30 -72zM262.001 290.999c-64 -32 -95.999 -70.332 -95.999 -114.999c0 -24 10.167 -43.333 30.5 -58s44.166 -22 71.499 -22c42.667 0 86 13.667 130 41l-98 105c-8 11.333 -20.667 27.666 -38 48.999z" />
    <glyph glyph-name="quotesingle" unicode="'" horiz-adv-x="191" 
d="M62 665l111 -7c-7.33301 -51.333 -17.833 -93.5 -31.5 -126.5s-31.5 -64.833 -53.5 -95.5l-68 26c21.333 58 35.333 125.667 42 203z" />
    <glyph glyph-name="parenleft" unicode="(" horiz-adv-x="288" 
d="M192 -110l-64 -29.002l-42 89c-8 17.333 -18.667 43.833 -32 79.5s-22.666 69.667 -27.999 102s-8 66.5 -8 102.5c0 104 17.167 197.5 51.5 280.5s84.5 162.5 150.5 238.5l57 -38c-57.333 -77.333 -99.333 -155.166 -126 -233.499s-40 -168.166 -40 -269.499
c0 -40 5 -81.833 15 -125.5s18.667 -75.5 26 -95.5s20.666 -53.667 39.999 -101z" />
    <glyph glyph-name="parenright" unicode=")" horiz-adv-x="309" 
d="M127 724l61 29.001c26 -54 44.5 -94.333 55.5 -121s21.667 -61.834 32 -105.501s15.5 -88.5 15.5 -134.5c0 -104 -19.833 -198.167 -59.5 -282.5s-95.167 -167.166 -166.5 -248.499l-57 38c61.333 83.333 107.5 163.666 138.5 240.999s46.5 165 46.5 263
c0 104.667 -22 211.667 -66 321z" />
    <glyph glyph-name="asterisk" unicode="*" horiz-adv-x="430" 
d="M17 454v56h131l-90 90l40 40l93 -93v127h56v-131l90 90l40 -40l-83 -83h117v-56h-127l93 -93l-40 -40l-90 90v-131h-56v127l-93 -93l-40 40l100 100h-141z" />
    <glyph glyph-name="comma" unicode="," horiz-adv-x="191" 
d="M62 85l111 -7c-7.33301 -51.333 -17.833 -93.5 -31.5 -126.5s-31.5 -64.833 -53.5 -95.5l-68 26c21.333 58 35.333 125.667 42 203z" />
    <glyph glyph-name="period" unicode="." horiz-adv-x="201" 
d="M29 71c0 19.333 7 36 21 50s30.667 21 50 21s36 -7 50 -21s21 -30.667 21 -50s-7 -36 -21 -50s-30.667 -21 -50 -21s-36 7 -50 21s-21 30.667 -21 50z" />
    <glyph glyph-name="slash" unicode="/" horiz-adv-x="471" 
d="M72 -45l-68 38l396 734l68 -38z" />
    <glyph glyph-name="zero" unicode="0" horiz-adv-x="585" 
d="M328 573c-33.333 0 -62.833 -15.334 -88.5 -46.001s-44.334 -67.334 -56.001 -110.001s-17.5 -86.667 -17.5 -132c0 -20.667 1.33301 -40.167 4 -58.5s7.16699 -36.166 13.5 -53.499s15.833 -31 28.5 -41s28 -15 46 -15c29.333 0 55 9.66699 77 29s38.833 45 50.5 77
s20.334 65.333 26.001 100s8.5 70.334 8.5 107.001c0 38.667 -7.33301 72.167 -22 100.5s-38 42.5 -70 42.5zM325 695.999c72.667 0 129.167 -27.168 169.5 -81.501s60.5 -127.5 60.5 -219.5c0 -47.333 -5.83301 -93.5 -17.5 -138.5s-28.667 -87 -51 -126
s-53 -70.5 -92 -94.5s-83.5 -36 -133.5 -36c-74 0 -131.333 27.5 -172 82.5s-61 129.833 -61 224.5c0 40 6.66699 82.167 20 126.5s32 86.333 56 126s55.5 72.334 94.5 98.001s81.167 38.5 126.5 38.5z" />
    <glyph glyph-name="one" unicode="1" horiz-adv-x="335" 
d="M240 0h-116l50 484l-123 -77l-47 75l244 166l60 -5z" />
    <glyph glyph-name="two" unicode="2" horiz-adv-x="561" 
d="M221 475l-127 24.999c14 50.667 41.667 95 83 133s89 57 143 57c55.333 0 102.5 -19.667 141.5 -59s58.5 -86.666 58.5 -141.999c0 -96 -81.333 -220 -244 -372h242l-12 -117h-466v74c6 5.33301 22.833 19.333 50.5 42l72.5 60.5c20.667 17.667 45.5 41 74.5 70
s53 56 72 81s35.5 52.5 49.5 82.5s21 58 21 84c0 18 -6 33.5 -18 46.5s-26.667 19.5 -44 19.5c-25.333 0 -46.833 -7.66699 -64.5 -23s-28.5 -36 -32.5 -62z" />
    <glyph glyph-name="three" unicode="3" horiz-adv-x="521" 
d="M179 494l-99.001 66.0039c12 30 38 58.5 78 85.5s82 40.5 126 40.5c55.333 0 103.5 -17 144.5 -51s61.5 -77 61.5 -129c0 -33.333 -9 -65.333 -27 -96s-37.667 -52.667 -59 -66c53.333 -48 80 -101.333 80 -160c0 -56 -27.833 -102.833 -83.5 -140.5
s-117.834 -56.5 -186.501 -56.5c-78.667 0 -142.667 15 -192 45l38 106c52.667 -18.667 104 -28 154 -28c36 0 65 7.16699 87 21.5s33 35.166 33 62.499c0 30.667 -14.167 55.167 -42.5 73.5s-60.166 31.166 -95.499 38.499l27 107c20.667 -7.33301 37 -11 49 -11
c24 0 44 9.33301 60 28s24 40.667 24 66c0 15.333 -6.33301 31.166 -19 47.499s-26.334 24.5 -41.001 24.5c-6 0 -11.667 -0.333008 -17 -1s-10.666 -2 -15.999 -4l-13.5 -5c-3.66699 -1.33301 -8 -4 -13 -8s-8.83301 -6.83301 -11.5 -8.5s-6.66699 -5.33398 -12 -11.001
l-10.5 -11c-1.66699 -1.66699 -5.66699 -6 -12 -13s-10.166 -11.167 -11.499 -12.5z" />
    <glyph glyph-name="four" unicode="4" horiz-adv-x="551" 
d="M404 0h-118l18 168h-298l10 138l366 368h106l-48 -388h85l-15 -118h-85zM316 286l20 186l-185 -186h165z" />
    <glyph glyph-name="five" unicode="5" horiz-adv-x="555" 
d="M515 674l-17.999 -120h-212l-21 -98h41c58 0 107.833 -20.5 149.5 -61.5s62.5 -90.5 62.5 -148.5c0 -74.667 -30.667 -135.667 -92 -183s-132.666 -71 -213.999 -71c-51.333 0 -109.333 13.333 -174 40l42 114c57.333 -18.667 103.333 -28 138 -28
c38 0 71.5 10.167 100.5 30.5s43.5 47.5 43.5 81.5c0 27.333 -9.33301 50.5 -28 69.5s-41.334 28.5 -68.001 28.5c-11.333 0 -21.833 -1 -31.5 -3s-20.834 -5.16699 -33.501 -9.5s-23 -7.5 -31 -9.5l-62 58l72 310h336z" />
    <glyph glyph-name="six" unicode="6" horiz-adv-x="507" 
d="M264 320c-30.667 0 -56.501 -12 -77.501 -36s-31.5 -52 -31.5 -84c0 -28.667 9 -52.667 27 -72s42 -29 72 -29c26 0 48.167 13.333 66.5 40s27.5 58.667 27.5 96c0 23.333 -8.16699 43.333 -24.5 60s-36.166 25 -59.499 25zM423.999 627l-170.999 -201
c20 2.66699 36.333 4 49 4c50.667 0 93.334 -19.333 128.001 -58s52 -84.334 52 -137.001c0 -67.333 -21.833 -126 -65.5 -176s-97.834 -75 -162.501 -75c-64 0 -119.667 19.833 -167 59.5s-71 89.5 -71 149.5c0 38.667 11.667 83.334 35 134.001s53.333 100.5 90 149.5
s70.667 91.5 102 127.5s61.666 68.667 90.999 98z" />
    <glyph glyph-name="seven" unicode="7" horiz-adv-x="494" 
d="M487 674l-11 -116.998c-144 -202.667 -249.667 -396.334 -317 -581.001l-130 52c32.667 86.667 72.5 170.167 119.5 250.5s105.833 172.166 176.5 275.499h-250l10 120h402z" />
    <glyph glyph-name="eight" unicode="8" horiz-adv-x="549" 
d="M284 426l15.499 7.49805c9 4.33301 15 7.33301 18 9s8.33301 4.83398 16 9.50098s13 8.66699 16 12l11.5 13c4.66699 5.33301 7.83398 10.833 9.50098 16.5s2.5 11.834 2.5 18.501c0 16 -5.16699 29.833 -15.5 41.5s-23.166 17.5 -38.499 17.5
c-22.667 0 -42.334 -6.5 -59.001 -19.5s-25 -29.833 -25 -50.5c0 -10.667 2.5 -20.834 7.5 -30.501s10.333 -17.167 16 -22.5s14.167 -12.666 25.5 -21.999zM260.999 275.998c-55.333 -32 -83.001 -67.002 -83.001 -105.002c0 -19.333 7.5 -35.333 22.5 -48
s32.5 -19 52.5 -19c24 0 45.167 7 63.5 21s27.5 32 27.5 54c0 8.66699 -1.5 16.834 -4.5 24.501s-8 15 -15 22s-13.167 12.667 -18.5 17s-13.166 10.333 -23.499 18s-17.5 12.834 -21.5 15.501zM328.998 682.996c51.333 0 96.167 -15.832 134.5 -47.499
s57.5 -71.5 57.5 -119.5c0 -10 -1.16699 -19.667 -3.5 -29s-4.83301 -17.333 -7.5 -24s-7.5 -14.5 -14.5 -23.5l-15 -19.5c-3 -4 -9.83301 -10.5 -20.5 -19.5l-19.5 -16.5c-2.33301 -2 -10 -7.66699 -23 -17s-19.833 -14.333 -20.5 -15
c20.667 -20.667 36.667 -37.834 48 -51.501s21.833 -31.667 31.5 -54s14.5 -45.5 14.5 -69.5c0 -37.333 -12.167 -70.666 -36.5 -99.999s-54.5 -51 -90.5 -65s-73.667 -21 -113 -21c-66.667 0 -121 16.667 -163 50s-63 78 -63 134c0 40 13.667 75.667 41 107
s58.333 54.666 93 69.999c-47.333 59.333 -71 111.333 -71 156c0 51.333 24.667 93.333 74 126s105 49 167 49z" />
    <glyph glyph-name="nine" unicode="9" horiz-adv-x="514" 
d="M243 364c32.667 0 61 11.333 85 34s36 50 36 82c0 26.667 -8.5 49.834 -25.5 69.501s-38.167 29.5 -63.5 29.5c-32.667 0 -59.5 -12.833 -80.5 -38.5s-31.5 -55.834 -31.5 -90.501c0 -23.333 7.66699 -43.5 23 -60.5s34.333 -25.5 57 -25.5zM107 51l147 201
c-20 4.66699 -36.333 7 -49 7c-50 0 -93 17.667 -129 53s-54 78 -54 128c0 70 25 129.833 75 179.5s110 74.5 180 74.5c60.667 0 112.167 -19.667 154.5 -59s63.5 -89.333 63.5 -150c0 -74.667 -33.333 -164 -100 -268s-132.667 -184.333 -198 -241z" />
    <glyph glyph-name="colon" unicode=":" horiz-adv-x="207" 
d="M31 265c0 20 7 37 21 51s31 21 51 21s37 -7 51 -21s21 -31 21 -51s-7 -37 -21 -51s-31 -21 -51 -21s-37 7 -51 21s-21 31 -21 51zM31 56c0 20 7 37 21 51s31 21 51 21s37 -7 51 -21s21 -31 21 -51s-7 -37 -21 -51s-31 -21 -51 -21s-37 7 -51 21s-21 31 -21 51z" />
    <glyph glyph-name="semicolon" unicode=";" horiz-adv-x="227" 
d="M60 85l111 -7c-7.33301 -51.333 -17.833 -93.5 -31.5 -126.5s-31.5 -64.833 -53.5 -95.5l-68 26c21.333 58 35.333 125.667 42 203zM70 265c0 20 7 37 21 51s31 21 51 21s37 -7 51 -21s21 -31 21 -51s-7 -37 -21 -51s-31 -21 -51 -21s-37 7 -51 21s-21 31 -21 51z" />
    <glyph glyph-name="less" unicode="&#x3c;" horiz-adv-x="246" 
d="M159 451l68 -53l-107 -160l65 -191l-86 -35l-88 218z" />
    <glyph glyph-name="greater" unicode="&#x3e;" horiz-adv-x="246" 
d="M86 -9l-68 53l107 160l-65 191l86 35l88 -218z" />
    <glyph glyph-name="question" unicode="?" horiz-adv-x="414" 
d="M41 71c0 19.333 7 36 21 50s30.667 21 50 21s36 -7 50 -21s21 -30.667 21 -50s-7 -36 -21 -50s-30.667 -21 -50 -21s-36 7 -50 21s-21 30.667 -21 50zM51 584l-14.999 90.001c34 9.33301 74.667 14 122 14c65.333 0 122.666 -19 171.999 -57s74 -87 74 -147
s-20.833 -110.667 -62.5 -152s-94.834 -74 -159.501 -98l-6 -53h-112l12 149c132 20.667 198 72 198 154c0 31.333 -13.167 56.666 -39.5 75.999s-57.166 29 -92.499 29z" />
    <glyph glyph-name="A" unicode="A" horiz-adv-x="651" 
d="M17 0c10.667 103.333 32.666 199.666 65.999 288.999s72 162.333 116 219s89.833 100.834 137.5 132.501s92.5 47.5 134.5 47.5c30.667 0 57 -10.333 79 -31s33 -45.667 33 -75c0 -2 -0.5 -10.833 -1.5 -26.5s-2.66699 -40 -5 -73l-6.5 -94.5h51v-102h-58l-20 -286h-128
l22 286h-220c-45.333 -102 -77.666 -197.333 -96.999 -286h-103zM266.999 388h178c7.33301 91.333 11 144 11 158c0 6 -1.66699 11.167 -5 15.5s-8 6.5 -14 6.5c-47.333 0 -104 -60 -170 -180z" />
    <glyph glyph-name="B" unicode="B" horiz-adv-x="611" 
d="M64 530l-35.998 111.999c94 31.333 176.333 47 247 47c69.333 0 130.666 -15.833 183.999 -47.5s80 -76.5 80 -134.5c0 -52 -24.667 -105 -74 -159c28 -10 54.667 -31.667 80 -65s38 -69 38 -107c0 -54 -20 -99.667 -60 -137s-88 -56 -144 -56
c-52.667 0 -95.334 9.66699 -128.001 29l20 112c30 -12 60 -18 90 -18c23.333 0 42.833 8.66699 58.5 26s23.5 38 23.5 62s-11 42.333 -33 55s-47.667 19 -77 19c-42 0 -75.333 -3 -100 -9l-32 -259h-124l56 549c-22 -5.33301 -45 -11.666 -69 -18.999zM270.002 564.999
l-23 -185.001c6 -4 13.333 -6 22 -6c35.333 0 66.166 10.833 92.499 32.5s39.5 48.834 39.5 81.501c0 22.667 -9.66699 41.167 -29 55.5s-41.666 21.5 -66.999 21.5h-35z" />
    <glyph glyph-name="C" unicode="C" horiz-adv-x="608" 
d="M558 36c-70 -42 -142.003 -63.001 -216.003 -63.001c-90 0 -165.333 28 -226 84s-91 126.333 -91 211c0 46.667 9.16699 94.334 27.5 143.001s43.333 93 75 133s70.834 72.833 117.501 98.5s96 38.5 148 38.5c48.667 0 91.334 -13.5 128.001 -40.5s55 -62.5 55 -106.5
c0 -48 -19.333 -91.333 -58 -130l-98 57c10.667 16 16 35 16 57c0 12 -4.16699 22.333 -12.5 31s-18.5 13 -30.5 13c-45.333 0 -94.166 -28 -146.499 -84s-78.5 -117.667 -78.5 -185c0 -58 13.667 -104 41 -138s65 -51 113 -51c34.667 0 65 3 91 9s59 16.333 99 31z" />
    <glyph glyph-name="D" unicode="D" horiz-adv-x="653" 
d="M75 552l-42 98.002c65.333 28 150 42 254 42c90.667 0 170.334 -27 239.001 -81s103 -123 103 -207c0 -79.333 -23.833 -150.5 -71.5 -213.5s-108.334 -110.5 -182.001 -142.5s-152.5 -48 -236.5 -48c-8.66699 0 -16.5 0.5 -23.5 1.5s-15.333 2.66699 -25 5
s-17.5 4.16602 -23.5 5.49902l64 551c-27.333 -4.66699 -46 -8.33398 -56 -11.001zM265 574.002l-52.002 -440c62.667 1.33301 125.334 26.333 188.001 75s94 107 94 175c0 49.333 -18.167 93.333 -54.5 132s-76.166 58 -119.499 58h-56z" />
    <glyph glyph-name="E" unicode="E" horiz-adv-x="532" 
d="M50 674l433.998 0.00488281l-20 -110h-252l-21 -152h207l-14 -106h-203c-7.33301 -77.333 -11 -120 -11 -128c0 -20.667 7 -38.834 21 -54.501s31 -23.5 51 -23.5c8 0 16.333 0.333008 25 1s16.5 1.5 23.5 2.5s14.833 2.66699 23.5 5s15.834 4.16602 21.501 5.49902
s13 3.83301 22 7.5s15.5 6.16699 19.5 7.5s10.667 4.16602 20 8.49902s15.166 7 17.499 8s8.33301 3.83301 18 8.5s14.834 7.33398 15.501 8.00098l56 -86c-39.333 -20.667 -69.5 -35.834 -90.5 -45.501s-48.667 -18.834 -83 -27.501s-69.166 -13 -104.499 -13
c-50.667 0 -95 12.167 -133 36.5s-57 58.166 -57 101.499c0 8.66699 4.16699 49.167 12.5 121.5s16.833 142.5 25.5 210.5l12 102h-48z" />
    <glyph glyph-name="F" unicode="F" horiz-adv-x="499" 
d="M492 674l-21 -110h-245l-16 -152h207l-12 -106h-207l-34 -306h-128l62 564h-44l20 110h418z" />
    <glyph glyph-name="G" unicode="G" horiz-adv-x="612" 
d="M432 486c0.666992 2 3.83301 8.83398 9.5 20.501s8.5 21.5 8.5 29.5c0 11.333 -4.83301 20.5 -14.5 27.5s-20.834 10.5 -33.501 10.5c-66.667 0 -122.667 -35.333 -168 -106s-68 -148.667 -68 -234c0 -34 7.5 -64.167 22.5 -90.5s36.833 -39.5 65.5 -39.5
c30.667 0 60.334 12.667 89.001 38s52 54 70 86s31.667 64.667 41 98h112l-46 -418h-118l18 152c-62.667 -51.333 -125 -77 -187 -77c-68.667 0 -121 22.667 -157 68s-54 101.666 -54 168.999c0 60 9.33301 118.333 28 175s44.667 107.167 78 151.5s75 79.833 125 106.5
s104 40 162 40c41.333 0 78.833 -14.167 112.5 -42.5s50.5 -59.5 50.5 -93.5c0 -44.667 -15.333 -85.667 -46 -123z" />
    <glyph glyph-name="H" unicode="H" horiz-adv-x="631" 
d="M119 674h120l-34 -262h212l34 262h120l-34 -262h68l-12 -106h-70l-40 -306h-120l40 306h-212l-40 -306h-120z" />
    <glyph glyph-name="I" unicode="I" horiz-adv-x="242" 
d="M105 674h120l-88 -674h-120z" />
    <glyph glyph-name="J" unicode="J" horiz-adv-x="406" 
d="M326 148c-4 -34 -9.16602 -64.168 -15.499 -90.501s-17 -53.666 -32 -81.999s-33.333 -52 -55 -71s-50.334 -35 -86.001 -48s-76.834 -20.5 -123.501 -22.5l-7 124c52 2.66699 95.333 18.667 130 48s54.334 64 59.001 104l69 564h120z" />
    <glyph glyph-name="K" unicode="K" horiz-adv-x="654" 
d="M108 674h123l-37 -318l292 318h140l-302 -348l136 -194c14.667 -21.333 30.667 -32 48 -32c4 0 12.667 1.33301 26 4l32 -102c-20 -12.667 -38.667 -19 -56 -19c-58 0 -108.667 29 -152 87l-171 227l-34 -297h-121z" />
    <glyph glyph-name="L" unicode="L" horiz-adv-x="495" 
d="M92 674l122.004 -0.000976562c-34 -305.333 -51 -467.333 -51 -486c0 -21.333 6.16699 -41.333 18.5 -60s28.5 -28 48.5 -28c10 0 20.167 0.5 30.5 1.5s19.166 2 26.499 3s16.166 3 26.499 6s18.166 5.16699 23.499 6.5s13.666 4.33301 24.999 9l23.5 9.5
c4.33301 1.66699 13.166 5.33398 26.499 11.001s22 9.5 26 11.5l52 -96c-116.667 -52.667 -208 -79 -274 -79c-47.333 0 -89.666 13.333 -126.999 40s-56 60.667 -56 102c0 20 4.83301 75.667 14.5 167s19.5 178 29.5 260z" />
    <glyph glyph-name="M" unicode="M" horiz-adv-x="972" 
d="M422 519c0 23.333 -8.32715 35.002 -24.9941 35.002c-14 0 -36.5 -15.667 -67.5 -47s-60.833 -70.833 -89.5 -118.5s-45 -89.834 -49 -126.501l-30 -262h-126l76 674h126l-14 -124c19.333 23.333 33.666 40 42.999 50s24 24 44 42s40.167 31 60.5 39s41.833 12 64.5 12
c33.333 0 62.166 -12.5 86.499 -37.5s37.5 -52.833 39.5 -83.5l25 25c13.333 13.333 23.166 22.833 29.499 28.5s16.166 13.834 29.499 24.501s25.166 18.334 35.499 23.001s22.666 9.16699 36.999 13.5s28.833 6.5 43.5 6.5c32.667 0 60.167 -12.667 82.5 -38
s33.5 -54 33.5 -86c0 -40 -6.83301 -114.833 -20.5 -224.5s-20.5 -173.834 -20.5 -192.501c0 -10.667 2.83301 -19.834 8.5 -27.501s13.167 -11.5 22.5 -11.5c0.666992 0 12 1.66699 34 5l38 -87c-23.333 -16 -42.5 -27.167 -57.5 -33.5s-33.5 -9.5 -55.5 -9.5
c-33.333 0 -61.833 10.833 -85.5 32.5s-35.5 48.834 -35.5 81.501c0 9.33301 7.66699 74.166 23 194.499s23 199.5 23 237.5c0 4.66699 -2.33301 9 -7 13s-9.33398 6 -14.001 6c-26.667 0 -56.5 -20.667 -89.5 -62s-60.667 -85.833 -83 -133.5
s-35.166 -84.834 -38.499 -111.501l-28 -246h-126c38 328 57 501 57 519z" />
    <glyph glyph-name="N" unicode="N" horiz-adv-x="656" 
d="M103 674l125.001 1.00098l-10 -142c4 4 14.167 15.5 30.5 34.5s28 31.833 35 38.5l34.5 31.5c16 14.333 30 24.5 42 30.5s26.833 11.833 44.5 17.5s35.5 8.5 53.5 8.5c33.333 0 61.666 -12.333 84.999 -37s35 -53.667 35 -87c0 -44 -9.66699 -122.833 -29 -236.5
s-29 -176.5 -29 -188.5c0 -8.66699 2.83301 -15.834 8.5 -21.501s12.834 -8.5 21.501 -8.5c6.66699 0 20.667 0.666992 42 2l32 -88c-41.333 -26 -81.333 -39 -120 -39c-31.333 0 -58.833 9.33301 -82.5 28s-35.5 42.334 -35.5 71.001c0 12 10.167 79.833 30.5 203.5
s30.5 198.167 30.5 223.5c0 10 -2.33301 18.5 -7 25.5s-11.334 10.5 -20.001 10.5c-31.333 0 -65.333 -21.833 -102 -65.5s-67.5 -93.834 -92.5 -150.501s-40.167 -106.667 -45.5 -150l-24 -186h-124z" />
    <glyph glyph-name="O" unicode="O" horiz-adv-x="690" 
d="M376 574c-64 0 -115.001 -28.334 -153.001 -85.001s-57 -121.667 -57 -195c0 -52.667 12.167 -99.167 36.5 -139.5s58.833 -60.5 103.5 -60.5c49.333 0 90.333 16.167 123 48.5s55.334 70.833 68.001 115.5s19 93.334 19 146.001c0 45.333 -13 85 -39 119
s-59.667 51 -101 51zM383.999 691.999c70.667 0 134.668 -28.8311 192.001 -86.498s86 -124.834 86 -201.501c0 -72.667 -13.667 -141.167 -41 -205.5s-67.833 -117.333 -121.5 -159s-114.834 -62.5 -183.501 -62.5c-83.333 0 -152.166 29 -206.499 87
s-81.5 133.333 -81.5 226c0 47.333 8.83301 94.833 26.5 142.5s41.667 90.667 72 129s68.166 69.666 113.499 93.999s93.333 36.5 144 36.5z" />
    <glyph glyph-name="P" unicode="P" horiz-adv-x="579" 
d="M63 540l-29.999 113c90 24.667 161.333 37 214 37c53.333 0 103.666 -8.16699 150.999 -24.5s87.333 -42.5 120 -78.5s49 -78.333 49 -127c0 -171.333 -118.667 -260 -356 -266l-26 -194h-120l73 556c-30.667 -4.66699 -55.667 -10 -75 -16zM260.001 566l-33.001 -248
c50 0 96.167 10.833 138.5 32.5s63.5 54.167 63.5 97.5c0 38 -16.167 67.167 -48.5 87.5s-70.166 30.5 -113.499 30.5h-7z" />
    <glyph glyph-name="Q" unicode="Q" horiz-adv-x="683" 
d="M365 574c-64 0 -115.001 -28.334 -153.001 -85.001s-57 -121.667 -57 -195c0 -52.667 12.167 -99.167 36.5 -139.5s58.833 -60.5 103.5 -60.5c49.333 0 90.333 16.167 123 48.5s55.334 70.833 68.001 115.5s19 93.334 19 146.001c0 45.333 -13 85 -39 119
s-59.667 51 -101 51zM372.999 691.999c70.667 0 134.67 -28.8301 192.003 -86.4971s86 -124.834 86 -201.501c0 -79.333 -16.833 -154 -50.5 -224s-79.834 -123 -138.501 -159l175 -111l-58 -96c-126.667 88 -233.334 143.333 -320.001 166
c-89.333 23.333 -152 59.166 -188 107.499s-54 115.833 -54 202.5c0 47.333 8.83301 94.833 26.5 142.5s41.667 90.667 72 129s68.166 69.666 113.499 93.999s93.333 36.5 144 36.5z" />
    <glyph glyph-name="R" unicode="R" horiz-adv-x="626" 
d="M257 566l-25 -201.999c48 0 90.167 8.16699 126.5 24.5s54.5 41.166 54.5 74.499s-14.333 58.833 -43 76.5s-64 26.5 -106 26.5h-7zM60 540.001l-30.001 112.999c90 24.667 161.333 37 214 37c84.667 0 156.834 -18.667 216.501 -56s89.5 -92 89.5 -164
c0 -108 -57 -176.333 -171 -205c54 -114 102.667 -171 146 -171c4.66699 0 10.334 1.16699 17.001 3.5l13 4.5l45 -94c-8.66699 -2 -19 -5.33301 -31 -10s-23 -8.33398 -33 -11.001s-20.667 -4 -32 -4c-18 0 -35.333 3 -52 9s-32.667 15.333 -48 28s-29 24.834 -41 36.501
s-25 27.834 -39 48.501l-32 48c-7.33301 11.333 -17.333 28.333 -30 51s-21 37 -25 43c-2 0 -5.33301 -0.166992 -10 -0.5s-8.33398 -0.5 -11.001 -0.5l-34 -246h-120l73 556c-30.667 -4.66699 -55.667 -10 -75 -16z" />
    <glyph glyph-name="S" unicode="S" horiz-adv-x="571" 
d="M405 500c1.33301 15.333 2.00098 27.9971 2.00098 37.9971c0 12.667 -5.16699 22.667 -15.5 30s-22.5 11 -36.5 11c-35.333 0 -66 -11.167 -92 -33.5s-39 -50.166 -39 -83.499c0 -8.66699 2.16699 -16.334 6.5 -23.001s9.16602 -12.334 14.499 -17.001
s13.833 -9.33398 25.5 -14.001s21.334 -8.16699 29.001 -10.5l35.5 -10.5c6 -2 10.667 -3.33301 14 -4c20 -6 36.833 -11.5 50.5 -16.5s29.167 -12.5 46.5 -22.5s31.166 -20.833 41.499 -32.5s19.166 -27.167 26.499 -46.5s11 -41 11 -65
c0 -44.667 -14.667 -83.667 -44 -117s-65.5 -57.833 -108.5 -73.5s-88.833 -23.5 -137.5 -23.5c-57.333 0 -128.666 12.333 -213.999 37l36 115c4.66699 -1.33301 13.167 -3.5 25.5 -6.5l25 -6l21 -5c9.66699 -2.33301 17.334 -3.83301 23.001 -4.5s13 -1.66699 22 -3
s17.5 -2.16602 25.5 -2.49902s16.667 -0.5 26 -0.5c43.333 0 80.666 6.66699 111.999 20s47 36 47 68c0 8.66699 -2.33301 16.334 -7 23.001s-10 12.334 -16 17.001s-14.833 9.33398 -26.5 14.001s-22 8.33398 -31 11.001l-37.5 11l-38 11c-44 14 -78.667 31.833 -104 53.5
s-38 53.167 -38 94.5c0 79.333 29.667 142.333 89 189s130 70 212 70c42 0 78 -11.5 108 -34.5s45 -54.5 45 -94.5c0 -34 -7 -67.667 -21 -101z" />
    <glyph glyph-name="T" unicode="T" horiz-adv-x="504" 
d="M37 674h453l-13 -114h-151l-59 -560h-133l59 560h-169z" />
    <glyph glyph-name="U" unicode="U" horiz-adv-x="645" 
d="M87 674l130.998 0.00390625c-33.333 -228.667 -50 -395.334 -50 -500.001c0 -32 17.333 -48 52 -48c44 0 85.167 55.5 123.5 166.5s66.833 238.167 85.5 381.5h123c-32 -276 -48 -445.333 -48 -508c0 -10 3.16699 -19.833 9.5 -29.5s14.5 -14.5 24.5 -14.5l32 2l44 -94
c-34 -31.333 -72.667 -47 -116 -47c-33.333 0 -62.166 14.5 -86.499 43.5s-40.166 59.5 -47.499 91.5c-14 -20.667 -25.833 -36.834 -35.5 -48.501s-22.334 -25.334 -38.001 -41.001s-32.667 -27.167 -51 -34.5s-38.166 -11 -59.499 -11c-38 0 -71.5 11.167 -100.5 33.5
s-43.5 50.5 -43.5 84.5c0 44.667 4.33301 114.667 13 210s17 179.666 25 252.999z" />
    <glyph glyph-name="V" unicode="V" horiz-adv-x="578" 
d="M166 674c7.33301 -279.333 11.999 -430.003 13.999 -452.003c2 -27.333 6.33301 -50.166 13 -68.499s14.334 -27.5 23.001 -27.5c14.667 0 39 22.167 73 66.5s66 98.833 96 163.5s45 120 45 166c0 52.667 -2.66699 99.334 -8 140.001l120 26
c9.33301 -52.667 14 -100 14 -142c0 -61.333 -13 -126.5 -39 -195.5s-57.5 -129.5 -94.5 -181.5s-76 -95.333 -117 -130s-76.167 -52 -105.5 -52c-38 0 -69.833 13.333 -95.5 40s-40.5 62.334 -44.5 107.001c-5.33301 56.667 -10 130 -14 220s-6.66699 166 -8 228l-2 92h130
z" />
    <glyph glyph-name="W" unicode="W" horiz-adv-x="911" 
d="M185 674l1.00098 0.000976562c-6.66699 -146.667 -10 -267 -10 -361c0 -122 13 -183 39 -183c18.667 0 43.334 21 74.001 63s58.334 88.333 83.001 139l14 342h136c-12 -94 -18 -171.333 -18 -232c0 -107.333 3 -186.833 9 -238.5s17.667 -77.5 35 -77.5
c34 0 65.667 29.667 95 89s53 135.333 71 228c16 81.333 25.333 161.666 28 240.999l140 5c0 -142.667 -20.667 -272.667 -62 -390c-34 -96.667 -77.833 -173.5 -131.5 -230.5s-110.834 -85.5 -171.501 -85.5c-36 0 -65.833 13.333 -89.5 40s-38.5 60 -44.5 100
c-38.667 -44.667 -74.834 -79.167 -108.501 -103.5s-69.5 -36.5 -107.5 -36.5c-15.333 0 -29.333 2.66699 -42 8s-23.334 13.666 -32.001 24.999s-16.167 22.833 -22.5 34.5s-11.5 27.334 -15.5 47.001s-7.16699 36.5 -9.5 50.5s-3.83301 32.833 -4.5 56.5
s-1.16699 42 -1.5 55s-0.5 31.167 -0.5 54.5c0 42 1.5 93 4.5 153s5.83301 109.667 8.5 149l5 58h128z" />
    <glyph glyph-name="X" unicode="X" horiz-adv-x="714" 
d="M14 0l265.002 340.999l-159 333h148l103 -215l208 267l101 -74l-248 -321l68 -143c23.333 -48 48.666 -72 75.999 -72c6.66699 0 22 1.33301 46 4l46 -97c-46.667 -26 -89.334 -39 -128.001 -39c-27.333 0 -52.833 7.83301 -76.5 23.5s-41.5 35.834 -53.5 60.501l-69 145
l-165 -213h-162z" />
    <glyph glyph-name="Y" unicode="Y" horiz-adv-x="549" 
d="M28 674h136l107 -298l173 316l98 -50c-138.667 -292 -270.667 -521.333 -396 -688l-100 66l138 202z" />
    <glyph glyph-name="Z" unicode="Z" horiz-adv-x="649" 
d="M123 674l490 0.999023v-64l-384 -486c34 -16 90.667 -24 170 -24c56.667 0 108 10.667 154 32l54 -104c-56 -30 -128 -45 -216 -45c-2.66699 0 -14.167 0.833008 -34.5 2.5s-45.333 3.33398 -75 5.00098s-57.167 2.5 -82.5 2.5c-64 0 -108.667 4.83301 -134 14.5
s-38 24.834 -38 45.501c0 11.333 3.83301 24.166 11.5 38.499s15.5 25.833 23.5 34.5l11 13l326 418h-284z" />
    <glyph glyph-name="grave" unicode="`" horiz-adv-x="201" 
d="M79 507l-44 146l52 21c39.333 -46 65 -91 77 -135z" />
    <glyph glyph-name="a" unicode="a" horiz-adv-x="580" 
d="M279 328c-31.333 0 -58.999 -17.332 -82.999 -51.999s-36 -72.667 -36 -114c0 -17.333 6 -32.333 18 -45s26.333 -19 43 -19c28.667 0 55 18.333 79 55s36 72 36 106c0 17.333 -5.83301 33.166 -17.5 47.499s-24.834 21.5 -39.501 21.5zM477.001 434.001
c-18.667 -179.333 -28 -272.001 -28 -278.001c0 -11.333 2.83301 -21.166 8.5 -29.499s13.5 -12.5 23.5 -12.5l44 5l28 -85c-2.66699 -1.33301 -10 -5.5 -22 -12.5s-21.5 -12.167 -28.5 -15.5s-16.5 -6.83301 -28.5 -10.5s-23.667 -5.5 -35 -5.5
c-22 0 -42.167 6.16699 -60.5 18.5s-31.5 26.833 -39.5 43.5c-1.33301 -1.33301 -6 -4.66602 -14 -9.99902l-15 -10l-14 -9c-7.33301 -4.66699 -12.5 -7.83398 -15.5 -9.50098l-14.5 -8c-6.66699 -3.66699 -12 -6.16699 -16 -7.5s-9.16699 -3.33301 -15.5 -6
s-12 -4.5 -17 -5.5s-10.5 -1.83301 -16.5 -2.5s-12 -1 -18 -1c-38.667 0 -73.667 17.667 -105 53s-47 75.333 -47 120c0 72 20.333 136.333 61 193s93.667 85 159 85c28.667 0 62.667 -8.66699 102 -26l6 26h118z" />
    <glyph glyph-name="b" unicode="b" horiz-adv-x="470" 
d="M204 674c-30.667 -313.333 -46.001 -478.664 -46.001 -495.997c0 -20.667 5.66699 -38.834 17 -54.501s26.333 -23.5 45 -23.5c34 0 59.5 15.667 76.5 47s25.5 67.666 25.5 108.999c0 24 -6.66699 43.667 -20 59s-33.333 23 -60 23l-4 96c24 6 44 9 60 9
c46.667 0 84.834 -16.833 114.501 -50.5s44.5 -77.167 44.5 -130.5c0 -74.667 -22.667 -139.834 -68 -195.501s-103 -83.5 -173 -83.5c-50 0 -93.167 17 -129.5 51s-54.5 75.333 -54.5 124l56 516h116z" />
    <glyph glyph-name="c" unicode="c" horiz-adv-x="451" 
d="M423 76c-20.667 -26.667 -47.833 -48.833 -81.5 -66.5s-69.834 -26.5 -108.501 -26.5c-58 0 -106.833 19.5 -146.5 58.5s-59.5 86.5 -59.5 142.5c0 70 22.5 130.667 67.5 182s101.167 77 168.5 77c40 0 76 -14.667 108 -44s48 -62.666 48 -99.999
c0 -12.667 -2 -25.667 -6 -39h-112c0 18.667 -4.16699 35.5 -12.5 50.5s-20.166 22.5 -35.499 22.5c-32 0 -56.333 -16 -73 -48s-25 -66.333 -25 -103c0 -24.667 8.5 -45.834 25.5 -63.501s37.833 -26.5 62.5 -26.5c22.667 0 42 4.83301 58 14.5s34.333 24.5 55 44.5z" />
    <glyph glyph-name="d" unicode="d" horiz-adv-x="560" 
d="M261 339c-34.667 0 -63.834 -17.833 -87.501 -53.5s-35.5 -75.167 -35.5 -118.5c0 -18.667 4.83301 -35.167 14.5 -49.5s22.834 -21.5 39.501 -21.5c23.333 0 44.833 11.667 64.5 35s34 48 43 74s13.5 47.667 13.5 65c0 18 -4.83301 34 -14.5 48s-22.167 21 -37.5 21z
M233 442c39.333 0 73.666 -12.3281 102.999 -36.9951l31 269h110c-36 -342 -54 -517.667 -54 -527c0 -8.66699 4.16699 -16.334 12.5 -23.001s17.5 -10 27.5 -10c4.66699 0 10.167 0.666992 16.5 2s11.5 2.66602 15.5 3.99902s6 2.33301 6 3l30 -91
c-40 -26 -76 -39 -108 -39c-22.667 0 -43.834 6.16699 -63.501 18.5s-33.834 27.166 -42.501 44.499l-11 -9l-13.5 -11l-13.5 -10.5c-7.33301 -5.66699 -12.666 -9.33398 -15.999 -11.001s-8.66602 -4.66699 -15.999 -9s-13.5 -7.5 -18.5 -9.5s-11 -4.16699 -18 -6.5
s-14 -4 -21 -5s-13.833 -1.5 -20.5 -1.5c-43.333 0 -80.166 17.167 -110.499 51.5s-45.5 72.166 -45.5 113.499c0 78 19.833 146.5 59.5 205.5s93.167 88.5 160.5 88.5z" />
    <glyph glyph-name="e" unicode="e" horiz-adv-x="460" 
d="M172 284c13.333 -6 33.3359 -9.00098 60.0029 -9.00098c18.667 0 35 3.66699 49 11s21 18.333 21 33c0 10.667 -4.33301 19.334 -13 26.001s-19.334 10 -32.001 10c-18.667 0 -36.334 -8.33301 -53.001 -25s-27.334 -32 -32.001 -46zM261.003 441.999
c50.667 0 91.3359 -12.334 122.003 -37.001s46 -57.667 46 -99c0 -47.333 -19.333 -82.166 -58 -104.499s-89.334 -33.5 -152.001 -33.5c-24.667 0 -43.334 0.666992 -56.001 2c0 -23.333 9.83301 -41.5 29.5 -54.5s42.5 -19.5 68.5 -19.5c14.667 0 28.5 1.33301 41.5 4
s23.667 5.5 32 8.5s21.833 8.5 40.5 16.5l40 -90c-69.333 -34.667 -130 -52 -182 -52c-56.667 0 -105.167 20 -145.5 60s-60.5 88.333 -60.5 145c0 69.333 22.167 129 66.5 179s100.166 75 167.499 75z" />
    <glyph glyph-name="f" unicode="f" horiz-adv-x="350" 
d="M21 -196l64.001 537h-64l8 81h66l8 70c6.66699 55.333 25.667 101.166 57 137.499s71.666 54.5 120.999 54.5c23.333 0 44 -7.33301 62 -22l-18 -90c-12.667 7.33301 -25.667 11 -39 11c-18.667 0 -33.5 -8.16699 -44.5 -24.5s-17.833 -35.166 -20.5 -56.499l-10 -80h102
l-8 -81h-105l-69 -543z" />
    <glyph glyph-name="g" unicode="g" horiz-adv-x="558" 
d="M330 330c-36 0 -64.999 -17.332 -86.999 -51.999s-33 -74 -33 -118c0 -17.333 6 -32 18 -44s26.333 -18 43 -18c30 0 55.333 16 76 48s31 67.333 31 106c0 21.333 -3.83301 39.666 -11.5 54.999s-19.834 23 -36.501 23zM530.001 434.001l-56 -451
c-6 -48.667 -31.833 -93.167 -77.5 -133.5s-96.834 -60.5 -153.501 -60.5c-84 0 -157.667 21 -221 63l58 86c50.667 -30.667 98.667 -46 144 -46c34.667 0 65.334 14.5 92.001 43.5s40.667 59.167 42 90.5l-39 -23.5c-8.66699 -5 -19.834 -9.5 -33.501 -13.5
s-28.167 -6 -43.5 -6c-45.333 0 -83.666 16.667 -114.999 50s-47 73 -47 119c0 76 21 143 63 201s97 87 165 87c34.667 0 66 -14 94 -42l12 36h116z" />
    <glyph glyph-name="h" unicode="h" horiz-adv-x="576" 
d="M116 674l109.999 -0.00195312l-42 -336c26.667 32 52.667 56.833 78 74.5s55.333 26.5 90 26.5c28 0 52.167 -8.16699 72.5 -24.5s30.5 -37.166 30.5 -62.499c0 -29.333 -2 -66.333 -6 -111s-6 -81.667 -6 -111c0 -7.33301 3.33301 -13.5 10 -18.5
s14.334 -7.5 23.001 -7.5c16 0 32 4.33301 48 13l43 -81c-41.333 -35.333 -87.666 -53 -138.999 -53c-30.667 0 -57.167 11.167 -79.5 33.5s-33.5 48.833 -33.5 79.5c0 23.333 2.66699 53 8 89s8 65.667 8 89c0 8 -2.16699 15.333 -6.5 22s-9.5 10 -15.5 10
c-27.333 0 -57.833 -31.667 -91.5 -95s-58.834 -133.666 -75.501 -210.999h-112z" />
    <glyph glyph-name="i" unicode="i" horiz-adv-x="287" 
d="M63 434h119c-22.667 -186 -34 -282 -34 -288c0 -10 4 -18.5 12 -25.5s17.333 -10.5 28 -10.5c12.667 0 26 4.66699 40 14l38 -85c-24.667 -16.667 -45.834 -28.667 -63.501 -36s-38.5 -11 -62.5 -11c-27.333 0 -53.166 9.66699 -77.499 29s-36.5 38.333 -36.5 57zM73 602
c0 20 7 37 21 51s31 21 51 21s37 -7 51 -21s21 -31 21 -51s-7 -37 -21 -51s-31 -21 -51 -21s-37 7 -51 21s-21 31 -21 51z" />
    <glyph glyph-name="j" unicode="j" horiz-adv-x="375" 
d="M143 602c0 20 7 37 21 51s31 21 51 21s37 -7 51 -21s21 -31 21 -51s-7 -37 -21 -51s-31 -21 -51 -21s-37 7 -51 21s-21 31 -21 51zM195 -49c-1.33301 -28.667 -7.66699 -58.667 -19 -90s-25 -55 -41 -71h-92c-1.33301 6 -3.5 13.167 -6.5 21.5s-5.33301 15.833 -7 22.5
s-2.5 14 -2.5 22c0 52 19.333 100 58 144l50 434h118l-33 -335l83 28l44 -111c-64 -16 -114.667 -37.667 -152 -65z" />
    <glyph glyph-name="k" unicode="k" horiz-adv-x="519" 
d="M438 326c-29.333 -0.666992 -56 -7.83008 -80 -21.4971s-50 -32.834 -78 -57.501c12 -30.667 28.167 -59.5 48.5 -86.5s40.833 -40.5 61.5 -40.5c8 0 15.5 1.16699 22.5 3.5s14.667 5.66602 23 9.99902s15.5 7.5 21.5 9.5l52 -76
c-23.333 -22.667 -45.666 -40.5 -66.999 -53.5s-46 -19.5 -74 -19.5c-10.667 0 -20.834 1.16699 -30.501 3.5s-19 6.5 -28 12.5l-24 16.5c-7 5 -14.5 12.667 -22.5 23l-19 24c-4.66699 5.66699 -10.667 14.834 -18 27.501l-15 26l-14.5 26.5c-7 13 -10.833 20.5 -11.5 22.5
c-7.33301 -3.33301 -14 -5.33301 -20 -6l-21 -170h-114l82 674h114l-48 -396c5.33301 6 15 17.667 29 35s26.333 31.666 37 42.999s23.667 23.666 39 36.999s31.833 23.5 49.5 30.5s36.167 10.5 55.5 10.5c26 0 46 -1.33301 60 -4z" />
    <glyph glyph-name="l" unicode="l" horiz-adv-x="290" 
d="M202 674c-37.333 -344.667 -55.998 -517.998 -55.998 -519.998c0 -27.333 11.333 -41 34 -41c12 0 26.667 4.33301 44 13l50 -80c-0.666992 -0.666992 -4.16699 -2.83398 -10.5 -6.50098l-14.5 -8.5l-15.5 -9c-7 -4 -13.167 -7.16699 -18.5 -9.5s-11.833 -5 -19.5 -8
s-14.834 -5.33301 -21.501 -7s-13.834 -3.16699 -21.501 -4.5s-15.167 -2 -22.5 -2c-28.667 0 -53.167 10.667 -73.5 32s-30.5 46.333 -30.5 75c0 1.33301 3.33301 32.666 10 93.999l26 241l26 241h114z" />
    <glyph glyph-name="m" unicode="m" horiz-adv-x="864" 
d="M89 434h108.997v-84c17.333 17.333 31.166 30.666 41.499 39.999s27.5 20.333 51.5 33s47 19 69 19c45.333 0 82.333 -27.333 111 -82c54.667 54.667 108.334 82 161.001 82c24.667 0 47.834 -7.33301 69.501 -22s32.5 -33.667 32.5 -57
c0 -28.667 -2.33301 -65.667 -7 -111s-7 -82.666 -7 -111.999c0 -9.33301 3.83301 -16.666 11.5 -21.999s16.5 -8 26.5 -8c4.66699 0 8.83398 0.5 12.501 1.5s7.83398 2.5 12.501 4.5s8.66699 3.33301 12 4l39 -89c-48 -28.667 -90 -43 -126 -43
c-32 0 -59.167 10.833 -81.5 32.5s-33.5 48.167 -33.5 79.5c0 22.667 3 52 9 88s9 65.667 9 89c0 6 -2.33301 11 -7 15s-10 6 -16 6c-24.667 0 -46.5 -8.5 -65.5 -25.5s-34.667 -42 -47 -75s-21.666 -62.167 -27.999 -87.5s-13.5 -58.333 -21.5 -99
c-0.666992 -4.66699 -1.33398 -8.33398 -2.00098 -11.001h-114c18 160 27 249 27 267c0 17.333 -6 26 -18 26c-17.333 0 -33.5 -4.33301 -48.5 -13s-28 -21 -39 -37s-20.667 -33 -29 -51s-15.833 -39.167 -22.5 -63.5s-12 -46 -16 -65s-8 -40.167 -12 -63.5h-116z" />
    <glyph glyph-name="n" unicode="n" horiz-adv-x="575" 
d="M194 434l-0.00390625 -74c2 1.33301 9.66699 8 23 20s22.833 20 28.5 24s14.834 9.83301 27.501 17.5s25.334 13 38.001 16s26.334 4.5 41.001 4.5c29.333 0 54.333 -8.16699 75 -24.5s31 -38.833 31 -67.5c0 -28 -2.33301 -63.667 -7 -107s-7 -79 -7 -107
c0 -8 3.16699 -14.333 9.5 -19s13.833 -7 22.5 -7l40 6l33 -91c-48.667 -26 -88.334 -39 -119.001 -39c-32 0 -59.333 11.167 -82 33.5s-34 49.5 -34 81.5c0 24 2.66699 55 8 93s8 63.333 8 76c0 18.667 -6.66699 28 -20 28c-22.667 0 -43.167 -8.83301 -61.5 -26.5
s-34.166 -43.834 -47.499 -78.501s-23.666 -65.167 -30.999 -91.5s-15.333 -60.166 -24 -101.499h-112l50 434h110z" />
    <glyph glyph-name="o" unicode="o" 
d="M228 100c28 0 51 15.832 69 47.499s27 66.5 27 104.5c0 21.333 -6 40 -18 56s-27.667 24 -47 24c-32 0 -57.833 -13.667 -77.5 -41s-29.5 -59 -29.5 -95c0 -25.333 7 -47.666 21 -66.999s32.333 -29 55 -29zM231 -17.001c-60.667 0 -109.5 20.167 -146.5 60.5
s-55.5 96.833 -55.5 169.5c0 63.333 22.667 117.333 68 162s100 67 164 67c53.333 0 99 -18.833 137 -56.5s57 -83.167 57 -136.5c0 -71.333 -21 -133.5 -63 -186.5s-95.667 -79.5 -161 -79.5z" />
    <glyph glyph-name="p" unicode="p" horiz-adv-x="535" 
d="M189 381c17.333 15.333 40.332 29.333 68.999 42s52.334 19 71.001 19c51.333 0 93.166 -20.833 125.499 -62.5s48.5 -90.167 48.5 -145.5c0 -66 -21.667 -123.167 -65 -171.5s-97 -72.5 -161 -72.5c-28.667 0 -56.667 6 -84 18l18 110c15.333 -8 30.666 -12 45.999 -12
c34.667 0 63.5 13 86.5 39s34.5 57 34.5 93c0 24 -7.83301 44.833 -23.5 62.5s-35.167 26.5 -58.5 26.5c-37.333 0 -67.166 -16.5 -89.499 -49.5s-36.166 -70.833 -41.499 -113.5l-48 -374h-112l76 644h112z" />
    <glyph glyph-name="q" unicode="q" horiz-adv-x="548" 
d="M252 332c-27.333 0 -53.999 -17.833 -79.999 -53.5s-39 -70.167 -39 -103.5c0 -20 5.5 -37.5 16.5 -52.5s25.167 -22.5 42.5 -22.5c29.333 0 56.666 17.5 81.999 52.5s38 72.5 38 112.5c0 20 -5.5 36.167 -16.5 48.5s-25.5 18.5 -43.5 18.5zM456.001 434
c-30 -311.333 -44.998 -476 -44.998 -494c0 -9.33301 3.5 -17 10.5 -23s15.5 -9 25.5 -9c16 0 30 3.33301 42 10l30 -86c-50.667 -27.333 -91.334 -41 -122.001 -41c-32 0 -58.333 9 -79 27s-31 44 -31 78l14 138c-18.667 -12.667 -41.5 -24 -68.5 -34
s-49.167 -15 -66.5 -15c-44.667 0 -81 18 -109 54s-42 78 -42 126c0 41.333 9.16699 83 27.5 125s45.666 77.833 81.999 107.5s76.5 44.5 120.5 44.5c34.667 0 64.667 -10.667 90 -32l8 24h113z" />
    <glyph glyph-name="r" unicode="r" horiz-adv-x="370" 
d="M187 351c17.333 23.333 39.833 45 67.5 65s53.167 30 76.5 30c5.33301 0 12 -2.66699 20 -8c-4.66699 -23.333 -7 -48.333 -7 -75c0 -36.667 4.33301 -82.334 13 -137.001l-89 -41l-25 98c-60.667 -45.333 -94.667 -139.666 -102 -282.999h-110l46 434h114z" />
    <glyph glyph-name="s" unicode="s" horiz-adv-x="394" 
d="M257 307c-1.33301 12 -5.66895 22.833 -13.002 32.5s-16.666 14.5 -27.999 14.5c-14 0 -26 -4.33301 -36 -13s-15 -19.667 -15 -33c0 -12.667 9.66699 -23.667 29 -33s40.666 -17.5 63.999 -24.5s44.666 -20.5 63.999 -40.5s29 -45.333 29 -76
c0 -47.333 -20.667 -84.333 -62 -111s-89.333 -40 -144 -40c-39.333 0 -77.666 4.33301 -114.999 13l5 102c38 -8.66699 76.667 -13 116 -13c48 0 72 12.333 72 37c0 8.66699 -4.66699 15.667 -14 21s-24.666 10.833 -45.999 16.5s-37 10.5 -47 14.5
c-51.333 20.667 -77 56.334 -77 107.001c0 46 20.5 84.333 61.5 115s85.167 46 132.5 46c46 0 79.833 -12.333 101.5 -37s32.834 -55.334 33.501 -92.001z" />
    <glyph glyph-name="t" unicode="t" horiz-adv-x="330" 
d="M27 434h67l17 164l108 4l-15 -168h86l-10 -98h-85c-10.667 -116 -16 -180.667 -16 -194s4.5 -25 13.5 -35s19.833 -15 32.5 -15c20.667 0 38 2.66699 52 8l32 -86c-42.667 -20.667 -82.667 -31 -120 -31c-38 0 -68.5 11.833 -91.5 35.5s-34.5 57.5 -34.5 101.5
c0 14 6.66699 86 20 216h-66z" />
    <glyph glyph-name="u" unicode="u" horiz-adv-x="572" 
d="M183 434c-17.333 -113.333 -25.998 -206.667 -25.998 -280c0 -7.33301 2.83301 -13.5 8.5 -18.5s12.167 -7.5 19.5 -7.5c19.333 0 37.5 9.66699 54.5 29s31.667 45 44 77s22.666 64.5 30.999 97.5s15.166 67.167 20.499 102.5h118
c-17.333 -169.333 -26 -260.666 -26 -273.999c0 -10.667 2.66699 -20.334 8 -29.001s12.666 -13 21.999 -13c14.667 0 29.334 4.66699 44.001 14l46 -92c-16 -11.333 -36.333 -21.833 -61 -31.5s-47 -14.5 -67 -14.5c-26.667 0 -50.5 9.66699 -71.5 29
s-36.167 41.333 -45.5 66c-19.333 -22 -35 -38.5 -47 -49.5s-28.833 -22 -50.5 -33s-44.167 -16.5 -67.5 -16.5c-28 0 -51.667 9.33301 -71 28s-29 42 -29 70c0 12 2.5 46.833 7.5 104.5s10.167 112.167 15.5 163.5l7 78h116z" />
    <glyph glyph-name="v" unicode="v" horiz-adv-x="485" 
d="M152 434c0 -60.667 1.33301 -109.998 4 -147.998c0.666992 -5.33301 1.16699 -14 1.5 -26s0.833008 -21.667 1.5 -29l2.5 -26.5c1 -10.333 2.33301 -18.833 4 -25.5s3.66699 -13.334 6 -20.001s5.16602 -11.5 8.49902 -14.5s7.33301 -4.5 12 -4.5
c20 0 45.667 32.333 77 97s60 139 86 223l113 -21c-13.333 -52.667 -29.333 -103.5 -48 -152.5s-40.667 -96.5 -66 -142.5s-54.5 -82.833 -87.5 -110.5s-67.167 -41.5 -102.5 -41.5c-31.333 0 -56.5 12.5 -75.5 37.5s-30.5 55.167 -34.5 90.5s-7.66699 79.166 -11 131.499
s-5.66602 95.833 -6.99902 130.5l-2 52h118z" />
    <glyph glyph-name="w" unicode="w" horiz-adv-x="730" 
d="M151 434c4.66699 -86.667 8.99316 -149.009 12.9932 -187.009c0.666992 -4.66699 1.33398 -10.667 2.00098 -18s1.16699 -13.166 1.5 -17.499s0.833008 -9.5 1.5 -15.5s1.33398 -10.667 2.00098 -14s1.66699 -7.16602 3 -11.499s2.66602 -7.66602 3.99902 -9.99902
s2.83301 -4.5 4.5 -6.5s3.83398 -3.5 6.50098 -4.5s5.33398 -1.5 8.00098 -1.5c19.333 0 41.833 31.333 67.5 94s39.834 122.667 42.501 180h100c1.33301 -87.333 3.33301 -150 6 -188c2 -23.333 6.33301 -42.166 13 -56.499s14.334 -21.5 23.001 -21.5
c43.333 0 93.333 102 150 306l106 -23c-8 -38 -18 -76.333 -30 -115s-27 -78.5 -45 -119.5s-37.333 -77.167 -58 -108.5s-44.667 -57.166 -72 -77.499s-55 -30.5 -83 -30.5c-12 0 -23.167 2.33301 -33.5 7s-18.666 9.33398 -24.999 14.001s-13.666 12.834 -21.999 24.501
s-13.666 19.834 -15.999 24.501s-7.5 14.334 -15.5 29.001c-32 -38 -55.333 -62.333 -70 -73c-24.667 -17.333 -51.334 -26 -80.001 -26c-54 0 -85.667 33.667 -95 101c-4 27.333 -8 69.833 -12 127.5s-7.33301 108.167 -10 151.5l-3 66h116z" />
    <glyph glyph-name="x" unicode="x" horiz-adv-x="586" 
d="M122 434h143.999l59 -109l125 141l90 -74l-156 -176l32 -60c8.66699 -14 20.167 -26.833 34.5 -38.5s28.833 -17.5 43.5 -17.5l24 3l30 -89c-33.333 -20.667 -62.666 -31 -87.999 -31c-29.333 0 -57 9 -83 27s-45 38 -57 60l-25 46l-104 -116h-154l199 224z" />
    <glyph glyph-name="y" unicode="y" horiz-adv-x="531" 
d="M215 434c-14.667 -111.333 -21.9961 -202.667 -21.9961 -274c0 -8.66699 3.66699 -15.5 11 -20.5s15.666 -7.5 24.999 -7.5c61.333 0 109.333 100.667 144 302h108l-51 -451c-6 -50.667 -30.333 -97.5 -73 -140.5s-99.334 -64.5 -170.001 -64.5
c-75.333 0 -144.666 20 -207.999 60l52 94c22.667 -12 39.667 -20.667 51 -26s25.166 -10 41.499 -14s34.166 -6 53.499 -6c45.333 0 80.666 18.333 105.999 55s40.666 83.667 45.999 141c-55.333 -62.667 -108.666 -94 -159.999 -94c-29.333 0 -54.5 10 -75.5 30
s-31.5 44.333 -31.5 73l36 343h117z" />
    <glyph glyph-name="z" unicode="z" horiz-adv-x="504" 
d="M96 434l350 -0.00195312v-70l-227 -246c27.333 -10.667 60.333 -16 99 -16c28 0 62 10 102 30l52 -82c-50.667 -38.667 -104.667 -58 -162 -58c-21.333 0 -48.333 1.83301 -81 5.5s-59.667 5.5 -81 5.5c-24 0 -44.167 1.5 -60.5 4.5s-30.333 9.33301 -42 19
s-17.5 22.834 -17.5 39.501c0 14.667 11.167 35.334 33.5 62.001s53.333 60 93 100s69.5 72 89.5 96h-158z" />
    <glyph glyph-name="bar" unicode="|" horiz-adv-x="516" 
d="M197 133c7.33301 -1.33301 29.668 -6.66699 67.001 -16s69 -14 95 -14c28.667 0 63 8.33301 103 25l20 -110c-43.333 -22.667 -84.333 -34 -123 -34c-28.667 0 -64.334 5.66699 -107.001 17s-78.334 17 -107.001 17c-18.667 0 -37.167 -1.5 -55.5 -4.5
s-32.166 -6.16699 -41.499 -9.5l-14 -4v119c8.66699 2.66699 20 5.66699 34 9c0 20 5 75.5 15 166.5l29 257.5l15 122h122c-34.667 -342 -52 -522.333 -52 -541z" />
    <glyph glyph-name="asciitilde" unicode="~" horiz-adv-x="552" 
d="M479 18c-43.333 -22.667 -84.333 -34.001 -123 -34.001c-28 0 -63.667 5.66699 -107 17s-79 17 -107 17c-18.667 0 -37.167 -1.5 -55.5 -4.5s-32.166 -6.16699 -41.499 -9.5l-14 -4v119c8.66699 2.66699 20 5.66699 34 9l58 434h-48l12 112h434l-20 -110h-252l-21 -152
h207l-14 -106h-203l-24 -173c7.33301 -1.33301 29.666 -6.66602 66.999 -15.999s69 -14 95 -14c28.667 0 63 8.33301 103 25z" />
    <glyph glyph-name="cent" unicode="&#xa2;" horiz-adv-x="464" 
d="M449 266l-116.003 10.001c-1.33301 31.333 -11.666 53.666 -30.999 66.999l-52 -251c34.667 1.33301 75.334 15 122.001 41l55 -72c-34 -25.333 -65.833 -44.666 -95.5 -57.999s-63.167 -20 -100.5 -20h-4l-21 -102l-75 9l22 106
c-39.333 13.333 -71.5 35.166 -96.5 65.499s-37.5 65.5 -37.5 105.5c0 73.333 20.833 137.5 62.5 192.5s97.5 86.833 167.5 95.5l13 63l75 -9l-12 -57c36.667 -8.66699 66.834 -27 90.501 -55s35.5 -62 35.5 -102c0 -6 -0.666992 -15.667 -2 -29zM225.997 345.001
c-25.333 -10 -45.5 -28.333 -60.5 -55s-22.5 -55.667 -22.5 -87c0 -34 12 -62.333 36 -85z" />
    <glyph glyph-name="sterling" unicode="&#xa3;" horiz-adv-x="587" 
d="M54 4l-36.9961 117.999c24.667 10 50.667 18 78 24c14.667 40 26 88.333 34 145h-67l10 97h68c26.667 190.667 105.667 286 237 286c65.333 0 124.666 -25.333 177.999 -76l-64 -91c-37.333 29.333 -71.333 44 -102 44c-38 0 -65.667 -13.833 -83 -41.5
s-28.333 -68.167 -33 -121.5h173l-10 -97h-172c-6.66699 -48.667 -20 -98 -40 -148c7.33301 -2 18.833 -5.5 34.5 -10.5s28.334 -8.83301 38.001 -11.5s22 -5.16699 37 -7.5s29.5 -3.5 43.5 -3.5c19.333 0 39.666 1.33301 60.999 4s38 5.33398 50 8.00098l17 3l32 -103
c-57.333 -22.667 -105.333 -34 -144 -34c-28.667 0 -64.334 5.66699 -107.001 17s-78.334 17 -107.001 17c-18.667 0 -38.334 -1.5 -59.001 -4.5s-36.667 -6.16699 -48 -9.5z" />
    <glyph glyph-name="dieresis" unicode="&#xa8;" horiz-adv-x="357" 
d="M36 626c0 14.667 5.33301 27.334 16 38.001s23.334 16 38.001 16s27.334 -5.33301 38.001 -16s16 -23.334 16 -38.001s-5.33301 -27.334 -16 -38.001s-23.334 -16 -38.001 -16s-27.334 5.33301 -38.001 16s-16 23.334 -16 38.001zM212 624
c0 14.667 5.33301 27.334 16 38.001s23.334 16 38.001 16s27.334 -5.33301 38.001 -16s16 -23.334 16 -38.001s-5.33301 -27.334 -16 -38.001s-23.334 -16 -38.001 -16s-27.334 5.33301 -38.001 16s-16 23.334 -16 38.001z" />
    <glyph glyph-name="acute" unicode="&#xb4;" horiz-adv-x="226" 
d="M213 633l-128.001 -133l-74 67c48.667 46.667 105.334 82.667 170.001 108z" />
    <glyph glyph-name="_191" unicode="&#xbf;" horiz-adv-x="414" 
d="M399 429c0 -19.333 -7 -36 -21 -50s-30.667 -21 -50 -21s-36 7 -50 21s-21 30.667 -21 50s7 36 21 50s30.667 21 50 21s36 -7 50 -21s21 -30.667 21 -50zM389 -84l14.999 -90.001c-34 -9.33301 -74.667 -14 -122 -14c-65.333 0 -122.666 19 -171.999 57s-74 87 -74 147
s20.833 110.667 62.5 152s94.834 74 159.501 98l6 53h112l-12 -149c-132 -20.667 -198 -72 -198 -154c0 -31.333 13.167 -56.666 39.5 -75.999s57.166 -29 92.499 -29z" />
    <glyph glyph-name="Agrave" unicode="&#xc0;" horiz-adv-x="651" 
d="M17 0c10.667 103.333 32.666 199.666 65.999 288.999s72 162.333 116 219s89.833 100.834 137.5 132.501s92.5 47.5 134.5 47.5c30.667 0 57 -10.333 79 -31s33 -45.667 33 -75c0 -2 -0.5 -10.833 -1.5 -26.5s-2.66699 -40 -5 -73l-6.5 -94.5h51v-102h-58l-20 -286h-128
l22 286h-220c-45.333 -102 -77.666 -197.333 -96.999 -286h-103zM266.999 388h178c7.33301 91.333 11 144 11 158c0 6 -1.66699 11.167 -5 15.5s-8 6.5 -14 6.5c-47.333 0 -104 -60 -170 -180zM564.999 844l-128.001 -133l-74 67c48.667 46.667 105.334 82.667 170.001 108z
" />
    <glyph glyph-name="Aacute" unicode="&#xc1;" horiz-adv-x="651" 
d="M17 0c10.667 103.333 32.666 199.666 65.999 288.999s72 162.333 116 219s89.833 100.834 137.5 132.501s92.5 47.5 134.5 47.5c30.667 0 57 -10.333 79 -31s33 -45.667 33 -75c0 -2 -0.5 -10.833 -1.5 -26.5s-2.66699 -40 -5 -73l-6.5 -94.5h51v-102h-58l-20 -286h-128
l22 286h-220c-45.333 -102 -77.666 -197.333 -96.999 -286h-103zM266.999 388h178c7.33301 91.333 11 144 11 158c0 6 -1.66699 11.167 -5 15.5s-8 6.5 -14 6.5c-47.333 0 -104 -60 -170 -180zM502.999 709l-44 146l52 21c39.333 -46 65 -91 77 -135z" />
    <glyph glyph-name="Acircumflex" unicode="&#xc2;" horiz-adv-x="651" 
d="M17 0c10.667 103.333 32.666 199.666 65.999 288.999s72 162.333 116 219s89.833 100.834 137.5 132.501s92.5 47.5 134.5 47.5c30.667 0 57 -10.333 79 -31s33 -45.667 33 -75c0 -2 -0.5 -10.833 -1.5 -26.5s-2.66699 -40 -5 -73l-6.5 -94.5h51v-102h-58l-20 -286h-128
l22 286h-220c-45.333 -102 -77.666 -197.333 -96.999 -286h-103zM266.999 388h178c7.33301 91.333 11 144 11 158c0 6 -1.66699 11.167 -5 15.5s-8 6.5 -14 6.5c-47.333 0 -104 -60 -170 -180zM367.999 687l-36 41l113 144h119l44 -158l-51 -20l-63 88z" />
    <glyph glyph-name="Atilde" unicode="&#xc3;" horiz-adv-x="651" 
d="M17 0c10.667 103.333 32.666 199.666 65.999 288.999s72 162.333 116 219s89.833 100.834 137.5 132.501s92.5 47.5 134.5 47.5c30.667 0 57 -10.333 79 -31s33 -45.667 33 -75c0 -2 -0.5 -10.833 -1.5 -26.5s-2.66699 -40 -5 -73l-6.5 -94.5h51v-102h-58l-20 -286h-128
l22 286h-220c-45.333 -102 -77.666 -197.333 -96.999 -286h-103zM266.999 388h178c7.33301 91.333 11 144 11 158c0 6 -1.66699 11.167 -5 15.5s-8 6.5 -14 6.5c-47.333 0 -104 -60 -170 -180zM343.999 722l-43.999 58c21.333 21.333 49 32 83 32
c16.667 0 37.5 -4.66699 62.5 -14s45.833 -14 62.5 -14c5.33301 0 10.5 0.666992 15.5 2s9.16699 2.33301 12.5 3s7.83301 2.66699 13.5 6s9.16699 5.5 10.5 6.5l11.5 9c6.33301 5 9.83301 7.5 10.5 7.5l50 -49c-14.667 -14.667 -25.834 -25.5 -33.501 -32.5
s-18.5 -13.833 -32.5 -20.5s-28.667 -10 -44 -10c-14.667 0 -32.667 4.66699 -54 14s-39.333 14 -54 14c-28 0 -51.333 -4 -70 -12z" />
    <glyph glyph-name="Adieresis" unicode="&#xc4;" horiz-adv-x="651" 
d="M17 0c10.667 103.333 32.666 199.666 65.999 288.999s72 162.333 116 219s89.833 100.834 137.5 132.501s92.5 47.5 134.5 47.5c30.667 0 57 -10.333 79 -31s33 -45.667 33 -75c0 -2 -0.5 -10.833 -1.5 -26.5s-2.66699 -40 -5 -73l-6.5 -94.5h51v-102h-58l-20 -286h-128
l22 286h-220c-45.333 -102 -77.666 -197.333 -96.999 -286h-103zM266.999 388h178c7.33301 91.333 11 144 11 158c0 6 -1.66699 11.167 -5 15.5s-8 6.5 -14 6.5c-47.333 0 -104 -60 -170 -180zM331.999 760c0 14.667 5.33301 27.334 16 38.001s23.334 16 38.001 16
s27.334 -5.33301 38.001 -16s16 -23.334 16 -38.001s-5.33301 -27.334 -16 -38.001s-23.334 -16 -38.001 -16s-27.334 5.33301 -38.001 16s-16 23.334 -16 38.001zM507.999 758c0 14.667 5.33301 27.334 16 38.001s23.334 16 38.001 16s27.334 -5.33301 38.001 -16
s16 -23.334 16 -38.001s-5.33301 -27.334 -16 -38.001s-23.334 -16 -38.001 -16s-27.334 5.33301 -38.001 16s-16 23.334 -16 38.001z" />
    <glyph glyph-name="AE" unicode="&#xc6;" horiz-adv-x="967" 
d="M306 401l179 0.000976562c8 72 12 112.333 12 121c0 11.333 -2.66699 21.166 -8 29.499s-12.666 12.5 -21.999 12.5c-12.667 0 -25.334 -5.66699 -38.001 -17c-56 -54 -97 -102.667 -123 -146zM258 306.001c-20.667 -48.667 -55.0029 -150.663 -103.003 -305.996h-119
c40 204.667 103 368.167 189 490.5s175.667 183.5 269 183.5h417l-20 -110h-252l-21 -163h207l-14 -95h-203c-7.33301 -77.333 -11 -120 -11 -128c0 -20.667 7 -38.834 21 -54.501s31 -23.5 51 -23.5c24.667 0 47.667 3.16699 69 9.5s44.833 15 70.5 26
s47.834 19.167 66.501 24.5l56 -84c-39.333 -20.667 -69.5 -35.834 -90.5 -45.501s-48.667 -18.834 -83 -27.501s-69.166 -13 -104.499 -13c-51.333 0 -96.666 12.167 -135.999 36.5s-59 58.166 -59 101.499c0 12.667 5.66699 72 17 178h-217z" />
    <glyph glyph-name="Ccedilla" unicode="&#xc7;" horiz-adv-x="589" 
d="M552 36c-70 -42 -142.003 -63.001 -216.003 -63.001c-11.333 0 -20 0.333008 -26 1l-12 -44c38.667 -19.333 58 -43.333 58 -72c0 -25.333 -11 -45.5 -33 -60.5s-47.667 -22.5 -77 -22.5c-30 0 -58 9.66699 -84 29l20 36c20 -10.667 37.333 -16 52 -16
c12.667 0 23.667 4 33 12s14 18 14 30c0 18 -15.667 32 -47 42l20 74c-70 16 -126.667 50 -170 102s-65 113.333 -65 184c0 46.667 9.16699 94.334 27.5 143.001s43.333 93 75 133s70.834 72.833 117.501 98.5s96 38.5 148 38.5c48.667 0 91.334 -13.5 128.001 -40.5
s55 -62.5 55 -106.5c0 -48 -19.333 -91.333 -58 -130l-98 57c10.667 16 16 35 16 57c0 12 -4.16699 22.333 -12.5 31s-18.5 13 -30.5 13c-45.333 0 -94.166 -28 -146.499 -84s-78.5 -117.667 -78.5 -185c0 -58 13.667 -104 41 -138s65 -51 113 -51c34.667 0 65 3 91 9
s59 16.333 99 31z" />
    <glyph glyph-name="Egrave" unicode="&#xc8;" horiz-adv-x="532" 
d="M50 674l433.998 0.00488281l-20 -110h-252l-21 -152h207l-14 -106h-203c-7.33301 -77.333 -11 -120 -11 -128c0 -20.667 7 -38.834 21 -54.501s31 -23.5 51 -23.5c8 0 16.333 0.333008 25 1s16.5 1.5 23.5 2.5s14.833 2.66699 23.5 5s15.834 4.16602 21.501 5.49902
s13 3.83301 22 7.5s15.5 6.16699 19.5 7.5s10.667 4.16602 20 8.49902s15.166 7 17.499 8s8.33301 3.83301 18 8.5s14.834 7.33398 15.501 8.00098l56 -86c-39.333 -20.667 -69.5 -35.834 -90.5 -45.501s-48.667 -18.834 -83 -27.501s-69.166 -13 -104.499 -13
c-50.667 0 -95 12.167 -133 36.5s-57 58.166 -57 101.499c0 8.66699 4.16699 49.167 12.5 121.5s16.833 142.5 25.5 210.5l12 102h-48zM388.998 834.005l-128.001 -133l-74 67c48.667 46.667 105.334 82.667 170.001 108z" />
    <glyph glyph-name="Eacute" unicode="&#xc9;" horiz-adv-x="532" 
d="M50 674l433.998 0.00488281l-20 -110h-252l-21 -152h207l-14 -106h-203c-7.33301 -77.333 -11 -120 -11 -128c0 -20.667 7 -38.834 21 -54.501s31 -23.5 51 -23.5c8 0 16.333 0.333008 25 1s16.5 1.5 23.5 2.5s14.833 2.66699 23.5 5s15.834 4.16602 21.501 5.49902
s13 3.83301 22 7.5s15.5 6.16699 19.5 7.5s10.667 4.16602 20 8.49902s15.166 7 17.499 8s8.33301 3.83301 18 8.5s14.834 7.33398 15.501 8.00098l56 -86c-39.333 -20.667 -69.5 -35.834 -90.5 -45.501s-48.667 -18.834 -83 -27.501s-69.166 -13 -104.499 -13
c-50.667 0 -95 12.167 -133 36.5s-57 58.166 -57 101.499c0 8.66699 4.16699 49.167 12.5 121.5s16.833 142.5 25.5 210.5l12 102h-48zM267.998 689.005l-44 146l52 21c39.333 -46 65 -91 77 -135z" />
    <glyph glyph-name="Ecircumflex" unicode="&#xca;" horiz-adv-x="532" 
d="M50 674l433.998 0.00488281l-20 -110h-252l-21 -152h207l-14 -106h-203c-7.33301 -77.333 -11 -120 -11 -128c0 -20.667 7 -38.834 21 -54.501s31 -23.5 51 -23.5c8 0 16.333 0.333008 25 1s16.5 1.5 23.5 2.5s14.833 2.66699 23.5 5s15.834 4.16602 21.501 5.49902
s13 3.83301 22 7.5s15.5 6.16699 19.5 7.5s10.667 4.16602 20 8.49902s15.166 7 17.499 8s8.33301 3.83301 18 8.5s14.834 7.33398 15.501 8.00098l56 -86c-39.333 -20.667 -69.5 -35.834 -90.5 -45.501s-48.667 -18.834 -83 -27.501s-69.166 -13 -104.499 -13
c-50.667 0 -95 12.167 -133 36.5s-57 58.166 -57 101.499c0 8.66699 4.16699 49.167 12.5 121.5s16.833 142.5 25.5 210.5l12 102h-48zM194.998 696.005l-36 41l113 144h119l44 -158l-51 -20l-63 88z" />
    <glyph glyph-name="Edieresis" unicode="&#xcb;" horiz-adv-x="532" 
d="M50 674l433.998 0.00488281l-20 -110h-252l-21 -152h207l-14 -106h-203c-7.33301 -77.333 -11 -120 -11 -128c0 -20.667 7 -38.834 21 -54.501s31 -23.5 51 -23.5c8 0 16.333 0.333008 25 1s16.5 1.5 23.5 2.5s14.833 2.66699 23.5 5s15.834 4.16602 21.501 5.49902
s13 3.83301 22 7.5s15.5 6.16699 19.5 7.5s10.667 4.16602 20 8.49902s15.166 7 17.499 8s8.33301 3.83301 18 8.5s14.834 7.33398 15.501 8.00098l56 -86c-39.333 -20.667 -69.5 -35.834 -90.5 -45.501s-48.667 -18.834 -83 -27.501s-69.166 -13 -104.499 -13
c-50.667 0 -95 12.167 -133 36.5s-57 58.166 -57 101.499c0 8.66699 4.16699 49.167 12.5 121.5s16.833 142.5 25.5 210.5l12 102h-48zM153.998 755.005c0 15.333 5.33301 28.166 16 38.499s23.334 15.5 38.001 15.5s27.334 -5.16699 38.001 -15.5s16 -23.166 16 -38.499
s-5.33301 -28.166 -16 -38.499s-23.334 -15.5 -38.001 -15.5s-27.334 5.16699 -38.001 15.5s-16 23.166 -16 38.499zM329.998 753.005c0 15.333 5.33301 28.166 16 38.499s23.334 15.5 38.001 15.5s27.334 -5.16699 38.001 -15.5s16 -23.166 16 -38.499
s-5.33301 -28.166 -16 -38.499s-23.334 -15.5 -38.001 -15.5s-27.334 5.16699 -38.001 15.5s-16 23.166 -16 38.499z" />
    <glyph glyph-name="Igrave" unicode="&#xcc;" horiz-adv-x="242" 
d="M105 674h120l-88 -674h-120zM149 698l-44 146l52 21c39.333 -46 65 -91 77 -135z" />
    <glyph glyph-name="Iacute" unicode="&#xcd;" horiz-adv-x="242" 
d="M105 674h120l-88 -674h-120zM270 831l-128.001 -133l-74 67c48.667 46.667 105.334 82.667 170.001 108z" />
    <glyph glyph-name="Icircumflex" unicode="&#xce;" horiz-adv-x="242" 
d="M105 674h120l-88 -674h-120zM45 704l-36 41l113 144h119l44 -158l-51 -20l-63 88z" />
    <glyph glyph-name="Idieresis" unicode="&#xcf;" horiz-adv-x="242" 
d="M105 674h120l-88 -674h-120zM38 762c0 14.667 5.33301 27.334 16 38.001s23.334 16 38.001 16s27.334 -5.33301 38.001 -16s16 -23.334 16 -38.001s-5.33301 -27.334 -16 -38.001s-23.334 -16 -38.001 -16s-27.334 5.33301 -38.001 16s-16 23.334 -16 38.001zM214 760
c0 14.667 5.33301 27.334 16 38.001s23.334 16 38.001 16s27.334 -5.33301 38.001 -16s16 -23.334 16 -38.001s-5.33301 -27.334 -16 -38.001s-23.334 -16 -38.001 -16s-27.334 5.33301 -38.001 16s-16 23.334 -16 38.001z" />
    <glyph glyph-name="Ntilde" unicode="&#xd1;" horiz-adv-x="656" 
d="M103 674l125.001 1.00098l-10 -142c4 4 14.167 15.5 30.5 34.5s28 31.833 35 38.5l34.5 31.5c16 14.333 30 24.5 42 30.5s26.833 11.833 44.5 17.5s35.5 8.5 53.5 8.5c33.333 0 61.666 -12.333 84.999 -37s35 -53.667 35 -87c0 -44 -9.66699 -122.833 -29 -236.5
s-29 -176.5 -29 -188.5c0 -8.66699 2.83301 -15.834 8.5 -21.501s12.834 -8.5 21.501 -8.5c6.66699 0 20.667 0.666992 42 2l32 -88c-41.333 -26 -81.333 -39 -120 -39c-31.333 0 -58.833 9.33301 -82.5 28s-35.5 42.334 -35.5 71.001c0 12 10.167 79.833 30.5 203.5
s30.5 198.167 30.5 223.5c0 10 -2.33301 18.5 -7 25.5s-11.334 10.5 -20.001 10.5c-31.333 0 -65.333 -21.833 -102 -65.5s-67.5 -93.834 -92.5 -150.501s-40.167 -106.667 -45.5 -150l-24 -186h-124zM253.001 736.001l-43.999 58c21.333 21.333 49 32 83 32
c16.667 0 37.5 -4.66699 62.5 -14s45.833 -14 62.5 -14c5.33301 0 10.5 0.666992 15.5 2s9.16699 2.33301 12.5 3s7.83301 2.66699 13.5 6s9.16699 5.5 10.5 6.5l11.5 9c6.33301 5 9.83301 7.5 10.5 7.5l50 -49c-14.667 -14.667 -25.834 -25.5 -33.501 -32.5
s-18.5 -13.833 -32.5 -20.5s-28.667 -10 -44 -10c-14.667 0 -32.667 4.66699 -54 14s-39.333 14 -54 14c-28 0 -51.333 -4 -70 -12z" />
    <glyph glyph-name="Ograve" unicode="&#xd2;" horiz-adv-x="690" 
d="M376 574c-64 0 -115.001 -28.334 -153.001 -85.001s-57 -121.667 -57 -195c0 -52.667 12.167 -99.167 36.5 -139.5s58.833 -60.5 103.5 -60.5c49.333 0 90.333 16.167 123 48.5s55.334 70.833 68.001 115.5s19 93.334 19 146.001c0 45.333 -13 85 -39 119
s-59.667 51 -101 51zM383.999 691.999c70.667 0 134.668 -28.8311 192.001 -86.498s86 -124.834 86 -201.501c0 -72.667 -13.667 -141.167 -41 -205.5s-67.833 -117.333 -121.5 -159s-114.834 -62.5 -183.501 -62.5c-83.333 0 -152.166 29 -206.499 87
s-81.5 133.333 -81.5 226c0 47.333 8.83301 94.833 26.5 142.5s41.667 90.667 72 129s68.166 69.666 113.499 93.999s93.333 36.5 144 36.5zM508 851.001l-128 -133l-74 67c48 46.667 104.667 82.667 170 108z" />
    <glyph glyph-name="Oacute" unicode="&#xd3;" horiz-adv-x="690" 
d="M376 574c-64 0 -115.001 -28.334 -153.001 -85.001s-57 -121.667 -57 -195c0 -52.667 12.167 -99.167 36.5 -139.5s58.833 -60.5 103.5 -60.5c49.333 0 90.333 16.167 123 48.5s55.334 70.833 68.001 115.5s19 93.334 19 146.001c0 45.333 -13 85 -39 119
s-59.667 51 -101 51zM383.999 691.999c70.667 0 134.668 -28.8311 192.001 -86.498s86 -124.834 86 -201.501c0 -72.667 -13.667 -141.167 -41 -205.5s-67.833 -117.333 -121.5 -159s-114.834 -62.5 -183.501 -62.5c-83.333 0 -152.166 29 -206.499 87
s-81.5 133.333 -81.5 226c0 47.333 8.83301 94.833 26.5 142.5s41.667 90.667 72 129s68.166 69.666 113.499 93.999s93.333 36.5 144 36.5zM397 708.001l-44 146l52 21c39.333 -46 65 -91 77 -135z" />
    <glyph glyph-name="Ocircumflex" unicode="&#xd4;" horiz-adv-x="690" 
d="M376 574c-64 0 -115.001 -28.334 -153.001 -85.001s-57 -121.667 -57 -195c0 -52.667 12.167 -99.167 36.5 -139.5s58.833 -60.5 103.5 -60.5c49.333 0 90.333 16.167 123 48.5s55.334 70.833 68.001 115.5s19 93.334 19 146.001c0 45.333 -13 85 -39 119
s-59.667 51 -101 51zM383.999 691.999c70.667 0 134.668 -28.8311 192.001 -86.498s86 -124.834 86 -201.501c0 -72.667 -13.667 -141.167 -41 -205.5s-67.833 -117.333 -121.5 -159s-114.834 -62.5 -183.501 -62.5c-83.333 0 -152.166 29 -206.499 87
s-81.5 133.333 -81.5 226c0 47.333 8.83301 94.833 26.5 142.5s41.667 90.667 72 129s68.166 69.666 113.499 93.999s93.333 36.5 144 36.5zM281 696.001l-36 41l113 144h119l44 -158l-51 -20l-63 88z" />
    <glyph glyph-name="Otilde" unicode="&#xd5;" horiz-adv-x="690" 
d="M376 574c-64 0 -115.001 -28.334 -153.001 -85.001s-57 -121.667 -57 -195c0 -52.667 12.167 -99.167 36.5 -139.5s58.833 -60.5 103.5 -60.5c49.333 0 90.333 16.167 123 48.5s55.334 70.833 68.001 115.5s19 93.334 19 146.001c0 45.333 -13 85 -39 119
s-59.667 51 -101 51zM383.999 691.999c70.667 0 134.668 -28.8311 192.001 -86.498s86 -124.834 86 -201.501c0 -72.667 -13.667 -141.167 -41 -205.5s-67.833 -117.333 -121.5 -159s-114.834 -62.5 -183.501 -62.5c-83.333 0 -152.166 29 -206.499 87
s-81.5 133.333 -81.5 226c0 47.333 8.83301 94.833 26.5 142.5s41.667 90.667 72 129s68.166 69.666 113.499 93.999s93.333 36.5 144 36.5zM293 717.001l-43.999 58c21.333 21.333 49 32 83 32c16.667 0 37.5 -4.66699 62.5 -14s45.833 -14 62.5 -14
c5.33301 0 10.5 0.666992 15.5 2s9.16699 2.33301 12.5 3s7.83301 2.66699 13.5 6s9.16699 5.5 10.5 6.5l11.5 9c6.33301 5 9.83301 7.5 10.5 7.5l50 -49c-14.667 -14.667 -25.834 -25.5 -33.501 -32.5s-18.5 -13.833 -32.5 -20.5s-28.667 -10 -44 -10
c-14.667 0 -32.667 4.66699 -54 14s-39.333 14 -54 14c-28 0 -51.333 -4 -70 -12z" />
    <glyph glyph-name="Odieresis" unicode="&#xd6;" horiz-adv-x="690" 
d="M376 574c-64 0 -115.001 -28.334 -153.001 -85.001s-57 -121.667 -57 -195c0 -52.667 12.167 -99.167 36.5 -139.5s58.833 -60.5 103.5 -60.5c49.333 0 90.333 16.167 123 48.5s55.334 70.833 68.001 115.5s19 93.334 19 146.001c0 45.333 -13 85 -39 119
s-59.667 51 -101 51zM383.999 691.999c70.667 0 134.668 -28.8311 192.001 -86.498s86 -124.834 86 -201.501c0 -72.667 -13.667 -141.167 -41 -205.5s-67.833 -117.333 -121.5 -159s-114.834 -62.5 -183.501 -62.5c-83.333 0 -152.166 29 -206.499 87
s-81.5 133.333 -81.5 226c0 47.333 8.83301 94.833 26.5 142.5s41.667 90.667 72 129s68.166 69.666 113.499 93.999s93.333 36.5 144 36.5zM256 763.001c0 15.333 5.33301 28.166 16 38.499s23.334 15.5 38.001 15.5s27.334 -5.16699 38.001 -15.5s16 -23.166 16 -38.499
s-5.33301 -28.166 -16 -38.499s-23.334 -15.5 -38.001 -15.5s-27.334 5.16699 -38.001 15.5s-16 23.166 -16 38.499zM432 761.001c0 15.333 5.33301 28.166 16 38.499s23.334 15.5 38.001 15.5s27.334 -5.16699 38.001 -15.5s16 -23.166 16 -38.499
s-5.33301 -28.166 -16 -38.499s-23.334 -15.5 -38.001 -15.5s-27.334 5.16699 -38.001 15.5s-16 23.166 -16 38.499z" />
    <glyph glyph-name="Ugrave" unicode="&#xd9;" horiz-adv-x="645" 
d="M87 674l130.998 0.00390625c-33.333 -228.667 -50 -395.334 -50 -500.001c0 -32 17.333 -48 52 -48c44 0 85.167 55.5 123.5 166.5s66.833 238.167 85.5 381.5h123c-32 -276 -48 -445.333 -48 -508c0 -10 3.16699 -19.833 9.5 -29.5s14.5 -14.5 24.5 -14.5l32 2l44 -94
c-34 -31.333 -72.667 -47 -116 -47c-33.333 0 -62.166 14.5 -86.499 43.5s-40.166 59.5 -47.499 91.5c-14 -20.667 -25.833 -36.834 -35.5 -48.501s-22.334 -25.334 -38.001 -41.001s-32.667 -27.167 -51 -34.5s-38.166 -11 -59.499 -11c-38 0 -71.5 11.167 -100.5 33.5
s-43.5 50.5 -43.5 84.5c0 44.667 4.33301 114.667 13 210s17 179.666 25 252.999zM304.998 694.004l-44 146l52 21c39.333 -46 65 -91 77 -135z" />
    <glyph glyph-name="Uacute" unicode="&#xda;" horiz-adv-x="645" 
d="M87 674l130.998 0.00390625c-33.333 -228.667 -50 -395.334 -50 -500.001c0 -32 17.333 -48 52 -48c44 0 85.167 55.5 123.5 166.5s66.833 238.167 85.5 381.5h123c-32 -276 -48 -445.333 -48 -508c0 -10 3.16699 -19.833 9.5 -29.5s14.5 -14.5 24.5 -14.5l32 2l44 -94
c-34 -31.333 -72.667 -47 -116 -47c-33.333 0 -62.166 14.5 -86.499 43.5s-40.166 59.5 -47.499 91.5c-14 -20.667 -25.833 -36.834 -35.5 -48.501s-22.334 -25.334 -38.001 -41.001s-32.667 -27.167 -51 -34.5s-38.166 -11 -59.499 -11c-38 0 -71.5 11.167 -100.5 33.5
s-43.5 50.5 -43.5 84.5c0 44.667 4.33301 114.667 13 210s17 179.666 25 252.999zM437.998 821.004l-128 -133l-74 67c48 46.667 104.667 82.667 170 108z" />
    <glyph glyph-name="Ucircumflex" unicode="&#xdb;" horiz-adv-x="645" 
d="M87 674l130.998 0.00390625c-33.333 -228.667 -50 -395.334 -50 -500.001c0 -32 17.333 -48 52 -48c44 0 85.167 55.5 123.5 166.5s66.833 238.167 85.5 381.5h123c-32 -276 -48 -445.333 -48 -508c0 -10 3.16699 -19.833 9.5 -29.5s14.5 -14.5 24.5 -14.5l32 2l44 -94
c-34 -31.333 -72.667 -47 -116 -47c-33.333 0 -62.166 14.5 -86.499 43.5s-40.166 59.5 -47.499 91.5c-14 -20.667 -25.833 -36.834 -35.5 -48.501s-22.334 -25.334 -38.001 -41.001s-32.667 -27.167 -51 -34.5s-38.166 -11 -59.499 -11c-38 0 -71.5 11.167 -100.5 33.5
s-43.5 50.5 -43.5 84.5c0 44.667 4.33301 114.667 13 210s17 179.666 25 252.999zM227.998 697.004l-36 41l113 144h119l44 -158l-51 -20l-63 88z" />
    <glyph glyph-name="Udieresis" unicode="&#xdc;" horiz-adv-x="645" 
d="M87 674l130.998 0.00390625c-33.333 -228.667 -50 -395.334 -50 -500.001c0 -32 17.333 -48 52 -48c44 0 85.167 55.5 123.5 166.5s66.833 238.167 85.5 381.5h123c-32 -276 -48 -445.333 -48 -508c0 -10 3.16699 -19.833 9.5 -29.5s14.5 -14.5 24.5 -14.5l32 2l44 -94
c-34 -31.333 -72.667 -47 -116 -47c-33.333 0 -62.166 14.5 -86.499 43.5s-40.166 59.5 -47.499 91.5c-14 -20.667 -25.833 -36.834 -35.5 -48.501s-22.334 -25.334 -38.001 -41.001s-32.667 -27.167 -51 -34.5s-38.166 -11 -59.499 -11c-38 0 -71.5 11.167 -100.5 33.5
s-43.5 50.5 -43.5 84.5c0 44.667 4.33301 114.667 13 210s17 179.666 25 252.999zM192.998 761.004c0 15.333 5.16699 28.166 15.5 38.499s23.166 15.5 38.499 15.5s28.166 -5.16699 38.499 -15.5s15.5 -23.166 15.5 -38.499s-5.16699 -28.166 -15.5 -38.499
s-23.166 -15.5 -38.499 -15.5s-28.166 5.16699 -38.499 15.5s-15.5 23.166 -15.5 38.499zM368.998 759.004c0 15.333 5.16699 28.166 15.5 38.499s23.166 15.5 38.499 15.5s28.166 -5.16699 38.499 -15.5s15.5 -23.166 15.5 -38.499s-5.16699 -28.166 -15.5 -38.499
s-23.166 -15.5 -38.499 -15.5s-28.166 5.16699 -38.499 15.5s-15.5 23.166 -15.5 38.499z" />
    <glyph glyph-name="germandbls" unicode="&#xdf;" horiz-adv-x="569" 
d="M44 -206l49.9961 533.001h-67l12 95h64l19 107c8.66699 49.333 28.834 85.833 60.501 109.5s71.167 35.5 118.5 35.5c45.333 0 85.333 -13 120 -39s52 -59.667 52 -101c0 -42 -24.333 -87.333 -73 -136c45.333 -18.667 82.833 -46.667 112.5 -84s44.5 -80.333 44.5 -129
c0 -59.333 -22.833 -108.5 -68.5 -147.5s-99.5 -58.5 -161.5 -58.5c-38.667 0 -72.667 7.66699 -102 23l27 98c29.333 -8 55.333 -12 78 -12c28.667 0 52.834 10.5 72.501 31.5s29.5 46.167 29.5 75.5c0 78.667 -59 122 -177 130l3 78c63.333 29.333 95 66.333 95 111
c0 14.667 -5.16699 27.5 -15.5 38.5s-22.833 16.5 -37.5 16.5c-13.333 0 -25.666 -7.33301 -36.999 -22s-19.666 -29.334 -24.999 -44.001l-7 -22l-80 -687h-107z" />
    <glyph glyph-name="agrave" unicode="&#xe0;" horiz-adv-x="580" 
d="M279 328c-31.333 0 -58.999 -17.332 -82.999 -51.999s-36 -72.667 -36 -114c0 -17.333 6 -32.333 18 -45s26.333 -19 43 -19c28.667 0 55 18.333 79 55s36 72 36 106c0 17.333 -5.83301 33.166 -17.5 47.499s-24.834 21.5 -39.501 21.5zM477.001 434.001
c-18.667 -179.333 -28 -272.001 -28 -278.001c0 -11.333 2.83301 -21.166 8.5 -29.499s13.5 -12.5 23.5 -12.5l44 5l28 -85c-2.66699 -1.33301 -10 -5.5 -22 -12.5s-21.5 -12.167 -28.5 -15.5s-16.5 -6.83301 -28.5 -10.5s-23.667 -5.5 -35 -5.5
c-22 0 -42.167 6.16699 -60.5 18.5s-31.5 26.833 -39.5 43.5c-1.33301 -1.33301 -6 -4.66602 -14 -9.99902l-15 -10l-14 -9c-7.33301 -4.66699 -12.5 -7.83398 -15.5 -9.50098l-14.5 -8c-6.66699 -3.66699 -12 -6.16699 -16 -7.5s-9.16699 -3.33301 -15.5 -6
s-12 -4.5 -17 -5.5s-10.5 -1.83301 -16.5 -2.5s-12 -1 -18 -1c-38.667 0 -73.667 17.667 -105 53s-47 75.333 -47 120c0 72 20.333 136.333 61 193s93.667 85 159 85c28.667 0 62.667 -8.66699 102 -26l6 26h118zM305.001 507l-44 146l52 21c39.333 -46 65 -91 77 -135z" />
    <glyph glyph-name="aacute" unicode="&#xe1;" horiz-adv-x="580" 
d="M279 328c-31.333 0 -58.999 -17.332 -82.999 -51.999s-36 -72.667 -36 -114c0 -17.333 6 -32.333 18 -45s26.333 -19 43 -19c28.667 0 55 18.333 79 55s36 72 36 106c0 17.333 -5.83301 33.166 -17.5 47.499s-24.834 21.5 -39.501 21.5zM477.001 434.001
c-18.667 -179.333 -28 -272.001 -28 -278.001c0 -11.333 2.83301 -21.166 8.5 -29.499s13.5 -12.5 23.5 -12.5l44 5l28 -85c-2.66699 -1.33301 -10 -5.5 -22 -12.5s-21.5 -12.167 -28.5 -15.5s-16.5 -6.83301 -28.5 -10.5s-23.667 -5.5 -35 -5.5
c-22 0 -42.167 6.16699 -60.5 18.5s-31.5 26.833 -39.5 43.5c-1.33301 -1.33301 -6 -4.66602 -14 -9.99902l-15 -10l-14 -9c-7.33301 -4.66699 -12.5 -7.83398 -15.5 -9.50098l-14.5 -8c-6.66699 -3.66699 -12 -6.16699 -16 -7.5s-9.16699 -3.33301 -15.5 -6
s-12 -4.5 -17 -5.5s-10.5 -1.83301 -16.5 -2.5s-12 -1 -18 -1c-38.667 0 -73.667 17.667 -105 53s-47 75.333 -47 120c0 72 20.333 136.333 61 193s93.667 85 159 85c28.667 0 62.667 -8.66699 102 -26l6 26h118zM396.001 633l-128 -133l-74 67
c48 46.667 104.667 82.667 170 108z" />
    <glyph glyph-name="acircumflex" unicode="&#xe2;" horiz-adv-x="580" 
d="M279 328c-31.333 0 -58.999 -17.332 -82.999 -51.999s-36 -72.667 -36 -114c0 -17.333 6 -32.333 18 -45s26.333 -19 43 -19c28.667 0 55 18.333 79 55s36 72 36 106c0 17.333 -5.83301 33.166 -17.5 47.499s-24.834 21.5 -39.501 21.5zM477.001 434.001
c-18.667 -179.333 -28 -272.001 -28 -278.001c0 -11.333 2.83301 -21.166 8.5 -29.499s13.5 -12.5 23.5 -12.5l44 5l28 -85c-2.66699 -1.33301 -10 -5.5 -22 -12.5s-21.5 -12.167 -28.5 -15.5s-16.5 -6.83301 -28.5 -10.5s-23.667 -5.5 -35 -5.5
c-22 0 -42.167 6.16699 -60.5 18.5s-31.5 26.833 -39.5 43.5c-1.33301 -1.33301 -6 -4.66602 -14 -9.99902l-15 -10l-14 -9c-7.33301 -4.66699 -12.5 -7.83398 -15.5 -9.50098l-14.5 -8c-6.66699 -3.66699 -12 -6.16699 -16 -7.5s-9.16699 -3.33301 -15.5 -6
s-12 -4.5 -17 -5.5s-10.5 -1.83301 -16.5 -2.5s-12 -1 -18 -1c-38.667 0 -73.667 17.667 -105 53s-47 75.333 -47 120c0 72 20.333 136.333 61 193s93.667 85 159 85c28.667 0 62.667 -8.66699 102 -26l6 26h118zM212.001 515l-36 41l113 144h119l44 -158l-51 -20l-63 88z
" />
    <glyph glyph-name="atilde" unicode="&#xe3;" horiz-adv-x="580" 
d="M279 328c-31.333 0 -58.999 -17.332 -82.999 -51.999s-36 -72.667 -36 -114c0 -17.333 6 -32.333 18 -45s26.333 -19 43 -19c28.667 0 55 18.333 79 55s36 72 36 106c0 17.333 -5.83301 33.166 -17.5 47.499s-24.834 21.5 -39.501 21.5zM477.001 434.001
c-18.667 -179.333 -28 -272.001 -28 -278.001c0 -11.333 2.83301 -21.166 8.5 -29.499s13.5 -12.5 23.5 -12.5l44 5l28 -85c-2.66699 -1.33301 -10 -5.5 -22 -12.5s-21.5 -12.167 -28.5 -15.5s-16.5 -6.83301 -28.5 -10.5s-23.667 -5.5 -35 -5.5
c-22 0 -42.167 6.16699 -60.5 18.5s-31.5 26.833 -39.5 43.5c-1.33301 -1.33301 -6 -4.66602 -14 -9.99902l-15 -10l-14 -9c-7.33301 -4.66699 -12.5 -7.83398 -15.5 -9.50098l-14.5 -8c-6.66699 -3.66699 -12 -6.16699 -16 -7.5s-9.16699 -3.33301 -15.5 -6
s-12 -4.5 -17 -5.5s-10.5 -1.83301 -16.5 -2.5s-12 -1 -18 -1c-38.667 0 -73.667 17.667 -105 53s-47 75.333 -47 120c0 72 20.333 136.333 61 193s93.667 85 159 85c28.667 0 62.667 -8.66699 102 -26l6 26h118zM194.001 578l-43.999 58c21.333 21.333 49 32 83 32
c16.667 0 37.5 -4.66699 62.5 -14s45.833 -14 62.5 -14c5.33301 0 10.5 0.666992 15.5 2s9.16699 2.33301 12.5 3s7.83301 2.66699 13.5 6s9.16699 5.5 10.5 6.5l11.5 9c6.33301 5 9.83301 7.5 10.5 7.5l50 -49c-14.667 -14.667 -25.834 -25.5 -33.501 -32.5
s-18.5 -13.833 -32.5 -20.5s-28.667 -10 -44 -10c-14.667 0 -32.667 4.66699 -54 14s-39.333 14 -54 14c-28 0 -51.333 -4 -70 -12z" />
    <glyph glyph-name="adieresis" unicode="&#xe4;" horiz-adv-x="580" 
d="M279 328c-31.333 0 -58.999 -17.332 -82.999 -51.999s-36 -72.667 -36 -114c0 -17.333 6 -32.333 18 -45s26.333 -19 43 -19c28.667 0 55 18.333 79 55s36 72 36 106c0 17.333 -5.83301 33.166 -17.5 47.499s-24.834 21.5 -39.501 21.5zM477.001 434.001
c-18.667 -179.333 -28 -272.001 -28 -278.001c0 -11.333 2.83301 -21.166 8.5 -29.499s13.5 -12.5 23.5 -12.5l44 5l28 -85c-2.66699 -1.33301 -10 -5.5 -22 -12.5s-21.5 -12.167 -28.5 -15.5s-16.5 -6.83301 -28.5 -10.5s-23.667 -5.5 -35 -5.5
c-22 0 -42.167 6.16699 -60.5 18.5s-31.5 26.833 -39.5 43.5c-1.33301 -1.33301 -6 -4.66602 -14 -9.99902l-15 -10l-14 -9c-7.33301 -4.66699 -12.5 -7.83398 -15.5 -9.50098l-14.5 -8c-6.66699 -3.66699 -12 -6.16699 -16 -7.5s-9.16699 -3.33301 -15.5 -6
s-12 -4.5 -17 -5.5s-10.5 -1.83301 -16.5 -2.5s-12 -1 -18 -1c-38.667 0 -73.667 17.667 -105 53s-47 75.333 -47 120c0 72 20.333 136.333 61 193s93.667 85 159 85c28.667 0 62.667 -8.66699 102 -26l6 26h118zM175.001 626c0 14.667 5.16699 27.334 15.5 38.001
s23.166 16 38.499 16s28.166 -5.33301 38.499 -16s15.5 -23.334 15.5 -38.001s-5.16699 -27.334 -15.5 -38.001s-23.166 -16 -38.499 -16s-28.166 5.33301 -38.499 16s-15.5 23.334 -15.5 38.001zM351.001 624c0 14.667 5.16699 27.334 15.5 38.001s23.166 16 38.499 16
s28.166 -5.33301 38.499 -16s15.5 -23.334 15.5 -38.001s-5.16699 -27.334 -15.5 -38.001s-23.166 -16 -38.499 -16s-28.166 5.33301 -38.499 16s-15.5 23.334 -15.5 38.001z" />
    <glyph glyph-name="ae" unicode="&#xe6;" horiz-adv-x="790" 
d="M591 443c50 0 89.665 -12.168 118.998 -36.501s44 -57.833 44 -100.5c0 -48 -18.667 -83 -56 -105s-87 -33 -149 -33c-24.667 0 -43.334 0.666992 -56.001 2c0 -23.333 9.83301 -41.5 29.5 -54.5s42.5 -19.5 68.5 -19.5c14.667 0 28.5 1.33301 41.5 4s23.667 5.5 32 8.5
s21.833 8.5 40.5 16.5l40 -90c-69.333 -34.667 -130 -52 -182 -52c-80 0 -142 26.667 -186 80c-4 2.66699 -7 6.33398 -9 11.001c-23.333 -28 -51.666 -50.167 -84.999 -66.5s-65.666 -24.5 -96.999 -24.5c-38.667 0 -73.667 17.667 -105 53s-47 75.333 -47 120
c0 72.667 20.333 138.5 61 197.5s93.667 88.5 159 88.5c9.33301 0 19.333 -1.33301 30 -4s19.334 -5.5 26.001 -8.5l25.5 -12c10.333 -5 17.166 -8.16699 20.499 -9.5l7 34h118l-3 -30c30.667 20.667 68.334 31 113.001 31zM496.998 283.999
c13.333 -6 33.3359 -9.00098 60.0029 -9.00098c18.667 0 35 3.66699 49 11s21 18.333 21 33c0 10.667 -4.33301 19.334 -13 26.001s-19.334 10 -32.001 10c-18.667 0 -36.334 -8.33301 -53.001 -25s-27.334 -32 -32.001 -46zM282.001 327.998
c-31.333 0 -58.999 -17.332 -82.999 -51.999s-36 -72.667 -36 -114c0 -17.333 6 -32.333 18 -45s26.333 -19 43 -19c28.667 0 55 18.333 79 55s36 72 36 106c0 17.333 -5.83301 33.166 -17.5 47.499s-24.834 21.5 -39.501 21.5z" />
    <glyph glyph-name="ccedilla" unicode="&#xe7;" horiz-adv-x="435" 
d="M230 -11l-6 -35.999c29.333 -18 44 -39 44 -63c0 -20 -8.5 -36.5 -25.5 -49.5s-36.5 -19.5 -58.5 -19.5c-26.667 0 -50.667 7.33301 -72 22l13 35c11.333 -6.66699 24.666 -10 39.999 -10c10 0 18.833 2.66699 26.5 8s11.5 12.666 11.5 21.999
c0 14.667 -13 26.334 -39 35.001l11 62c-46 10.667 -83.167 33.167 -111.5 67.5s-42.5 74.833 -42.5 121.5c0 70.667 22.5 132.5 67.5 185.5s101.167 79.5 168.5 79.5c40 0 76 -14.667 108 -44s48 -62.666 48 -99.999c0 -12.667 -2 -25.667 -6 -39h-112
c0 18.667 -4.16699 35.5 -12.5 50.5s-20.166 22.5 -35.499 22.5c-32 0 -56.333 -16 -73 -48s-25 -66.333 -25 -103c0 -24.667 8.5 -45.834 25.5 -63.501s37.833 -26.5 62.5 -26.5c22.667 0 42 4.83301 58 14.5s34.333 24.5 55 44.5l67 -75
c-21.333 -26 -48.333 -47.833 -81 -65.5s-68 -26.834 -106 -27.501z" />
    <glyph glyph-name="egrave" unicode="&#xe8;" horiz-adv-x="460" 
d="M172 284c13.333 -6 33.3359 -9.00098 60.0029 -9.00098c18.667 0 35 3.66699 49 11s21 18.333 21 33c0 10.667 -4.33301 19.334 -13 26.001s-19.334 10 -32.001 10c-18.667 0 -36.334 -8.33301 -53.001 -25s-27.334 -32 -32.001 -46zM261.003 441.999
c50.667 0 91.3359 -12.334 122.003 -37.001s46 -57.667 46 -99c0 -47.333 -19.333 -82.166 -58 -104.499s-89.334 -33.5 -152.001 -33.5c-24.667 0 -43.334 0.666992 -56.001 2c0 -23.333 9.83301 -41.5 29.5 -54.5s42.5 -19.5 68.5 -19.5c14.667 0 28.5 1.33301 41.5 4
s23.667 5.5 32 8.5s21.833 8.5 40.5 16.5l40 -90c-69.333 -34.667 -130 -52 -182 -52c-56.667 0 -105.167 20 -145.5 60s-60.5 88.333 -60.5 145c0 69.333 22.167 129 66.5 179s100.166 75 167.499 75zM246.005 506.998l-44 146l52 21c39.333 -46 65 -91 77 -135z" />
    <glyph glyph-name="eacute" unicode="&#xe9;" horiz-adv-x="460" 
d="M172 284c13.333 -6 33.3359 -9.00098 60.0029 -9.00098c18.667 0 35 3.66699 49 11s21 18.333 21 33c0 10.667 -4.33301 19.334 -13 26.001s-19.334 10 -32.001 10c-18.667 0 -36.334 -8.33301 -53.001 -25s-27.334 -32 -32.001 -46zM261.003 441.999
c50.667 0 91.3359 -12.334 122.003 -37.001s46 -57.667 46 -99c0 -47.333 -19.333 -82.166 -58 -104.499s-89.334 -33.5 -152.001 -33.5c-24.667 0 -43.334 0.666992 -56.001 2c0 -23.333 9.83301 -41.5 29.5 -54.5s42.5 -19.5 68.5 -19.5c14.667 0 28.5 1.33301 41.5 4
s23.667 5.5 32 8.5s21.833 8.5 40.5 16.5l40 -90c-69.333 -34.667 -130 -52 -182 -52c-56.667 0 -105.167 20 -145.5 60s-60.5 88.333 -60.5 145c0 69.333 22.167 129 66.5 179s100.166 75 167.499 75zM381.005 632.998l-128 -133l-74 67c48 46.667 104.667 82.667 170 108z
" />
    <glyph glyph-name="ecircumflex" unicode="&#xea;" horiz-adv-x="460" 
d="M172 284c13.333 -6 33.3359 -9.00098 60.0029 -9.00098c18.667 0 35 3.66699 49 11s21 18.333 21 33c0 10.667 -4.33301 19.334 -13 26.001s-19.334 10 -32.001 10c-18.667 0 -36.334 -8.33301 -53.001 -25s-27.334 -32 -32.001 -46zM261.003 441.999
c50.667 0 91.3359 -12.334 122.003 -37.001s46 -57.667 46 -99c0 -47.333 -19.333 -82.166 -58 -104.499s-89.334 -33.5 -152.001 -33.5c-24.667 0 -43.334 0.666992 -56.001 2c0 -23.333 9.83301 -41.5 29.5 -54.5s42.5 -19.5 68.5 -19.5c14.667 0 28.5 1.33301 41.5 4
s23.667 5.5 32 8.5s21.833 8.5 40.5 16.5l40 -90c-69.333 -34.667 -130 -52 -182 -52c-56.667 0 -105.167 20 -145.5 60s-60.5 88.333 -60.5 145c0 69.333 22.167 129 66.5 179s100.166 75 167.499 75zM166.005 514.998l-36 41l113 144h119l44 -158l-51 -20l-63 88z" />
    <glyph glyph-name="edieresis" unicode="&#xeb;" horiz-adv-x="460" 
d="M172 284c13.333 -6 33.3359 -9.00098 60.0029 -9.00098c18.667 0 35 3.66699 49 11s21 18.333 21 33c0 10.667 -4.33301 19.334 -13 26.001s-19.334 10 -32.001 10c-18.667 0 -36.334 -8.33301 -53.001 -25s-27.334 -32 -32.001 -46zM261.003 441.999
c50.667 0 91.3359 -12.334 122.003 -37.001s46 -57.667 46 -99c0 -47.333 -19.333 -82.166 -58 -104.499s-89.334 -33.5 -152.001 -33.5c-24.667 0 -43.334 0.666992 -56.001 2c0 -23.333 9.83301 -41.5 29.5 -54.5s42.5 -19.5 68.5 -19.5c14.667 0 28.5 1.33301 41.5 4
s23.667 5.5 32 8.5s21.833 8.5 40.5 16.5l40 -90c-69.333 -34.667 -130 -52 -182 -52c-56.667 0 -105.167 20 -145.5 60s-60.5 88.333 -60.5 145c0 69.333 22.167 129 66.5 179s100.166 75 167.499 75zM119.005 625.998c0 14.667 5.16699 27.334 15.5 38.001
s23.166 16 38.499 16s28.166 -5.33301 38.499 -16s15.5 -23.334 15.5 -38.001s-5.16699 -27.334 -15.5 -38.001s-23.166 -16 -38.499 -16s-28.166 5.33301 -38.499 16s-15.5 23.334 -15.5 38.001zM295.005 623.998c0 14.667 5.16699 27.334 15.5 38.001s23.166 16 38.499 16
s28.166 -5.33301 38.499 -16s15.5 -23.334 15.5 -38.001s-5.16699 -27.334 -15.5 -38.001s-23.166 -16 -38.499 -16s-28.166 5.33301 -38.499 16s-15.5 23.334 -15.5 38.001z" />
    <glyph glyph-name="igrave" unicode="&#xec;" horiz-adv-x="287" 
d="M63 434h119c-22.667 -186 -34 -282 -34 -288c0 -10 4 -18.5 12 -25.5s17.333 -10.5 28 -10.5c12.667 0 26 4.66699 40 14l38 -85c-24.667 -16.667 -45.834 -28.667 -63.501 -36s-38.5 -11 -62.5 -11c-27.333 0 -53.166 9.66699 -77.499 29s-36.5 38.333 -36.5 57z
M130 507l-44 146l52 21c39.333 -46 65 -91 77 -135z" />
    <glyph glyph-name="iacute" unicode="&#xed;" horiz-adv-x="287" 
d="M63 434h119c-22.667 -186 -34 -282 -34 -288c0 -10 4 -18.5 12 -25.5s17.333 -10.5 28 -10.5c12.667 0 26 4.66699 40 14l38 -85c-24.667 -16.667 -45.834 -28.667 -63.501 -36s-38.5 -11 -62.5 -11c-27.333 0 -53.166 9.66699 -77.499 29s-36.5 38.333 -36.5 57z
M253 633l-128 -133l-74 67c48 46.667 104.667 82.667 170 108z" />
    <glyph glyph-name="icircumflex" unicode="&#xee;" horiz-adv-x="287" 
d="M63 434h119c-22.667 -186 -34 -282 -34 -288c0 -10 4 -18.5 12 -25.5s17.333 -10.5 28 -10.5c12.667 0 26 4.66699 40 14l38 -85c-24.667 -16.667 -45.834 -28.667 -63.501 -36s-38.5 -11 -62.5 -11c-27.333 0 -53.166 9.66699 -77.499 29s-36.5 38.333 -36.5 57zM44 515
l-36 41l113 144h119l44 -158l-51 -20l-63 88z" />
    <glyph glyph-name="idieresis" unicode="&#xef;" horiz-adv-x="287" 
d="M63 434h119c-22.667 -186 -34 -282 -34 -288c0 -10 4 -18.5 12 -25.5s17.333 -10.5 28 -10.5c12.667 0 26 4.66699 40 14l38 -85c-24.667 -16.667 -45.834 -28.667 -63.501 -36s-38.5 -11 -62.5 -11c-27.333 0 -53.166 9.66699 -77.499 29s-36.5 38.333 -36.5 57zM4 626
c0 14.667 5.33301 27.334 16 38.001s23.334 16 38.001 16s27.334 -5.33301 38.001 -16s16 -23.334 16 -38.001s-5.33301 -27.334 -16 -38.001s-23.334 -16 -38.001 -16s-27.334 5.33301 -38.001 16s-16 23.334 -16 38.001zM180 624c0 14.667 5.33301 27.334 16 38.001
s23.334 16 38.001 16s27.334 -5.33301 38.001 -16s16 -23.334 16 -38.001s-5.33301 -27.334 -16 -38.001s-23.334 -16 -38.001 -16s-27.334 5.33301 -38.001 16s-16 23.334 -16 38.001z" />
    <glyph glyph-name="ntilde" unicode="&#xf1;" horiz-adv-x="575" 
d="M194 434l-0.00390625 -74c2 1.33301 9.66699 8 23 20s22.833 20 28.5 24s14.834 9.83301 27.501 17.5s25.334 13 38.001 16s26.334 4.5 41.001 4.5c29.333 0 54.333 -8.16699 75 -24.5s31 -38.833 31 -67.5c0 -28 -2.33301 -63.667 -7 -107s-7 -79 -7 -107
c0 -8 3.16699 -14.333 9.5 -19s13.833 -7 22.5 -7l40 6l33 -91c-48.667 -26 -88.334 -39 -119.001 -39c-32 0 -59.333 11.167 -82 33.5s-34 49.5 -34 81.5c0 24 2.66699 55 8 93s8 63.333 8 76c0 18.667 -6.66699 28 -20 28c-22.667 0 -43.167 -8.83301 -61.5 -26.5
s-34.166 -43.834 -47.499 -78.501s-23.666 -65.167 -30.999 -91.5s-15.333 -60.166 -24 -101.499h-112l50 434h110zM160.996 578l-43.999 58c21.333 21.333 49 32 83 32c16.667 0 37.5 -4.66699 62.5 -14s45.833 -14 62.5 -14c5.33301 0 10.5 0.666992 15.5 2
s9.16699 2.33301 12.5 3s7.83301 2.66699 13.5 6s9.16699 5.5 10.5 6.5l11.5 9c6.33301 5 9.83301 7.5 10.5 7.5l50 -49c-14.667 -14.667 -25.834 -25.5 -33.501 -32.5s-18.5 -13.833 -32.5 -20.5s-28.667 -10 -44 -10c-14.667 0 -32.667 4.66699 -54 14s-39.333 14 -54 14
c-28 0 -51.333 -4 -70 -12z" />
    <glyph glyph-name="ograve" unicode="&#xf2;" 
d="M228 100c28 0 51 15.832 69 47.499s27 66.5 27 104.5c0 21.333 -6 40 -18 56s-27.667 24 -47 24c-32 0 -57.833 -13.667 -77.5 -41s-29.5 -59 -29.5 -95c0 -25.333 7 -47.666 21 -66.999s32.333 -29 55 -29zM231 -17.001c-60.667 0 -109.5 20.167 -146.5 60.5
s-55.5 96.833 -55.5 169.5c0 63.333 22.667 117.333 68 162s100 67 164 67c53.333 0 99 -18.833 137 -56.5s57 -83.167 57 -136.5c0 -71.333 -21 -133.5 -63 -186.5s-95.667 -79.5 -161 -79.5zM248 506.999l-44 146l52 21c39.333 -46 65 -91 77 -135z" />
    <glyph glyph-name="oacute" unicode="&#xf3;" 
d="M228 100c28 0 51 15.832 69 47.499s27 66.5 27 104.5c0 21.333 -6 40 -18 56s-27.667 24 -47 24c-32 0 -57.833 -13.667 -77.5 -41s-29.5 -59 -29.5 -95c0 -25.333 7 -47.666 21 -66.999s32.333 -29 55 -29zM231 -17.001c-60.667 0 -109.5 20.167 -146.5 60.5
s-55.5 96.833 -55.5 169.5c0 63.333 22.667 117.333 68 162s100 67 164 67c53.333 0 99 -18.833 137 -56.5s57 -83.167 57 -136.5c0 -71.333 -21 -133.5 -63 -186.5s-95.667 -79.5 -161 -79.5zM361 632.999l-128.001 -133l-74 67c48.667 46.667 105.334 82.667 170.001 108z
" />
    <glyph glyph-name="ocircumflex" unicode="&#xf4;" 
d="M228 100c28 0 51 15.832 69 47.499s27 66.5 27 104.5c0 21.333 -6 40 -18 56s-27.667 24 -47 24c-32 0 -57.833 -13.667 -77.5 -41s-29.5 -59 -29.5 -95c0 -25.333 7 -47.666 21 -66.999s32.333 -29 55 -29zM231 -17.001c-60.667 0 -109.5 20.167 -146.5 60.5
s-55.5 96.833 -55.5 169.5c0 63.333 22.667 117.333 68 162s100 67 164 67c53.333 0 99 -18.833 137 -56.5s57 -83.167 57 -136.5c0 -71.333 -21 -133.5 -63 -186.5s-95.667 -79.5 -161 -79.5zM169 514.999l-36 41l113 144h119l44 -158l-51 -20l-63 88z" />
    <glyph glyph-name="otilde" unicode="&#xf5;" 
d="M228 100c28 0 51 15.832 69 47.499s27 66.5 27 104.5c0 21.333 -6 40 -18 56s-27.667 24 -47 24c-32 0 -57.833 -13.667 -77.5 -41s-29.5 -59 -29.5 -95c0 -25.333 7 -47.666 21 -66.999s32.333 -29 55 -29zM231 -17.001c-60.667 0 -109.5 20.167 -146.5 60.5
s-55.5 96.833 -55.5 169.5c0 63.333 22.667 117.333 68 162s100 67 164 67c53.333 0 99 -18.833 137 -56.5s57 -83.167 57 -136.5c0 -71.333 -21 -133.5 -63 -186.5s-95.667 -79.5 -161 -79.5zM149 577.999l-43.999 58c21.333 21.333 49 32 83 32
c16.667 0 37.5 -4.66699 62.5 -14s45.833 -14 62.5 -14c5.33301 0 10.5 0.666992 15.5 2s9.16699 2.33301 12.5 3s7.83301 2.66699 13.5 6s9.16699 5.5 10.5 6.5l11.5 9c6.33301 5 9.83301 7.5 10.5 7.5l50 -49c-14.667 -14.667 -25.834 -25.5 -33.501 -32.5
s-18.5 -13.833 -32.5 -20.5s-28.667 -10 -44 -10c-14.667 0 -32.667 4.66699 -54 14s-39.333 14 -54 14c-28 0 -51.333 -4 -70 -12z" />
    <glyph glyph-name="odieresis" unicode="&#xf6;" 
d="M228 100c28 0 51 15.832 69 47.499s27 66.5 27 104.5c0 21.333 -6 40 -18 56s-27.667 24 -47 24c-32 0 -57.833 -13.667 -77.5 -41s-29.5 -59 -29.5 -95c0 -25.333 7 -47.666 21 -66.999s32.333 -29 55 -29zM231 -17.001c-60.667 0 -109.5 20.167 -146.5 60.5
s-55.5 96.833 -55.5 169.5c0 63.333 22.667 117.333 68 162s100 67 164 67c53.333 0 99 -18.833 137 -56.5s57 -83.167 57 -136.5c0 -71.333 -21 -133.5 -63 -186.5s-95.667 -79.5 -161 -79.5zM135 625.999c0 14.667 5.16699 27.334 15.5 38.001s23.166 16 38.499 16
s28.166 -5.33301 38.499 -16s15.5 -23.334 15.5 -38.001s-5.16699 -27.334 -15.5 -38.001s-23.166 -16 -38.499 -16s-28.166 5.33301 -38.499 16s-15.5 23.334 -15.5 38.001zM311 623.999c0 14.667 5.16699 27.334 15.5 38.001s23.166 16 38.499 16
s28.166 -5.33301 38.499 -16s15.5 -23.334 15.5 -38.001s-5.16699 -27.334 -15.5 -38.001s-23.166 -16 -38.499 -16s-28.166 5.33301 -38.499 16s-15.5 23.334 -15.5 38.001z" />
    <glyph glyph-name="oslash" unicode="&#xf8;" 
d="M57 -24l-50.001 48l49 51c-21.333 36.667 -32 82.667 -32 138c0 63.333 22.667 117.333 68 162s100 67 164 67c44.667 0 84 -13 118 -39l37 37l50 -48l-40 -41c19.333 -32 29 -66 29 -102c0 -71.333 -21 -133.5 -63 -186.5s-95.667 -79.5 -161 -79.5
c-49.333 0 -90.666 13 -123.999 39zM187.999 110c11.333 -6.66699 23 -10 35 -10c27.333 0 49.833 15 67.5 45s27.167 63.333 28.5 100zM148.999 171l143.001 146.999c-10.667 9.33301 -23.334 14 -38.001 14c-32 0 -57.833 -13.667 -77.5 -41s-29.5 -59 -29.5 -95
c0 -11.333 0.666992 -19.666 2 -24.999z" />
    <glyph glyph-name="ugrave" unicode="&#xf9;" horiz-adv-x="572" 
d="M183 434c-17.333 -113.333 -25.998 -206.667 -25.998 -280c0 -7.33301 2.83301 -13.5 8.5 -18.5s12.167 -7.5 19.5 -7.5c19.333 0 37.5 9.66699 54.5 29s31.667 45 44 77s22.666 64.5 30.999 97.5s15.166 67.167 20.499 102.5h118
c-17.333 -169.333 -26 -260.666 -26 -273.999c0 -10.667 2.66699 -20.334 8 -29.001s12.666 -13 21.999 -13c14.667 0 29.334 4.66699 44.001 14l46 -92c-16 -11.333 -36.333 -21.833 -61 -31.5s-47 -14.5 -67 -14.5c-26.667 0 -50.5 9.66699 -71.5 29
s-36.167 41.333 -45.5 66c-19.333 -22 -35 -38.5 -47 -49.5s-28.833 -22 -50.5 -33s-44.167 -16.5 -67.5 -16.5c-28 0 -51.667 9.33301 -71 28s-29 42 -29 70c0 12 2.5 46.833 7.5 104.5s10.167 112.167 15.5 163.5l7 78h116zM257.002 506.999l-44 146l52 21
c39.333 -46 65 -91 77 -135z" />
    <glyph glyph-name="uacute" unicode="&#xfa;" horiz-adv-x="572" 
d="M183 434c-17.333 -113.333 -25.998 -206.667 -25.998 -280c0 -7.33301 2.83301 -13.5 8.5 -18.5s12.167 -7.5 19.5 -7.5c19.333 0 37.5 9.66699 54.5 29s31.667 45 44 77s22.666 64.5 30.999 97.5s15.166 67.167 20.499 102.5h118
c-17.333 -169.333 -26 -260.666 -26 -273.999c0 -10.667 2.66699 -20.334 8 -29.001s12.666 -13 21.999 -13c14.667 0 29.334 4.66699 44.001 14l46 -92c-16 -11.333 -36.333 -21.833 -61 -31.5s-47 -14.5 -67 -14.5c-26.667 0 -50.5 9.66699 -71.5 29
s-36.167 41.333 -45.5 66c-19.333 -22 -35 -38.5 -47 -49.5s-28.833 -22 -50.5 -33s-44.167 -16.5 -67.5 -16.5c-28 0 -51.667 9.33301 -71 28s-29 42 -29 70c0 12 2.5 46.833 7.5 104.5s10.167 112.167 15.5 163.5l7 78h116zM366.002 632.999l-128 -133l-74 67
c48 46.667 104.667 82.667 170 108z" />
    <glyph glyph-name="ucircumflex" unicode="&#xfb;" horiz-adv-x="572" 
d="M183 434c-17.333 -113.333 -25.998 -206.667 -25.998 -280c0 -7.33301 2.83301 -13.5 8.5 -18.5s12.167 -7.5 19.5 -7.5c19.333 0 37.5 9.66699 54.5 29s31.667 45 44 77s22.666 64.5 30.999 97.5s15.166 67.167 20.499 102.5h118
c-17.333 -169.333 -26 -260.666 -26 -273.999c0 -10.667 2.66699 -20.334 8 -29.001s12.666 -13 21.999 -13c14.667 0 29.334 4.66699 44.001 14l46 -92c-16 -11.333 -36.333 -21.833 -61 -31.5s-47 -14.5 -67 -14.5c-26.667 0 -50.5 9.66699 -71.5 29
s-36.167 41.333 -45.5 66c-19.333 -22 -35 -38.5 -47 -49.5s-28.833 -22 -50.5 -33s-44.167 -16.5 -67.5 -16.5c-28 0 -51.667 9.33301 -71 28s-29 42 -29 70c0 12 2.5 46.833 7.5 104.5s10.167 112.167 15.5 163.5l7 78h116zM182.002 514.999l-36 41l113 144h119l44 -158
l-51 -20l-63 88z" />
    <glyph glyph-name="udieresis" unicode="&#xfc;" horiz-adv-x="572" 
d="M183 434c-17.333 -113.333 -25.998 -206.667 -25.998 -280c0 -7.33301 2.83301 -13.5 8.5 -18.5s12.167 -7.5 19.5 -7.5c19.333 0 37.5 9.66699 54.5 29s31.667 45 44 77s22.666 64.5 30.999 97.5s15.166 67.167 20.499 102.5h118
c-17.333 -169.333 -26 -260.666 -26 -273.999c0 -10.667 2.66699 -20.334 8 -29.001s12.666 -13 21.999 -13c14.667 0 29.334 4.66699 44.001 14l46 -92c-16 -11.333 -36.333 -21.833 -61 -31.5s-47 -14.5 -67 -14.5c-26.667 0 -50.5 9.66699 -71.5 29
s-36.167 41.333 -45.5 66c-19.333 -22 -35 -38.5 -47 -49.5s-28.833 -22 -50.5 -33s-44.167 -16.5 -67.5 -16.5c-28 0 -51.667 9.33301 -71 28s-29 42 -29 70c0 12 2.5 46.833 7.5 104.5s10.167 112.167 15.5 163.5l7 78h116zM140.002 625.999
c0 14.667 5.33301 27.334 16 38.001s23.334 16 38.001 16s27.334 -5.33301 38.001 -16s16 -23.334 16 -38.001s-5.33301 -27.334 -16 -38.001s-23.334 -16 -38.001 -16s-27.334 5.33301 -38.001 16s-16 23.334 -16 38.001zM316.002 623.999
c0 14.667 5.33301 27.334 16 38.001s23.334 16 38.001 16s27.334 -5.33301 38.001 -16s16 -23.334 16 -38.001s-5.33301 -27.334 -16 -38.001s-23.334 -16 -38.001 -16s-27.334 5.33301 -38.001 16s-16 23.334 -16 38.001z" />
    <glyph glyph-name="questiondown" unicode="&#x152;" horiz-adv-x="946" 
d="M469 674l426.998 0.00195312l-20 -110h-252l-21 -152h207l-14 -106h-203c-7.33301 -77.333 -11 -120 -11 -128c0 -20.667 7 -38.834 21 -54.501s31 -23.5 51 -23.5c26.667 0 52.5 3 77.5 9s45.667 12.5 62 19.5s38.5 17.5 66.5 31.5l56 -84
c-39.333 -20.667 -69.5 -35.834 -90.5 -45.501s-48.667 -18.834 -83 -27.501s-69.166 -13 -104.499 -13c-64 0 -113.667 16.333 -149 49c-50 -37.333 -106.667 -56 -170 -56c-83.333 0 -152.166 28.167 -206.499 84.5s-81.5 130.5 -81.5 222.5
c0 63.333 14.667 125.333 44 186s71.833 111.334 127.5 152.001s117.167 61 184.5 61c28.667 0 56 -5 82 -15zM492.998 520.002c-25.333 38.667 -63 57.999 -113 57.999c-43.333 0 -81.5 -14.833 -114.5 -44.5s-57 -65.667 -72 -108s-22.5 -86.166 -22.5 -131.499
c0 -52.667 12 -99.167 36 -139.5s58 -60.5 102 -60.5c58 0 105.333 21.667 142 65z" />
    <glyph glyph-name="uni00B9" unicode="&#x153;" horiz-adv-x="762" 
d="M562 446l-1 1c50 0 90.167 -12.667 120.5 -38s45.5 -59.333 45.5 -102c0 -48 -19.167 -83.5 -57.5 -106.5s-88.5 -34.5 -150.5 -34.5c-24.667 0 -43.334 0.666992 -56.001 2c0 -23.333 9.66699 -41.333 29 -54s42.333 -19 69 -19c32 0 71 9.66699 117 29l37 -88
c-69.333 -34.667 -130 -52 -182 -52c-58.667 0 -108.667 21.667 -150 65c-41.333 -43.333 -90.666 -65 -147.999 -65c-60.667 0 -109.5 20.167 -146.5 60.5s-55.5 96.833 -55.5 169.5c0 63.333 22.833 117.5 68.5 162.5s100.167 67.5 163.5 67.5
c54.667 0 100.667 -19.333 138 -58c42 40 95 60 159 60zM467 279c11.333 -5.33301 33 -8.00098 65 -8.00098c16.667 0 31.5 4.5 44.5 13.5s19.5 20.833 19.5 35.5c0 10.667 -3.5 19.334 -10.5 26.001s-16.5 10 -28.5 10c-18.667 0 -37.167 -9.33301 -55.5 -28
s-29.833 -35 -34.5 -49zM234 97.999c28 0 50.999 16.167 68.999 48.5s27 67.833 27 106.5c0 22 -6.16699 41.5 -18.5 58.5s-28.5 25.5 -48.5 25.5c-32.667 0 -58.667 -14 -78 -42s-29 -60.667 -29 -98c0 -26 7.33301 -49 22 -69s33.334 -30 56.001 -30z" />
    <glyph glyph-name="circonflexe" unicode="&#x2c6;" horiz-adv-x="326" 
d="M56 321l-36 41l113 144h119l44 -158l-51 -20l-63 88z" />
    <glyph glyph-name="braceright" unicode="&#x2dc;" horiz-adv-x="385" 
d="M67 578l-43.999 58c21.333 21.333 49 32 83 32c16.667 0 37.5 -4.66699 62.5 -14s45.833 -14 62.5 -14c5.33301 0 10.5 0.666992 15.5 2s9.16699 2.33301 12.5 3s7.83301 2.66699 13.5 6s9.16699 5.5 10.5 6.5l11.5 9c6.33301 5 9.83301 7.5 10.5 7.5l50 -49
c-14.667 -14.667 -25.834 -25.5 -33.501 -32.5s-18.5 -13.833 -32.5 -20.5s-28.667 -10 -44 -10c-14.667 0 -32.667 4.66699 -54 14s-39.333 14 -54 14c-28 0 -51.333 -4 -70 -12z" />
    <glyph glyph-name=".null" horiz-adv-x="0" 
 />
    <glyph glyph-name="nonmarkingreturn" horiz-adv-x="333" 
 />
    </font>
</defs>
</svg>
